<?xml version="1.0" encoding="utf-8"?>
<!-- Generator: Adobe Illustrator 27.8.0, SVG Export Plug-In . SVG Version: 6.00 Build 0)  -->
<svg version="1.1" id="Layer_2_00000166660338915514849040000018415018640452625026_"
	 xmlns="http://www.w3.org/2000/svg" xmlns:xlink="http://www.w3.org/1999/xlink" x="0px" y="0px" viewBox="0 0 600 400"
	 style="enable-background:new 0 0 600 400;" xml:space="preserve">
<style type="text/css">
	.st0{fill:#CCA750;}
	.st1{opacity:0.72;fill:#BD7A59;enable-background:new    ;}
	.st2{fill:#995F41;}
	.st3{fill:#A3966D;}
	.st4{fill:#9D9BAE;}
	.st5{fill:#E6BA5B;}
	.st6{fill:#E1C364;}
	.st7{fill:#D2AA57;}
	.st8{fill:#9484A8;}
	.st9{fill:#795887;}
	.st10{fill:#604C6A;}
	.st11{opacity:0.15;fill:#FFFFFF;enable-background:new    ;}
	.st12{filter:url(#Adobe_OpacityMaskFilter);}
	.st13{clip-path:url(#SVGID_00000097465673952377691160000006240696654108323464_);}
	
		.st14{clip-path:url(#SVGID_00000000211279011790710240000004575132168061199023_);fill:url(#SVGID_00000044143187925830403910000015284368064339696560_);}
	.st15{mask:url(#SVGID_1_);fill:url(#SVGID_00000120550100496980616650000017038276781474612121_);}
	.st16{opacity:0.39;fill:url(#SVGID_00000013159586558063600530000008176838974400213931_);enable-background:new    ;}
	.st17{opacity:0.31;fill:#FFFFFF;enable-background:new    ;}
	.st18{fill:url(#SVGID_00000114767920640902164290000011111959454535436169_);}
	.st19{fill:url(#SVGID_00000114075467027626010970000011251542607547143847_);}
</style>
<g>
	
		<ellipse transform="matrix(0.7071 -0.7071 0.7071 0.7071 -48.3714 259.6768)" class="st0" cx="289.3" cy="188.2" rx="99.8" ry="99.8"/>
	<path class="st1" d="M214.1,122.9c28.9-32.7,78.6-37.4,113-9.9c35.5,28.3,41.3,80.1,13,115.7s-80.2,41.5-115.7,13.2
		c-34.4-27.4-40.9-76.9-15.5-112.3c-31.4,43-23.7,103.4,18.3,136.8c43.1,34.3,105.8,27.1,140.2-16s27.4-105.9-15.7-140.2
		C309.6,76.7,249,82.7,214.1,122.9z"/>
	<path class="st2" d="M344,240.3c-32.1,34.3-82,41.5-122,21.5c40.3,36.6,102.5,34.5,140.1-5.3c37.8-40.1,35.5-103.8-4.8-141.2
		c-0.4-0.4-0.6,0-1.1-0.4C380.1,152.9,376.8,205.1,344,240.3z"/>
	<path class="st3" d="M317.8,92.6c-6.9-2-14-3.4-21.4-3.9c-1.2,3.8-2.2,6.7-2.5,7.4c-4.2,9.8-9.3,19.2-15.2,28.1
		c-12,17.9-27.1,32.9-44.5,45.5c-14,10.1-28.9,18.7-44.3,26.2c0,0.4,0,0.7,0.1,1.1c0.5,5.7,1.5,11.2,2.9,16.5
		C244.7,191.6,298.2,148,317.8,92.6z"/>
	<path class="st4" d="M287.5,88.5c-1.3,0.1-2.5,0.1-3.8,0.2s-2.6,0.3-3.8,0.4c-21.9,36.9-52.8,69.6-89.4,91.6
		c-0.6,6.2-0.7,12.5-0.2,18.8c0.1,0.6,0.1,1.2,0.2,1.8c10.5-4.5,20.7-10.4,29.6-16.9c20.2-14.8,39.5-31.2,55.2-50.7
		c10.9-13.5,20-28.5,26.1-44.7C296.8,88.6,292.2,88.4,287.5,88.5z"/>
	<path class="st5" d="M204.9,241.3c60.7-26.9,110.6-76.2,140.1-135.9c-3.6-2.5-7.4-4.7-11.4-6.6c-26.7,58.6-75,107.1-133.5,134.1
		C201.6,235.8,203.2,238.6,204.9,241.3z"/>
	<path class="st6" d="M365.1,145.6c2.6-4.3,5.1-8.8,6.7-13.6c-5-7.4-11-14-17.8-19.8c-11.5,26.2-27.9,50.2-47,71.5
		c-22.1,24.6-47.9,45.8-75.2,64.5c-4.7,3.2-9.5,6.4-14.6,8.9c4.3,4.5,9,8.5,14,12.2C285.1,239.5,333.5,198.4,365.1,145.6z"/>
	<g>
		<path class="st7" d="M333.7,98.8c-2.1,4.7-4.5,9.3-6.9,13.9c0.1,0.1,0.2,0.1,0.3,0.2c3.4,2.7,6.5,5.6,9.3,8.7
			c3-5.3,5.9-10.7,8.6-16.1C341.4,103,337.6,100.8,333.7,98.8z"/>
		<path class="st7" d="M371.8,132.1c-5-7.4-11-14-17.8-19.8c-2.9,6.6-6.2,13.1-9.7,19.5c5.7,8.6,9.6,18,11.8,27.8
			c3.1-4.6,6.1-9.2,9-13.9C367.7,141.3,370.1,136.8,371.8,132.1z"/>
	</g>
	<path class="st8" d="M280.6,88.8c-1.2,0.1-2.5,0.3-3.7,0.4c-21.3,35.9-51.3,67.5-86.8,88.9c-0.6,6.1-0.7,12.4-0.1,18.8
		c0,0.4,0.1,0.9,0.2,1.3c10.2-4.3,20.1-10.1,28.8-16.4c19.6-14.4,38.3-30.3,53.6-49.2c10.6-13.2,19.5-28,25.5-43.8
		C292.3,88.4,286.5,88.3,280.6,88.8z"/>
	<path class="st9" d="M280.6,88.8c-11.9,1-23.2,4.2-33.5,8.9c-5.7,12.8-14.7,24-25.1,33.5c-7.9,7.2-16.3,13.4-25.1,19.3
		c-4.4,10.7-6.9,22.3-7.3,34.4c6.6-3.3,13-6.8,19-11c9.2-6.4,17.9-13.4,26.1-21c16.4-15.2,30.6-32.7,42-51.9
		c2.5-4.1,4.7-8.2,6.7-12.5C282.5,88.7,281.6,88.7,280.6,88.8z"/>
	<path class="st10" d="M195.9,153.1c11.7-7.3,22.7-15.6,32.4-25.5c9-9.2,16.8-19.8,22.4-31.4C225.3,106.9,205.5,127.6,195.9,153.1z"
		/>
	<path class="st11" d="M280.6,88.8c-54.9,4.8-95.5,53.2-90.7,108.1c1,11.6,4,22.6,8.6,32.7c35.5,9.1,71.8-2.7,98.7-31.3
		c27.8-29.5,37.9-69,24.8-104.4C309.1,89.5,295.1,87.6,280.6,88.8z"/>
	<g>
		<g>
			<defs>
				<filter id="Adobe_OpacityMaskFilter" filterUnits="userSpaceOnUse" x="197.9" y="100.2" width="118.7" height="117.6">
					<feColorMatrix  type="matrix" values="1 0 0 0 0  0 1 0 0 0  0 0 1 0 0  0 0 0 1 0"/>
				</filter>
			</defs>
			<mask maskUnits="userSpaceOnUse" x="197.9" y="100.2" width="118.7" height="117.6" id="SVGID_1_">
				<g class="st12">
					<g>
						<defs>
							<polygon id="SVGID_00000018957377068581109410000016309816687770814627_" points="1.1,1 2.1,1 1.1,2 							"/>
						</defs>
						<defs>
							<polygon id="SVGID_00000034060225218062224320000010645580245938002822_" points="-0.9,-1 -1.9,-1 -0.9,-2 							"/>
						</defs>
						<clipPath id="SVGID_00000140707205708745663240000001295852525424827539_">
							<use xlink:href="#SVGID_00000018957377068581109410000016309816687770814627_"  style="overflow:visible;"/>
						</clipPath>
						
							<clipPath id="SVGID_00000111904514007211117820000017876982530866204555_" style="clip-path:url(#SVGID_00000140707205708745663240000001295852525424827539_);">
							<use xlink:href="#SVGID_00000034060225218062224320000010645580245938002822_"  style="overflow:visible;"/>
						</clipPath>
						
							<radialGradient id="SVGID_00000056400824785378748870000013974225712190834613_" cx="-68.4532" cy="669.7389" r="109.007" gradientTransform="matrix(2.800000e-02 -0.8785 -0.9049 0.1609 839.3831 -33.4477)" gradientUnits="userSpaceOnUse">
							<stop  offset="0.2253" style="stop-color:#F4F4F4"/>
							<stop  offset="1" style="stop-color:#000000"/>
						</radialGradient>
						
							<path style="clip-path:url(#SVGID_00000111904514007211117820000017876982530866204555_);fill:url(#SVGID_00000056400824785378748870000013974225712190834613_);" d="
							M221.1,121.3c25.2-24.2,65.4-28.9,86.5-7.2c21.1,21.6,1.9,41.2-22.1,71.1c-19.8,24.6-53.7,45.1-74.8,23.4
							C189.5,186.9,195.9,145.4,221.1,121.3z"/>
					</g>
				</g>
			</mask>
			
				<radialGradient id="SVGID_00000028322116259701309090000003555359695553941687_" cx="-68.4532" cy="669.7389" r="109.007" gradientTransform="matrix(2.800000e-02 -0.8785 -0.9049 0.1609 839.3831 -33.4477)" gradientUnits="userSpaceOnUse">
				<stop  offset="0.2253" style="stop-color:#F4F4F4"/>
				<stop  offset="1" style="stop-color:#000000"/>
			</radialGradient>
			<path style="mask:url(#SVGID_1_);fill:url(#SVGID_00000028322116259701309090000003555359695553941687_);" d="M221.1,121.3
				c25.2-24.2,65.4-28.9,86.5-7.2c21.1,21.6,1.9,41.2-22.1,71.1c-19.8,24.6-53.7,45.1-74.8,23.4
				C189.5,186.9,195.9,145.4,221.1,121.3z"/>
		</g>
	</g>
	
		<radialGradient id="SVGID_00000050629316395094701690000005572111297981637512_" cx="-68.4532" cy="669.7389" r="109.007" gradientTransform="matrix(2.800000e-02 -0.8785 -0.9049 0.1609 839.3831 -33.4477)" gradientUnits="userSpaceOnUse">
		<stop  offset="0.2253" style="stop-color:#FFFFFF"/>
		<stop  offset="1" style="stop-color:#F3F9F7"/>
	</radialGradient>
	<path style="opacity:0.39;fill:url(#SVGID_00000050629316395094701690000005572111297981637512_);enable-background:new    ;" d="
		M221.1,121.3c25.2-24.2,65.4-28.9,86.5-7.2c21.1,21.6,1.9,41.2-22.1,71.1c-19.8,24.6-53.7,45.1-74.8,23.4
		C189.5,186.9,195.9,145.4,221.1,121.3z"/>
	<path class="st17" d="M388.7,179.5c-4.8-54.9-53.2-95.5-108.1-90.7c-5.5,0.5-10.8,1.4-16,2.7c22.2-4.8,46.1-2.2,67.7,9.2
		c48.3,25.6,66.5,85.4,40.7,133.5c-23.3,43.3-74.3,62.4-119.5,47.1c13.7,5.3,28.8,7.6,44.5,6.2C352.9,282.8,393.5,234.4,388.7,179.5
		z"/>
	<g>
		
			<linearGradient id="SVGID_00000135681446573518237300000004996298520632881587_" gradientUnits="userSpaceOnUse" x1="271.8768" y1="228.5199" x2="331.4807" y2="167.8019" gradientTransform="matrix(1 0 0 -1 0 399.8898)">
			<stop  offset="0" style="stop-color:#C39783"/>
			<stop  offset="1" style="stop-color:#FFF1E6"/>
		</linearGradient>
		<path style="fill:url(#SVGID_00000135681446573518237300000004996298520632881587_);" d="M448.3,60.9
			c-11.1-11.8-51.8,7.2-102.7,45c2.9,2,5.7,4.2,8.4,6.5c29.4-19.5,53.4-29.3,61.5-20.7c8.8,9.4-5.3,36-30.2,67.3
			c-0.2,0.2-0.3,0.4-0.5,0.6c-16.8,21.1-38.4,44.3-61.2,65.6c-22.6,21.2-46.9,41.2-69,56.6c-0.3,0.2-0.7,0.5-1,0.7
			c-32.8,22.8-60.3,35.2-69.1,25.8c-8.1-8.7,3.3-32.2,24.8-60.4c-2.1-2.8-4.1-5.7-5.9-8.8c-41.1,48.5-62.7,88.2-51.7,100
			c11.8,12.6,57.4-9.9,113-52.8c0.4-0.3,0.9-0.7,1.3-1.1c20.1-15.6,41.5-33.9,63.1-54.1c21.7-20.4,41.4-40.7,58.3-59.9
			c0.3-0.3,0.6-0.6,0.8-0.9C434.9,117.5,460.1,73.4,448.3,60.9z"/>
		
			<linearGradient id="SVGID_00000051366885267971693680000004996136898525773214_" gradientUnits="userSpaceOnUse" x1="271.8775" y1="228.5207" x2="331.4816" y2="167.8025" gradientTransform="matrix(1 0 0 -1 0 399.8898)">
			<stop  offset="0" style="stop-color:#C39783"/>
			<stop  offset="1" style="stop-color:#FFF1E6"/>
		</linearGradient>
		<path style="fill:url(#SVGID_00000051366885267971693680000004996136898525773214_);" d="M187.8,305.4c6.1,6.5,29.3-2.4,61.6-24.7
			c0.3-0.2,0.6-0.4,0.9-0.6c20.5-14.2,44.7-33.7,70.5-57.9c26-24.4,47.1-47.4,62.6-67.1c0.1-0.2,0.3-0.3,0.4-0.5
			c24.2-30.9,34.6-53.4,28.5-59.9c-5.7-6.1-26.3,1.3-55.3,20.4c1.5,1.4,3,2.9,4.4,4.4c13.8-7.4,23.7-9.9,27.4-5.9
			c4,4.3,0,15.4-9.9,30.5c-0.1,0.1-0.1,0.2-0.2,0.3c-12.9,19.5-35.6,45.6-63.7,71.9c-27.9,26.2-55.1,47.1-75.4,58.7
			c-0.2,0.1-0.5,0.3-0.7,0.4c-15.7,8.9-27,12.2-31.1,8c-3.7-4-0.5-13.9,7.9-27.3c-1.4-1.5-2.7-3-4-4.6
			C190.9,279.1,182.1,299.3,187.8,305.4z"/>
	</g>
</g>
</svg>
