<?xml version="1.0" encoding="utf-8"?>
<!-- Generator: Adobe Illustrator 27.8.0, SVG Export Plug-In . SVG Version: 6.00 Build 0)  -->
<svg version="1.1" id="Layer_2_00000017476566814798217450000014579018398505221265_"
	 xmlns="http://www.w3.org/2000/svg" xmlns:xlink="http://www.w3.org/1999/xlink" x="0px" y="0px" viewBox="0 0 600 400"
	 style="enable-background:new 0 0 600 400;" xml:space="preserve">
<style type="text/css">
	.st0{fill:#F6D57C;}
	.st1{opacity:0.47;fill:#BD6420;enable-background:new    ;}
	.st2{fill:#A68A53;}
	.st3{fill:#CBC385;}
	.st4{fill:#CBAA75;}
	.st5{fill:#DB7227;}
	.st6{fill:#A3EAF0;}
	.st7{fill:#D27D28;}
	.st8{fill:#A57045;}
	.st9{fill:#A3D7F0;}
	.st10{fill:#ECB24F;}
	.st11{fill:#DE5F2A;}
	.st12{fill:#C0641F;}
	.st13{fill:#FFFAE6;}
	.st14{opacity:0.24;fill:#FFFFFF;enable-background:new    ;}
	.st15{opacity:0.15;fill:#FFFFFF;enable-background:new    ;}
	.st16{filter:url(#Adobe_OpacityMaskFilter);}
	.st17{clip-path:url(#SVGID_00000011729434293759690360000005001574131064416178_);}
	
		.st18{clip-path:url(#SVGID_00000056394057230477294230000004693888518001921457_);fill:url(#SVGID_00000155856904918276023490000016181474695837794228_);}
	.st19{mask:url(#SVGID_1_);fill:url(#SVGID_00000166674828276141560060000006202118772041486775_);}
	.st20{opacity:0.49;fill:url(#SVGID_00000160157246330006968230000001579388926114860981_);enable-background:new    ;}
</style>
<g>
	<circle class="st0" cx="300" cy="200" r="122.9"/>
	<path class="st1" d="M207.2,119.5c35.6-40.3,96.8-46.1,139.3-12.3c43.8,34.9,50.9,98.7,16,142.6c-35,43.9-98.8,51.2-142.6,16.3
		c-42.4-33.8-50.5-94.8-19.1-138.4c-38.7,53-29.2,127.4,22.5,168.6c53.1,42.3,130.5,33.4,172.8-19.7
		c42.4-53.2,33.7-130.5-19.3-172.8C325,62.6,250.3,69.9,207.2,119.5z"/>
	<path class="st2" d="M367.3,264.2c-39.6,42.3-100.6,51.4-149.9,26.8c49.7,45.1,125.9,42.2,172.2-6.9
		c46.6-49.4,43.7-127.9-5.9-174.1c-0.5-0.5-0.8,0-1.3-0.5C411.8,156.5,407.8,220.9,367.3,264.2z"/>
	<path class="st3" d="M369.5,98.7c-19.8-13.6-43.7-21.6-69.5-21.6c-31.9,0-60.9,12.1-82.7,32c6.1,1.6,12.4,2.4,18.7,2.8
		c40.1,3,80.4-2.6,120.1-9C360.7,102.2,365.7,101.1,369.5,98.7z"/>
	<path class="st3" d="M422.5,191.4c-19.3,12.5-41.8,19.6-64.6,23.1c-25.2,3.9-50.8,3.7-76.3,3.6c-35.2-0.2-71-0.6-104.4-11.5
		c0.6,11.8,2.9,23.1,6.6,33.7c16.7,1.7,33.6-2.9,50.5-4.5c39.6-3.7,79.4,9.6,118.9,5.7c17.1-1.7,33.6-6.5,50-11.4
		c5.6-1.7,11.3-3.3,16.9-5c1.7-8.1,2.6-16.5,2.6-25.1C422.9,197.1,422.7,194.2,422.5,191.4z"/>
	<path class="st3" d="M414.1,156.2c0.1-0.3,0.2-0.6,0.3-0.9c-2.2-5.7-4.8-11.1-7.9-16.4c-3.8-1.8-8.2-2.3-12.5-1.9
		c-5.6,0.6-10.9,2.6-16.1,4.6c-7,2.7-14,5.4-21.1,8.1c-5.2,2-10.4,4-15.7,5.5c-17.7,5.1-36.5,5.1-55,5.1c-24.9-0.1-49.8-0.2-74.8-1
		c-8.7-0.3-18.4-1.2-25.1-6.1c-3.7,9.1-6.4,18.7-7.9,28.8c21,3.6,42,7.1,62.9,10.7c1.9,0.3,4,0.7,5.8-0.1c1.8-0.7,3.2-2.9,2.4-4.7
		c-0.6-1.3-2.2-2.2-1.9-3.6c0.3-1.4,2.2-1.7,3.6-1.5c23.8,2.1,46.3,14.9,70.1,13.3c27.4-1.8,49.9-22,76.1-30.1
		C403.8,164.2,411.3,162.2,414.1,156.2z"/>
	<g>
		<path class="st4" d="M422.5,191.4c-7.4,4.8-15.4,8.8-23.6,12.2c-2.2,10.6-5.8,21-10.8,30.9c5.1-1.4,10.3-2.9,15.4-4.4
			c5.6-1.7,11.3-3.3,16.9-5C422.5,214,423.3,202.7,422.5,191.4z"/>
		<path class="st4" d="M401,165c5.4-1.7,10.8-3.9,13.1-8.9c0.1-0.3,0.2-0.6,0.3-0.8c-0.7-1.7-1.4-3.4-2.1-5.1
			c-0.2-0.5-0.5-1-0.7-1.5c-0.5-1-1-2-1.5-3c-0.4-0.8-0.8-1.6-1.2-2.4c-0.3-0.5-0.5-1-0.8-1.5c-0.5-1-1-1.9-1.6-2.9
			c-3.5-1.7-7.5-2.2-11.4-1.9C398.2,146.1,400.1,155.5,401,165z"/>
	</g>
	<path class="st5" d="M297.7,259c-7.9-3.3-15.8-6.6-23.7-10c-6.1-2.6-12-3.4-18.6-3.3c-5.7,0.1-11.5,0.3-16.9,2.4
		c-7.3,2.8-14.6,5.6-21.9,8.4c9.7,9.6,30,20.8,42,21.7C272.8,279.3,286.8,266.9,297.7,259z"/>
	<path class="st5" d="M344.4,254.3c-7.6-0.2-15.3,2.4-21.2,7.2c6.4,2.6,13.6,2.9,20.2,0.8c1.6-0.5,3.2-1.2,4.2-2.6
		c1-1.3,1.1-3.5-0.2-4.6C346.6,254.4,345.4,254.3,344.4,254.3z"/>
	<path class="st5" d="M303.2,256.5c4,1.3,8.4,0,12.7,0.1c6.1,0.2,41.5,1,47.6,1.2c-6,5.6-44.7,5.5-52.8,4.5
		c-7.6-0.9-27.8-0.8-36.5,1.7c1.9-3.5,0.5-9,4.4-9.6C281.5,253.9,300.4,255.5,303.2,256.5z"/>
	<path class="st1" d="M359.1,272.3c-2.2-0.2-4.5-0.4-6.6,0.4s-3.8,3-3.3,5.2c-9.2,4.7-19.2-6.3-29.5-5.9c-5.3,0.2-9.9,3.3-14.6,5.6
		c-17.7,8.7-35.1,16.4-54.2,11.6c-15.4-3.9-31.7-9-46.9-20.3c-1.8-1.3-4.6,0.2-4.1,2.4c0,0.1,0.1,0.2,0.1,0.3
		c13.3,6.6,33.3,27.7,47.7,31c23.5,5.6,52.6,5.8,76.7,3.8c15.7-1.3,22.6-8.7,38.1-11.4c11.8-2.1,20.9-14.7,32.6-17.2
		c0.5-0.6,1-1.3,1.5-2C384.1,274.7,371.6,273.5,359.1,272.3z"/>
	<path class="st5" d="M190.7,256.2c11.8,3.2,41,4,46.4,1.2c11.2-5.8-36.1-5.2-48.7-6C189.1,253,189.9,254.6,190.7,256.2z"/>
	<path class="st5" d="M390.4,250.2c-14,1.8-52.8,5.6-66.1,10.2c37,4.4,56.7-3.9,72.1-5.8c5.8-0.7,10.3-4.5,16-5.2
		c0.7-1.6,1.4-3.2,2-4.9C406.9,247.5,398.6,249.1,390.4,250.2z"/>
	<path class="st6" d="M355.3,235.7c-9-3.3-18.7-4.3-28.2-3c-6.8,1-14.1,3.1-20.3,0c-2.6-1.3-4.9-3.5-7.7-4.3
		c-8.2-2.2-13.2,4.8-21.4,6.9c-8.9,2.3-16.6-7.6-25.8-7.8c-4.9-0.1-9.4,2.7-14.1,4.2c-6.3,2.1-12.1,1.4-18.3-0.9
		c-0.7,1.2-2.7-0.1-2.8-1.5s0.5-2.9-0.1-4.2c-0.9-1.8-3.4-1.8-5.4-1.5c-6.3,1.2-12.5,3.4-18.9,3.7c-4.4,0.2-9-0.6-12.7-2.8
		c1.4,6.8,3.4,13.4,5.8,19.8c1,2.5,21.5,0.4,24.1,0c10.8-1.3,20.9-5.9,31.6-7.2c24.1-2.9,46.1,5.2,68.8,11.5c2.3,0.6,4.7,1.3,7,0.7
		c0.2-0.1,0.5-0.2,0.7-0.3c5-2.4,10.3-3.8,15.7-3.3c29.2,3,58.2-2,85.2-13.5c1.7-6.1,2.9-12.3,3.6-18.7
		C400.6,223.5,378.6,230.6,355.3,235.7z"/>
	<path class="st7" d="M177.6,211.1c0.9,0.1,1.9,0.1,2.8,0.1c23.7,1.1,47.7,11.3,70.4,4.2c-25.1-2-49.9-7.1-73.7-15.1
		C177.1,204,177.3,207.6,177.6,211.1z"/>
	<path class="st7" d="M422.8,198.9c0-5-0.4-9.9-1-14.7c-12.4,12.9-30.7,20.5-48.7,24.4c-23.1,5.1-30.8,20.6-77.5,11
		c35.6-3.7,79.5-4.8,113.6-15.3C413.9,203,418.7,201.3,422.8,198.9z"/>
	<path class="st6" d="M415.5,157.9c-13.7,7.3-29.8,11.7-44.3,17.4c-21.5,8.4-41.7,24.1-64,18.3c-19.4-5-38.8-10.1-58.2-15.1
		c-1.2-0.3-2.4-0.6-3.6-0.4c-2.7,0.4-4.5,3.4-3.8,6c0.8,3.1,4.3,6.2,6.6,2.8c0.1,1.1,0.2,2.2,0.4,3.2c-3.9,0.2-8-2.4-11.4-0.5
		c-1.4,0.8-3,1.3-4.6,1.1c-7-0.7-10.7-7.3-16.7-9.6c-3.8-1.5-8.1-1-12.2-1.5c-5.8-0.6-11.3-3.1-16.9-4.7c-2.1-0.6-4.4-1.1-6.6-1.4
		c-0.9,3.9-1.5,7.8-2,11.8c8.6,3.3,18.1,5.8,26.9,7.9c2.6,0.6,5-1.3,5.2-3.9v-0.1c20.3,8.8,62.3,16.2,64.3,9.2
		c-1.1-0.9-2.2-1.8-3.4-2.7c17.4-4.6,35.1,6.5,53.2,6.7c10.7,0.1,21.1-3.7,31-7.6c17.7-7,45.5-16.1,63.2-27.3
		C417.6,164.3,416.6,161.1,415.5,157.9z"/>
	<path class="st8" d="M406.1,138c-2.2-3.8-4.6-7.4-7.2-10.9c-18.3,5.7-36.9,10.2-55.9,9c-13.9-0.9-27.8-4.8-41.5-2.5
		c-10.2,1.7-32,1.7-41.6,5.4c-25.6,10-45,17.5-71.3,9.2c-0.9,2-1.8,4.1-2.7,6.2c0.2,0.4,0.5,0.8,0.8,1.2c2.2,2.2,5.5,2.6,8.6,2.9
		c51.5,4.5,103.4,4.1,154.9-1.2c1.2-0.1,2.5-0.3,3.4-1.1s0.9-2.6-0.2-3.1c1.3-0.7,2.5-1.3,3.8-2C372.1,143.3,389.6,142.1,406.1,138z
		"/>
	<path class="st7" d="M389.9,116.3c-11.9,5.5-25.3,7.7-38.4,8.5c-16.5,1-33,0-49.4,1.9c-21.3,2.4-42,9.4-63.4,11.2
		c-14.3,1.2-28.7,0.1-42.6-3.2c-3,4.7-5.6,9.6-7.9,14.7c4.4,2,8.8,3.8,13.4,5.2c11.7,3.7,24.5,4.9,36.2,1.3
		c11.1-3.4,21.4-11,32.9-10c5.1,0.5,9.8,2.6,14.8,3.7c5,1.1,11-0.2,15.9-1.7c1.5-0.5,2.5-2,2.4-3.6c-2.5-1.3-5.1-2.5-7.6-3.8
		c2-4.6,8.3-6.6,12.5-4.1c5.2,6.7,14.1,9.8,22.6,10s16.8-2.1,25-4.4c14.9-4.1,29.9-8,44.8-12.1C397.5,125.1,393.9,120.5,389.9,116.3
		z"/>
	<path class="st6" d="M334.7,108.7c13.3-2.1,26.6-4.2,39.8-6.3c-2.1-1.6-4.3-3.2-6.5-4.7c-22.3,7.5-46.2,9.7-69.8,11.8
		c-26.4,2.3-54,4.5-79.4-1.7c-2,1.7-3.9,3.5-5.8,5.4C252.5,121.2,294.5,115,334.7,108.7z"/>
	<g>
		<path class="st9" d="M392.1,225.6c-2.5,6.1-5.5,12.1-9,17.9c12.1-2.4,23.9-6.1,35.4-11c0.1-0.2,0.1-0.4,0.2-0.6
			c0.2-0.6,0.3-1.3,0.5-1.9c0.3-1.3,0.6-2.6,0.9-3.9c0.1-0.4,0.2-0.8,0.2-1.2c0.7-3.7,1.3-7.3,1.7-11.1
			C412.2,218.3,402.2,222.2,392.1,225.6z"/>
		<path class="st9" d="M415.4,158c-4.6,2.5-9.5,4.6-14.4,6.5c0.4,4,0.6,8,0.6,12c6.1-2.8,11.9-5.8,16.9-8.9
			C417.5,164.3,416.5,161.1,415.4,158z"/>
	</g>
	<path class="st10" d="M273.7,253.4c2.6,1.6,5.3,4,5.2,7c-0.1,3.5-3.5,5.8-6.7,7.2c-9.8,4.4-22.1,5.5-30.6-1
		c-1.8-1.4-3.4-3.1-5.3-4.4c0,0,0,0-0.1,0c-2.6-1.8-2.8-5.5-0.2-7.4c4.3-3,9.2-5.1,14.4-5.9C258.4,247.6,266.8,249.2,273.7,253.4z"
		/>
	<path class="st11" d="M270.7,263.5c-8.4,3.3-18,3.4-26.5,0.5c-2.7-0.9-3.4-4.5-1.1-6.2c8.4-5.9,20.7-6,28.8,0.4
		c0.8,0.6,1.6,1.4,1.6,2.4C273.6,262.1,272.1,263,270.7,263.5z"/>
	<path class="st5" d="M302.8,213.9c-34.2-0.2-69.8-1.1-101.9-11.6c-7.7-2.5-16.4-0.4-23.8-3.7c0,0.5,0,1,0,1.5
		c0,2.9,0.1,5.8,0.3,8.7c1.8,1,3.7,1.6,5.7,2.2c21.9,6.3,44.8,8,67.5,9c50.6,2.2,101.8,1.3,151.4-9.4c7.1-1.5,14.3-3.4,20.7-6.5
		c0-1.3,0.1-2.6,0.1-3.9c0-4.3-0.2-8.5-0.6-12.6c-14,9-29.8,15.3-46.1,19.3C352.3,212.8,327.4,214.1,302.8,213.9z"/>
	<g>
		<path class="st12" d="M393.4,131.9c2.5-0.7,5-1.3,7.5-2c-3.4-4.8-7.1-9.4-11-13.7c-1,0.4-1.9,0.8-2.9,1.2
			C389.4,122.2,391.6,127,393.4,131.9z"/>
		<path class="st12" d="M412.5,249.4c0.7-1.6,1.4-3.2,2-4.9c-7.6,2.9-15.9,4.6-24.1,5.6c-3.2,0.4-7.7,0.9-12.8,1.5
			c-1.9,2.6-3.9,5.1-5.9,7.6c9.9-1.7,17.8-3.9,24.8-4.7C402.3,253.9,406.8,250.1,412.5,249.4z"/>
		<path class="st12" d="M422.1,187.5c-7.1,4.5-14.6,8.4-22.5,11.6c-0.7,4.2-1.7,8.3-2.8,12.4c1.7-0.3,3.4-0.7,5.2-1.1
			c7.1-1.5,14.2-3.4,20.7-6.5C422.9,198.4,422.7,192.9,422.1,187.5z"/>
	</g>
	<path class="st13" d="M370,151.4c-1.3,0-2.6,0.4-3.6,1.3c-0.5,0.4-0.5,1.2,0.2,1.4c1.8,0.5,3.6,0,4.9-1.4c0.4-0.5,0.1-1.3-0.5-1.3
		c-0.9,0-1.8,0-2.7,0c-1,0-1,1.5,0,1.5c0.9,0,1.8,0,2.7,0c-0.2-0.4-0.4-0.9-0.5-1.3c-0.9,1-2.1,1.4-3.4,1c0.1,0.5,0.1,0.9,0.2,1.4
		c0.9-0.7,1.8-1,2.8-1C371,152.9,371,151.4,370,151.4z"/>
	<path class="st13" d="M382.6,151.7c-0.8,0-1.5,0-2.3,0c-0.5,0-0.9,0.5-0.7,1c0.4,1.8,3.4,1.8,3.8,0c0.2-1-1.3-1.4-1.5-0.4
		c-0.1,0.4-0.7,0.4-0.8,0c-0.2,0.3-0.5,0.7-0.7,1c0.8,0,1.5,0,2.3,0C383.6,153.3,383.6,151.7,382.6,151.7z"/>
	<path class="st13" d="M362.8,164.3c-1.4-0.2-2.8,0.2-3.9,0.9c-0.6,0.4-0.5,1.2,0.2,1.4c1.6,0.5,3.3-0.1,4.2-1.5
		c0.6-0.8-0.8-1.6-1.3-0.8c-0.6,0.8-1.5,1.1-2.5,0.8c0.1,0.5,0.1,0.9,0.2,1.4c1-0.7,2-0.9,3.2-0.7
		C363.8,166,363.8,164.5,362.8,164.3z"/>
	<path class="st13" d="M261.2,126.1c1.1,0.1,2.1,0.2,3.2,0.2c0.7,0.1,1-0.9,0.5-1.3c-0.7-0.7-1.6-1-2.6-0.6
		c-0.9,0.4-0.5,1.9,0.4,1.5c0.4-0.2,0.7-0.1,1.1,0.2c0.2-0.4,0.4-0.9,0.5-1.3c-1.1-0.1-2.1-0.2-3.2-0.2
		C260.2,124.5,260.2,126,261.2,126.1z"/>
	<path class="st13" d="M272.9,123.2c1.1,0,2.1,0,3.2,0c0.7,0,1-0.8,0.5-1.3c-0.7-0.7-1.6-0.9-2.6-0.6c-0.9,0.3-0.5,1.8,0.4,1.5
		c0.4-0.1,0.7-0.1,1.1,0.2c0.2-0.4,0.4-0.9,0.5-1.3c-1.1,0-2.1,0-3.2,0C271.9,121.6,271.9,123.2,272.9,123.2z"/>
	<path class="st13" d="M216.7,128.5c0.8,0,1.5,0.1,2.3,0.1c0.6,0,1-0.7,0.7-1.2c-0.7-1.1-1.9-1.6-3.1-1.2c-1,0.3-0.6,1.7,0.4,1.5
		c0.6-0.2,1.1,0,1.4,0.5c0.2-0.4,0.4-0.8,0.7-1.2c-0.8,0-1.5-0.1-2.3-0.1C215.7,126.9,215.7,128.4,216.7,128.5z"/>
	<path class="st13" d="M282.5,204.8c1.7,1.1,3.9,0.9,5.4-0.4c0.4-0.3,0.3-1-0.2-1.2c-1.8-0.9-3.7-1.1-5.7-0.7
		c-0.6,0.1-0.7,0.9-0.3,1.3c1.7,1.6,4,2.2,6.2,1.5c0.9-0.3,0.5-1.8-0.4-1.5c-1.7,0.5-3.4,0.1-4.7-1.1c-0.1,0.4-0.2,0.9-0.3,1.3
		c1.5-0.3,3.1-0.2,4.5,0.5c-0.1-0.4-0.1-0.8-0.2-1.2c-1,0.9-2.4,0.9-3.5,0.2C282.4,202.9,281.6,204.3,282.5,204.8z"/>
	<path class="st13" d="M297.9,209.2c0.1,2.3,3.4,1.5,2.4-0.6c-0.4-0.9-1.7-0.1-1.3,0.8c0.1-0.1,0.3-0.1,0.4-0.2
		C299.4,208.2,297.9,208.2,297.9,209.2z"/>
	<path class="st13" d="M391.9,194.1c1.4,1.2,3.8,0.5,4.1-1.4c0.1-0.4-0.2-1-0.7-1c-0.8,0.1-1.6,0.2-2.4,0.2c-1,0.1-1,1.6,0,1.5
		c0.8-0.1,1.6-0.2,2.4-0.2c-0.2-0.3-0.5-0.7-0.7-1c-0.1,0.7-1,1.2-1.6,0.7C392.2,192.3,391.1,193.4,391.9,194.1z"/>
	<path class="st13" d="M376.7,198.5c-0.5-0.8-2.2-0.6-2,0.5c0.2,1.3,1.6,1.4,2.3,0.4c0.3-0.4-0.1-1-0.5-1.1
		c-0.8-0.3-1.5-0.3-2.3-0.2c-1,0.2-0.6,1.6,0.4,1.5c0.5-0.1,0.9,0,1.4,0.2c-0.2-0.4-0.3-0.8-0.5-1.1c0.1,0,0.2,0,0.4,0
		c0.1,0.2,0.2,0.4,0.2,0.5c-0.3,0-0.6,0.1-0.9,0.1C375.9,200.1,377.3,199.3,376.7,198.5z"/>
	<path class="st13" d="M217.2,199c0.8,0,1.6,0,2.4,0c0.7,0,1-0.8,0.5-1.3c-1.2-1.2-2.9-1.5-4.4-0.8c-0.5,0.2-0.4,0.9-0.2,1.2
		c1.3,1.7,3.8,2,5.5,0.7c0.8-0.6,0-1.9-0.8-1.3c-1.2,0.9-2.7,0.7-3.7-0.5c-0.1,0.4-0.1,0.8-0.2,1.2c0.9-0.4,1.8-0.2,2.5,0.5
		c0.2-0.4,0.4-0.9,0.5-1.3c-0.8,0-1.6,0-2.4,0C216.2,197.5,216.2,199,217.2,199z"/>
	<path class="st13" d="M226.2,200.1c1.2,0.1,2.4,0.3,3.6,0.4c0.5,0.1,0.8-0.5,0.7-1c-0.4-1.7-2.2-2.5-3.8-1.7
		c-0.9,0.4-0.1,1.7,0.8,1.3c0.7-0.3,1.4,0.2,1.5,0.8c0.2-0.3,0.5-0.7,0.7-1c-1.2-0.1-2.4-0.3-3.6-0.4
		C225.2,198.5,225.2,200,226.2,200.1z"/>
	<path class="st13" d="M314.7,249.6c1.5-0.1,2.8-0.7,3.7-1.8c0.4-0.5,0.2-1.4-0.5-1.3c-1.2,0.1-2.4,0.2-3.6,0.2c-1,0.1-1,1.6,0,1.5
		c1.2-0.1,2.4-0.2,3.6-0.2c-0.2-0.4-0.4-0.9-0.5-1.3c-0.7,0.8-1.5,1.3-2.6,1.3C313.7,248.2,313.7,249.7,314.7,249.6z"/>
	<path class="st13" d="M363.3,234.7c-1.9-0.1-3.6,0.5-5,1.7c-0.5,0.4-0.1,1.1,0.3,1.3c1.4,0.6,3,0.2,4-0.9c0.5-0.5,0.1-1.3-0.5-1.3
		c-0.8,0-1.5,0-2.3-0.1c-1,0-1,1.5,0,1.5c0.8,0,1.5,0,2.3,0.1c-0.2-0.4-0.4-0.9-0.5-1.3c-0.7,0.7-1.6,0.9-2.5,0.5
		c0.1,0.4,0.2,0.9,0.3,1.3c1.1-0.9,2.5-1.3,4-1.2C364.2,236.3,364.2,234.7,363.3,234.7z"/>
	<path class="st13" d="M205.6,239.2c-0.2,0.3-0.5,0.7-0.7,1c-0.4,0.5,0.1,1.2,0.7,1.2c1.5,0,3.1,0,4.6-0.1c0.6,0,0.9-0.6,0.7-1.2
		c-1.1-2-4-2.4-5.7-0.9c-0.7,0.7,0.4,1.8,1.1,1.1c1-0.9,2.6-0.6,3.3,0.6c0.2-0.4,0.4-0.8,0.7-1.2c-1.5,0-3.1,0-4.6,0
		c0.2,0.4,0.4,0.8,0.7,1.2c0.2-0.3,0.5-0.7,0.7-1C207.5,239.2,206.2,238.4,205.6,239.2z"/>
	<path class="st13" d="M296.7,265.8c1.3,1.3,3.2,1.5,4.9,0.7c0.4-0.2,0.5-0.9,0.2-1.2c-1.4-1.2-3.4-1.4-5-0.3c-0.5,0.4-0.5,1,0,1.3
		c1,0.7,2.2,0.9,3.4,0.6c1-0.2,0.6-1.7-0.4-1.5c-0.8,0.2-1.5,0-2.2-0.5c0,0.4,0,0.9,0,1.3c1-0.7,2.2-0.8,3.1,0.1
		c0.1-0.4,0.1-0.8,0.2-1.2c-1,0.5-2.2,0.3-3-0.5C297.1,264.1,296,265.2,296.7,265.8z"/>
	<path class="st13" d="M381.9,214.5c0.8-0.1,1.5-0.2,2.3-0.4c1-0.2,0.6-1.6-0.4-1.5c-0.8,0.1-1.5,0.2-2.3,0.4
		C380.5,213.1,380.9,214.6,381.9,214.5z"/>
	<path class="st13" d="M356.5,110.6c-0.8,0-1.5-0.1-2.3-0.1c-1-0.1-1,1.4,0,1.5c1.3,0.2,2.7,0.3,4,0.5c0.3,0,0.6-0.3,0.7-0.6
		c0.2-0.7,0-1.4-0.5-1.9c-0.8-0.6-1.9,0.5-1.1,1.1c0.1,0.1,0.1,0.2,0.2,0.4c0.2-0.2,0.5-0.4,0.7-0.6c-1.3-0.2-2.7-0.3-4-0.5
		c0,0.5,0,1,0,1.5c0.8,0,1.5,0.1,2.3,0.1C357.5,112.2,357.5,110.7,356.5,110.6z"/>
	<path class="st13" d="M357.9,110.9c-1-1.8-4-1.8-4.8,0.2c-0.2,0.4-0.1,0.8,0.3,1.1c2,1.5,4.8,0.9,6.2-1c0.6-0.8-0.8-1.6-1.3-0.8
		c-1,1.3-2.8,1.4-4.1,0.5c0.1,0.4,0.2,0.7,0.3,1.1c0.4-0.9,1.7-1,2.2-0.2C357.1,112.5,358.4,111.7,357.9,110.9z"/>
	<path class="st13" d="M368.2,112.2c-0.9,0-1.8,0-2.7,0c0,0.5,0,1,0,1.5c0.9,0,1.8,0,2.7,0c0.3,0,0.6-0.2,0.7-0.6
		c0.2-0.8-0.1-1.5-0.8-1.9c-0.9-0.5-1.7,0.9-0.8,1.3c0,0,0,0.1,0.1,0.1C367.7,112.6,368,112.4,368.2,112.2c-0.9,0-1.8,0-2.7,0
		c-1,0-1,1.5,0,1.5c0.9,0,1.8,0,2.7,0C369.2,113.7,369.2,112.2,368.2,112.2z"/>
	<path class="st13" d="M336.3,267.7c-0.9,0-1.8,0-2.7,0c-0.9,0-1,1.3-0.2,1.5c1.6,0.4,3,0.1,4.3-0.9c0.3-0.3,0.3-0.8,0-1.1
		c-1.8-1.7-4.7,0-4.4,2.4c0,0.2,0.3,0.5,0.5,0.5c2,0.3,3.8,0.1,5.6-0.8c0.9-0.4,0.1-1.8-0.8-1.3c-1.4,0.7-2.9,0.9-4.4,0.6
		c0.2,0.2,0.4,0.4,0.5,0.5c-0.1-0.9,1.2-1.4,1.8-0.9c0-0.4,0-0.7,0-1.1c-0.8,0.6-1.8,0.8-2.8,0.5c-0.1,0.5-0.1,1-0.2,1.5
		c0.9,0,1.8,0,2.7,0C337.3,269.3,337.3,267.7,336.3,267.7z"/>
	<path class="st13" d="M344.8,264c-0.3,0.2-0.5,0.4-0.8,0.6c-0.6,0.4-0.4,1.4,0.4,1.4s1.5,0,2.3,0.1c0.3,0,0.7-0.2,0.7-0.6
		c0.2-1.3-1.1-2.5-2.4-1.7c-0.8,0.6-0.1,1.9,0.8,1.3l0.1-0.1c0.2-0.2,0.5-0.4,0.7-0.6c-0.8,0-1.5,0-2.3-0.1c0.1,0.5,0.3,1,0.4,1.4
		c0.3-0.2,0.5-0.4,0.8-0.6C346.4,264.8,345.6,263.5,344.8,264z"/>
	<path class="st13" d="M215.3,265.7c0.6,0.5,1.3,0.6,2.1,0.4c0.3-0.1,0.6-0.4,0.6-0.7c0-0.4,0-0.9,0-1.3s-0.4-0.8-0.8-0.8
		c-0.8,0-1.5,0-2.3,0c-0.5,0-0.9,0.5-0.7,1c0.4,1.4,2.1,2.1,3.3,1.2c0.8-0.6,0-1.9-0.8-1.3c-0.4,0.3-0.9,0.3-1-0.2
		c-0.2,0.3-0.5,0.7-0.7,1c0.8,0,1.5,0,2.3,0c-0.3-0.3-0.5-0.5-0.8-0.8c0,0.4,0,0.9,0,1.3c0.2-0.2,0.4-0.5,0.6-0.7
		c-0.4,0.1-0.7,0-0.9-0.2C215.3,263.7,214.5,265.1,215.3,265.7z"/>
	<path class="st14" d="M251.9,313.1c14.8,6.3,31,9.8,48.1,9.8c67.9,0,122.9-55,122.9-122.9S367.9,77.1,300,77.1
		c-15.5,0-30.2,2.9-43.8,8.1c31-10.7,66.2-9.1,97.4,7.4c59.4,31.5,81.8,105,50,164.2C374.1,311.6,308.6,334.9,251.9,313.1z"/>
	<path class="st15" d="M177.1,200c0,18.2,4,35.4,11.1,50.9c43.9,11.4,88.9-3.1,122.2-38.4c34.1-36.2,46.6-84.8,30.6-128.3
		c-12.8-4.5-26.6-7-41-7C232.1,77.1,177.1,132.2,177.1,200z"/>
	<g>
		<g>
			<defs>
				<filter id="Adobe_OpacityMaskFilter" filterUnits="userSpaceOnUse" x="187.3" y="91.5" width="146.4" height="144.9">
					<feColorMatrix  type="matrix" values="1 0 0 0 0  0 1 0 0 0  0 0 1 0 0  0 0 0 1 0"/>
				</filter>
			</defs>
			<mask maskUnits="userSpaceOnUse" x="187.3" y="91.5" width="146.4" height="144.9" id="SVGID_1_">
				<g class="st16">
					<g>
						<defs>
							<polygon id="SVGID_00000122691163449946774770000005604128221077910944_" points="-4,-12.7 -3,-12.7 -4,-11.7 							"/>
						</defs>
						<defs>
							<polygon id="SVGID_00000119802595555559951030000006533852649122142356_" points="-6,-14.7 -7,-14.7 -6,-15.7 							"/>
						</defs>
						<clipPath id="SVGID_00000104683621356011190350000000036602723603934106_">
							<use xlink:href="#SVGID_00000122691163449946774770000005604128221077910944_"  style="overflow:visible;"/>
						</clipPath>
						
							<clipPath id="SVGID_00000050635878214281141130000018269636312719709322_" style="clip-path:url(#SVGID_00000104683621356011190350000000036602723603934106_);">
							<use xlink:href="#SVGID_00000119802595555559951030000006533852649122142356_"  style="overflow:visible;"/>
						</clipPath>
						
							<radialGradient id="SVGID_00000135681981714560286480000006289766074902503050_" cx="-66.7153" cy="670.3599" r="133.3747" gradientTransform="matrix(2.820000e-02 -0.885 -0.9116 0.1621 841.5682 -34.0019)" gradientUnits="userSpaceOnUse">
							<stop  offset="0" style="stop-color:#FFFFFF"/>
							<stop  offset="0.7749" style="stop-color:#000000"/>
						</radialGradient>
						
							<path style="clip-path:url(#SVGID_00000050635878214281141130000018269636312719709322_);fill:url(#SVGID_00000135681981714560286480000006289766074902503050_);" d="
							M215.9,117.5c31-29.8,80.6-35.6,106.6-8.9s2.4,50.8-27.3,87.6c-24.4,30.3-66.2,55.6-92.2,28.9
							C176.9,198.4,184.9,147.3,215.9,117.5z"/>
					</g>
				</g>
			</mask>
			
				<radialGradient id="SVGID_00000107559947339214706970000013408751361503947650_" cx="-66.7153" cy="670.3599" r="133.3747" gradientTransform="matrix(2.820000e-02 -0.885 -0.9116 0.1621 841.5682 -34.0019)" gradientUnits="userSpaceOnUse">
				<stop  offset="0" style="stop-color:#FFFFFF"/>
				<stop  offset="0.7749" style="stop-color:#000000"/>
			</radialGradient>
			<path style="mask:url(#SVGID_1_);fill:url(#SVGID_00000107559947339214706970000013408751361503947650_);" d="M215.9,117.5
				c31-29.8,80.6-35.6,106.6-8.9s2.4,50.8-27.3,87.6c-24.4,30.3-66.2,55.6-92.2,28.9C176.9,198.4,184.9,147.3,215.9,117.5z"/>
		</g>
	</g>
	
		<radialGradient id="SVGID_00000090273092919608995720000001726961716667622315_" cx="-66.7153" cy="670.3599" r="133.3747" gradientTransform="matrix(2.820000e-02 -0.885 -0.9116 0.1621 841.5682 -34.0019)" gradientUnits="userSpaceOnUse">
		<stop  offset="0" style="stop-color:#FFFFFF"/>
		<stop  offset="0.7749" style="stop-color:#F3F9F7"/>
	</radialGradient>
	<path style="opacity:0.49;fill:url(#SVGID_00000090273092919608995720000001726961716667622315_);enable-background:new    ;" d="
		M215.9,117.5c31-29.8,80.6-35.6,106.6-8.9s2.4,50.8-27.3,87.6c-24.4,30.3-66.2,55.6-92.2,28.9C176.9,198.4,184.9,147.3,215.9,117.5
		z"/>
</g>
</svg>
