<?xml version="1.0" encoding="utf-8"?>
<!-- Generator: Adobe Illustrator 27.8.0, SVG Export Plug-In . SVG Version: 6.00 Build 0)  -->
<svg version="1.1" id="Layer_2_00000083052298652987319840000003641011638878331067_"
	 xmlns="http://www.w3.org/2000/svg" xmlns:xlink="http://www.w3.org/1999/xlink" x="0px" y="0px" viewBox="0 0 600 400"
	 style="enable-background:new 0 0 600 400;" xml:space="preserve">
<style type="text/css">
	.st0{fill:#4BBBFF;}
	.st1{fill:#4FAECF;}
	.st2{fill:#1A5DAD;}
	.st3{fill:#75D2FF;}
	.st4{fill:#3C9FE1;}
	.st5{fill:#A8DAFF;}
	.st6{opacity:0.24;fill:#FFFFFF;enable-background:new    ;}
	.st7{opacity:0.15;fill:#FFFFFF;enable-background:new    ;}
	.st8{filter:url(#Adobe_OpacityMaskFilter);}
	.st9{clip-path:url(#SVGID_00000120536469806352978850000018016022033415895724_);}
	
		.st10{clip-path:url(#SVGID_00000075121854693557040220000015802504324026398601_);fill:url(#SVGID_00000049925053173712050160000014590548253235372720_);}
	.st11{mask:url(#SVGID_1_);fill:url(#SVGID_00000042708971060494627390000010833987772409078914_);}
	.st12{opacity:0.39;fill:url(#SVGID_00000135676291699145392460000002218145550358935485_);enable-background:new    ;}
	.st13{fill:url(#SVGID_00000016794167994553043120000012715451838413553087_);}
</style>
<g>
	
		<ellipse transform="matrix(0.7071 -0.7071 0.7071 0.7071 -52.3888 267.5667)" class="st0" cx="296.8" cy="197" rx="112.1" ry="112.1"/>
	<path class="st1" d="M212.2,123.6c32.5-36.7,88.3-42,127-11.2c39.9,31.8,46.5,90,14.6,130s-90.1,46.6-130.1,14.8
		c-38.7-30.8-46-86.4-17.4-126.2c-35.3,48.3-26.6,116.2,20.5,153.8c48.4,38.5,119,30.5,157.6-18s30.8-119-17.6-157.6
		C319.6,71.7,251.4,78.4,212.2,123.6z"/>
	<path class="st2" d="M221.4,280.1c0.2,0.2,0.4,0.4,0.6,0.5c46.2,41.3,117,37.4,158.3-8.8c30.8-34.4,36.4-82.6,18.1-122
		c-0.3-0.7-0.6-1.3-0.9-1.9c-0.3-0.7-0.7-1.4-1-2.1c-5.9-11.3-13.7-21.7-23.4-30.7c-0.5-0.5-0.7,0-1.2-0.5
		c26.8,42.8,23.2,101.5-13.7,141C322.3,294,266.3,302.2,221.4,280.1z"/>
	<path class="st3" d="M213.2,122.3c-10.3,11.6-17.8,24.7-22.6,38.5c21.3-5.1,41.5-14.9,58.6-28.7c15.8-12.7,28.8-28.8,38.2-46.7
		C259.9,87.6,233.1,100.1,213.2,122.3z"/>
	<path class="st3" d="M316.7,86.7c-3.7,9.3-9.9,17.7-16.9,24.9c-9.8,10.1-21.4,18.3-32.2,27.3c-22.5,18.9-42.5,42.1-69.5,53.6
		c-4.2,1.8-8.9,3.3-13.5,3.8c0,6.5,0.5,13,1.6,19.4c13.5-3.1,26-11.3,36.4-20.8c14.2-13,25.7-28.8,40-41.6
		c12.9-11.6,28-20.6,41.2-31.8c10.4-8.8,20-19.4,25.2-31.9C325.1,88.5,320.9,87.5,316.7,86.7z"/>
	<path class="st3" d="M378.1,119.9c-2.1-2.2-4.3-4.4-6.6-6.4c-0.4-0.4-0.9-0.7-1.3-1.1c-20.5,25.1-43.6,48.2-68.7,68.8
		c-1.9,1.6-4,3.2-6.4,3.8s-5.4-0.2-6.5-2.4c-2.1-4,2.8-8.6,2-13.1c-0.7-4-6-5.7-9.8-4.3s-6.5,4.8-9.1,7.9
		c-21.5,26.4-49.6,47.3-80.9,60.5c2.9,8.4,6.8,16.5,11.7,24.2c19.6-13.4,37.9-28.6,54.7-45.5c-0.6,3.3-1.1,6.7-0.5,10
		s2.7,6.6,5.9,7.7c4.5,1.6,9.2-1.6,13-4.7C313.8,194.4,353.4,162.1,378.1,119.9z"/>
	<path class="st3" d="M361.1,105.2c-3.3-2.4-6.8-4.5-10.3-6.4c-16.9,19.8-35.5,38.1-55.7,54.6c-1.3,1-2.6,2.1-3.2,3.6
		c-0.7,1.5-0.4,3.5,1,4.4c1.5,0.9,3.5,0.1,5-0.8C322.3,146.5,343.9,127.6,361.1,105.2z"/>
	<path class="st4" d="M324.1,286.8c-2.4,2.2-6.5,4.4-8.6,1.9c-1.5-1.8-0.5-4.6,0.6-6.7c4.3-8,9.3-15.5,15.2-22.5
		c2.7-3.3,5.7-6.5,7-10.5s0.6-9.1-2.9-11.4c-4.8-3.2-11.2,0.3-15.8,3.8c-16.4,12.1-32.8,24.1-49.2,36.2c-8.8,6.5-17.9,13-27.6,17.8
		c12.7,7,26.5,11.3,40.4,13c7.8-1.2,15.4-3.5,22.7-6.5c17-7,32.1-17.8,46.2-29.6c20.4-17,39-36.3,55.4-57.2c1.3-8,1.8-16.1,1.3-24.2
		C383.9,225.7,355.5,257.9,324.1,286.8z"/>
	<path class="st3" d="M308.6,85.6c-0.9-0.1-1.7-0.2-2.6-0.3c-9.2,16.8-25.2,29.2-39.1,42.6c-15.6,15.1-29.8,33-49.9,41.4
		c-9.5,4-19.8,5.6-30.2,5.9c-0.4,1.9-0.7,3.9-1,5.8c13.9-1.5,27.5-6.3,39.2-14c8.6-5.6,16.1-12.7,23.5-19.7
		c10.5-9.9,21.1-19.8,31.6-29.7c7.9-7.4,15.7-14.8,22.3-23.3C304.7,91.6,306.8,88.7,308.6,85.6z"/>
	<path class="st3" d="M339.7,100.2c1.1-1.8,1.9-3.7,2.4-5.8c-0.8-0.3-1.5-0.7-2.3-1c-4.3,10.2-12.2,18.9-20.8,26
		c-10.3,8.5-22,15.4-32.3,24c-3.3,2.7-6.4,5.6-9.6,8.5c-0.8,0.7-1.7,1.6-1.9,2.6c-0.2,1.1,0.5,2.4,1.6,2.3c0.6,0,1-0.4,1.5-0.8
		c17.4-15.3,34.7-30.7,52.1-46C333.8,107.1,337.3,104.1,339.7,100.2z"/>
	<path class="st4" d="M407.7,180.7c-7.4,14.3-19.6,26-31.1,37.6c-15.1,15.3-29.5,31.2-43.2,47.7c-3.2,3.9-6.5,8.2-7.7,12.9
		c-0.4,1.6,1.6,2.6,2.6,1.4c24.9-27.1,49.7-54.4,72.4-83.4c2.7-3.5,5.5-7.3,7.6-11.2C408.2,184,407.9,182.4,407.7,180.7z"/>
	<path class="st3" d="M302.3,262.8c-16.5,13.8-34.5,25.8-53.7,35.7c12.9,5.8,26.6,9.7,40.4,10.4c-2.2-5.1,1.3-11.6,4.7-16
		c5.4-7.1,10.8-14.1,16.2-21.2c1.3-1.8,2.7-3.6,3.2-5.7c0.5-2.2-0.1-4.7-2-5.9C308.3,258.4,304.8,260.7,302.3,262.8z"/>
	<path class="st3" d="M248.9,242c-3.9-1.7-8.6-0.7-12.3,1.4c-3.7,2.1-6.7,5.3-9.9,8.2c-5.7,5.3-12.1,9.9-19,13.8
		c2.8,3.7,5.9,7.2,9.3,10.6C229.1,265.7,241.4,255.5,248.9,242z"/>
	<path class="st4" d="M361.8,211.1c-5.2,5.4-11,12.1-9.3,19.4c17.4-17.8,34.8-35.5,52.2-53.3c0.7-0.7,1.4-1.4,2.1-2.2
		c-1.1-5.5-2.6-11-4.6-16.3C390.6,177.5,377.1,195.1,361.8,211.1z"/>
	<path class="st3" d="M341.6,195.5c-13.3,9.9-29.1,15.9-43.5,24c-21.8,12.2-40.7,29.6-54.8,50.3c-1.4,2,0.9,4.4,3,3.2
		c11-6.3,19.9-16.1,29.6-24.4c19.6-16.9,43.3-28.2,64.6-42.8c21.4-14.6,41.3-34,47.6-59.1c1-4,1.6-8.1,1.7-12.2
		c-1.7-2.6-3.6-5.1-5.5-7.5C376.5,153.5,363.6,179.1,341.6,195.5z"/>
	<path class="st3" d="M322.7,231.1c-18.6,9.6-36.2,21.4-52.2,34.9c-1.7,1.5-3.4,3-5.2,4.5c-9.2,8-18.6,16.1-29.1,21
		c0.7,0.4,1.4,0.9,2.1,1.3c10.3-5,19.4-12.9,28.4-20.7c1.7-1.5,3.4-3,5.2-4.4c15.9-13.5,33.3-25.1,51.8-34.7
		c2.5-1.3,11.1-5.2,14.6-0.3l1.7-1.2C336.9,227.2,330.4,227.1,322.7,231.1z"/>
	<path class="st5" d="M331.6,240.4c-2.4-1.7-5.8-0.2-8.3,1.3c-8.9,5.4-17.3,11.5-25.2,18.3c5.2-3.1,11-6.2,16.8-5
		c3.8,0.8,7.2,3.5,8.7,7c4.3-3.5,7.6-8.3,9.3-13.6C333.8,245.7,334,242.1,331.6,240.4z"/>
	<g>
		<path class="st5" d="M343.2,149.2c-12.6,12.1-26.1,23.2-37.7,36.3c-1.3,1.5-2.5,4.1-0.8,5.2c1.1,0.7,2.5,0.1,3.7-0.6
			c27.7-16.6,48.9-42.3,66.5-69.4c0.5-0.8,1.1-1.7,1.5-2.5c-1.4-1.4-2.9-2.9-4.5-4.3C364.6,127.2,354.2,138.6,343.2,149.2z"/>
		<path class="st5" d="M196.4,247c4.2-0.7,8.1-2.8,11.7-5c21.3-13,38.4-31.8,54.1-51.2c-19,21-43.4,37.2-70.1,46.6
			C193.4,240.7,194.8,243.9,196.4,247z"/>
		<path class="st5" d="M313.5,272.3c0.1-2.1-0.6-4.4-2.4-5.3c-1.7-0.8-3.7,0-5.3,0.9c-5.8,3.2-10.6,7.8-15.7,11.9
			c-11.7,9.2-25.5,15.8-40,19.2c9.6,4.4,19.6,7.3,29.8,8.8c3.4-3.1,6-7.1,9.4-10.3c4.4-4.2,10-6.9,14.8-10.5
			C308.9,283.5,313.3,278.4,313.5,272.3z"/>
		<path class="st5" d="M303.5,119.4c8.9-7.9,16.7-17.4,20.9-28.5c0.3-0.8,0.5-1.5,0.8-2.3c-1.9-0.5-3.9-1-5.8-1.4
			c-2.3,6.1-5.2,12-8.9,17.4c-14.5,21.1-38.1,33.8-57.4,50.7c-11.9,10.5-22.2,22.7-30.6,36.2c15.5-18.8,33.3-35.7,52.7-50.3
			C284.7,134,294.6,127.4,303.5,119.4z"/>
		<path class="st5" d="M342,122.1c-7,6.1-14.6,11.6-20.2,19c15-9.6,28.3-21.9,39.2-36.1c-1.3-0.9-2.6-1.8-3.8-2.6
			C354.2,110.3,348.2,116.6,342,122.1z"/>
		<path class="st5" d="M267.7,101c-7.9,8-16.4,15.6-26.1,21.3c-9.7,5.7-20.7,9.6-32,9.5c9.7-6.9,19.3-13.9,29-20.8
			c-7.7,2.6-15.2,5.5-22.7,8.5c-0.9,0.9-1.8,1.8-2.6,2.8c-5.6,6.2-10.3,12.9-14.2,19.9C226.4,139.5,252.5,124.1,267.7,101z"/>
	</g>
	<path class="st5" d="M318.2,212.6c-4.1,8.3-12.2,14.5-21.2,16.4c1.4-4.3,5.3-7.4,9.3-9.7C310.3,217.1,314.6,215.4,318.2,212.6z"/>
	<path class="st5" d="M314.2,194.9c2.5,0.4,4.5-1.1,4.8-3.6c0.1-1.3-1.4-1.9-2.4-1.4c-1.3,0.7-2.6,1.4-3.9,2.1
		c-1.8,1-0.2,3.7,1.6,2.8c1.3-0.7,2.6-1.4,3.9-2.1c-0.8-0.5-1.6-0.9-2.4-1.4c0,0.3-0.5,0.6-0.7,0.5
		C313,191.5,312.2,194.6,314.2,194.9z"/>
	<path class="st5" d="M315.1,143.9c-1.2,1-2.4,1.9-3.6,2.9c-1,0.8-0.3,2.3,0.7,2.7c1.9,0.7,3.9-0.5,4.4-2.4c0.6-2-2.5-2.8-3.1-0.8
		c-0.1,0.4-0.3,0.2-0.5,0.1c0.2,0.9,0.5,1.8,0.7,2.7c1.2-1,2.4-1.9,3.6-2.9c0.7-0.5,0.6-1.7,0-2.3
		C316.6,143.2,315.7,143.3,315.1,143.9z"/>
	<path class="st5" d="M325.6,131.9c1.7-0.4,3.1-1.5,4-3c0.7-1.2-0.4-2.8-1.8-2.3c-1.7,0.6-3,1.6-4,3c-1.2,1.7,1.6,3.3,2.8,1.6
		c0.5-0.7,1.3-1.3,2.1-1.6c-0.6-0.8-1.2-1.6-1.8-2.3c-0.5,0.8-1.2,1.3-2.1,1.6C322.8,129.4,323.6,132.4,325.6,131.9z"/>
	<path class="st5" d="M251.8,210.8c1.6-0.9,2.8-2.3,3.6-3.9c0.5-1.1-0.1-2.3-1.4-2.4c-1.3-0.1-2.5,0.6-3.2,1.7
		c-1.1,1.7,1.6,3.3,2.8,1.6c0.1-0.2,0.1-0.1,0.4-0.1c-0.5-0.8-0.9-1.6-1.4-2.4c-0.5,1.2-1.3,2.1-2.4,2.8
		C248.4,209.1,250,211.8,251.8,210.8z"/>
	<path class="st5" d="M265.7,192.5c0.8-0.8,1.7-1.5,2.5-2.3c1.5-1.4-0.7-3.6-2.3-2.3c-0.8,0.8-1.7,1.5-2.5,2.3
		C261.9,191.6,264.1,193.9,265.7,192.5z"/>
	<path class="st5" d="M273.7,183.1c0.3-0.4,0.7-0.7,1-1.1c1.4-1.5-0.9-3.8-2.3-2.3c-0.3,0.4-0.7,0.7-1,1.1
		C270.1,182.3,272.3,184.6,273.7,183.1z"/>
	<path class="st5" d="M249.8,272.9c0.8-0.3,1.6-0.6,2.3-0.9c1.9-0.7,1.1-3.8-0.8-3.1c-0.8,0.3-1.6,0.6-2.3,0.9
		C247,270.6,247.9,273.7,249.8,272.9z"/>
	<path class="st5" d="M261.9,263.6c1.6-0.1,2.9-0.9,3.7-2.3c0.9-1.8-1.8-3.4-2.8-1.6c-0.2,0.4-0.4,0.7-0.9,0.7
		C259.8,260.5,259.8,263.7,261.9,263.6z"/>
	<path class="st5" d="M273.4,254.8c0.2-0.2,0.3-0.4,0.5-0.6c1.4-1.5-0.9-3.8-2.3-2.3c-0.2,0.2-0.3,0.4-0.5,0.6
		C269.8,254.1,272,256.3,273.4,254.8z"/>
	<path class="st5" d="M353,229.9c0.2-0.2,0.3-0.4,0.5-0.6c1.4-1.5-0.9-3.8-2.3-2.3c-0.2,0.2-0.3,0.4-0.5,0.6
		C349.4,229.2,351.7,231.5,353,229.9z"/>
	<path class="st5" d="M363.3,210c0.4-0.3,0.9-0.6,1.3-0.8c1.7-1.1,0.1-3.9-1.6-2.8c-0.4,0.3-0.9,0.6-1.3,0.8
		C360,208.3,361.6,211.1,363.3,210z"/>
	<path class="st5" d="M368.8,190.7c0.5-0.2,1-0.4,1.6-0.6c1.9-0.7,1.1-3.8-0.8-3.1c-0.5,0.2-1,0.4-1.6,0.6
		C366,188.4,366.8,191.5,368.8,190.7z"/>
	<path class="st5" d="M368.1,188.3c-1.3,0.9-1.7,2.3-1,3.8c0.4,0.9,1.9,1,2.5,0.3s1.2-1.3,1.7-2c1.4-1.5-0.9-3.8-2.3-2.3
		c-0.6,0.7-1.2,1.3-1.7,2c0.8,0.1,1.7,0.2,2.5,0.3c0,0.2-0.1,0.4-0.1,0.6C371.4,189.8,369.8,187.1,368.1,188.3z"/>
	<path class="st5" d="M373,182.9c0.3-0.2,0.7-0.4,1-0.6c1.8-1.1,0.2-3.8-1.6-2.8c-0.3,0.2-0.7,0.4-1,0.6
		C369.6,181.2,371.2,184,373,182.9z"/>
	<path class="st5" d="M373.5,181.8c0.2-0.2,0.3-0.4,0.5-0.6c1.4-1.5-0.9-3.8-2.3-2.3c-0.2,0.2-0.3,0.4-0.5,0.6
		C369.9,181,372.1,183.3,373.5,181.8z"/>
	<path class="st5" d="M379.1,174.7c2.1,0,2.1-3.2,0-3.2S377,174.7,379.1,174.7z"/>
	<path class="st5" d="M294.8,296.6c0.6-0.5,1.2-1,1.8-1.4c0.7-0.5,0.6-1.7,0-2.3c-0.7-0.7-1.6-0.5-2.3,0c-0.6,0.5-1.2,1-1.8,1.4
		c-0.7,0.5-0.6,1.7,0,2.3C293.2,297.2,294.2,297.1,294.8,296.6z"/>
	<path class="st5" d="M304.8,291.5c0.5-0.4,1-0.8,1.5-1.2c0.7-0.5,1.1-1.4,0.6-2.2c-0.4-0.7-1.5-1.1-2.2-0.6c-0.5,0.4-1,0.8-1.5,1.2
		c-0.7,0.5-1.1,1.4-0.6,2.2C303.1,291.6,304.1,292,304.8,291.5z"/>
	<path class="st5" d="M312.5,284.2c0.4-0.5,0.8-0.9,1.3-1.4c1.4-1.5-0.9-3.8-2.3-2.3c-0.4,0.5-0.8,0.9-1.3,1.4
		C308.9,283.5,311.1,285.8,312.5,284.2z"/>
	<path class="st5" d="M230.7,180.3c0.1-0.7,0.3-1.4,0.4-2.1c0.4-2-2.7-2.9-3.1-0.8c-0.1,0.7-0.3,1.4-0.4,2.1
		C227.2,181.4,230.3,182.3,230.7,180.3z"/>
	<path class="st5" d="M215.4,191.4c0.6-0.3,1.2-0.6,1.8-0.9c1.8-0.9,0.2-3.7-1.6-2.8c-0.6,0.3-1.2,0.6-1.8,0.9
		C212,189.6,213.6,192.3,215.4,191.4z"/>
	<path class="st5" d="M236.9,171.8c0.3-0.4,0.7-0.7,1-1.1c1.4-1.5-0.9-3.8-2.3-2.3c-0.3,0.4-0.7,0.7-1,1.1
		C233.3,171.1,235.6,173.4,236.9,171.8z"/>
	<path class="st5" d="M204.2,192.4c0.4-0.3,0.9-0.5,1.3-0.8c1.7-1.1,0.1-3.8-1.6-2.8c-0.4,0.3-0.9,0.5-1.3,0.8
		C200.9,190.7,202.5,193.5,204.2,192.4z"/>
	<path class="st5" d="M253.3,121.5c0.3-0.4,0.7-0.7,1-1.1c1.4-1.5-0.9-3.8-2.3-2.3c-0.3,0.4-0.7,0.7-1,1.1
		C249.6,120.8,251.9,123.1,253.3,121.5z"/>
	<path class="st5" d="M261.4,115.2c0.1-0.1,0.2-0.2,0.3-0.3c1.4-1.5-0.9-3.8-2.3-2.3c-0.1,0.1-0.2,0.2-0.2,0.3
		C257.8,114.5,260,116.8,261.4,115.2z"/>
	<path class="st5" d="M268.2,107.7c0.2-0.3,0.5-0.6,0.8-0.8c1.4-1.5-0.9-3.8-2.3-2.3c-0.3,0.3-0.5,0.6-0.8,0.8
		C264.5,107,266.8,109.2,268.2,107.7z"/>
	<path class="st5" d="M295.5,169.9c0.3-0.4,0.7-0.7,1-1.1c1.4-1.5-0.9-3.8-2.3-2.3c-0.3,0.4-0.7,0.7-1,1.1
		C291.9,169.2,294.2,171.4,295.5,169.9z"/>
	<path class="st6" d="M380.3,271.8c41.3-46.2,37.3-117-8.8-158.3c-21.9-19.6-49.4-29-76.6-28.5c25.8,0.3,51.7,9.6,72.5,28.2
		c45.6,40.8,49.5,110.9,8.7,156.5s-110.9,49.5-156.5,8.7c0.8,0.8,1.6,1.5,2.4,2.3C268.2,321.9,339,318,380.3,271.8z"/>
	<path class="st7" d="M306.7,208.6c31.2-33.1,42.6-77.3,28.1-117c-41.7-15-90.2-4.4-121.6,30.7c-30.6,34.3-36.4,82.1-18.4,121.4
		C235,254.2,276.2,241,306.7,208.6z"/>
	<g>
		<g>
			<defs>
				<filter id="Adobe_OpacityMaskFilter" filterUnits="userSpaceOnUse" x="194" y="98" width="133.4" height="132.1">
					<feColorMatrix  type="matrix" values="1 0 0 0 0  0 1 0 0 0  0 0 1 0 0  0 0 0 1 0"/>
				</filter>
			</defs>
			<mask maskUnits="userSpaceOnUse" x="194" y="98" width="133.4" height="132.1" id="SVGID_1_">
				<g class="st8">
					<g>
						<defs>
							<polygon id="SVGID_00000031895377650154099780000007587249206742886802_" points="0.9,0.9 1.9,0.9 0.9,1.9 							"/>
						</defs>
						<defs>
							<polygon id="SVGID_00000139255453602611798620000013338870085211990712_" points="-1.1,-1.1 -2.1,-1.1 -1.1,-2.1 							"/>
						</defs>
						<clipPath id="SVGID_00000021838505293778215420000000323370922048386487_">
							<use xlink:href="#SVGID_00000031895377650154099780000007587249206742886802_"  style="overflow:visible;"/>
						</clipPath>
						
							<clipPath id="SVGID_00000132074111184144413550000000722684852539237537_" style="clip-path:url(#SVGID_00000021838505293778215420000000323370922048386487_);">
							<use xlink:href="#SVGID_00000139255453602611798620000013338870085211990712_"  style="overflow:visible;"/>
						</clipPath>
						
							<radialGradient id="SVGID_00000078019286875220449050000000980951330852906386_" cx="-70.6121" cy="666.8489" r="121.611" gradientTransform="matrix(2.820000e-02 -0.885 -0.9116 0.1621 841.5682 -34.0019)" gradientUnits="userSpaceOnUse">
							<stop  offset="0.2253" style="stop-color:#F4F4F4"/>
							<stop  offset="1" style="stop-color:#000000"/>
						</radialGradient>
						
							<path style="clip-path:url(#SVGID_00000132074111184144413550000000722684852539237537_);fill:url(#SVGID_00000078019286875220449050000000980951330852906386_);" d="
							M220.1,121.8c28.3-27.2,73.5-32.5,97.2-8.1c23.7,24.3,2.2,46.3-24.9,79.9c-22.2,27.6-60.4,50.7-84.1,26.3
							C184.6,195.6,191.8,149,220.1,121.8z"/>
					</g>
				</g>
			</mask>
			
				<radialGradient id="SVGID_00000112625539829226801630000009339058927280992180_" cx="-70.6121" cy="666.8489" r="121.611" gradientTransform="matrix(2.820000e-02 -0.885 -0.9116 0.1621 841.5682 -34.0019)" gradientUnits="userSpaceOnUse">
				<stop  offset="0.2253" style="stop-color:#F4F4F4"/>
				<stop  offset="1" style="stop-color:#000000"/>
			</radialGradient>
			<path style="mask:url(#SVGID_1_);fill:url(#SVGID_00000112625539829226801630000009339058927280992180_);" d="M220.1,121.8
				c28.3-27.2,73.5-32.5,97.2-8.1c23.7,24.3,2.2,46.3-24.9,79.9c-22.2,27.6-60.4,50.7-84.1,26.3C184.6,195.6,191.8,149,220.1,121.8z
				"/>
		</g>
	</g>
	
		<radialGradient id="SVGID_00000069358818158983847510000006407988246015364743_" cx="-70.6121" cy="666.8489" r="121.611" gradientTransform="matrix(2.820000e-02 -0.885 -0.9116 0.1621 841.5682 -34.0019)" gradientUnits="userSpaceOnUse">
		<stop  offset="0.2253" style="stop-color:#FFFFFF"/>
		<stop  offset="1" style="stop-color:#F3F9F7"/>
	</radialGradient>
	<path style="opacity:0.39;fill:url(#SVGID_00000069358818158983847510000006407988246015364743_);enable-background:new    ;" d="
		M220.1,121.8c28.3-27.2,73.5-32.5,97.2-8.1c23.7,24.3,2.2,46.3-24.9,79.9c-22.2,27.6-60.4,50.7-84.1,26.3
		C184.6,195.6,191.8,149,220.1,121.8z"/>
	
		<linearGradient id="SVGID_00000175294459156106493720000013559917005009598857_" gradientUnits="userSpaceOnUse" x1="276.6503" y1="216.4203" x2="335.9902" y2="174.2389" gradientTransform="matrix(1 0 0 -1 0 399.8898)">
		<stop  offset="0" style="stop-color:#6A7CC0"/>
		<stop  offset="1" style="stop-color:#FFFFFF"/>
	</linearGradient>
	<path style="fill:url(#SVGID_00000175294459156106493720000013559917005009598857_);" d="M406.5,61.3c-3.8,1.5-8,3.6-12.6,6.3
		c-9.2,5.3-19.8,12.9-31.5,22.2c-3.6,2.9-7.4,6-11.3,9.3c0.6,0.4,1.3,0.7,1.9,1.1c3.6-3,7.1-5.9,10.4-8.7
		c11.6-9.3,22.1-16.8,31.1-22c4.5-2.6,8.6-4.7,12.3-6.1c15.3-5.9,20.6-0.2,16.5,14.9c-1,3.7-2.7,8-4.8,12.8
		c-4.3,9.5-10.7,20.7-18.8,33.1c-2.7,4-5.5,8.2-8.5,12.5c-6.2,8.9-13.1,18.2-20.7,27.9c-11.3,14.4-24,29.7-37.9,45.6
		c-13.9,15.8-28.8,32.2-44.9,48.6c-12.8,13.1-26.3,26.3-40.6,38.9c-3.6,3.2-7.2,6.3-10.9,9.4c-9.2,7.6-18.8,15-28.8,21.3
		c-5,3.1-10.2,6.1-15.5,8.1c-2.7,1-5.3,1.8-7.9,2.1c-9.2,1.1-10.3-7.2-8-16.2c1.4-5.5,3.6-11,6.1-16.4c5-10.8,11.1-21.2,17.6-31.3
		c2.3-3.6,4.7-7.2,7.1-10.7c-0.4-0.6-0.8-1.2-1.3-1.8c-2.6,3.8-5.1,7.7-7.6,11.6c-3.2,5.1-6.4,10.3-9.3,15.6
		c-3,5.3-5.9,10.6-8.4,16.1s-4.9,11.1-6.3,16.9c-2.7,10.7-1,19.9,9.9,18.8c2.9-0.3,5.8-1.1,8.6-2.1c5.6-2.1,11-5,16.2-8
		c5.2-3.1,10.3-6.5,15.2-9.9c5-3.5,9.8-7.1,14.6-10.8c4.4-3.4,8.8-7,13-10.5c14.2-11.8,27.6-24.2,40.4-36.6
		c16.5-16.3,31.8-32.6,45.7-48.7c13.9-16,26.4-31.8,37.4-46.7c6.9-9.4,13.2-18.4,18.9-27c3.4-5.1,6.5-10,9.4-14.8
		c7.8-12.8,13.9-24.3,18.1-34.1c2.1-4.9,3.7-9.3,4.7-13.3C430.7,60,422.1,55.2,406.5,61.3z"/>
</g>
</svg>
