<?xml version="1.0" encoding="utf-8"?>
<!-- Generator: Adobe Illustrator 27.8.0, SVG Export Plug-In . SVG Version: 6.00 Build 0)  -->
<svg version="1.1" id="Layer_3" xmlns="http://www.w3.org/2000/svg" xmlns:xlink="http://www.w3.org/1999/xlink" x="0px" y="0px"
	 viewBox="0 0 600 400" style="enable-background:new 0 0 600 400;" xml:space="preserve">
<style type="text/css">
	.st0{fill:#A2CEC7;}
	.st1{fill:#4B6672;}
	.st2{fill:#809EA5;}
	.st3{fill:#B1E0D5;}
	.st4{fill:#FFFFFF;}
	.st5{opacity:0.69;fill:#6E97A1;enable-background:new    ;}
	.st6{opacity:0.15;fill:#FFFFFF;enable-background:new    ;}
	.st7{filter:url(#Adobe_OpacityMaskFilter);}
	.st8{clip-path:url(#SVGID_00000000200952252748599340000010988190873029417652_);}
	
		.st9{clip-path:url(#SVGID_00000035516877717713379400000005003268471432082611_);fill:url(#SVGID_00000153689968584162319070000015746203501026204801_);}
	.st10{mask:url(#SVGID_1_);fill:url(#SVGID_00000062194359667609402380000004839383047125677970_);}
	.st11{opacity:0.49;fill:url(#SVGID_00000098201242117044890590000003454258950005780376_);enable-background:new    ;}
	.st12{opacity:0.24;fill:#FFFFFF;enable-background:new    ;}
</style>
<g>
	<circle class="st0" cx="300" cy="200" r="123"/>
	<path class="st1" d="M263.9,115c-11.7-2.3-24.7,0.5-32.9,9.1s-10,23.3-2.6,32.5c5.1,6.3,13.2,9.2,20.9,11.9c3.5,1.2,7,2.4,10.6,2.2
		c8.3-0.4,14.7-7.6,18.8-14.8c5.1-8.8,8.5-20.1,3.6-29C278.8,120.2,271.4,116.5,263.9,115z"/>
	<path class="st1" d="M325.2,115.5c-3.1,0.1-6.3,0.3-9.2,1.6c-2.9,1.2-5.4,3.6-6.1,6.6c-1,4.3,2.1,8.9,6.2,10.6
		c4.1,1.7,8.9,0.9,13-0.8c2.8-1.2,5.4-3,7-5.5c1.6-2.6,1.9-6.1,0.3-8.6C334,115.8,329.3,115.4,325.2,115.5z"/>
	<path class="st1" d="M318.1,178c-3.7,0.4-7.4,1.2-10.9,2.3c-12.8,4-20.1,18.1-14.5,30.3c1,2.1,2.2,4,3.8,5.7
		c8,8.4,22.4,9.4,31.8,2.5c9.4-6.9,12.8-20.6,8.2-31.2c-1.3-3.1-3.4-6.1-6.3-7.9C326.6,177.6,322.2,177.6,318.1,178z"/>
	<path class="st2" d="M292.8,165.9c1.8,2.6,5.9,3,8.2,0.8c2.9-2.8,0.8-8.8-3.2-9.2S290.6,162.5,292.8,165.9z"/>
	<path class="st1" d="M203.9,180.2c-3.7,2.5-5.3,7.7-3.5,11.8s6.6,6.6,11,5.6c5.5-1.2,8.9-8,6.7-13.2
		C215.9,179.3,208.6,177.1,203.9,180.2z"/>
	<path class="st1" d="M234,264.4c5.7-3.6,7.5-11.4,5.8-17.9s-6.3-11.8-11.3-16.3c-3.6-3.3-7.8-6.4-12.6-7
		c-6.4-0.8-12.8,3.3-15.6,9.1s-2.1,12.9,0.9,18.6c3,5.7,8.2,10,14,12.8C221.1,266.6,228.5,267.9,234,264.4z"/>
	<path class="st1" d="M282.8,287.5c-4.4-0.9-8.8-1.6-13.2-2c-3.1-0.3-7.4,0.4-7.8,3.5c-0.2,1.9,1.2,3.6,2.7,4.8
		c4.7,3.8,10.7,6.1,16.8,6.3c2.2,0.1,4.5-0.1,6.4-1.2c1.9-1.1,3.4-3.3,3.1-5.5C290.3,289.8,286.2,288.2,282.8,287.5z"/>
	<path class="st2" d="M351.4,241.6c1.3,3,4.7,4.3,7.8,5.2c2.2,0.7,4.6,1.4,6.7,0.5c3-1.2,4.1-4.7,4.6-7.9c0.5-2.7,0.8-5.4,0.2-8
		c-0.6-2.6-2.4-5.1-5-5.9c-4.3-1.4-8.5,2.2-11.3,5.8C352.1,234.2,349.9,238.1,351.4,241.6z"/>
	<path class="st2" d="M281.6,214.4c0,0,0.1,0.3,0.3,0.8c0.2,0.5,0.4,1.3,0.8,2.2c0.3,0.9,0.9,2,1.5,3.2c0.7,1.2,1.5,2.5,2.4,3.8
		c1,1.3,2.1,2.7,3.4,4s2.9,2.5,4.5,3.7c1.6,1.2,3.5,2.1,5.4,2.9c1.9,0.8,3.9,1.4,6,1.7c2.2,0.3,4.1,0.4,6.2,0.3c2.1-0.2,4.1-0.5,6-1
		c1.9-0.6,3.8-1.2,5.4-2.1c1.7-0.8,3.2-1.7,4.6-2.6c1.3-1,2.5-1.9,3.5-2.8c1-1,1.8-1.8,2.4-2.6c0.7-0.7,1.1-1.4,1.5-1.8
		c0.3-0.4,0.5-0.7,0.5-0.7s-0.1,0.3-0.3,0.8s-0.4,1.3-0.9,2.2c-0.4,0.9-1.1,2-1.9,3.2c-0.4,0.6-0.9,1.2-1.4,1.8s-1.1,1.2-1.7,1.9
		c-1.3,1.2-2.8,2.5-4.6,3.6c-1.7,1.2-3.7,2.1-5.9,2.9c-2.2,0.8-4.5,1.4-6.9,1.6c-2.4,0.2-5.1,0.1-7.4-0.2c-2.5-0.5-4.8-1.2-7-2.2
		s-4.2-2.4-6-3.8c-1.8-1.5-3.3-3-4.6-4.7c-1.3-1.6-2.3-3.3-3.1-4.9c-0.4-0.8-0.7-1.6-1-2.4c-0.3-0.8-0.5-1.5-0.7-2.2
		c-0.4-1.4-0.6-2.6-0.7-3.7c-0.2-1-0.1-1.8-0.1-2.4C281.6,214.7,281.6,214.4,281.6,214.4z"/>
	<path class="st2" d="M222.3,273.8c0,0,0.6,0,1.7,0.2c0.5,0.1,1.2,0.1,1.9,0.2s1.4,0.1,2.3,0c0.8,0,1.7-0.1,2.7-0.1
		c0.9,0,1.9-0.3,2.9-0.4c1-0.3,2-0.4,3-0.8c1-0.2,2.1-0.8,2.8-1.1c1-0.6,2.2-1.1,2.9-1.7c0.8-0.5,1.6-1.2,2.4-1.8
		c0.7-0.7,1.5-1.3,2.2-2c0.6-0.7,1.3-1.3,1.8-2c0.6-0.6,1-1.3,1.4-1.8c0.4-0.6,0.8-1.1,1-1.5c0.5-0.9,0.9-1.4,0.9-1.4s0,0.6,0,1.7
		c0,0.6-0.1,1.2-0.3,1.9c-0.1,0.8-0.4,1.6-0.7,2.5s-0.8,1.8-1.4,2.8c-0.5,1-1.3,1.9-2,2.8c-0.9,0.9-1.7,1.8-2.8,2.6
		c-1.1,0.9-2.1,1.4-3.1,2c-1.5,0.6-2.5,1.1-3.8,1.3c-1.2,0.4-2.5,0.4-3.7,0.6c-1.2,0-2.4,0-3.5-0.2c-1.1-0.1-2.1-0.4-3-0.7
		c-0.9-0.2-1.7-0.6-2.4-1c-0.7-0.3-1.3-0.7-1.7-1C222.8,274.3,222.3,273.8,222.3,273.8z"/>
	<path class="st2" d="M192.3,187.4c0,0,0,0.6,0,1.7c-0.1,0.5,0,1.2,0.1,1.9c0,0.3,0.1,0.7,0.1,1.1c0.1,0.4,0.2,0.8,0.3,1.2
		c0.1,0.8,0.5,1.7,0.8,2.6c0.1,0.4,0.3,0.9,0.6,1.3c0.2,0.4,0.4,0.9,0.7,1.3c0.6,0.8,1,1.7,1.8,2.4c0.3,0.4,0.6,0.8,1,1.1l0.6,0.5
		l0.3,0.2l0.1,0.1l0.1,0.1l0,0c-0.1,0,0.2,0.1-0.1-0.1c1,0.6,2.1,1.4,2.9,1.6c0.8,0.4,1.8,0.6,2.7,1c0.5,0.1,1,0.1,1.4,0.3
		c0.5,0.1,0.9,0.2,1.4,0.2c0.9,0,1.8,0.1,2.7,0c0.9,0,1.6-0.2,2.3-0.3s1.3-0.2,1.8-0.5c1-0.3,1.6-0.5,1.6-0.5s-0.4,0.5-1.2,1.3
		c-0.4,0.4-0.9,0.9-1.6,1.3c-0.3,0.2-0.7,0.5-1.1,0.7c-0.4,0.2-0.8,0.4-1.3,0.6c-0.5,0.2-0.9,0.4-1.5,0.6c-0.5,0.1-1.1,0.2-1.6,0.3
		c-1.1,0.3-2.4,0.2-3.7,0.2c-1.3-0.2-2.6-0.3-4-0.9c-1.5-0.5-2.4-1.2-3.5-1.8l-0.2-0.1l0,0l0,0l-0.1-0.1l-0.2-0.2l-0.4-0.4l-0.8-0.7
		c-0.6-0.4-0.9-1-1.3-1.6c-0.9-1.1-1.4-2.3-2-3.5c-0.4-1.2-0.8-2.4-0.9-3.6c-0.1-0.6-0.1-1.1-0.2-1.7c0-0.5,0.1-1.1,0.1-1.6
		c0.1-0.5,0.1-1,0.2-1.4c0.1-0.4,0.3-0.9,0.4-1.3c0.2-0.8,0.5-1.4,0.8-1.9C191.9,187.9,192.3,187.4,192.3,187.4z"/>
	<path class="st2" d="M221.2,121.6c0,0-0.5,1-1.3,2.7c-0.2,0.4-0.5,0.9-0.7,1.4s-0.4,1.1-0.6,1.7c-0.2,0.6-0.5,1.2-0.7,1.9
		s-0.4,1.4-0.6,2.2c-0.2,0.8-0.4,1.5-0.6,2.4c-0.1,0.8-0.2,1.7-0.4,2.6c-0.2,0.9-0.2,1.8-0.2,2.7s-0.1,1.9-0.1,2.8
		c0.2,1.9,0.2,3.9,0.7,5.8c0.2,2,1,3.9,1.6,5.8l1.3,2.8c0.4,1.1,1,1.8,1.5,2.6c0.9,1.6,2.2,3.2,3.4,4.7c0.6,0.7,1.3,1.3,2,2
		c0.6,0.7,1.3,1.3,2,1.9c0.7,0.6,1.3,1.1,2,1.7c0.6,0.5,1.4,0.9,2,1.4c0.7,0.4,1.3,0.9,1.9,1.3c0.6,0.3,1.2,0.7,1.8,1
		s1.1,0.6,1.6,0.9c0.5,0.3,1,0.4,1.4,0.6c1.7,0.7,2.8,1.2,2.8,1.2s-1.1-0.1-3-0.3c-0.5-0.1-1-0.1-1.6-0.2c-0.6-0.1-1.2-0.3-1.8-0.5
		c-0.7-0.2-1.4-0.4-2.1-0.6c-0.7-0.3-1.4-0.6-2.2-0.9c-0.8-0.4-1.6-0.7-2.4-1.1c-0.8-0.5-1.6-1-2.4-1.5c-0.9-0.5-1.6-1.1-2.4-1.8
		c-0.8-0.7-1.6-1.3-2.4-2.1c-1.4-1.6-3-3.1-4.2-5.2c-0.6-1-1.4-2-1.7-3l-1.5-3.1c-0.6-2.2-1.4-4.4-1.7-6.7c-0.5-2.2-0.3-4.5-0.3-6.6
		c0.1-1.1,0.2-2.1,0.4-3.1c0.1-1,0.3-2,0.6-3c0.3-0.9,0.5-1.9,0.8-2.7c0.3-0.9,0.7-1.7,1-2.4c0.4-0.8,0.6-1.5,1-2.2s0.8-1.3,1.2-1.9
		s0.7-1.1,1.1-1.6c0.3-0.5,0.7-0.8,1-1.2C220.5,122.4,221.2,121.6,221.2,121.6z"/>
	<path class="st2" d="M313.2,140.9c0,0,0.7,0.3,1.8,1c0.5,0.4,1.3,0.7,2.1,1c0.4,0.2,0.8,0.3,1.2,0.5c0.5,0.1,1,0.3,1.5,0.4
		c1,0.3,2.1,0.5,3.3,0.7c0.6,0.1,1.2,0.1,1.8,0.1c0.6,0,1.3,0.1,1.9,0c1.3-0.1,2.6-0.2,3.9-0.5c1.3-0.2,2.5-0.8,3.8-1.2
		c1-0.6,2.6-1.3,3.5-2.1c1-0.7,2-1.7,2.9-2.6c0.4-0.5,0.8-1,1.2-1.5c0.4-0.5,0.8-0.9,1.1-1.5c0.6-1,1.3-2,1.6-2.9
		c0.2-0.5,0.4-0.9,0.6-1.4s0.3-0.9,0.4-1.3c0.3-0.8,0.5-1.6,0.6-2.2c0.3-1.3,0.4-2,0.4-2s0.1,0.7,0.2,2c0.1,0.7,0.1,1.5-0.1,2.4
		c0,0.5-0.1,1-0.1,1.5c-0.1,0.5-0.3,1-0.4,1.6c-0.2,0.5-0.3,1.1-0.5,1.7c-0.3,0.6-0.5,1.2-0.8,1.8c-0.5,1.2-1.4,2.4-2.2,3.6
		c-1,1.1-1.9,2.3-3.2,3.2c-1.3,1.1-2.4,1.6-3.9,2.5c-1.5,0.5-3,1.2-4.5,1.3c-1.5,0.4-3,0.3-4.5,0.3c-0.7,0-1.4-0.1-2.1-0.2
		c-0.7-0.1-1.4-0.2-2-0.4c-0.6-0.2-1.3-0.4-1.8-0.5c-0.6-0.2-1.1-0.5-1.6-0.7c-0.5-0.3-1-0.5-1.5-0.7c-0.4-0.3-0.8-0.6-1.2-0.9
		c-0.8-0.5-1.4-1-1.8-1.5C313.6,141.4,313.2,140.9,313.2,140.9z"/>
	<path class="st2" d="M373.5,191.8c0,0,0,0.2-0.1,0.6c0,0.4-0.1,1-0.1,1.8c0,0.7,0.1,1.6,0.2,2.6c0.2,1,0.4,2.1,0.8,3.3
		c0.4,1.2,0.9,2.4,1.6,3.6c0.6,1.2,1.5,2.4,2.4,3.6c0.9,1.2,2.1,2.3,3.2,3.3c1.1,1,2.6,2,3.7,2.7c1.5,0.8,3.1,1.8,4.5,2.3
		c1.4,0.6,3,1.2,4.4,1.7c1.5,0.4,3,1,4.4,1.3c1.4,0.4,2.8,0.7,4,1c2.5,0.6,4.7,1.1,6.2,1.5s2.4,0.7,2.4,0.7s-0.9,0.1-2.4,0.3
		c-1.5,0.1-3.8,0.3-6.4,0.2c-1.3,0-2.8-0.1-4.3-0.3c-1.5-0.1-3.2-0.4-4.8-0.8c-1.7-0.5-3.4-0.8-5.1-1.6c-1.9-0.7-3.3-1.5-4.9-2.3
		c-1.8-1.1-3.2-2.2-4.6-3.6c-1.3-1.3-2.5-2.8-3.5-4.3s-1.7-3-2.3-4.6c-0.6-1.5-0.9-3.1-1-4.4c-0.1-0.7-0.1-1.4-0.1-2
		c0.1-0.6,0.1-1.2,0.2-1.8c0.2-1.1,0.4-2.1,0.7-2.8c0.2-0.8,0.6-1.3,0.8-1.7C373.4,192,373.5,191.8,373.5,191.8z"/>
	<path class="st2" d="M255.7,88.1c-4.7,1.1-8.9,3.9-11.8,7.7c-1.3,1.7,0.2,4.3,2.4,4c3.6-0.4,7.1-1.6,10.2-3.4
		c1.5-0.9,3.1-2.1,3.7-3.7c0.7-1.7,0.1-3.9-1.6-4.6C257.7,87.7,256.6,87.8,255.7,88.1z"/>
	<path class="st2" d="M272.1,248.7c1.5,2.7,5.5,3.7,8.1,2c2.6-1.7,3.2-5.8,1.2-8.2c-1.8-2.1-5.2-2.6-7.4-1.1
		C271.7,242.9,270.8,246.3,272.1,248.7z"/>
	<path class="st2" d="M368.4,134.8c-1,0-1.9-0.3-2.7-0.7c-1.6-1-2.5-2.8-2.5-4.8s1-3.8,2.6-4.7c2-1.2,5-0.6,6.8,1.2
		c1,1,1.6,2.4,1.6,3.7C374.2,132.5,371.2,134.8,368.4,134.8z M368.4,126.9c-0.4,0-0.7,0.1-1,0.2c-0.8,0.4-1.1,1.4-1.1,2.1
		s0.2,1.7,1,2.2c0.3,0.2,0.6,0.3,1,0.3c1.3,0,2.8-1,2.8-2.4c0-0.7-0.4-1.3-0.7-1.5C370,127.2,369.1,126.9,368.4,126.9z"/>
	<g>
		<path class="st1" d="M417.1,162.4c-0.3,0.3-0.7,0.6-1,0.8c-6.4,5.2-14.5,7.8-21.4,12.4c-6.9,4.5-12.9,12.3-11.3,20.3
			c1.1,5.5,5.5,9.8,10.5,12.2s10.6,3.3,16.1,4.1c4.1,0.6,8.5,1.1,12.4,0c0.4-4,0.6-8.1,0.6-12.2C423,186.9,420.9,174.3,417.1,162.4z
			"/>
		<path class="st1" d="M377.1,118.3c4.2,2.7,10,1.9,13.7-1.3c-5-5.5-10.6-10.5-16.5-15c-0.6,0.8-1.2,1.6-1.6,2.6
			C370.8,109.4,372.7,115.5,377.1,118.3z"/>
	</g>
	<path class="st2" d="M346.7,273.1c-3.2,0.8-3.7,6.2-0.7,7.6s6.8-2.6,5.3-5.5c-1.2-2-4.6-2.2-5.9-0.2L346.7,273.1z"/>
	<path class="st2" d="M302.4,307.4c0,0,0.6-0.2,1.6-0.4c1-0.3,2.6-0.4,4.3-0.9c0.9-0.2,1.8-0.4,2.7-0.6c1-0.1,2-0.5,3-0.8
		s2.1-0.5,3.2-0.8c1.1-0.3,2.2-0.6,3.3-0.9c1.1-0.4,2.2-0.7,3.2-1c1.1-0.3,2.1-0.7,3.1-1.1s2-0.6,2.9-1c0.9-0.4,1.8-0.7,2.6-1
		c1.7-0.6,3-1.2,4-1.6s1.6-0.5,1.6-0.5s-0.4,0.5-1.1,1.3c-0.4,0.4-0.8,0.9-1.3,1.4c-0.5,0.6-1.1,1.2-1.9,1.7
		c-0.7,0.6-1.5,1.2-2.4,1.8c-0.9,0.6-1.9,1.1-2.9,1.7c-1,0.5-2.1,1.1-3.2,1.5c-1.1,0.4-2.3,0.9-3.5,1.3c-1.2,0.3-2.4,0.6-3.6,0.8
		c-1.2,0.3-2.4,0.4-3.5,0.5c-1.2,0.1-2.3,0.2-3.3,0.1c-1.1,0-2.1-0.1-3-0.2c-0.9,0-1.7-0.2-2.5-0.4c-0.7-0.1-1.4-0.3-1.9-0.5
		C303,307.6,302.4,307.4,302.4,307.4z"/>
	<path class="st2" d="M376.1,269.3c0,0,0.3-0.5,1-1.2c0.6-0.7,1.7-1.7,2.7-2.9c0.5-0.6,1.1-1.2,1.7-1.8c0.6-0.6,1.2-1.4,1.9-2.1
		c0.6-0.7,1.4-1.4,2-2.2c0.6-0.8,1.3-1.5,2-2.3c0.6-0.8,1.3-1.6,1.9-2.4c0.7-0.8,1.2-1.6,1.9-2.3c0.6-0.8,1.3-1.5,1.8-2.2
		s1-1.4,1.5-2c1-1.2,1.7-2.4,2.4-3.1c0.6-0.8,1-1.2,1-1.2s0,0.6-0.2,1.5c-0.1,0.5-0.1,1.1-0.3,1.8c-0.1,0.7-0.3,1.4-0.6,2.2
		s-0.5,1.7-0.9,2.6c-0.3,0.9-0.8,1.8-1.3,2.7s-1,1.9-1.7,2.8c-0.6,0.9-1.3,1.8-2,2.7c-0.8,0.8-1.5,1.6-2.3,2.4s-1.6,1.5-2.5,2.1
		c-0.8,0.6-1.6,1.3-2.5,1.8c-0.8,0.5-1.7,0.9-2.4,1.3c-0.7,0.4-1.4,0.7-2.1,0.9c-0.6,0.2-1.2,0.4-1.7,0.6
		C376.7,269.2,376.1,269.3,376.1,269.3z"/>
	<path class="st2" d="M247.7,202.1c-0.3,0-0.6-0.1-0.9-0.3c-3.4-2.4-5.4-6.7-5.1-10.8c0.1-0.9,0.8-1.5,1.7-1.4s1.5,0.8,1.4,1.7
		c-0.3,3.1,1.2,6.3,3.8,8.1c0.7,0.5,0.9,1.5,0.4,2.2C248.7,201.8,248.2,202.1,247.7,202.1z"/>
	<path class="st2" d="M365.1,160.5c-0.5,0-1-0.2-1.3-0.7l-4.9-7.4c-0.5-0.7-0.3-1.7,0.4-2.1c0.7-0.5,1.7-0.3,2.1,0.4l4.9,7.4
		c0.5,0.7,0.3,1.7-0.4,2.1C365.7,160.4,365.4,160.5,365.1,160.5z"/>
	<path class="st2" d="M252.8,226.1c-0.7,0-1.4-0.5-1.5-1.3c-0.5-3.3,0-6.8,1.6-9.7c0.4-0.7,1.3-1,2.1-0.6s1,1.3,0.6,2.1
		c-1.3,2.4-1.7,5.1-1.3,7.8c0.1,0.8-0.4,1.6-1.3,1.8C253,226.1,252.9,226.1,252.8,226.1z"/>
	<path class="st2" d="M373.1,159.8c-0.2,0-0.5-0.1-0.7-0.2c-0.8-0.4-1.1-1.3-0.7-2.1c1.4-2.7,3.8-4.9,6.7-5.9c0.8-0.3,1.7,0.1,2,1
		c0.3,0.8-0.1,1.7-1,2c-2.1,0.7-3.9,2.3-5,4.3C374.2,159.5,373.6,159.8,373.1,159.8z"/>
	<path class="st2" d="M233.1,213c-0.8,0-1.4-0.6-1.5-1.4c-0.1-0.9,0.5-1.6,1.4-1.7l13.1-1.5c0.9-0.1,1.6,0.5,1.7,1.4
		c0.1,0.9-0.5,1.6-1.4,1.7l-13.1,1.5C233.2,213,233.2,213,233.1,213z"/>
	<path class="st2" d="M257.8,204.9c-0.4,0-0.7-0.1-1-0.4c-0.6-0.6-0.7-1.5-0.1-2.2l5.1-5.8c0.6-0.6,1.5-0.7,2.2-0.1
		c0.6,0.6,0.7,1.5,0.1,2.2l-5.1,5.8C258.7,204.8,258.3,204.9,257.8,204.9z"/>
	<path class="st2" d="M268.1,212.2c-0.1,0-0.1,0-0.2,0l-6.6-0.7c-0.8-0.1-1.5-0.9-1.4-1.7c0.1-0.8,0.9-1.5,1.7-1.4l6.6,0.7
		c0.9,0.1,1.5,0.9,1.4,1.7C269.6,211.6,268.9,212.2,268.1,212.2z"/>
	<path class="st2" d="M354.8,171.5c-0.4,0-0.7-0.1-1-0.4c-0.7-0.6-0.7-1.5-0.2-2.2c2.1-2.5,5-4.2,8.1-4.9c0.8-0.2,1.7,0.4,1.8,1.2
		c0.2,0.8-0.4,1.7-1.2,1.8c-2.5,0.5-4.8,1.9-6.4,3.9C355.7,171.3,355.3,171.5,354.8,171.5z"/>
	<path class="st2" d="M282.6,98.7c-0.4,0-0.7-0.1-1-0.4l-5.8-5.1c-0.6-0.6-0.7-1.5-0.2-2.2c0.6-0.6,1.5-0.7,2.2-0.2l5.8,5.1
		c0.6,0.6,0.7,1.5,0.2,2.2C283.5,98.5,283.1,98.7,282.6,98.7z"/>
	<path class="st2" d="M369.4,178c-0.9,0-1.6-0.7-1.6-1.6v-7.3c0-0.9,0.7-1.6,1.6-1.6c0.9,0,1.6,0.7,1.6,1.6v7.3
		C371,177.4,370.3,178,369.4,178z"/>
	<path class="st2" d="M291.4,99.3c-0.3,0-0.6-0.1-0.8-0.2c-0.7-0.5-0.9-1.4-0.5-2.1l3.6-5.8c0.5-0.7,1.4-0.9,2.1-0.5
		c0.7,0.5,0.9,1.4,0.5,2.1l-3.6,5.8C292.5,99.1,292,99.3,291.4,99.3z"/>
	<path class="st2" d="M381.1,167.3c-0.1,0-0.2,0-0.3,0l-8-1.5c-0.8-0.2-1.4-1-1.2-1.8c0.2-0.8,1-1.4,1.8-1.2l8,1.5
		c0.8,0.2,1.4,1,1.2,1.8C382.4,166.7,381.8,167.3,381.1,167.3z"/>
	<path class="st2" d="M274.7,110.3c-0.5,0-0.9-0.2-1.2-0.6c-0.5-0.7-0.4-1.6,0.3-2.2l6.6-5.1c0.7-0.5,1.6-0.4,2.2,0.3
		c0.5,0.7,0.4,1.6-0.3,2.2l-6.6,5.1C275.3,110.2,275,110.3,274.7,110.3z"/>
	<path class="st2" d="M286.2,114.6c-0.1,0-0.1,0-0.2,0c-0.8-0.1-1.5-0.9-1.4-1.7l0.7-6.6c0.1-0.9,0.9-1.5,1.7-1.4s1.5,0.9,1.4,1.7
		l-0.7,6.6C287.7,114,287,114.6,286.2,114.6z"/>
	<path class="st2" d="M298.9,105.9c-2.5,0-5-0.9-7-2.6c-0.6-0.6-0.7-1.5-0.2-2.2c0.6-0.7,1.5-0.7,2.2-0.2c1.5,1.3,3.5,1.9,5.4,1.8
		c0.8,0,1.6,0.6,1.7,1.4c0.1,0.9-0.6,1.6-1.4,1.7C299.3,105.9,299.1,105.9,298.9,105.9z"/>
	<path class="st2" d="M263.9,115c-11.7-2.3-24.7,0.5-32.9,9.1c-3.8,4-6.2,9.3-7,14.8c0.2,0,0.5,0,0.7,0
		c5.5-12.4,18.5-20.8,31.9-19.5c12.5,1.2,23.7,10.6,27.6,22.5c1-5.2,0.7-10.4-1.8-15.1C278.8,120.2,271.4,116.5,263.9,115z"/>
	<path class="st2" d="M336.3,119.3c-2.3-3.4-7-3.9-11.1-3.8c-3.1,0.1-6.3,0.3-9.2,1.6c-2.9,1.2-5.4,3.6-6.1,6.6
		c-0.5,2.2,0,4.5,1.3,6.4c0.9-5.1,5.5-9.4,10.6-10.7c5.2-1.3,10.6,0,15.5,2.2C337,120.8,336.7,120,336.3,119.3z"/>
	<path class="st2" d="M336.5,187.6c-1.3-3.1-3.4-6.1-6.3-7.9c-3.6-2.1-8-2.2-12.1-1.8c-3.7,0.4-7.4,1.2-10.9,2.3
		c-7.1,2.2-12.5,7.6-15,13.9c6-5.9,14-9.7,22.4-10.1c8.3-0.5,16.6,2.4,23.2,7.4C337.5,190.2,337.1,188.9,336.5,187.6z"/>
	<path class="st2" d="M237,252.5c-4.3,5.2-11.6,7.2-18.4,6.4c-5.5-0.6-10.8-2.8-15.7-5.4c3.1,4.4,7.5,7.8,12.3,10.2
		c5.9,2.9,13.2,4.2,18.8,0.7c4.5-2.9,6.5-8.3,6.4-13.7c-0.2-0.1-0.5-0.1-0.8-0.1C238.5,250.6,237.7,251.7,237,252.5z"/>
	<path class="st2" d="M218.1,184.4c-2.2-5.2-9.5-7.3-14.2-4.2c-1.2,0.8-2.2,2-2.9,3.3c2.3-1.7,5.4-2.2,8.3-1.8
		c3.4,0.5,6.4,2.2,9.3,4.1C218.4,185.3,218.3,184.9,218.1,184.4z"/>
	<g>
		<path class="st2" d="M390.8,117.1c-5-5.5-10.6-10.5-16.5-15c-0.6,0.8-1.2,1.6-1.6,2.6c-2,4.8,0,10.9,4.4,13.8
			C381.3,121,387.1,120.2,390.8,117.1z"/>
		<path class="st2" d="M393.9,208.2c5,2.4,10.6,3.3,16.1,4.1c4.1,0.6,8.5,1.1,12.4,0c0.2-2.1,0.4-4.2,0.5-6.3
			c-7.1,1.9-14.6,1.8-21.6-0.3c-6.9-2.1-13.1-6.1-18-11.4c0,0.5,0.1,1.1,0.2,1.6C384.5,201.4,388.9,205.7,393.9,208.2z"/>
	</g>
	<path class="st2" d="M295.1,271.3c0.2,3.1,1.6,6.2,4.1,7.9c2.8,1.9,6.8,1.8,9.5-0.2c2.7-2.1,3.9-5.9,2.8-9.1
		c-0.9-2.7-3.2-4.7-5.8-5.8c-2.9-1.2-6.7-1.1-8.8,1.2C295.5,266.8,295,269.2,295.1,271.3z"/>
	<path class="st1" d="M350.8,270c-3.9,1.6-7.5,4.5-9.1,8.4c-1.7,3.9-1.1,8.9,2,11.8c2.6,2.5,6.5,3.1,10,2.3c3.5-0.8,6.5-2.9,9.2-5.3
		c3.1-2.8,5.8-6.8,5.1-10.9c-0.6-3.4-3.5-6.2-6.8-7.2C357.7,268,354.1,268.6,350.8,270z"/>
	<path class="st2" d="M326.9,254.1c1.8,1.2,4.3,0.9,5.8-0.6s1.6-4.1,0.4-5.8c-1,0-2,0-3,0C328.3,249.3,327.1,251.7,326.9,254.1z"/>
	<path class="st2" d="M329.8,92.4c-1.1-2.2-4.7-2.5-6.2-0.4c-1.4,2,0.1,5.3,2.5,5.6C328.8,97.9,331,94.8,329.8,92.4z"/>
	<path class="st3" d="M294.5,190.4c9.3-13.2,37.6-20.6,42.6,0.6c0.2,1,1.7,0.6,1.5-0.4c-5.3-22.4-35.1-15.5-45.4-1
		C292.6,190.4,294,191.2,294.5,190.4z"/>
	<path class="st3" d="M341.4,285.4c-1.1-11.1,8.7-19.9,19.7-16.5c1,0.3,1.4-1.2,0.4-1.5c-11.9-3.7-22.8,5.8-21.6,17.9
		C340,286.4,341.5,286.4,341.4,285.4z"/>
	<path class="st3" d="M202,255.7c7.5,7.1,15.7,12.4,26.4,10.9c8.2-1.2,13.5-9.8,12.4-17.6c-0.1-1-1.6-0.6-1.5,0.4
		c1.4,9.9-7,15.9-15.9,16c-7.9,0.1-14.9-5.7-20.3-10.8C202.3,253.9,201.2,255,202,255.7z"/>
	<path class="st3" d="M225.3,138.2c2.4-12.3,10.1-18.7,21.7-22.6c14.3-4.8,37.9,3.5,37.4,20.9c0,1,1.5,1,1.5,0
		c0.5-15.3-15.1-22.4-28.4-23.7c-16.1-1.6-30.6,9.6-33.7,25C223.6,138.7,225.1,139.2,225.3,138.2z"/>
	<path class="st3" d="M311.3,128.8c-6.3-6,3.7-10.7,8.2-12.1c5.6-1.7,12.6-3.7,16.2,2.4c0.5,0.9,1.8,0.1,1.3-0.8
		c-7.2-12.5-37.4,1.5-26.8,11.5C311,130.6,312.1,129.5,311.3,128.8z"/>
	<path class="st3" d="M249.3,204c-0.5,2.6-0.7,5.6,1.2,7.3c1.7,1.5,4.6,1,5.9-0.8c1.3-1.8,0.8-4.6-0.9-6.1
		C253.9,203,251.2,202.8,249.3,204z"/>
	<path class="st3" d="M283.7,100c0.4-1.3,2.5-1.8,3.4-0.7c0.9,1.1,0.3,3-1.1,3.3C284.6,102.9,283.2,101.3,283.7,100z"/>
	<path class="st3" d="M365.6,163.9c0,0.7,0,1.4,0,2.1c1.6,0.9,3.8-0.6,3.7-2.4c-0.2-1.8-2.7-2.8-4-1.7c-0.1,0.5-0.1,0.9-0.2,1.4
		L365.6,163.9z"/>
	<path class="st4" d="M235.7,163.5c8.5,6.7,22.5,10.7,32.6,5.3c0.9-0.5,0.1-1.8-0.8-1.4c-9.4,4.9-22.8,1.1-30.7-5.1
		C236.1,161.8,234.9,162.9,235.7,163.5z"/>
	<path class="st4" d="M304.4,223.3c7.9,2.6,16.1,1.7,23.3-2.5c0.9-0.5,0.1-1.9-0.8-1.4c-6.8,4-14.5,4.8-22,2.3
		C303.8,221.5,303.4,223,304.4,223.3z"/>
	<path class="st4" d="M366.5,165.5c0.4,0.2,0.8,0.4,1.2,0.6c1.8,0.9,3.3-1.8,1.6-2.7c-0.4-0.2-0.8-0.4-1.2-0.6
		C366.3,162,364.8,164.7,366.5,165.5z"/>
	<path class="st4" d="M367.8,130.3c2,0,2-3.1,0-3.1C365.9,127.2,365.9,130.3,367.8,130.3z"/>
	<path class="st4" d="M315.4,135.6c8.5,3.1,17.4-0.1,21.9-7.9c0.5-0.9-0.9-1.7-1.4-0.8c-4.2,7.2-12.3,10-20.1,7.2
		C314.9,133.7,314.5,135.2,315.4,135.6z"/>
	<path class="st4" d="M265.5,298.5c1,0.5,1.9,1,2.9,1.5c0.9,0.5,1.7-0.9,0.8-1.4c-1-0.5-1.9-1-2.9-1.5
		C265.4,296.6,264.6,298,265.5,298.5z"/>
	<path class="st4" d="M275.7,301.9c1.9,0.2,3.8,0.4,5.8,0.6c1,0.1,1-1.5,0-1.6c-1.9-0.2-3.8-0.4-5.8-0.6
		C274.7,300.2,274.7,301.8,275.7,301.9z"/>
	<path class="st4" d="M197.1,236.3c-1.5,8,0.5,15.7,5.7,21.9c0.7,0.8,1.8-0.3,1.1-1.1c-4.8-5.7-6.7-13-5.3-20.3
		C198.9,235.7,197.3,235.3,197.1,236.3z"/>
	<path class="st5" d="M217.1,290.9c21.9,19.9,51,32.1,82.9,32.1c67.9,0,123-55.1,123-123c0-36-15.5-68.4-40.2-90.9
		c28.9,46.9,25,112.4-15.3,155.5C328.1,306.8,266.4,315.2,217.1,290.9z"/>
	<path class="st6" d="M177,200c0,18.3,4,35.6,11.1,51.2c43.9,11.5,88.9-3,122.2-38.3c34.3-36.4,46.7-85.2,30.4-128.9
		c-12.7-4.5-26.4-7-40.7-7C232.1,77,177,132.1,177,200z"/>
	<g>
		<g>
			<defs>
				<filter id="Adobe_OpacityMaskFilter" filterUnits="userSpaceOnUse" x="189" y="91.2" width="146.3" height="144.9">
					<feColorMatrix  type="matrix" values="1 0 0 0 0  0 1 0 0 0  0 0 1 0 0  0 0 0 1 0"/>
				</filter>
			</defs>
			<mask maskUnits="userSpaceOnUse" x="189" y="91.2" width="146.3" height="144.9" id="SVGID_1_">
				<g class="st7">
					<g>
						<defs>
							<polygon id="SVGID_00000127734034495910712890000002900432867199750573_" points="1,1 2,1 1,2 							"/>
						</defs>
						<defs>
							<polygon id="SVGID_00000086691247699611660500000009081321889533571211_" points="-1,-1 -2,-1 -1,-2 							"/>
						</defs>
						<clipPath id="SVGID_00000101073174499023076450000006676795398594453680_">
							<use xlink:href="#SVGID_00000127734034495910712890000002900432867199750573_"  style="overflow:visible;"/>
						</clipPath>
						
							<clipPath id="SVGID_00000057860592173578035520000010959841969446416560_" style="clip-path:url(#SVGID_00000101073174499023076450000006676795398594453680_);">
							<use xlink:href="#SVGID_00000086691247699611660500000009081321889533571211_"  style="overflow:visible;"/>
						</clipPath>
						
							<radialGradient id="SVGID_00000032634502115298626980000007090313985855205810_" cx="-66.7938" cy="668.5195" r="133.3746" gradientTransform="matrix(2.820000e-02 -0.885 -0.9116 0.1621 841.5682 -34.0019)" gradientUnits="userSpaceOnUse">
							<stop  offset="0" style="stop-color:#FFFFFF"/>
							<stop  offset="0.7749" style="stop-color:#000000"/>
						</radialGradient>
						
							<path style="clip-path:url(#SVGID_00000057860592173578035520000010959841969446416560_);fill:url(#SVGID_00000032634502115298626980000007090313985855205810_);" d="
							M217.5,117.2c31-29.8,80.6-35.6,106.6-8.9s2.4,50.8-27.3,87.6c-24.4,30.3-66.2,55.6-92.2,28.9
							C178.6,198.2,186.5,147,217.5,117.2z"/>
					</g>
				</g>
			</mask>
			
				<radialGradient id="SVGID_00000137850117024777872810000011529396992036248725_" cx="-66.7938" cy="668.5195" r="133.3746" gradientTransform="matrix(2.820000e-02 -0.885 -0.9116 0.1621 841.5682 -34.0019)" gradientUnits="userSpaceOnUse">
				<stop  offset="0" style="stop-color:#FFFFFF"/>
				<stop  offset="0.7749" style="stop-color:#000000"/>
			</radialGradient>
			<path style="mask:url(#SVGID_1_);fill:url(#SVGID_00000137850117024777872810000011529396992036248725_);" d="M217.5,117.2
				c31-29.8,80.6-35.6,106.6-8.9s2.4,50.8-27.3,87.6c-24.4,30.3-66.2,55.6-92.2,28.9C178.6,198.2,186.5,147,217.5,117.2z"/>
		</g>
	</g>
	
		<radialGradient id="SVGID_00000103987280807725693270000009235160875324308366_" cx="-66.7938" cy="668.5195" r="133.3746" gradientTransform="matrix(2.820000e-02 -0.885 -0.9116 0.1621 841.5682 -34.0019)" gradientUnits="userSpaceOnUse">
		<stop  offset="0" style="stop-color:#FFFFFF"/>
		<stop  offset="0.7749" style="stop-color:#F3F9F7"/>
	</radialGradient>
	<path style="opacity:0.49;fill:url(#SVGID_00000103987280807725693270000009235160875324308366_);enable-background:new    ;" d="
		M217.5,117.2c31-29.8,80.6-35.6,106.6-8.9s2.4,50.8-27.3,87.6c-24.4,30.3-66.2,55.6-92.2,28.9C178.6,198.2,186.5,147,217.5,117.2z"
		/>
	<path class="st12" d="M246.9,310.9c16.1,7.7,34.1,12,53.1,12c67.9,0,123-55.1,123-123S367.9,77,300,77c-10.6,0-20.9,1.3-30.8,3.9
		c27.6-6.3,57.5-3.1,84.5,11.2c59.5,31.6,82,105.2,50.1,164.5C373.5,313.1,304.8,336.2,246.9,310.9z"/>
</g>
</svg>
