<?xml version="1.0" encoding="utf-8"?>
<!-- Generator: Adobe Illustrator 27.8.0, SVG Export Plug-In . SVG Version: 6.00 Build 0)  -->
<svg version="1.1" id="Layer_3" xmlns="http://www.w3.org/2000/svg" xmlns:xlink="http://www.w3.org/1999/xlink" x="0px" y="0px"
	 viewBox="0 0 600 400" style="enable-background:new 0 0 600 400;" xml:space="preserve">
<style type="text/css">
	.st0{fill:#4FDBC3;}
	.st1{fill:#4FCDC0;}
	.st2{fill:#3FAEB4;}
	.st3{fill:#20968F;}
	.st4{fill:#75E33C;}
	.st5{fill:#43FAC8;}
	.st6{fill:#4AB70E;}
	.st7{filter:url(#Adobe_OpacityMaskFilter);}
	.st8{clip-path:url(#SVGID_00000006699676672626454880000000950735478745236358_);}
	
		.st9{clip-path:url(#SVGID_00000045597199488414820030000014789901384141094808_);fill:url(#SVGID_00000106863138988327079150000010530679280359866517_);}
	.st10{mask:url(#SVGID_1_);fill:url(#SVGID_00000173153577791115866790000006313291179718868867_);}
	.st11{fill:url(#SVGID_00000182501097754158449540000015394175969157367190_);}
	.st12{fill:#69D824;}
	.st13{fill:#7ABD24;}
	.st14{fill:#88E33D;}
	.st15{fill:#69BF24;}
	.st16{opacity:0.5;fill:#3C8E31;enable-background:new    ;}
	.st17{fill:#69D224;}
	.st18{fill:#69B024;}
	.st19{fill:#7FEDDC;}
	.st20{opacity:0.15;fill:#FFFFFF;enable-background:new    ;}
	.st21{opacity:0.24;fill:#FFFFFF;enable-background:new    ;}
	.st22{filter:url(#Adobe_OpacityMaskFilter_00000072269106997237514190000004910581490089031600_);}
	.st23{clip-path:url(#SVGID_00000170989584349460766320000017272484883899723662_);}
	
		.st24{clip-path:url(#SVGID_00000129926626056498867920000003623924160840779393_);fill:url(#SVGID_00000168822363050559944520000000467372460365811094_);}
	
		.st25{mask:url(#SVGID_00000032634480306183528930000010828872219477183623_);fill:url(#SVGID_00000092437369300254720770000016822895507454530176_);}
	.st26{opacity:0.57;fill:url(#SVGID_00000072260160189853053660000010425500755316150175_);enable-background:new    ;}
</style>
<g>
	<circle class="st0" cx="300" cy="200" r="123"/>
	<path class="st1" d="M207.3,119.4c35.6-40.3,96.8-46.1,139.3-12.3c43.8,34.9,50.9,98.7,16,142.6S263.8,300.9,220,266
		c-42.4-33.8-50.5-94.8-19.1-138.4c-38.7,53-29.2,127.4,22.5,168.6c53.1,42.3,130.5,33.4,172.8-19.7
		c42.4-53.2,33.7-130.5-19.3-172.8C325,62.5,250.3,69.8,207.3,119.4z"/>
	<path class="st2" d="M383.7,110.1c-0.5-0.5-0.8,0-1.3-0.5c29.4,46.9,25.5,111.2-15,154.5c-39.1,41.8-100,51.2-149,27.7
		c21.6,19.1,49.9,30.8,81,31c1.2,0,2.5,0,3.7-0.1c0.5,0,1.1,0,1.6,0c31.2-1.3,61.9-14.3,84.9-38.7
		C436.2,234.6,433.3,156.2,383.7,110.1z"/>
	<path class="st3" d="M339,296.2c0.6-0.8,1.4-1.2,2.2-1.1c0.6-0.7,1.2-1.3,1.8-2c4.7-5.8,7.7-11.5,9.5-17.5
		c-2.7-11.3-11.6-21-22.8-24.4c-3.5-1.1-7.3-1.6-10.7-0.3c-3.4,1.2-6.3,4.5-6,8.1c0.2,3.6,4.3,6.7,7.6,5.3
		c-5.8,9.7-17.9,15.3-29.1,13.3c-1.5,1.4-0.9,3.9,0.3,5.6c1.1,1.7,2.7,3.3,2.8,5.4c0.2,2.9-2.7,5.2-5.6,5.5c-2.9,0.2-5.7-1-8.3-2.2
		c6.5,7.9,6.9,20.1,1.2,28.5c0.2,0,0.4,0.1,0.6,0.1c0.5-0.3,1.1-0.5,1.8-0.5c4.6-0.1,9-1,13-3.4c1.9-1.1,3.7-0.1,4.5,1.4
		c1-0.3,2-0.5,3-0.8c0.4-1.1,1.4-2,2.9-2.2C319.1,313.8,332.1,305.2,339,296.2z"/>
	<path class="st4" d="M339.5,91.4c-4.5-1.4-9.3-1.7-13.9-0.9c-3.4,0.6-7.1,2.3-7.8,5.6c-0.7,3.2,2,6.3,5,7.4c3,1.2,6.4,1,9.6,1.3
		c11.6,0.8,22.7,6.8,29.7,16.1c1.9,2.6,4,5.6,7.2,5.9c4.2,0.3,7.1-4.9,6-8.9c-1-4.1-4.5-7-7.9-9.5
		C356.8,100.5,352.2,95.4,339.5,91.4z"/>
	<path class="st3" d="M330.3,106.2c8.7,0.9,18.1,2.2,24.3,8.4c2.1,2.1,3.7,4.7,5.6,7.1c1.8,2.4,4,4.6,6.8,5.7s6.3,0.8,8.4-1.4
		c2-2.2,1.7-6.4-1.1-7.7c-0.6,3.4-5.3,4.6-8.5,3.1c-3.2-1.5-5.2-4.5-7.5-7.2c-9-10.4-24-15.4-37.4-12.4
		C322.5,105,326.7,105.8,330.3,106.2z"/>
	
		<ellipse transform="matrix(0.8664 -0.4993 0.4993 0.8664 -49.5068 167.4673)" class="st5" cx="288.2" cy="176.3" rx="62.3" ry="49.2"/>
	<path class="st3" d="M301.1,130.6c0.7-3.1,3.4-5.2,6.2-6.7c2.7-1.5,5.8-2.8,7.7-5.3c1.9-2.5,2.2-6.6-0.4-8.4
		c3.3,1.5,5.8,4.8,6.3,8.3c0.5,3.6-0.9,7.4-3.7,9.8c-2.1,1.8-4.7,2.7-6.8,4.6c-2,1.8-3.2,5.2-1.4,7.2c0.8,0.8,1.9,1.3,2.8,2
		c2.9,2.2,3,6.5,3,10.2s0.9,8.1,4.4,9.4c-4.7,0.2-9.3-3.3-10.4-7.9c-0.6-2.4-2.9-5.5-3.5-7.8C303.9,140.3,299.9,136.4,301.1,130.6z"
		/>
	<path class="st3" d="M358,243.9c2.1-2.3,5.8-1.3,8.8-1.4c8.2-0.3,13.2-9,16.4-16.6c3.8-8.8,7.7-17.5,11.5-26.3
		c1.3-3,5.7-1.6,5.2,1.6c-2,11.1-7.1,21.6-14.7,29.9c-1.2,1.3-2.2,2.9-2.4,4.7c-1,6.6,6.3,7.6,10,4.6c0,0,0.1,0,0.1-0.1
		c2.3-1.9,5.6-0.5,5.8,2.4l0.1,2.4c6.1-7.5,10.9-16.1,14.1-25.2c1.4-4,7.4-2.4,6.8,1.8c-0.8,5.6-2.3,11.2-4,16.6
		c-4.3,12.9-10.4,25.5-19.7,35.5c-9.3,10-22,17.2-35.7,18c-13.6,0.8-27.9-5.5-34.9-17.3c-3.4-5.8-4.9-13-2.3-19.2
		c2.6-6.2,10.2-10.3,16.4-7.7c2.7,1.2,4.8,3.4,7.4,4.8s6.3,1.7,8.1-0.6C356.9,249.5,356.1,246,358,243.9z"/>
	<path class="st3" d="M212.2,211.9c0.5,18.1,9.9,35.8,24.7,46.4c7.2,5.2,16.4,9.8,18.3,18.5c0.6,2.7,0.4,5.8,2.1,8
		c1.6,2.1,4.5,2.7,7.1,3.1c8,1.4,17.4,2.5,23.3-3.2c2.5-2.4,4.1-5.9,7.1-7.5c4.2-2.2,10.6-0.6,12.8-5.1c0.7-1.5,0.7-3.3,0.1-4.9
		c-1.9-4.8-7.1-6.9-9.6-11.1c-2.4-4.2-1.4-9.7,1.2-13.8c1-1.5,2.2-2.9,3.4-4.2c3.5-3.4,1.9-9.4-2.9-10.3c-4.9-0.9-10.1-0.2-14.5,2.2
		c-4.6,2.5-9,6.9-14.5,5.2c-3.6-1.1-5.9-4.5-6.3-8.3c-0.7-6.6,3.3-12,7.7-16.4c-8,3.9-18.3,8.5-27.1,10.1
		c-8.7,1.6-18.4,0.5-25.5-4.8C216.4,213.2,216.5,212.7,212.2,211.9z"/>
	<path class="st3" d="M370.2,188.6c-6.1,4.7-14.7,4-22.4,3.4c-17.8-1.6-36.2-2-52.9,4.2c-16.7,6.2-31.5,20.5-33.6,38.2
		c0.2-17.3,12.5-32.8,27.9-40.6s31-9.4,48.2-7.5c7.5,0.8,18.1,2.5,24.8-1c5.4-2.8,8.9-8.5,10.3-14.4c1.3-5.9,0.7-12.1-0.7-18
		c2.4,6,4.8,12.1,5.1,18.6C377.3,177.7,375.3,184.7,370.2,188.6z"/>
	<path class="st6" d="M313.8,256.8L313.8,256.8c-0.2-0.1-0.5-0.3-0.7-0.4C313.3,256.7,313.6,257.1,313.8,256.8z"/>
	<path class="st6" d="M259.6,290.1c-6.2-3.5-10.9-5.3-17.7-7.3c-2.9,0.8-5.3-2.7-5.2-5.7s1.6-5.8,1.9-8.7c0.3-3-1.6-6.6-4.6-6.3
		c-2.2,0.2-3.6,2.5-4.4,4.6c-0.7,2.1-1.2,4.5-2.9,6c-2.2,1.9-5.7,1.5-8-0.2s-3.7-4.4-4.7-7.1c-1.1-2.7-1.9-5.5-3.6-7.8
		c-2.4-3.4-6.5-5.5-10.7-5.6c-2.1,0-5.8,2.9-8.6,5.5c14.1,26.6,37.6,47.4,66.1,57.9c0.3,0.1,0.7,0.3,1,0.4c1.2,0.4,2.4,0.8,3.6,1.2
		c1.4,0.4,2.8,0.9,4.2,1.3c0.4,0.1,0.8,0.2,1.3,0.4c2,0.6,4.1,1.1,6.2,1.5c1.1-4.7,1.5-10.9,0.2-14.5
		C271.2,298.8,265.7,293.6,259.6,290.1z"/>
	<path class="st6" d="M216.9,137.3c-1.1,2.4-2.7,4.8-2.8,7.5s1.5,5.4,4,6.5c1.7,0.8,0.8,3.3-0.2,4.9c-1,1.7-3,2.6-4.9,2.3
		c-7.6,25.6-4,55.5,11.1,77.6s40.4,36.9,67,39.3c1.8,0.2,5.7,1.8,8.2-1.8c-1.6,0.3-3-1.2-3.4-2.8c-0.3-1.6,0.1-3.2,0.4-4.8
		c0.6-3,0.7-6.1,0.3-9.2c-0.1-1.2-0.4-2.4-1-3.4s-1.7-1.8-2.9-1.7c-1.8,0.1-2.9,1.8-3.9,3.3c-1,1.5-2.2,3.8-3.9,3.3
		c-2.4,1.3-5.8,0.5-7.3-1.8c-1.5-2.3-1.1-5.7,1-7.4c1.3-1.1,3.2-1.7,4-3.2c1-2-0.6-4.6-2.8-5.4c-2.1-0.8-4.7-0.5-6.8,0.2
		c-2.8,0.9-6.1-0.8-7.6-3.4c-1.5-2.6-1.7-5.7-1.4-8.7c1.3-15.4,12.6-28.7,26.4-35.5c13.8-6.9,29.8-8.1,45.2-7
		c6.5,0.5,13,1.3,19.5,0.8c6.5-0.6,14.1-1.7,16.9-7.6c5.5-11.5,4.7-26.1-3.1-36.2c-7.8-10.1-22.7-14.5-34.2-9.1
		c-3.8,1.8-7.3,4.6-8.7,8.6c-1.4,3.7-0.8,7.7-1.9,11.5c-1,3.8-4.8,7.4-8.4,5.9c-2.6-1.1-3.6-4.3-3.9-7.1s-0.2-5.9-1.9-8.2
		c-1.2-1.6-3.1-2.5-4.7-3.8s-3-3.2-2.4-5.2s2.7-2.9,4.5-3.9c6.4-3.6,10-11.4,8.8-18.5c-0.6-3.2-2.1-6.3-4.9-8
		c-5.1-3.1-11.4,0-17,2.1c-19.7,7.6-43.5,2.5-58.7-12c-8.2,5.1-15.8,11.1-22.6,17.9C219.1,119.4,220.6,129.1,216.9,137.3z"/>
	<path class="st6" d="M312.7,256.3c0.1,0,0.2,0.1,0.3,0.1C312.8,256.2,312.7,256.1,312.7,256.3z"/>
	<path class="st6" d="M386.3,112.4c-0.9,1.1-1.7,2.5-2.4,3.7c-1.1,2-2.2,4.2-1.7,6.3c0.9,3.7,5.6,4.6,9,6.2
		c9.3,4.3,12.4,17.3,21.3,21.6C406.2,136.1,397.3,123.2,386.3,112.4z"/>
	<path class="st6" d="M286.5,322c4.5,0.5,9,0.8,13.6,0.8c51.4,0,95.4-31.5,113.8-76.3c-0.7-0.4-1.5-0.8-2.3-1
		c-3.6-1.1-7.7-0.1-10.3,2.5c-1.5,1.5-2.5,3.3-3.8,5c-1.3,1.6-3,3.2-5.1,3.5s-4.5-1.1-4.5-3.2c-6.7-1.3-14.3-4-21-5.3
		c-2.1-0.4-4.4-0.8-6.4,0c-4.6,2-5.2,9.9-12.4,7.9c-2.1-0.6-4-1.9-5.5-3.4c-4.3-4.4-10.9-4.6-16.4-2.7c-2.2,0.8-4.3,1.8-6.3,3.1
		c-2.5,1.5-2.9,4.7-1.3,7.1l0,0c1.3,1.9,0.9,5.1-1.3,5.9c-0.9,2.1-2.9,2.3-5.2,2.6c-2.2,0.4-4.6,0.3-6.6,1.3s-3.5,2.8-4.8,4.6
		c-1.2,1.6-2.5,3.2-3.5,5c-2.1,1.1-1.6,1.6-0.7,3.9s2,4.9,0.8,7c-1.1,1.9-3.7,2.3-5.9,2c-2.6-0.4-5.2-1.4-7.8-0.6
		c-1.7,0.6-2.9,2.1-2.7,3.8c0.3,2.1,2.6,2.9,4.3,4c4.7,3.2,5.1,10.1,3.7,15.6C288.1,317.4,287.3,319.7,286.5,322z"/>
	<g>
		<g>
			<defs>
				<filter id="Adobe_OpacityMaskFilter" filterUnits="userSpaceOnUse" x="186.4" y="83" width="199.9" height="174.3">
					<feColorMatrix  type="matrix" values="1 0 0 0 0  0 1 0 0 0  0 0 1 0 0  0 0 0 1 0"/>
				</filter>
			</defs>
			<mask maskUnits="userSpaceOnUse" x="186.4" y="83" width="199.9" height="174.3" id="SVGID_1_">
				<g class="st7">
					<g>
						<defs>
							<polygon id="SVGID_00000041269992998873782760000001030644676074375077_" points="1,-4.4 2,-4.4 1,-3.4 							"/>
						</defs>
						<defs>
							<polygon id="SVGID_00000054246712762270853650000009978244264227080633_" points="-1,-6.4 -2,-6.4 -1,-7.4 							"/>
						</defs>
						<clipPath id="SVGID_00000012449426317022439180000001717928548201621417_">
							<use xlink:href="#SVGID_00000041269992998873782760000001030644676074375077_"  style="overflow:visible;"/>
						</clipPath>
						
							<clipPath id="SVGID_00000106869082719621610640000004278764117174354597_" style="clip-path:url(#SVGID_00000012449426317022439180000001717928548201621417_);">
							<use xlink:href="#SVGID_00000054246712762270853650000009978244264227080633_"  style="overflow:visible;"/>
						</clipPath>
						
							<radialGradient id="SVGID_00000058577140613961649860000011243062840121173120_" cx="266.8869" cy="282.4036" r="81.1877" gradientTransform="matrix(1.0164 4.330000e-02 -4.340000e-02 -1.1137 27.1912 469.1551)" gradientUnits="userSpaceOnUse">
							<stop  offset="0.6277" style="stop-color:#FFFFFF"/>
							<stop  offset="0.693" style="stop-color:#FCFCFC"/>
							<stop  offset="0.7491" style="stop-color:#F1F1F1"/>
							<stop  offset="0.8018" style="stop-color:#DFDFDF"/>
							<stop  offset="0.8524" style="stop-color:#C6C6C6"/>
							<stop  offset="0.9016" style="stop-color:#A6A6A6"/>
							<stop  offset="0.9496" style="stop-color:#7F7F7F"/>
							<stop  offset="0.996" style="stop-color:#515151"/>
							<stop  offset="1" style="stop-color:#4D4D4D"/>
						</radialGradient>
						
							<path style="clip-path:url(#SVGID_00000106869082719621610640000004278764117174354597_);fill:url(#SVGID_00000058577140613961649860000011243062840121173120_);" d="
							M381.7,134.3c16.6,43.9-12.7,95.5-65.3,115.3s-108.7,0.4-125.3-43.5s12.7-95.5,65.3-115.3S365.2,90.4,381.7,134.3z"/>
					</g>
				</g>
			</mask>
			
				<radialGradient id="SVGID_00000093177267025705498240000004524621987526776241_" cx="266.8869" cy="282.4036" r="81.1877" gradientTransform="matrix(1.0164 4.330000e-02 -4.340000e-02 -1.1137 27.1912 469.1551)" gradientUnits="userSpaceOnUse">
				<stop  offset="0.6277" style="stop-color:#FFFFFF"/>
				<stop  offset="0.693" style="stop-color:#FCFCFC"/>
				<stop  offset="0.7491" style="stop-color:#F1F1F1"/>
				<stop  offset="0.8018" style="stop-color:#DFDFDF"/>
				<stop  offset="0.8524" style="stop-color:#C6C6C6"/>
				<stop  offset="0.9016" style="stop-color:#A6A6A6"/>
				<stop  offset="0.9496" style="stop-color:#7F7F7F"/>
				<stop  offset="0.996" style="stop-color:#515151"/>
				<stop  offset="1" style="stop-color:#4D4D4D"/>
			</radialGradient>
			<path style="mask:url(#SVGID_1_);fill:url(#SVGID_00000093177267025705498240000004524621987526776241_);" d="M381.7,134.3
				c16.6,43.9-12.7,95.5-65.3,115.3s-108.7,0.4-125.3-43.5s12.7-95.5,65.3-115.3S365.2,90.4,381.7,134.3z"/>
		</g>
	</g>
	
		<radialGradient id="SVGID_00000048472586845723914680000013395890671220620991_" cx="266.8869" cy="282.4036" r="81.1877" gradientTransform="matrix(1.0164 4.330000e-02 -4.340000e-02 -1.1137 27.1912 469.1551)" gradientUnits="userSpaceOnUse">
		<stop  offset="0.6277" style="stop-color:#000000"/>
		<stop  offset="0.9742" style="stop-color:#000000"/>
		<stop  offset="1" style="stop-color:#000000"/>
	</radialGradient>
	<path style="fill:url(#SVGID_00000048472586845723914680000013395890671220620991_);" d="M381.7,134.3
		c16.6,43.9-12.7,95.5-65.3,115.3s-108.7,0.4-125.3-43.5s12.7-95.5,65.3-115.3S365.2,90.4,381.7,134.3z"/>
	<path class="st5" d="M361.6,200.8c-4.1-1.2-8.1,1.6-11.5,4.2c-8.8,6.8-17.6,13.6-26.4,20.4c-3.2,2.5-6.8,6.2-5.3,9.9
		c1,2.6,4.1,3.7,6.9,4.2c8.2,1.5,16.9,0.1,24.2-3.9c7.3-4,13.2-10.6,16.3-18.3c1.2-3,2-6.2,1.5-9.4
		C366.8,204.8,364.7,201.7,361.6,200.8z"/>
	<path class="st12" d="M330.8,152.6c-1.2,4.5-6.6,7.7-6,12.3c0.5,4.1,5.1,5.9,9,7.3c6.3,2.3,12.3,5.4,17.9,9.2
		c5.3,3,12.4,0.2,15.8-4.8s3.7-11.5,3-17.5c-0.7-5.7-2.5-11.6-6.9-15.4c-1.6-1.4-3.5-2.4-5.4-3.1c-0.2-0.1-0.4-0.1-0.5-0.2
		c-3.7,0.6-7.8,2.6-10.6-2.8c-0.2,0-0.4-0.1-0.6-0.1c-2.2-0.4-4.5-0.6-6.7-0.3c-3.7,0.6-7.4,2.9-8.4,6.6
		C330.5,146.7,331.5,149.8,330.8,152.6z"/>
	<path class="st12" d="M259.8,241.8c-3.9-8.1-3-18.4,2.4-25.6c-3.4-1.2-6.9,1.9-8.5,5.2c-2.2,4.7-2.8,10.4-9.5,11.9
		c-0.5,0.1-1.2,0-1.6-0.3c-4.1-2.9-2.5-6-0.5-8.2c4.5-4.9,10.8-7.6,16.6-10.9c5.7-3.3,11.4-8.1,12.6-14.6
		c-6.3,5-12.7,10.1-20.2,13.2c-7.5,3.1-16.3,3.9-23.5,0.2c-2.1-1.1-4.2-2.5-6.6-2.6c-1.5-0.1-3,0.7-3.9,2c-1.4,2,0.9,6.4,1.5,7.8
		c6.4,14.1,15.4,22.4,28,34c7.9,7.2,21.6,14.9,33.6,10c2.1-0.8,1.5-3.8-0.7-3.9C266.3,259.6,259.6,238.6,259.8,241.8z"/>
	<path class="st4" d="M311.2,177.6c-1,1-2.2,1.7-3,2.8c-0.9,1.1-1.4,2.6-0.8,3.8c10.1-2.6,20.6-3.2,31-1.9c0.8,0.1,1.6,0.2,2.4-0.1
		s1.4-1.1,1.2-1.9c-0.2-0.8-1-1.2-1.8-1.4c-4.1-1.3-8.5-1.3-12.6-2.3c-4.2-1-8.4-3.5-9.6-7.6c-0.4-1.4-0.5-3-1.3-4.2s-3-1.7-3.7-0.4
		C315.4,168.4,314.7,174.2,311.2,177.6z"/>
	<path class="st13" d="M202,267.5c5.2-1.1,9.3,3.9,13,7.7c13.1,13.5,34,16,49.2,27.2c1.8,1.3,3.7,3.2,3.2,5.4
		c-0.4,1.6-2,2.7-3.7,2.9c-1.7,0.2-3.3-0.3-4.9-0.9c-18.9-6.7-35.1-19.1-51-31.3C204.2,275.7,200.3,271.6,202,267.5z"/>
	<path class="st14" d="M294.4,178.5c5.4-4.9,4.4-13.6,2.1-20.6c-2.2-7-5.3-14.5-2.6-21.3c2.4-6,9.1-11.4,6.8-17.4
		c-1.3-3.4-5.3-5.1-8.9-5.1c-3.6,0.1-7.1,1.6-10.4,3c-6,2.5-12.2,4.8-18.7,5.1c-6.5,0.3-13.3-1.5-17.8-6.3c-2.5-2.7-4.1-6.1-6.6-8.8
		c-2.5-2.7-6.6-4.5-9.8-2.8c-2.6,1.3-3.8,4.4-3.7,7.3c0,2.9,1.1,5.7,1.9,8.4c4.5,15.2,2.5,32.1-5.2,45.9c-4.9,8.8-12.4,18.3-9,27.8
		c2.8,7.6,12,11.3,20.1,10.3s15.2-5.6,21.9-10.1c6.7-4.5,13.7-9.3,21.7-10.7C282.4,182.1,289.6,182.8,294.4,178.5z"/>
	<path class="st15" d="M375.1,258.4c-11.9-4.4-24,11.9-36,7.7c-3.5-1.2-6.7-4.2-10.3-3.7c-3.3,0.5-5.5,3.6-6.5,6.7s-1.2,6.5-2.4,9.6
		c-1.8,4.6-5.9,8-9.8,11c-4,3-8.1,6.1-10.6,10.4s-2.5,10.5,1.3,13.7c24.3-1.7,49.4-6.8,69-21.3c5.7-4.2,11.1-9.6,12.9-16.4
		C384.6,269.4,381.7,260.9,375.1,258.4z"/>
	<path class="st16" d="M286.5,322.3c4.5,0.5,9,0.8,13.6,0.8c50.6,0,94.1-30.6,112.9-74.2c-3.3-1.6-7.3-1.8-10.3,0.2
		c-2,1.3-3.4,3.4-5.5,4.5c-1.3,1.5-2.9,2.9-4.8,3.2c-1.6,0.2-3.3-0.5-4.1-1.8c-6.2,1.5-10.9,6.9-15.4,11.5
		c-22,22.9-53.8,36-85.5,35.7c2.4,3.6,2.5,8.8,1.4,13.1C288.1,317.6,287.3,320,286.5,322.3z"/>
	<path class="st5" d="M378.1,215.2c7.2-6.2,11.6-15.3,13.4-24.6s1.1-19-0.2-28.4c-0.5-3.5-1.1-6.9-1.8-10.4c-0.5-2.5-1.4-5.5-4-6.1
		c-2.1-0.5-4.2,1-5,3c-1.2,3.1-0.1,6.3,0.7,9.3c2.9,11.4,0.5,24-5.9,33.9c-2.3,3.6-3.4,7.8-3.1,12.1c0,0.4,0,0.7,0,1.1
		c-0.2,2.4-1.1,4.7-0.9,7.1c0.2,2.4,2.2,4.9,4.5,4.4C376.7,216.4,377.4,215.8,378.1,215.2z"/>
	<path class="st12" d="M349.7,157.5c-0.9-5.5-3.3-10.8-6.9-15.1c-0.8-1-1.8-2-3-2.2c-2.2-0.4-4.2,1.9-4.4,4.1
		c-0.3,2.2,0.6,4.4,1.1,6.6c0.6,2.2,0.8,4.7-0.6,6.5c-1.1,1.4-3,2.2-3.5,3.9c-0.5,1.5,0.5,3.2,1.8,4.1c1.3,0.9,2.9,1.2,4.5,1.5
		c3.1,0.6,6.8,1,9.1-1.2C350,163.7,350.1,160.4,349.7,157.5z"/>
	<path class="st17" d="M235.6,242.9c2.2,3.2,4.5,6.5,7.5,9c4.2,3.3,9.5,4.7,14.7,5.5c1.6,0.2,3.7,0.2,4.3-1.3c0.4-1-0.1-2.1-1-2.8
		c-0.8-0.7-1.9-1-2.9-1.3c-7.2-2.4-13.5-7.2-17.7-13.4c-2.5-3.7-4.3-7.9-6.9-11.5c-2.6-3.7-6.3-6.9-10.8-7.3c-0.7,3,1.1,6,2.8,8.5
		C228.9,233.1,232.2,238,235.6,242.9z"/>
	<path class="st18" d="M342.2,283.2c0.9,0.4,1.8,0.8,2.7,1.2c-1.1,1.8-3.3,2.7-5.3,3.4c-9.5,3.4-19,6.7-28.4,10.1
		c4.5-3.7,9.2-7.5,11.8-12.7c1.6-3.3,2.4-7.2,5.1-9.7c2.6-2.4,6.8-2.9,9.9-1.2C341,275.9,342.8,279.7,342.2,283.2z"/>
	<path class="st3" d="M294.1,220.8c-0.3,0.3-5.6,4.7-12.3,6.3c-2.1,0.5-5,0.7-5.5-1.3c-0.3-1.2,0.6-2.4,1.4-3.3l0.6-0.8
		c6.6-7.7-2.8-2.4-3.4-3.1c-1.3-1.6,11.3-18.2,32.9-22.1c4.3-0.8,9.1-1,12.6,1.6c-9.4,0.1-18.8,2.7-26.9,7.4c-2,1.2-4,2.5-5.4,4.4
		c-0.4,0.5-0.7,1-1,1.6c-0.9,2,1.3,3.9,3.2,2.9c5.2-2.9,15-11.2,15.7-8.7c0.2,0.9,11.1-2.2,0.5,2.6
		C301.2,210.9,296.7,215.4,294.1,220.8z"/>
	<path class="st12" d="M358.3,154.9c0.4-0.3,0.8-0.8,0.8-1.4c0-0.9-0.8-1.6-0.9-2.4c-0.1-1.1,0.9-1.9,1.7-2.6
		c0.8-0.7,1.4-2.1,0.6-2.8c-1.4-1.2-3.6-1-5.1,0.1s-2.2,3-2.2,4.8c0,1.4,0.4,2.9,1.3,3.8C355.4,155.4,357.2,155.7,358.3,154.9z"/>
	<path class="st3" d="M379.9,127.2c-3.3,3.2-8.2,4.7-12.7,3.8c0,0.2-1,0.5-1,0.7c0.5,0.9,1.8,1.1,2.8,1c1.1,0,2.2-0.2,3.1,0.5
		c1,0.8,1,2.3,1.5,3.5c1.4,3.1,6.4,3.4,7.6,6.6c-0.7-2.8-1.4-5.5-2.2-8.3c-0.3-1.1-0.6-2.4,0-3.3c0.4-0.7,1.2-1.2,1.7-1.8
		C381.3,129.2,380.7,127.4,379.9,127.2z"/>
	<path class="st19" d="M190.1,174.3c0.2-3.8,0.7-7.7,1.4-11.5c0.3-1.6-2-2.3-2.6-0.7c-4.1,12.1-6.3,24.9-6.6,37.7
		c-0.1,4.2,0.2,8.7,1.4,12.7c0.9,2.8,4.9,2.1,4.8-0.8c-0.3-8,0.1-15.9,1.2-23.8c-1.3,23.3,8.2,47.1,25.2,63.2
		c-8.1-20.5-15.9-41.4-17.9-63.3c-1.7-18.2,1-37.3,9.8-53.1c0.6-1.1-0.9-2.1-1.7-1.1C195.7,144.9,190.2,159.6,190.1,174.3z"/>
	<path class="st16" d="M273.6,320.2c1.1-2.7,1.5-5.7,1.3-8.7c-0.5-1.8-1.3-3.6-2.4-5.1c-3.1-4.5-8-7.5-13.1-9.6
		c-5.1-2.1-10.4-3.3-15.6-5.1c-16.2-5.6-30.5-16.6-40.2-30.8c-1.6-2.3-3-4.7-5.1-6.6c-0.7-0.7-1.2-0.7-2-1.1
		c-2.2,0.6-3.8,2.5-5.4,4.1C207.7,289.6,237.2,312.2,273.6,320.2z"/>
	<path class="st12" d="M239.5,167.4c0.4-2.3,1.1-4.6,1-7c-0.1-2.3-1.3-4.9-3.5-5.6c-2.5-0.8-5.2,1.2-6.4,3.6
		c-1.2,2.4-1.4,5.1-2.2,7.6c-2.4,7.8-9.9,14.2-9,22.3c0.7,6.4,7.7,11.3,14,9.8c6.2-1.5,9.9-7.6,15.1-11.3c1.3-0.9,2.6-1.7,3.6-2.8
		c1-1.2,1.6-2.9,0.8-4.3c-2.1-2.7-6.5-1.2-9.6-2.6C239.9,175.7,238.9,171.2,239.5,167.4z"/>
	<path class="st12" d="M275.2,154.2c1.2-3,3.9-5.2,6.5-7.2s5.3-4,6.9-6.9s1.5-6.9-1-9c-1.7-1.4-4.1-1.7-6.3-1.6
		c-4.9,0.3-9.7,2-13.7,4.9c-3.3,2.4-5.9,5.6-9.2,8s-7.6,4-11.4,2.7c-1.8-0.6-3.4-1.8-5.3-2c-1.9-0.1-4,1.8-3.1,3.5
		c4.6,3.1,7.2,9,6.2,14.4c-0.4,2.2-1.3,4.4-1.1,6.6c0.1,2.2,1.8,4.6,4.1,4.4c-0.1-2.1-0.1-4.4,1.1-6.2c1.2-1.8,4.1-2.5,5.5-0.8
		c0.6,0.8,0.7,1.9,0.9,3c0.7,4.3,3.6,8.2,7.6,10.2c2.6,1.3,5.9,1.7,8.4,0.2c3.7-2.2,4.3-7.2,3.9-11.5
		C274.7,162.6,273.6,158.2,275.2,154.2z"/>
	<path class="st20" d="M177,200c0,18.4,4.1,35.8,11.3,51.4c43.9,11.4,88.9-3.2,122.2-38.5c34.3-36.4,46.8-85.1,30.6-128.7
		c-12.9-4.6-26.7-7.1-41.1-7.1C232.1,77.1,177,132.1,177,200z"/>
	<path class="st21" d="M238.5,306.2c-1.1-0.6-2.1-1.2-3.2-1.8c18.8,11.7,41,18.4,64.7,18.4c67.9,0,123-55,123-122.9
		S367.9,77.1,300,77.1c-15.2,0-29.7,2.8-43.1,7.8c30.8-10.4,65.6-8.7,96.5,7.6c59.3,31.4,81.7,104.7,49.9,163.7
		S297.8,337.6,238.5,306.2z"/>
	<g>
		<g>
			<defs>
				
					<filter id="Adobe_OpacityMaskFilter_00000090980427906323235880000016606112012250748859_" filterUnits="userSpaceOnUse" x="191.2" y="91.6" width="146.3" height="144.9">
					<feColorMatrix  type="matrix" values="1 0 0 0 0  0 1 0 0 0  0 0 1 0 0  0 0 0 1 0"/>
				</filter>
			</defs>
			
				<mask maskUnits="userSpaceOnUse" x="191.2" y="91.6" width="146.3" height="144.9" id="SVGID_00000093896092249925188760000005135266099022195380_">
				<g style="filter:url(#Adobe_OpacityMaskFilter_00000090980427906323235880000016606112012250748859_);">
					<g>
						<defs>
							<polygon id="SVGID_00000023963207580485032840000013519512129493557123_" points="1,-4.4 2,-4.4 1,-3.4 							"/>
						</defs>
						<defs>
							<polygon id="SVGID_00000058588422670254252220000003346791994869682838_" points="-1,-6.4 -2,-6.4 -1,-7.4 							"/>
						</defs>
						<clipPath id="SVGID_00000111893983314141205780000012723834842575569833_">
							<use xlink:href="#SVGID_00000023963207580485032840000013519512129493557123_"  style="overflow:visible;"/>
						</clipPath>
						
							<clipPath id="SVGID_00000068639877800436494910000017769982959779615136_" style="clip-path:url(#SVGID_00000111893983314141205780000012723834842575569833_);">
							<use xlink:href="#SVGID_00000058588422670254252220000003346791994869682838_"  style="overflow:visible;"/>
						</clipPath>
						
							<radialGradient id="SVGID_00000103975210898173491820000010722795518182666120_" cx="-73.4975" cy="669.1653" r="135.7875" gradientTransform="matrix(2.770000e-02 -0.8693 -0.8954 0.1593 833.7144 -36.7057)" gradientUnits="userSpaceOnUse">
							<stop  offset="0.2253" style="stop-color:#F4F4F4"/>
							<stop  offset="0.668" style="stop-color:#515151"/>
							<stop  offset="1" style="stop-color:#000000"/>
						</radialGradient>
						
							<path style="clip-path:url(#SVGID_00000068639877800436494910000017769982959779615136_);fill:url(#SVGID_00000103975210898173491820000010722795518182666120_);" d="
							M219.8,117.6c31-29.8,80.6-35.6,106.6-8.9s2.4,50.8-27.3,87.6c-24.4,30.3-66.2,55.6-92.2,28.9S188.8,147.4,219.8,117.6z"/>
					</g>
				</g>
			</mask>
			
				<radialGradient id="SVGID_00000072968891259566896340000005849583328455846297_" cx="-73.4975" cy="669.1653" r="135.7875" gradientTransform="matrix(2.770000e-02 -0.8693 -0.8954 0.1593 833.7144 -36.7057)" gradientUnits="userSpaceOnUse">
				<stop  offset="0.2253" style="stop-color:#F4F4F4"/>
				<stop  offset="0.668" style="stop-color:#515151"/>
				<stop  offset="1" style="stop-color:#000000"/>
			</radialGradient>
			
				<path style="mask:url(#SVGID_00000093896092249925188760000005135266099022195380_);fill:url(#SVGID_00000072968891259566896340000005849583328455846297_);" d="
				M219.8,117.6c31-29.8,80.6-35.6,106.6-8.9s2.4,50.8-27.3,87.6c-24.4,30.3-66.2,55.6-92.2,28.9S188.8,147.4,219.8,117.6z"/>
		</g>
	</g>
	
		<radialGradient id="SVGID_00000058557850688627874510000005930141460776311434_" cx="-73.4975" cy="669.1653" r="135.7875" gradientTransform="matrix(2.770000e-02 -0.8693 -0.8954 0.1593 833.7144 -36.7057)" gradientUnits="userSpaceOnUse">
		<stop  offset="0.2253" style="stop-color:#FFFFFF"/>
		<stop  offset="0.668" style="stop-color:#F7EBC2"/>
		<stop  offset="1" style="stop-color:#F3F9F7"/>
	</radialGradient>
	<path style="opacity:0.57;fill:url(#SVGID_00000058557850688627874510000005930141460776311434_);enable-background:new    ;" d="
		M219.8,117.6c31-29.8,80.6-35.6,106.6-8.9s2.4,50.8-27.3,87.6c-24.4,30.3-66.2,55.6-92.2,28.9S188.8,147.4,219.8,117.6z"/>
</g>
</svg>
