<?xml version="1.0" encoding="utf-8"?>
<!-- Generator: Adobe Illustrator 27.8.0, SVG Export Plug-In . SVG Version: 6.00 Build 0)  -->
<svg version="1.1" id="Layer_2_00000014633944935797857170000012544374889489899928_"
	 xmlns="http://www.w3.org/2000/svg" xmlns:xlink="http://www.w3.org/1999/xlink" x="0px" y="0px" viewBox="0 0 600 400"
	 style="enable-background:new 0 0 600 400;" xml:space="preserve">
<style type="text/css">
	.st0{fill:#FFAA22;}
	.st1{fill:#FF7300;}
	.st2{fill:#FF4C00;}
	.st3{fill:#A84D00;}
	.st4{fill:#DB7A39;}
	.st5{fill:#753800;}
	.st6{opacity:0.15;fill:#FFFFA7;enable-background:new    ;}
	.st7{fill:#FFD36F;}
</style>
<g>
	<path class="st0" d="M301.5,175.4c27.4-9,57.8-9,85.2-0.1c-30.8-0.6-60.9,9.9-88.2,24.2c-27.3,14.3-52.3,32.4-78.4,48.8
		c-19.3,12.1-48.1,24.1-66.7,4.3c-26.4-28.2,9.4-63.8,33-78.4c31-19.2,68.5-27.9,104.1-33.1c53.9-7.7,109.4-5,162.2,8.4
		c1.1,0.3,2.1,0.5,3.2,0.8c-22-5.8-49.7-3.1-72-1c-25.9,2.5-51.5,7.9-76,16.4c33.8-11.2,71.6-9.8,104.5,3.8
		C375.5,161.8,336.6,161.6,301.5,175.4z"/>
	<path class="st1" d="M305,185.2c-28.8,10.5-46.3,25.2-66.3,42.2c-6.1,5.2-11.9,10.7-18.5,15.2s-14.2,8-22.2,8.3
		c-14.3,0.6-27.4-9.2-34.9-21.4c-3.1-5.1-5.5-11.1-4.4-17c1.4-7,7.4-12.1,13.1-16.2c43.3-31.4,83.1-48.8,155.7-50.3
		c-0.8,0-3.2,1.8-4.1,2.2c-2.3,1-5,1.5-7.4,2.2c-5.1,1.7-10.2,3.5-15.2,5.6c-10,4.1-21,8.8-29.7,15c6.1-0.6,12.3-1.4,18.4-2
		c4.9-0.5,14.7,0.5,18.9-1.7c-9.5,5.2-21.6,11.4-26.6,21.5C289.6,187.6,297.3,186.4,305,185.2z"/>
	<path class="st2" d="M166,228.1c-1.5-5.1,0.2-10.6,2.6-15.3c7.3-14.1,20.9-23.7,34.5-31.8c19.6-11.6,41.2-21.6,63.9-21.5
		c-10,8.9-20,17.8-30,26.7c11.8-6,25.3-8.7,38.5-7.7c-9.7,6.1-18.6,13.5-26.3,21.9c5.5-2.5,11.6-3.7,17.6-3.4
		c-15.6,13.5-31.3,27.1-46.9,40.6c-4.3,3.7-8.7,7.5-13.8,10.1c-5.1,2.6-11,4-16.6,2.6c-6.6-1.6-11.7-6.8-16.3-11.8
		C170.3,235.6,167.2,232.3,166,228.1z"/>
	<path class="st3" d="M209.6,250c1.4-3.3-0.6-7.9,2.2-10.1c1.5-1.2,3.7-0.8,5.5-1.3c3.8-0.8,6.1-4.8,6.6-8.6s-0.4-7.6-1-11.5
		c-0.1-0.4-0.1-0.8-0.1-1.2c-0.5-4.7-1.9-9.4-4.5-13.4c-0.5-0.7-0.8-1.4-1.1-2.1c-1.2-3-2.1-6.6-5-8.2c-5-2.8-12.4,2.4-16.5-1.6
		c-0.8-0.8-1.4-1.9-2.3-2.7c-2-1.7-5-1-7.6-0.3c-3.6,1.1-7.2,2.1-10.9,3.2c-1.9,0.6-3.9,1.2-5.5,2.5s-2.6,3.5-1.9,5.4
		c-5,1-9.4,4.5-11.5,9c-2.1,4.6-2,10.2,0.4,14.6c1.1,2,2.6,3.8,2.9,6.1c0.6,4.3-3.4,9.1-0.6,12.4c1.8,2.2,5.3,1.9,7.5,3.6
		c2.5,1.9,2.6,5.6,4.4,8.2c2.5,3.5,7.7,4,11.9,3s8.2-3,12.6-3.3c2.6-0.2,5.3,0.3,8,0C205.8,253.7,208.6,252.4,209.6,250z"/>
	<path class="st4" d="M202,215.4c-1.2-2.1-1.2-5.1,1.4-7.8c8.2-8.7,12.5,6.4,9.1,7.6c-0.4,0.2-0.9,0.3-1.3,0.5
		C208.6,220.2,203.9,218.8,202,215.4z"/>
	<path class="st4" d="M170.6,213.5c-0.7,2-0.3,2.2,0.3,4.2c1.1,4.1,5.3,8.1,9.3,6.7c4-1.4,6.7-5.3,7.7-9.4c0.9-3.5,0.6-7.6-2.2-9.9
		c-2.6-2.2-6.7-1.8-9.5,0.1S171.8,210.3,170.6,213.5z"/>
	<path class="st1" d="M308.9,167.5c-10.8,4.1-20.6,10.8-28.4,19.4c-2.2-6.4-6.1-12.3-11.1-16.9C282.2,167,295.7,166.1,308.9,167.5z"
		/>
	<path class="st5" d="M215.2,236.6c0.5,0,1.1-0.1,1.6-0.2c2.8-0.6,4.5-3.9,4.9-6.7c0.3-2.7-0.1-5.4-0.6-8.3
		c-0.1-0.8-0.3-1.7-0.4-2.5c-0.1-0.4-0.1-0.8-0.2-1.2c-0.5-4.9-1.9-9-4.1-12.4c-0.2-0.2-0.2-0.5-0.4-0.7c1,5,0.8,10.4,0.4,15.5
		c-0.3,3.8-0.6,7.8-3,10.8c-6.3,7.7-21.2,2.1-27.1,10.2c-2.1,2.8-2.7,7.1-5.8,8.6c-2.8,1.3-6.1-0.2-8.3-2.3c-2.2-2.2-3.7-4.9-6-7
		c-1.6-1.4-3.8-2.4-5.9-2.2c-0.3,1.3-0.3,2.3,0.3,3c0.5,0.7,1.6,1,2.9,1.4c1.3,0.4,2.9,0.9,4.2,1.9c2,1.5,2.8,3.7,3.5,5.6
		c0.4,1.1,0.8,2.2,1.4,3c2,2.8,6.4,2.9,9.6,2.1c1.5-0.3,3-0.8,4.6-1.4c2.6-0.9,5.4-1.8,8.3-2c1.4-0.1,2.8,0,4.1,0
		c1.3,0.1,2.6,0.1,3.8,0c1.7-0.2,4-0.9,4.6-2.6c0.4-0.9,0.4-2.2,0.4-3.6c0-2.4,0-5.5,2.5-7.4C212,236.9,213.8,236.8,215.2,236.6z"/>
	<path class="st4" d="M171.8,240.4c2.2-0.9,3.3-3.9,2.1-6s-4.4-2.7-6.2-1.1c-1.9,1.5-1.9,4.8-0.1,6.3
		C168.7,240.6,170.4,240.9,171.8,240.4z"/>
	<path class="st4" d="M197,228c-1.6-0.1-3.3,0.1-4.6,1s-2,2.8-1.3,4.2c0.7,1.3,2.4,1.8,3.9,1.5s2.7-1.2,3.8-2.2
		c0.8-0.7,1.6-1.6,1.4-2.6C200,228.6,198.4,228,197,228z"/>
	<path class="st4" d="M209.1,223.2c-0.6,1-0.5,2.4,0.1,3.4c0.5,0.8,1.3,1.3,2.2,1.5c2.4,0.5,4.7-2.4,3.6-4.6
		C214,221.2,210.3,221,209.1,223.2z"/>
	<path class="st4" d="M195.8,195.8c-2-0.8-4.4-1-6.3,0.1c-1.9,1.1-2.8,3.8-1.6,5.6s4.2,1.8,5.9,0.4C195.5,200.4,196,198,195.8,195.8
		z"/>
	<path class="st4" d="M158.2,209.1c-0.5,1-0.9,2.3-0.6,3.4c0.4,1.3,1.7,2.3,3.1,2.4c1.4,0.1,2.8-0.5,3.8-1.5
		c1.1-1.1,1.9-2.7,1.7-4.3s-1.4-3-3-3.3C161.1,205.5,159.2,207.2,158.2,209.1z"/>
	<path class="st4" d="M197.6,215.6c-1.1-0.7-2.7-0.5-3.6,0.5c-0.9,1-1,2.6-0.2,3.7C196,220.3,198.3,217.8,197.6,215.6z"/>
	<path class="st4" d="M177,241.6c-0.3,0.4-0.4,1-0.2,1.5c1,0.5,2.3,0.3,3.1-0.5s1-2.1,0.5-3c-0.4-0.5-1.3-0.5-1.8-0.1
		s-0.6,1.2-0.2,1.8L177,241.6z"/>
	<path class="st6" d="M210.8,193.2c-4.9-1.3-11.3,2.6-15-1c-0.8-0.8-1.4-1.9-2.3-2.7c-2-1.7-5-1-7.6-0.3c-3.6,1.1-7.2,2.1-10.9,3.2
		c-1.9,0.6-3.9,1.2-5.5,2.5s-2.6,3.5-1.9,5.4c-5,1-9.4,4.5-11.5,9c-2.1,4.6-2,10.2,0.4,14.6c1.1,2,2.6,3.8,2.9,6.1
		c0.5,4-2.9,8.5-1.1,11.8c3.8-3.6,6.1-8.9,4.7-13.9c-1.1-3.9-4.3-7.5-3.4-11.4c1.1-4.4,6.5-5.8,9.6-9c2.6-2.7,3.5-6.7,6.3-9.2
		c3.3-2.9,8.1-2.9,12.4-1.9c4.2,1,8.3,2.7,12.7,2.8C204.9,199.3,209.6,197.2,210.8,193.2z"/>
	<path class="st7" d="M179.1,204.3c0,0-0.3,0.2-1,0.5c-0.3,0.1-0.7,0.4-1.1,0.6c-0.4,0.3-0.8,0.6-1.2,0.9c-0.5,0.4-0.9,0.8-1.3,1.3
		c-0.5,0.4-0.8,1.1-1.2,1.6c-0.3,0.6-0.7,1.2-1,1.9s-0.5,1.4-0.7,2.1c-0.1,0.7-0.2,1.6-0.2,2.2c0,0.7,0.1,1.4,0.2,2.1
		c0.2,0.7,0.3,1.3,0.6,1.9c0.2,0.6,0.5,1.2,0.8,1.7s0.6,0.9,0.8,1.3c0.3,0.4,0.5,0.7,0.8,1c0.5,0.5,0.7,0.8,0.7,0.8
		s-0.3-0.2-0.9-0.6c-0.3-0.2-0.6-0.5-1-0.8s-0.8-0.7-1.1-1.2c-0.4-0.5-0.7-1-1.1-1.7c-0.4-0.6-0.6-1.3-0.8-2.1s-0.4-1.5-0.4-2.4
		c-0.1-0.9,0.1-1.6,0.2-2.5c0.2-0.8,0.4-1.6,0.8-2.4c0.3-0.8,0.8-1.4,1.2-2.1c0.5-0.6,1-1.2,1.5-1.6c0.5-0.5,1-0.9,1.6-1.2
		c0.5-0.4,1-0.6,1.5-0.8s0.8-0.4,1.2-0.4C178.7,204.4,179.1,204.3,179.1,204.3z"/>
	<path class="st7" d="M163.5,205.5c0,0-0.2,0.1-0.5,0.2c-0.3,0.1-0.8,0.3-1.3,0.5c-0.3,0.1-0.5,0.3-0.8,0.4
		c-0.3,0.1-0.5,0.4-0.8,0.6c-0.5,0.4-1,1-1.4,1.6c-0.2,0.3-0.4,0.6-0.6,0.9c-0.2,0.3-0.2,0.7-0.4,1c-0.1,0.2-0.1,0.7-0.2,1
		c0,0.3,0,0.5,0,0.8c0,0.2,0.2,0.5,0.2,0.7c0.1,0.2,0.2,0.3,0.3,0.4c0.2,0.2,0.4,0.3,0.4,0.3s-0.2,0-0.5-0.1
		c-0.2-0.1-0.4-0.2-0.5-0.4c-0.2-0.2-0.3-0.4-0.5-0.7c-0.1-0.3-0.2-0.7-0.2-1c0-0.4,0-0.6,0.1-1.1c0.1-0.4,0.2-0.8,0.4-1.1
		c0.2-0.4,0.3-0.8,0.6-1.1c0.5-0.7,1.1-1.3,1.7-1.7c0.3-0.2,0.6-0.4,1-0.5c0.3-0.1,0.6-0.3,0.9-0.3
		C162.7,205.3,163.5,205.5,163.5,205.5z"/>
	<path class="st7" d="M169.6,232.8c0,0-0.2,0.1-0.4,0.2c-0.3,0.1-0.6,0.4-0.9,0.7c-0.2,0.2-0.3,0.4-0.5,0.6
		c-0.2,0.2-0.3,0.5-0.4,0.7c-0.2,0.5-0.4,1-0.4,1.6c0,0.2,0,0.7,0.1,0.8c0,0.2,0.2,0.5,0.3,0.7s0.2,0.5,0.4,0.7s0.3,0.4,0.5,0.6
		c0.3,0.3,0.7,0.6,0.9,0.7c0.3,0.1,0.4,0.2,0.4,0.2s-0.2,0-0.5,0s-0.8-0.1-1.3-0.3s-1.1-0.7-1.5-1.3c-0.2-0.3-0.4-0.6-0.5-1.1
		c-0.2-0.5-0.1-0.7-0.2-1.2c0-0.8,0.3-1.6,0.7-2.2c0.4-0.6,1-1.1,1.5-1.3c0.5-0.3,1-0.3,1.3-0.3
		C169.5,232.8,169.6,232.8,169.6,232.8z"/>
	<path class="st7" d="M207.9,204.8c0,0-0.3,0.1-0.8,0.4c-0.3,0.1-0.6,0.2-0.9,0.4s-0.7,0.4-1,0.7c-0.4,0.2-0.7,0.6-1.1,0.9
		c-0.4,0.3-0.6,0.8-1,1.2c-0.3,0.3-0.5,1-0.7,1.5c-0.2,0.6-0.2,1.1-0.3,1.6c0,0.6,0,1.1,0.1,1.7c0.2,0.5,0.2,1.1,0.5,1.5
		c0.3,0.6,0.5,0.9,0.9,1.3c0.3,0.4,0.7,0.7,1,1c0.7,0.5,1.4,0.8,2,1c0.5,0.1,0.9,0.2,0.9,0.2s-0.3,0.1-0.9,0.1s-1.4-0.1-2.3-0.5
		c-0.5-0.2-0.9-0.5-1.4-0.9c-0.4-0.4-0.9-1-1.2-1.4c-0.4-0.6-0.5-1.2-0.7-1.9c-0.1-0.7-0.1-1.4-0.2-2.1c0.2-0.7,0.3-1.5,0.5-2.1
		l0.4-0.8l0.2-0.4c0.1-0.3,0.2-0.3,0.3-0.4c0.4-0.5,0.8-1,1.3-1.3s0.9-0.7,1.4-0.9c0.5-0.2,0.9-0.3,1.3-0.5c0.4-0.1,0.7-0.1,1-0.2
		C207.5,204.8,207.9,204.8,207.9,204.8z"/>
</g>
</svg>
