<?xml version="1.0" encoding="utf-8"?>
<!-- Generator: Adobe Illustrator 27.8.0, SVG Export Plug-In . SVG Version: 6.00 Build 0)  -->
<svg version="1.1" id="Layer_3" xmlns="http://www.w3.org/2000/svg" xmlns:xlink="http://www.w3.org/1999/xlink" x="0px" y="0px"
	 viewBox="0 0 600 400" style="enable-background:new 0 0 600 400;" xml:space="preserve">
<style type="text/css">
	.st0{fill:#2760FB;}
	.st1{fill:#0062BC;}
	.st2{opacity:0.69;fill:#296496;enable-background:new    ;}
	.st3{fill:#FFFAE6;}
	.st4{fill:#2258B7;}
	.st5{fill:#055899;}
	.st6{fill:#0063B7;}
	.st7{fill:#325EB5;}
	.st8{fill:#4C89D2;}
	.st9{opacity:0.15;fill:#FFFFFF;enable-background:new    ;}
	.st10{filter:url(#Adobe_OpacityMaskFilter);}
	.st11{clip-path:url(#SVGID_00000131336340366865672950000012156655203497645735_);}
	
		.st12{clip-path:url(#SVGID_00000004518425133301284380000007840262968399892913_);fill:url(#SVGID_00000033351959637651060860000009250769439672204719_);}
	.st13{mask:url(#SVGID_1_);fill:url(#SVGID_00000057113277525064243540000009491890283206256518_);}
	.st14{opacity:0.39;fill:url(#SVGID_00000028308234555045109400000017680501998496103077_);enable-background:new    ;}
	.st15{opacity:0.24;fill:#FFFFFF;enable-background:new    ;}
</style>
<g>
	<circle class="st0" cx="300" cy="200" r="123"/>
	<path class="st1" d="M207.3,119.4c35.6-40.3,96.8-46.1,139.3-12.3c43.8,34.9,50.9,98.7,16,142.6S263.8,300.9,220,266
		c-42.4-33.8-50.5-94.8-19.1-138.4c-38.7,53-29.2,127.4,22.5,168.6c53.1,42.3,130.5,33.4,172.8-19.7
		c42.4-53.2,33.7-130.5-19.3-172.8C325,62.6,250.3,69.9,207.3,119.4z"/>
	<path class="st2" d="M367.4,264.2c-39.6,42.3-101,51.5-150.3,26.9c49.7,45.1,126.4,42.1,172.6-7c46.6-49.4,43.7-127.9-5.9-174.1
		c-0.5-0.5-0.8,0-1.3-0.5C411.8,156.5,407.9,220.8,367.4,264.2z"/>
	<path class="st3" d="M406,185.4c-0.1,0-0.3,0-0.4,0c-1,0-1,1.5,0,1.5c0.1,0,0.3,0,0.4,0C407,187,407,185.4,406,185.4z"/>
	<path class="st4" d="M284.8,94.8c4-5.3,7.6-11.2,9.3-17.6c-43.8,2.1-81.5,27-101.6,63.2C228.1,140.6,263.4,123.3,284.8,94.8z"/>
	<path class="st5" d="M295.8,307.1c-9.7,2.5-19.4,6.3-27.8,11.6c10.2,2.7,20.9,4.2,32,4.2c44.9,0,84.1-24,105.6-59.9
		c-13.7,14.6-31.1,25.8-50.2,31.8C336,301.1,315.4,302.1,295.8,307.1z"/>
	<path class="st5" d="M370,251.8c-23.3,10.6-49.4,18.5-68.5,35.6c-8.1,7.3-20.4,5.9-31.2,5c-16.1-1.3-32.3-0.3-48.1,2.7
		c6.2,5.1,13,9.6,20.1,13.4c16.5-2.8,32.9-6,48.7-11.3c25-8.4,48-21.7,70.8-35c17.9-10.4,35.9-20.9,53.8-31.3
		c1.3-0.8,2.6-1.5,3.9-2.3c0.6-2.7,1.2-5.4,1.7-8.2C406.8,234.1,388.3,243.5,370,251.8z"/>
	<path class="st4" d="M229.4,169.1c9.7-5.8,18.1-13.6,28.1-18.8c8.8-4.5,18.7-6.9,27.5-11.4c17.9-9.1,33.4-26.4,36.5-46.1
		c0.2-1.2-1.3-1.9-2.1-0.9c-13.2,16.3-32,25.8-45.8,42.1c-3.7,4.3-9.9,5.2-15.5,5.2c-5.6,0-11.6-0.5-16.6,2c-1.9,0.9-3.7,2.4-4,4.5
		c-0.4,2.1,0.8,4.1,1.1,6.2c0.7,5-4.1,9.5-9.1,10.4c-5,0.8-8.7-1.8-13.4-3.8c-3.5-1.5-7.3,2.6-9.1,5.2c-1,1.5-2.5,2.7-4.3,3.2
		c-6,1.5-7.3-6.3-12-8.1c-2.3-0.8-4.7-0.1-7,0.9c-2.8,8-4.7,16.4-5.8,25.1C196.1,182.5,213.9,178.5,229.4,169.1z"/>
	<path class="st6" d="M211.6,265.6c10-3.8,19.1-9.8,29.4-12.7c4.4-1.3,9.1-2,13.2-4.1c6.5-0.9,13-1.9,19.5-3.2
		c33.6-6.8,64.2-22.9,93.3-41.6c0.7,2,2.3,3.8,4.4,4.2c3.9,0.9,7.3-2.7,9.2-6.2c1.9-3.5,3.6-7.6,7.3-9c4.6-1.9,10.4,1.2,14.5-1.5
		c2.9-1.9,3.5-5.8,4.9-9c2.3-5.3,7.1-9.1,11.4-13.1c0.1-0.1,0.3-0.3,0.4-0.4c-2.4-9-5.7-17.7-10-25.8
		c-13.8,22.9-41.3,35.1-59.7,55.3c-6.4,7-11.7,15-19.2,20.8c-10.8,8.3-24.7,10.8-38.2,12.6c-21.1,2.7-42.5,4-63.3,8.9
		c-3.8,0.9-7.6,1.9-11.3,3.1c-10.8-1.4-21.9-2.5-31.9,1.1c3.3,8.4,7.5,16.4,12.5,23.8C202.6,268.4,207.3,267.2,211.6,265.6z"/>
	<path class="st7" d="M235.3,207.9c-16.4,10.9-35.4,17.9-55,20.1c0.5,2.1,1,4.1,1.6,6.1c15.6-0.8,31.2-5.2,45.8-11
		c20.1-8,39.1-18.5,59.1-26.6c24.6-9.9,50.8-16.2,73.6-29.7c16.2-9.5,30.7-24,37.6-41c-5.3-7-11.4-13.4-18.1-19.2
		c-9.3,26.6-30.2,48.9-56.3,59.7c-18.1,7.4-38.2,9.5-55.5,18.6C256.4,191.2,246.4,200.4,235.3,207.9z"/>
	<path class="st4" d="M197.6,211c7.5-1.9,15.7-0.3,23.1-2.7c6.5-2.1,11.7-7.1,16.6-11.9l8.5-8.4c2.1-2.1-0.1-5.5-2.9-4.5
		c-21.6,8-43.4,15.7-65.8,21.1c0.2,5.4,0.7,10.7,1.6,15.9C185,217.2,190.8,212.7,197.6,211z"/>
	<path class="st5" d="M419.7,171.7c-3.2,1.4-4.5,4.9-5.8,8.1c-10.2,25.6-32.1,46.3-58.2,55.1c-16.7,5.6-34.5,6.5-51.8,9.8
		c-14,2.7-28.2,7.4-39,16.3c-3.1,2.6-1.1,7.8,2.9,7.6c17.6-0.8,34.6-10,51.5-16.5c20-7.7,41.2-12,61.1-20.1
		c16.5-6.7,32.4-16.8,42.6-31.1c0,0,0,0,0-0.1C423.1,190.9,421.9,181.1,419.7,171.7z"/>
	<path class="st4" d="M315.2,153.3c5-2.3,8.9-6.6,12.3-10.9c3.4-4.4,6.4-9.1,10.4-12.9c2.3-2.2,4.9-4.2,6.7-6.8
		c1.8-2.7,2.5-6.4,0.7-9c-1.9-2.7-5.9-3.3-9-2s-5.3,4-7.1,6.8c-1.8,2.8-3.3,5.8-5.5,8.3c-4.2,4.7-10.4,6.9-15.6,10.3
		c-5.2,3.4-10,9.3-8.5,15.4C303.8,155.7,310.2,155.6,315.2,153.3z"/>
	<g>
		<path class="st8" d="M417.3,162.8c-0.5,0.9-0.9,1.9-1.4,3c-0.5,1-1.2,2.1-1.8,3.3c-0.6,1.1-1.2,2.3-1.9,3.5
			c-0.7,1.2-1.5,2.4-2.3,3.7s-1.6,2.5-2.5,3.8s-1.7,2.6-2.7,3.9c-2,2.6-3.8,5.3-6.1,7.8c-2.1,2.6-4.5,5.1-6.8,7.7
			c-2.5,2.4-4.9,4.9-7.4,7.1c-2.5,2.3-5.1,4.3-7.6,6.4c-1.3,1-2.6,1.9-3.8,2.8c-1.3,0.9-2.5,1.8-3.8,2.6c-1.2,0.8-2.5,1.6-3.6,2.4
			c-1.2,0.8-2.4,1.4-3.5,2s-2.2,1.3-3.2,1.9c-1.1,0.5-2.1,1-3,1.5c-1.9,1,1.4-0.6,0,0c-2.8,1.3-11.5,8.5-11.5,8.5l3.2-1.4
			c0,0,1.7-0.5,4.7-1.4c1.5-0.4,3.3-1.1,5.3-1.9c1-0.4,2.1-0.8,3.3-1.3c1.1-0.5,2.3-1,3.5-1.6s2.5-1.1,3.8-1.8s2.6-1.4,4-2.2
			c1.4-0.7,2.7-1.6,4.1-2.5s2.8-1.8,4.2-2.7c2.7-2,5.6-4,8.3-6.4c2.8-2.2,5.3-4.8,8-7.3c2.4-2.7,5-5.2,7.2-8.1
			c2.3-2.7,4.3-5.6,6.3-8.4c0.9-1.4,1.8-2.9,2.6-4.3c0.9-1.4,1.7-2.7,2.4-4.2c1.4-2.8,2.8-5.4,3.8-7.9c0.2-0.4,0.3-0.7,0.5-1.1
			C418.7,167.8,418,165.3,417.3,162.8z"/>
		<path class="st8" d="M284.2,173.9c-2.6,0.7-5.1,1.5-7.5,2.3c-2.5,0.8-4.8,1.5-7.1,2.5c-1.1,0.5-2.2,0.9-3.3,1.3
			c-1.1,0.5-2.2,1-3.2,1.5c-2.1,1-4,2.1-5.8,3.1c-1.8,1.2-3.5,2.1-4.9,3.3c-3,2.2-5.4,4.5-7.2,6.5c-0.9,1-1.7,1.9-2.3,2.7
			c-0.6,0.9-1.1,1.6-1.5,2.2c-0.8,1.2-1.2,1.8-1.2,1.8l2.5,1.7c0,0,0.5-0.5,1.4-1.5c0.5-0.5,1-1.1,1.6-1.8c0.7-0.7,1.5-1.4,2.4-2.2
			c0.9-0.9,2-1.6,3.2-2.6c1.1-0.9,2.5-1.8,4-2.7c1.4-1,3.1-1.7,4.8-2.7c1.7-0.8,3.6-1.8,5.5-2.6c1-0.4,2-0.8,3-1.2
			c1.1-0.4,2.2-0.8,3.3-1.2c2.1-0.8,4.5-1.4,6.9-2.2s4.8-1.5,7.4-2.1c2.5-0.7,5.1-1.5,7.8-2.4c5.4-1.8,10.6-3.9,16.1-6.3
			c2.7-1.3,5.4-2.4,8.1-3.8l4-2l3.9-2.2c2.7-1.3,5.2-3,7.8-4.5c1.3-0.8,2.5-1.7,3.7-2.5c1.2-0.9,2.5-1.6,3.6-2.6
			c2.3-1.9,4.7-3.6,6.8-5.7c1.1-1,2.1-2,3.2-2.9c1-1,2-2.1,3-3.1c2-2,3.8-4.1,5.5-6.2c1.8-2,3.2-4.3,4.7-6.4c2.8-4.4,5.1-8.7,7-12.8
			c1.8-4.1,3.4-8,4.4-11.5c0.2-0.6,0.4-1.2,0.5-1.7c-0.8-0.6-1.6-1.3-2.4-1.9c-0.4,0.8-0.7,1.6-1.2,2.4c-1.5,3.2-3.4,6.7-5.6,10.5
			c-1.2,1.8-2.3,3.8-3.6,5.7c-1.4,1.9-2.6,3.9-4.1,5.9c-2.9,4-6,8.2-9.6,12.2c-0.9,1-1.8,2-2.7,3.1c-1,1-1.9,2-2.9,2.9
			c-1.9,2-4.1,3.8-6.2,5.8c-2.2,1.8-4.4,3.7-6.6,5.5c-2.4,1.6-4.6,3.5-7.2,4.9l-3.7,2.2c-1.3,0.7-2.6,1.3-3.9,1.9
			c-2.6,1.3-5.3,2.3-8,3.2c-5.4,1.6-11.1,3-16.4,4.1C289.4,172.5,286.8,173.2,284.2,173.9z"/>
		<path class="st8" d="M177,200.2c0.5,0,1,0,1.6,0c0.9,0,1.9,0,2.9,0c1-0.1,2.1-0.2,3.2-0.3c2.3-0.2,4.7-0.6,7.3-1s5.2-1.2,7.9-1.9
			c2.7-0.8,5.5-1.6,8.3-2.7c2.8-1,5.5-2.2,8.3-3.4c2.7-1.3,5.4-2.7,8-4.1c2.6-1.3,5.1-2.9,7.5-4.3c2.4-1.4,4.8-2.7,7-4.1
			c2.2-1.3,4.2-2.6,6.1-3.8c1.9-1.1,3.6-2.3,5.1-3.3s2.8-1.9,3.9-2.6c2.1-1.5,3.3-2.3,3.3-2.3s-1.4,0.6-3.7,1.6
			c-1.2,0.5-2.6,1.1-4.3,1.9c-1.6,0.7-3.5,1.5-5.6,2.3s-4.3,1.6-6.6,2.5s-4.9,1.6-7.5,2.4c-2.6,0.8-5.3,1.7-8.1,2.3
			c-2.8,0.7-5.6,1.5-8.4,2.2c-2.8,0.7-5.6,1.4-8.3,2.2s-5.4,1.5-8,2.2c-1.3,0.4-2.6,0.8-3.8,1.1c-1.2,0.4-2.4,0.8-3.6,1.1
			c-2.3,0.7-4.5,1.5-6.6,2.2c-2,0.8-3.9,1.5-5.6,2.2c-0.1,2.4-0.2,4.8-0.2,7.2C177,200.1,177,200.1,177,200.2z"/>
	</g>
	<path class="st5" d="M247.5,274.4c-14.6-1.6-29.9-2.6-43.5,2.4c6.5,8.1,13.9,15.3,22.1,21.5c9.1-4.9,17.9-11,27.9-13.2
		c7.3-1.6,14.9-1.1,22.4-1.9c7.4-0.9,15.3-3.5,19.5-9.7C280.4,278.5,263.7,276.2,247.5,274.4z"/>
	<path class="st8" d="M356.5,246.2c-7.1,2.8-13,7.8-19.6,11.5c-6.6,3.7-14.7,6.2-21.7,3.3C326.4,251.2,341.8,248.5,356.5,246.2z"/>
	<path class="st9" d="M177,200c0,18.3,4,35.6,11.2,51.2c43.6,11.1,88.2-3.5,121.3-38.6c34.3-36.4,46.7-85.3,30.4-129
		C327.4,79.4,314,77,300,77C232.1,77,177,132.1,177,200z"/>
	<g>
		<g>
			<defs>
				<filter id="Adobe_OpacityMaskFilter" filterUnits="userSpaceOnUse" x="187.3" y="91.5" width="146.4" height="144.9">
					<feColorMatrix  type="matrix" values="1 0 0 0 0  0 1 0 0 0  0 0 1 0 0  0 0 0 1 0"/>
				</filter>
			</defs>
			<mask maskUnits="userSpaceOnUse" x="187.3" y="91.5" width="146.4" height="144.9" id="SVGID_1_">
				<g class="st10">
					<g>
						<defs>
							<polygon id="SVGID_00000169532967914764960870000013091979740832212619_" points="1,1 2,1 1,2 							"/>
						</defs>
						<defs>
							<polygon id="SVGID_00000085929587316061007110000009861039461739920259_" points="-1,-1 -2,-1 -1,-2 							"/>
						</defs>
						<clipPath id="SVGID_00000070829794593209084970000007966712212610170014_">
							<use xlink:href="#SVGID_00000169532967914764960870000013091979740832212619_"  style="overflow:visible;"/>
						</clipPath>
						
							<clipPath id="SVGID_00000166640828262932712530000010965302579398874016_" style="clip-path:url(#SVGID_00000070829794593209084970000007966712212610170014_);">
							<use xlink:href="#SVGID_00000085929587316061007110000009861039461739920259_"  style="overflow:visible;"/>
						</clipPath>
						
							<radialGradient id="SVGID_00000163753760303148425570000001823215473380092288_" cx="-66.722" cy="670.3506" r="133.3746" gradientTransform="matrix(2.820000e-02 -0.885 -0.9116 0.1621 841.5682 -34.0019)" gradientUnits="userSpaceOnUse">
							<stop  offset="0.2253" style="stop-color:#F4F4F4"/>
							<stop  offset="1" style="stop-color:#000000"/>
						</radialGradient>
						
							<path style="clip-path:url(#SVGID_00000166640828262932712530000010965302579398874016_);fill:url(#SVGID_00000163753760303148425570000001823215473380092288_);" d="
							M215.9,117.5c31-29.8,80.6-35.6,106.6-8.9s2.4,50.8-27.3,87.6c-24.4,30.3-66.2,55.6-92.2,28.9
							C176.9,198.4,184.9,147.3,215.9,117.5z"/>
					</g>
				</g>
			</mask>
			
				<radialGradient id="SVGID_00000089552058816151765640000005385506222896599459_" cx="-66.722" cy="670.3506" r="133.3746" gradientTransform="matrix(2.820000e-02 -0.885 -0.9116 0.1621 841.5682 -34.0019)" gradientUnits="userSpaceOnUse">
				<stop  offset="0.2253" style="stop-color:#F4F4F4"/>
				<stop  offset="1" style="stop-color:#000000"/>
			</radialGradient>
			<path style="mask:url(#SVGID_1_);fill:url(#SVGID_00000089552058816151765640000005385506222896599459_);" d="M215.9,117.5
				c31-29.8,80.6-35.6,106.6-8.9s2.4,50.8-27.3,87.6c-24.4,30.3-66.2,55.6-92.2,28.9C176.9,198.4,184.9,147.3,215.9,117.5z"/>
		</g>
	</g>
	
		<radialGradient id="SVGID_00000058588197631406230190000016494914243217735099_" cx="-66.722" cy="670.3506" r="133.3746" gradientTransform="matrix(2.820000e-02 -0.885 -0.9116 0.1621 841.5682 -34.0019)" gradientUnits="userSpaceOnUse">
		<stop  offset="0.2253" style="stop-color:#FFFFFF"/>
		<stop  offset="1" style="stop-color:#F3F9F7"/>
	</radialGradient>
	<path style="opacity:0.39;fill:url(#SVGID_00000058588197631406230190000016494914243217735099_);enable-background:new    ;" d="
		M215.9,117.5c31-29.8,80.6-35.6,106.6-8.9s2.4,50.8-27.3,87.6c-24.4,30.3-66.2,55.6-92.2,28.9C176.9,198.4,184.9,147.3,215.9,117.5
		z"/>
	<path class="st15" d="M247.2,311.2c15.4,7.4,34.1,11.8,52.8,11.8c67.9,0,123-55.1,123-123S367.9,77,300,77
		c-10.9,0-21.5,1.4-31.5,4.1c27.9-6.6,58.1-3.6,85.3,10.9c59.4,31.5,81.7,105.1,49.8,164.5C373.4,312.7,304.8,335.8,247.2,311.2z"/>
</g>
</svg>
