<?xml version="1.0" encoding="utf-8"?>
<!-- Generator: Adobe Illustrator 27.8.0, SVG Export Plug-In . SVG Version: 6.00 Build 0)  -->
<svg version="1.1" id="Layer_3" xmlns="http://www.w3.org/2000/svg" xmlns:xlink="http://www.w3.org/1999/xlink" x="0px" y="0px"
	 viewBox="0 0 600 400" style="enable-background:new 0 0 600 400;" xml:space="preserve">
<style type="text/css">
	.st0{fill:#B2C3A5;}
	.st1{fill:#C8DCBE;}
	.st2{fill:#D5E3CC;}
	.st3{fill:#987671;}
	.st4{fill:#E2E9FF;}
	.st5{fill:#DEE1D0;}
	.st6{opacity:0.33;fill:#987671;enable-background:new    ;}
	.st7{opacity:0.74;fill:#85625C;enable-background:new    ;}
	.st8{opacity:0.15;fill:#FFFFFF;enable-background:new    ;}
	.st9{filter:url(#Adobe_OpacityMaskFilter);}
	.st10{clip-path:url(#SVGID_00000129181708754913728850000007221650538704058288_);}
	
		.st11{clip-path:url(#SVGID_00000012459655503717792630000014966796602390182560_);fill:url(#SVGID_00000060711802029961337550000016276598679477540228_);}
	.st12{mask:url(#SVGID_1_);fill:url(#SVGID_00000080177785527415944360000013838945904778014864_);}
	.st13{opacity:0.49;fill:url(#SVGID_00000108990484861248775570000002609920477249038780_);enable-background:new    ;}
	.st14{opacity:0.24;fill:#FFFFFF;enable-background:new    ;}
</style>
<g>
	<circle class="st0" cx="300" cy="200" r="123"/>
	<path class="st1" d="M270.3,81.8c-39,9.7-70.7,38-85,75c6.2,9.5,17.4,15.8,28.6,14.2c8.2-1.2,15.4-6.2,23.6-7.7
		c8.1-1.5,16.6,0.5,24.7-0.9c8.1-1.4,16.5-8.8,14.1-16.7c-1.3-4.1-5-6.9-7.8-10.2c-7.4-8.7-7.6-22.6-0.5-31.5
		c-4.8-6.3-2.9-15.8,2.2-21.9C270.2,81.8,270.2,81.8,270.3,81.8z"/>
	<path class="st2" d="M299.4,234.3c-3-1.2-3.9-5.2-3.5-8.4s1.6-6.5,1.1-9.7c-0.6-3.2-4.1-6.2-7-4.6c2.9-8.8-2.3-19.4-11-22.5
		s-19.4,1.8-22.8,10.4c-1.2,3-1.5,6.2-2.8,9.1s-4.1,5.6-7.3,5.3c-3.8,7.2-8.4,17.2-9.9,25.2c-1.5,7.8-3,15.9-1.4,23.7
		c1.9,9.4,8.1,17.2,13.6,25.1s10.7,16.8,10,26.3c-2.3-6.7,6.2-13.2,13-15.2c6.8-2.1,14.1-0.7,21.3-0.3c7.1,0.4,15.1-0.5,19.8-5.8
		c2-2.2,3.3-5.1,5.6-6.9c2.5-2,5.9-2.5,8.9-3.5c10.3-3.6,16.7-13.7,22.3-23.1c5.6-9.3,11.3-20.3,7.7-30.5
		c-3.8-10.8-19-15.6-28.3-8.9c-5.9-1.8-13.8-3-20-3.4c-5.2-0.3-11.6,0.7-13.4,5.6C294.1,225.6,301,231,299.4,234.3z"/>
	<path class="st3" d="M234.3,262.5c-2.7-8.9,0.8-18.4,4.3-27.1c0.8-2,1.6-4,2.4-6c2.8-7.1-4.9-13.7-11.4-9.9
		c-5.3,3.1-11,5.2-17.2,5.7c-10.9,0.9-23.1-3.1-31.8,3.7c9.5,39.1,37.6,70.8,74.4,85.3c1.7-10.8-0.6-22.3-6.7-31.3
		C243.5,276.2,236.7,270.5,234.3,262.5z"/>
	<path class="st3" d="M300,323c46.8,0,87.4-26.1,108.2-64.5c-2.8-1.7-5.7-3-8.8-3.7c-5.5-1.2-11.5-0.3-15.9,3
		c-6.3,4.8-8.9,14.2-16.3,16.9c-9.6,3.5-20.9-6.5-29.7-1.4c-4.7,2.7-6.9,9-12.1,10.7c-3.6,1.2-8.2,0-10.9,2.6
		c-1.6,1.5-1.9,3.8-3,5.7c-2,3.5-6.1,5.1-10,5.6s-8,0-11.9,0.5c-7.5,0.8-14.3,4.9-19.8,10.1c-2.8,2.6-5.2,5.5-7.5,8.5
		C274.1,320.9,286.8,323,300,323z"/>
	<path class="st1" d="M201.8,168c1.2,1.2,2.4,2.5,3.7,3.7c0.6,0.6,1.2,1.2,1.8,1.9c0.5,0.5,1.3,0.5,1.9,0.7c1.9,0.5,2.8-2.5,0.8-3
		c-1.2-0.3-1.9-1.2-2.7-2.1c-1.1-1.1-2.2-2.2-3.3-3.3C202.6,164.4,200.4,166.6,201.8,168z"/>
	<path class="st1" d="M271.8,112c0.9-0.6,1.8-0.9,2.9-0.7c-0.3-0.8-0.6-1.5-0.9-2.3c-0.2,0.3-0.4,0.3-0.8,0.2c0.4,0.5,0.8,1,1.1,1.5
		c0-0.6,0-1.3,0-1.9c-0.2,0.4-0.3,0.7-0.5,1.1c-0.3,0-0.7-0.1-1-0.1c1.5,1.3,3.7-0.9,2.2-2.2c-0.9-0.7-1.9-0.9-2.9-0.3
		c-1.2,0.7-0.9,2.3-0.9,3.4c0,0.7,0.5,1.2,1.1,1.5c1.6,0.6,3.4-0.1,4.3-1.6c0.5-0.8,0.1-2-0.9-2.3c-1.8-0.4-3.8-0.1-5.3,1
		C268.6,110.4,270.2,113.1,271.8,112z"/>
	<path class="st1" d="M282,96.8c0,0.2,0,0.3,0,0.5c0,2,3.1,2,3.1,0c0-0.2,0-0.3,0-0.5C285.1,94.8,282,94.8,282,96.8z"/>
	<path class="st1" d="M281.5,112.3c2,0,2-3.1,0-3.1C279.5,109.2,279.5,112.3,281.5,112.3z"/>
	<g>
		<path class="st1" d="M286.4,310.6c-0.2,1.5,1.2,2.9,2.7,2.8s2.6-1.7,2.3-3.2c-0.5-0.5-1.3-0.5-1.8-0.1L286.4,310.6z"/>
		<path class="st1" d="M288.9,313.7c-0.7,0-1.5-0.3-2-0.9c-0.6-0.6-0.9-1.5-0.8-2.3l0.6,0.1c-0.1,0.6,0.2,1.3,0.6,1.7
			c0.5,0.5,1.1,0.8,1.7,0.7c0.6,0,1.2-0.4,1.6-1c0.4-0.5,0.5-1.2,0.4-1.7c-0.4-0.3-1-0.3-1.3,0l-0.4-0.5c0.6-0.6,1.7-0.5,2.3,0.1
			l0.1,0.1c0.2,0.8,0,1.6-0.5,2.3c-0.5,0.7-1.3,1.2-2.1,1.2C289,313.7,288.9,313.7,288.9,313.7z"/>
	</g>
	<path class="st1" d="M300.9,311.6c0-0.2,0-0.3,0-0.5V311.6z"/>
	<path class="st4" d="M271.6,224.6c2.4,1.2,3.9,3.6,5.7,5.6c4.9,5.3,12.4,7.2,19.5,8.3s14.6,1.6,21,4.9c6.4,3.3,11.6,10.4,10,17.4
		c-1.1,4.6-4.7,8.1-8.9,10.4c-4.1,2.2-8.7,3.4-13.2,4.8c-16.6,5.5-31.5,15.9-42.3,29.6c4-9.2-2.9-19-7-28.2
		c-6.1-13.6-6.1-29.9,0.1-43.5c1.4-3,3.1-5.9,5.7-7.9C265,223.9,268.7,223.1,271.6,224.6z"/>
	<path class="st1" d="M263.8,158.7c-6.9-2.2-14.1,1-21.1,2.8s-15.9,1.5-19.4-4.8c-3.3-5.9,0.5-13.4,5.4-18.1
		c4.9-4.7,11.1-8.4,14.2-14.5c2.1-4.1,2.5-8.9,3.1-13.5s1.5-9.4,4.4-13.1s8.3-5.7,12.3-3.4c-2.9,2.3-0.9,7.3,2.4,9s7.3,1.6,10.7,3
		c3.4,1.4,6.3,5.7,4.1,8.7c-4.2-2.5-10.4-0.2-11.9,4.4c-1.6,4.6,2,10.2,6.8,10.7c3,0.3,5.9-1,8.5-2.5s5.1-3.3,8-4.1
		c2.9-0.7,6.4-0.2,8.1,2.3c1.7,2.5,0.3,6.7-2.7,6.9c2.7-0.3,4.3,3.4,3.2,5.8c-1.1,2.5-3.7,3.8-6.2,4.8s-5.2,2.1-6.6,4.4
		c-2.8,4.4,0.5,11.1-2.9,15.2c-2.4,2.9-7,2.8-10.5,1.3C270.4,162.4,267.4,159.9,263.8,158.7z"/>
	<path class="st5" d="M334.3,81.7c4.2,8.9,8.1,18.2,8.4,28c0.3,11.3-5.4,23.5-16,27.3c-2.7,0.9-5.6,1.3-7.9,3s-3.5,5.3-1.5,7.3
		c3.4,2.9,6.8,5.8,10.2,8.7c-4.7,1.6-9.2,4.5-11.3,8.9c-2.1,4.5-0.8,10.7,3.6,12.8c3.2,1.5,7.2,0.6,9.8-1.8c2.6-2.4,3.9-5.9,4.1-9.4
		c0.2-4.3-0.6-9.9,3.3-11.9c2.8-1.5,6.5,0.5,7.9,3.3c1.5,2.8,1.4,6.2,1.2,9.3c-0.2,3.2-0.4,6.5,0.8,9.4c1.3,3.1,4.3,5.8,3.9,9.1
		c-0.3,3-3.2,5-4.4,7.8c-1.4,3.1-0.5,6.7,1.3,9.5s4.5,4.9,7.2,6.9c3.8,2.9,9,6,13,3.4c4.6-3,3-10,4.7-15.2c1.3-4.1,5.2-7.3,9.5-7.8
		s8.8,1.6,11.1,5.3c3.4-3.1,8.9-2.2,12.9,0.1s7.4,5.6,11.7,7.3c1.6,0.6,3.2,0.9,4.8,1c0.1-1.4,0.1-2.9,0.1-4.3
		C422.7,143.8,385.4,96.6,334.3,81.7z"/>
	<path class="st1" d="M365.2,96.9c5.3,6.1,7.8,14.4,6.6,22.4c-1.3,8.6-6.6,17.7-2.6,25.4c3.5,6.9,12.4,8.6,18.7,13.2
		c5.5,4,8.9,10.1,13.6,15s11.9,8.7,18.1,6c0.5-0.2,0.9-0.5,1.3-0.7C414.3,143.9,393.7,114.7,365.2,96.9z"/>
	<path class="st3" d="M179.3,181.5c0.3,8.7,2.1,17.3,5.5,25.3c1.3,3,3,6.2,6.1,7.4c3.6,1.4,8.6-0.2,11,2.9c1.1,1.5,1.1,3.6,2,5.2
		c0.8,1.7,3.4,2.8,4.4,1.2c-0.2-3.4,2.7-6.6,6-6.9c-1.2,1.3,1.1,3.2,2.8,2.6c1.7-0.6,2.6-2.3,4.1-3.3c3.8-2.5,8.9,0.7,11.2,4.7
		c2.9,5.2,3.2,11.8,0.7,17.2c-3.8,8.4-13.8,13-22.9,11.9s-17.2-7.1-22.3-14.8c-5-7.7-7.3-16.9-8.2-26.1
		C178.8,199.9,179.2,190.7,179.3,181.5z"/>
	<path class="st3" d="M370.9,253.1c0.8-3.9,4.7-3.7,7.5-2.6c2.2,0.8,4.6,2,6.9,1.4c3.6-0.9,4.7-5.4,7.3-8.1c2.7-2.9,7-3.5,10.7-4.8
		c3.8-1.3,11.3-6.1,11-10c-5.8,26.9-31.6,51.5-58.4,57.8c-1.5-3.5-2.9-7.1-2.9-10.9c0-0.1,0-0.3,0-0.4c0.3-4.4,5-6.7,8.9-4.6
		c2.1,1.1,4.8,1.3,6.9,0.2c4.3-2.3,5.8-8.5,3.2-12.7C371.1,256.6,370.6,254.8,370.9,253.1z"/>
	<path class="st5" d="M224.7,188.1c4.7,0.7,9.5-2.4,11.7-6.6c1.6-3,2-7-0.2-9.7c-2.3-2.8-6.9-3-10.1-1.1c-3.1,1.9-5,5.3-6.2,8.8
		c-0.5,1.5-0.9,3.1-0.4,4.6C220.2,186.4,222.4,187.7,224.7,188.1z"/>
	<path class="st5" d="M319.4,105c-6.5-1-13.4,3.3-15.3,9.6c-1.2,3.7-0.1,8.6,3.6,9.9c3.1,1.1,6.5-1,8.9-3.2c2.2-2,4.2-4.2,5.9-6.6
		c1.4-2,2.7-4.7,1.6-6.9C323.3,106.1,321.3,105.2,319.4,105z"/>
	<path class="st5" d="M265.7,172.7c-0.7-2.8-4.5-3.1-7.3-2.9c-4.3,0.4-8.6,0.7-13,1.1c-1.1,2.9,1.2,6.2,4.1,7.4
		c2.9,1.1,6.1,0.7,9.2,0.3c1.7-0.3,3.5-0.5,4.9-1.5C265.1,176.1,266.2,174.4,265.7,172.7z"/>
	<path class="st5" d="M363.5,234.7c-0.3,1.6-1.1,3.2-0.5,4.7c0.9,1.9,3.8,1.9,5.3,0.6c1.6-1.3,2.2-3.5,2.7-5.5
		c0.6-2.2,1.2-4.5,0.5-6.6c-0.6-2.2-2.9-4-5-3.3c-1.8,0.6-2.7,2.6-2.9,4.5C363.6,230.9,363.9,232.9,363.5,234.7z"/>
	<path class="st5" d="M380.3,198.9c-0.3,2.9,3.2,5.5,5.9,4.3c1.2-1.5,0.8-4-0.7-5.1C383.9,197,381.4,197.3,380.3,198.9z"/>
	<path class="st5" d="M222.5,209.6c1.7,0.8,3.8,0.7,5.3-0.5c1.4-1.2,1.9-3.4,1-5c-1.2-2-4.4-2.4-6.1-0.8
		C221,204.8,221,207.8,222.5,209.6z"/>
	<path class="st6" d="M207.3,119.4c35.6-40.3,96.8-46.1,139.3-12.3c43.8,34.9,50.9,98.7,16,142.6S263.8,300.9,220,266
		c-42.4-33.8-50.5-94.8-19.1-138.4c-38.7,53-29.2,127.4,22.5,168.6c53.1,42.3,130.5,33.4,172.8-19.7
		c42.4-53.2,33.7-130.5-19.3-172.8C325,62.6,250.3,69.9,207.3,119.4z"/>
	<path class="st7" d="M218.9,292.4c21.7,19,50,30.6,81.1,30.6c67.9,0,123-55.1,123-123c0-35.7-15.2-67.8-39.5-90.2
		c29.2,47.2,25.1,111.6-15.5,155.1C328.9,306.7,268.1,315.7,218.9,292.4z"/>
	<path class="st8" d="M222,104.9c-27.4,22.7-44.9,57-44.9,95.3c0,18.8,4.3,36.6,11.9,52.6c44.2,11.2,89.4-3.5,122.9-39.1
		c34.3-36.4,47-85.1,31.4-128.9c-13.4-5-28-7.8-43.2-7.8C270.4,77,243.2,87.5,222,104.9z"/>
	<g>
		<g>
			<defs>
				<filter id="Adobe_OpacityMaskFilter" filterUnits="userSpaceOnUse" x="187.3" y="92.9" width="146.4" height="144.9">
					<feColorMatrix  type="matrix" values="1 0 0 0 0  0 1 0 0 0  0 0 1 0 0  0 0 0 1 0"/>
				</filter>
			</defs>
			<mask maskUnits="userSpaceOnUse" x="187.3" y="92.9" width="146.4" height="144.9" id="SVGID_1_">
				<g class="st9">
					<g>
						<defs>
							<polygon id="SVGID_00000113312631470940712960000012395310351600120973_" points="1,1 2,1 1,2 							"/>
						</defs>
						<defs>
							<polygon id="SVGID_00000100375827273949062920000018173541066953048220_" points="-1,-1 -2,-1 -1,-2 							"/>
						</defs>
						<clipPath id="SVGID_00000104690334244547927820000008562059468533925283_">
							<use xlink:href="#SVGID_00000113312631470940712960000012395310351600120973_"  style="overflow:visible;"/>
						</clipPath>
						
							<clipPath id="SVGID_00000166675805315376568210000010725410723763087551_" style="clip-path:url(#SVGID_00000104690334244547927820000008562059468533925283_);">
							<use xlink:href="#SVGID_00000100375827273949062920000018173541066953048220_"  style="overflow:visible;"/>
						</clipPath>
						
							<radialGradient id="SVGID_00000176007284531895720200000004177580371530628993_" cx="-68.3673" cy="670.2997" r="133.3746" gradientTransform="matrix(2.820000e-02 -0.885 -0.9116 0.1621 841.5682 -34.0019)" gradientUnits="userSpaceOnUse">
							<stop  offset="0" style="stop-color:#FFFFFF"/>
							<stop  offset="0.7749" style="stop-color:#000000"/>
						</radialGradient>
						
							<path style="clip-path:url(#SVGID_00000166675805315376568210000010725410723763087551_);fill:url(#SVGID_00000176007284531895720200000004177580371530628993_);" d="
							M215.9,118.9c31-29.8,80.6-35.6,106.6-8.9s2.4,50.8-27.3,87.6c-24.4,30.3-66.2,55.6-92.2,28.9
							C176.9,199.8,184.9,148.7,215.9,118.9z"/>
					</g>
				</g>
			</mask>
			
				<radialGradient id="SVGID_00000172435354021169952040000003796067428760943245_" cx="-68.3673" cy="670.2997" r="133.3746" gradientTransform="matrix(2.820000e-02 -0.885 -0.9116 0.1621 841.5682 -34.0019)" gradientUnits="userSpaceOnUse">
				<stop  offset="0" style="stop-color:#FFFFFF"/>
				<stop  offset="0.7749" style="stop-color:#000000"/>
			</radialGradient>
			<path style="mask:url(#SVGID_1_);fill:url(#SVGID_00000172435354021169952040000003796067428760943245_);" d="M215.9,118.9
				c31-29.8,80.6-35.6,106.6-8.9s2.4,50.8-27.3,87.6c-24.4,30.3-66.2,55.6-92.2,28.9C176.9,199.8,184.9,148.7,215.9,118.9z"/>
		</g>
	</g>
	
		<radialGradient id="SVGID_00000169531985004825451970000002163995096569131451_" cx="-68.3673" cy="670.2997" r="133.3746" gradientTransform="matrix(2.820000e-02 -0.885 -0.9116 0.1621 841.5682 -34.0019)" gradientUnits="userSpaceOnUse">
		<stop  offset="0" style="stop-color:#FFFFFF"/>
		<stop  offset="0.7749" style="stop-color:#F3F9F7"/>
	</radialGradient>
	<path style="opacity:0.49;fill:url(#SVGID_00000169531985004825451970000002163995096569131451_);enable-background:new    ;" d="
		M215.9,118.9c31-29.8,80.6-35.6,106.6-8.9s2.4,50.8-27.3,87.6c-24.4,30.3-66.2,55.6-92.2,28.9C176.9,199.8,184.9,148.7,215.9,118.9
		z"/>
	<path class="st14" d="M266.9,318.4c10.5,2.9,21.6,4.6,33.1,4.6c67.9,0,123-55.1,123-123S367.9,77,300,77c-8.9,0-17.5,1-25.8,2.7
		c26.1-4.6,53.8-0.9,78.9,12.4c59.7,31.6,82.1,105.4,50.2,164.9C376.5,307,319.7,330.9,266.9,318.4z"/>
</g>
</svg>
