<?xml version="1.0" encoding="utf-8"?>
<!-- Generator: Adobe Illustrator 27.8.0, SVG Export Plug-In . SVG Version: 6.00 Build 0)  -->
<svg version="1.1" id="hero" xmlns="http://www.w3.org/2000/svg" xmlns:xlink="http://www.w3.org/1999/xlink" x="0px" y="0px"
	 viewBox="0 0 1200 600" style="enable-background:new 0 0 1200 600;" xml:space="preserve">
<style type="text/css">
	.st0{opacity:0.5;fill:#3DF2BF;enable-background:new    ;}
	.st1{fill:#FFFFFF;}
	.st2{fill:#3DF2BF;}
	.st3{fill:#5B73D8;}
	.st4{fill:#27238C;}
	.st5{fill:#151755;}
	.st6{fill:#525AF2;}
	.st7{fill:#A6AFFF;}
	.st8{fill:#7B8EFF;}
	.st9{fill:#4150D8;}
	.st10{fill:#ACF9E2;}
	.st11{opacity:0.3;fill:#3DF2BF;enable-background:new    ;}
	.st12{opacity:0.5;}
	.st13{fill:#FFD652;}
	.st14{fill:#6E3696;}
	.st15{opacity:0.5;fill:#0A0931;enable-background:new    ;}
	.st16{opacity:0.4;fill:#FFD652;enable-background:new    ;}
	.st17{fill:#FF436C;}
	.st18{fill:#41371C;}
	.st19{opacity:0.5;fill:#41371C;enable-background:new    ;}
	.st20{opacity:0.4;}
	.st21{opacity:0.7;fill:#3DF2BF;enable-background:new    ;}
	.st22{opacity:0.36;}
	.st23{fill:#4885C5;}
	.st24{fill:#CED1D2;}
	.st25{fill:#EFF0F0;}
	.st26{fill:url(#SVGID_1_);}
	.st27{fill:url(#SVGID_00000089566867584005070900000011566461659121734796_);}
	.st28{fill:#414042;}
	.st29{fill:#6D6E71;}
	.st30{fill:#F49140;}
	.st31{fill:#BABCBE;}
	.st32{fill:#E5E5E6;}
	.st33{fill:#59595B;}
	.st34{fill:none;stroke:#59595B;stroke-width:15.718;stroke-miterlimit:10;}
	.st35{fill:#83E2F7;}
	.st36{fill:#73D3F0;}
	.st37{fill:#6FC5D9;}
	.st38{fill:#72E8E2;}
	.st39{fill:#08A3BC;}
	.st40{fill:#1B1436;}
	.st41{opacity:0.6;fill:#CED1D2;}
	.st42{fill:#03A7FF;}
	.st43{fill:#57C4FF;}
	.st44{fill:#87D5FF;}
	.st45{fill:#B8E6FF;}
	.st46{fill:#EDF9FF;}
</style>
<g>
	<g>
		<path class="st0" d="M239.8,461L207,481.1c-2.7,1.6-6.3,0.1-7-3.1l-17.1-55.6c-0.3-2-3.2-2.3-3.9-0.4l-14.7,35.5
			c-1.2,2.9-5.1,3.8-7.4,1.5l-60.8-83.9c-1.5-1.4-3.9,0-3.4,2l41.9,94.7c0.8,3.2-1.9,6.1-5.1,5.7l-38.1-5.1
			c-2.1-0.3-3.2,2.3-1.6,3.6l39.4,42.8c2.5,2.1,2.1,6-0.8,7.5l-33.8,18.2c-1.7,1-1.2,3.7,0.8,3.8l44.9,3.6l0,0
			c34.5,1.9,66.8-16.7,82.6-47.5l0,0l19.5-40.7C243.5,461.9,241.4,460,239.8,461z"/>
		<path class="st0" d="M230.1,469.8l-27.8,17c-2.3,1.4-5.3,0.1-5.9-2.6L181.8,437c-0.3-1.7-2.6-2-3.3-0.3l-12.4,30
			c-1.1,2.5-4.4,3.3-6.3,1.3l-51.5-71.1c-1.2-1.2-3.3,0-2.8,1.6l35.6,80.3c0.7,2.6-1.6,5.1-4.4,4.8l-32.3-4.4
			c-1.7-0.2-2.6,2-1.3,3.1l33.4,36.2c2.1,1.7,1.7,5.1-0.7,6.4l-28.7,15.5c-1.5,0.9-1.1,3.2,0.7,3.3l38.2,3.1l0,0
			c29.2,1.5,56.6-14.2,70-40.3l0,0l16.6-34.5C233.2,470.4,231.6,468.9,230.1,469.8z"/>
		<g>
			<g>
				<path class="st1" d="M182.9,476.6L182.9,476.6L182.9,476.6z"/>
				<path class="st2" d="M204.6,497.8c-0.2-0.2-0.3-0.5-0.7-0.8c-0.5-0.5-1.3-1.1-2.1-1.4c-0.8-0.3-1.6-0.5-2.4-0.5l0,0l0,0
					c-5.1-0.2-8.3-5.7-5.9-10.3l0,0l0,0c0.5-1,0.9-2.2,0.8-3.4c0-1.2-0.3-2.3-0.9-3.2c-0.1-0.1-0.2-0.3-0.3-0.4
					c-0.2-0.2-0.3-0.4-0.5-0.7l-0.3-0.3c-0.2-0.2-0.3-0.3-0.7-0.5c-0.9-0.7-1.9-1.1-2.9-1.3s-2.4-0.1-3.6,0.3l0,0l0,0l0,0l0,0
					c-0.3,0.1-0.7,0.2-0.9,0.4c-0.4,0.2-0.9,0.5-1.2,0.9l0,0c-0.4,0.3-0.8,0.7-1.2,0.9c-3.7,2.2-8.7,0.4-10.1-4l0,0
					c-0.1-0.4-0.3-1-0.7-1.4c-0.4-0.9-1.2-1.6-2-2.2c-1.2-0.9-2.5-1.2-3.7-1.2c-1.2,0-2.5,0.2-3.6,0.9l0,0c-0.9,0.5-1.7,1.3-2.4,2.3
					c-0.7,1-1,2.2-1,3.3l0,0l0,0c-0.1,2.5-1.5,4.6-3.5,5.8c-2,1.1-4.5,1.3-6.8,0.1l0,0c-1-0.5-2.2-0.9-3.4-0.8
					c-1.2,0-2.3,0.3-3.2,0.9l0,0c-1.5,0.9-2.6,2.2-3.2,3.8c-0.2,0.9-0.4,1.7-0.3,2.7c0.1,1,0.4,2,0.9,2.7c0.2,0.4,0.5,0.9,0.9,1.2
					l0,0c3.1,3.4,2.1,8.6-1.6,10.8c-0.4,0.2-0.9,0.4-1.4,0.7l0,0l0,0c-0.4,0.1-1,0.3-1.4,0.7l0,0c-0.9,0.4-1.6,1.2-2.2,2
					c-0.9,1.2-1.2,2.5-1.2,3.7c0,1.2,0.2,2.5,0.9,3.6c0.5,0.9,1.3,1.7,2.3,2.4c1,0.7,2.2,1,3.3,1l0,0c5.1,0.2,8.3,5.7,5.9,10.3l0,0
					c-0.5,1-0.9,2.2-0.8,3.4c0,1.2,0.3,2.3,0.9,3.2c0.9,1.5,2.2,2.6,3.8,3.2c0.9,0.2,1.7,0.4,2.7,0.3c1-0.1,2-0.3,2.7-0.9l0,0
					c0.4-0.2,0.9-0.5,1.2-0.9l0,0l0,0c0.4-0.3,0.8-0.7,1.2-0.9c3.7-2.2,8.7-0.4,10.1,4l0,0c0.1,0.4,0.3,1,0.7,1.4
					c0.8,1.3,1.9,2.3,3.1,2.8c1.2,0.5,2.5,0.7,3.7,0.5c0.3,0,0.5-0.1,0.9-0.2l0.4-0.1c0.3-0.1,0.5-0.2,0.9-0.3
					c0.1-0.1,0.3-0.1,0.4-0.2l0,0c0.9-0.5,1.7-1.3,2.4-2.3c0.7-1,1-2.2,1-3.3l0,0c0.1-2.5,1.5-4.6,3.5-5.8c2-1.1,4.5-1.3,6.8-0.1
					l0,0c1,0.5,2.2,0.9,3.4,0.8c1.2,0,2.3-0.3,3.2-0.9l0,0c0.2-0.1,0.3-0.2,0.4-0.2l0,0c1.3-1,2.3-2.2,2.7-3.8
					c0.2-0.8,0.3-1.6,0.2-2.6c-0.1-0.9-0.4-1.9-0.9-2.6c-0.2-0.4-0.5-0.9-0.9-1.2l0,0l0,0c-3.1-3.4-2.1-8.6,1.6-10.8
					c0.4-0.2,0.9-0.4,1.4-0.7l0,0l0,0c0.4-0.1,1-0.3,1.4-0.7l0,0c0.9-0.5,1.6-1.2,2.2-2.1c0.5-0.8,0.9-1.7,1.1-2.6
					c0.1-0.3,0.1-0.5,0.1-0.9v-0.4c0-0.5-0.1-1.2-0.2-1.7l-0.1-0.4c-0.2-0.5-0.4-1.1-0.8-1.6L204.6,497.8z"/>
			</g>
			<g>
				<path class="st3" d="M162.9,494.2l0.9-18.8c0.1-1.5,2.2-1.7,2.6-0.3L172,493c0.1,0.3,0.5,0.5,0.9,0.2l13.9-12.7
					c1.1-1,2.7,0.3,2.1,1.6l-8.7,16.7c-0.2,0.3,0.1,0.8,0.4,0.8l18.8,0.9c1.5,0.1,1.7,2.2,0.3,2.6l-17.9,5.7
					c-0.3,0.1-0.5,0.5-0.2,0.9l12.7,13.9c1,1.1-0.3,2.7-1.6,2.1l-16.7-8.7c-0.3-0.2-0.8,0.1-0.8,0.4l-0.9,18.8
					c-0.1,1.5-2.2,1.7-2.6,0.3l-5.7-17.9c-0.1-0.3-0.5-0.5-0.9-0.2l-13.9,12.7c-1.1,1-2.7-0.3-2.1-1.6l8.7-16.7
					c0.2-0.3-0.1-0.8-0.4-0.8l-18.8-0.9c-1.5-0.1-1.7-2.2-0.3-2.6l17.9-5.7c0.3-0.1,0.5-0.5,0.2-0.9L143.8,488
					c-1-1.1,0.3-2.7,1.6-2.1l16.7,8.7C162.4,494.8,162.9,494.6,162.9,494.2z"/>
				<path class="st4" d="M188.8,482.2c0.7-1.3-1-2.6-2.1-1.6l-13.4,12.2l-7.2,26.4l5.5,17.2c0.4,1.4,2.5,1.1,2.6-0.3l0.9-18.8
					c0-0.4,0.4-0.7,0.8-0.4l16.7,8.7c1.3,0.7,2.6-1,1.6-2.1l-12.7-13.9c-0.2-0.3-0.1-0.8,0.2-0.9l17.9-5.7c1.4-0.4,1.1-2.5-0.3-2.6
					l-18.8-0.9c-0.4,0-0.7-0.4-0.4-0.8L188.8,482.2z"/>
			</g>
		</g>
	</g>
</g>
<g>
	<g>
		<g>
			<g>
				<g>
					<polygon class="st5" points="774.6,164.1 750.9,180 736.4,103.4 761.4,93.9 					"/>
					<polygon class="st5" points="800.5,146.9 776.7,162.8 763.6,93.1 788.6,83.6 					"/>
					<polygon class="st5" points="826.3,129.7 802.6,145.5 790.7,82.8 815.7,73.3 					"/>
					<polygon class="st5" points="852.2,112.5 828.4,128.3 817.9,72.5 842.9,63 					"/>
					<path class="st6" d="M751.8,163.8c4.7-6.4,9.3-12.8,14-19c1.4-1.8,2.8-3.7,4.2-5.5l-8.6-45.4l-25,9.5l12.3,65
						C749.7,166.9,750.7,165.3,751.8,163.8z"/>
					<path class="st6" d="M793.7,111l-5.2-27.4l-25,9.5l8.3,43.9C779.1,128,786.4,119.4,793.7,111z"/>
					<path class="st6" d="M817.5,86.7c0.2-0.2,0.4-0.4,0.6-0.6l-2.4-12.9l-25,9.5l4.9,26.1C802.9,101.2,810.1,93.8,817.5,86.7z"/>
					<path class="st6" d="M843.1,64.4l-0.3-1.4l-25,9.5l2.2,11.8C827.7,77.4,835.4,70.8,843.1,64.4z"/>
					<polygon class="st5" points="906.4,76.3 894.6,84.2 887.4,46 899.8,41.4 					"/>
					<polygon class="st5" points="919.2,67.8 907.4,75.7 900.9,40.9 913.2,36.3 					"/>
					<polygon class="st5" points="931.9,59.3 920.2,67.1 914.3,35.8 926.6,31.2 					"/>
					<polygon class="st5" points="944.7,50.8 933,58.6 927.7,30.7 940.1,26.1 					"/>
					<path class="st6" d="M895.1,76.1c2.3-3.2,4.6-6.3,6.9-9.4c0.7-0.9,1.4-1.8,2.1-2.7l-4.3-22.7L887.4,46l6.1,32.4
						C894,77.6,894.6,76.9,895.1,76.1z"/>
					<path class="st6" d="M915.8,49.9l-2.6-13.7l-12.4,4.7l4.1,21.9C908.6,58.4,912.2,54.1,915.8,49.9z"/>
					<path class="st6" d="M927.5,37.9c0.1-0.1,0.2-0.2,0.3-0.3l-1.2-6.4l-12.4,4.7l2.5,13C920.3,45.1,923.9,41.4,927.5,37.9z"/>
					<path class="st6" d="M940.2,26.8l-0.1-0.7l-12.4,4.7l1.1,5.9C932.6,33.2,936.4,29.9,940.2,26.8z"/>
				</g>
			</g>
			<g>
				<path class="st7" d="M761.1,93l-25,9.5c-0.4,0.2-0.7,0.6-0.6,1.1l14.4,76.6c0.1,0.3,0.3,0.6,0.6,0.7c0.3,0.1,0.6,0.1,0.9-0.1
					l23.8-15.9c0.3-0.2,0.5-0.6,0.4-1l-13.3-70.1c-0.1-0.3-0.2-0.5-0.5-0.7C761.6,93,761.3,92.9,761.1,93z M737.5,104l23.2-8.8
					l12.9,68.5l-22.1,14.7L737.5,104z"/>
				<path class="st7" d="M788.2,82.7l-25,9.5c-0.4,0.2-0.7,0.6-0.6,1.1l13.1,69.6c0.1,0.3,0.3,0.6,0.6,0.7c0.3,0.1,0.6,0.1,0.9-0.1
					l23.8-15.9c0.3-0.2,0.5-0.6,0.4-1l-11.9-63.3c-0.1-0.3-0.2-0.5-0.5-0.7C788.8,82.6,788.5,82.6,788.2,82.7z M764.7,93.7l23.2-8.8
					l11.6,61.5l-22.1,14.7L764.7,93.7z"/>
				<path class="st7" d="M815.4,72.4l-25,9.5c-0.4,0.2-0.7,0.6-0.6,1.1l11.8,62.7c0.1,0.3,0.3,0.6,0.6,0.7c0.3,0.1,0.6,0.1,0.9-0.1
					l23.8-15.9c0.3-0.2,0.5-0.6,0.4-1L816.7,73c-0.1-0.3-0.2-0.5-0.5-0.7C815.9,72.3,815.6,72.3,815.4,72.4z M791.8,83.4l23.2-8.8
					l10.3,54.6l-22.1,14.7L791.8,83.4z"/>
				<path class="st7" d="M940.5,25.2c-0.2-0.1-0.5-0.2-0.8-0.1l-12.4,4.7c-0.2,0.1-0.4,0.2-0.5,0.4c-0.2-0.1-0.4-0.1-0.6,0
					l-12.4,4.7c-0.2,0.1-0.4,0.2-0.5,0.4c-0.2-0.1-0.4-0.1-0.6,0L900.3,40c-0.2,0.1-0.4,0.2-0.5,0.4c-0.2-0.1-0.4-0.1-0.6,0
					l-12.4,4.7c-0.3,0.1-0.5,0.4-0.6,0.7v0.1l-3.8,12.7c-0.1,0.5,0.1,1,0.6,1.2c0.5,0.1,1-0.1,1.2-0.6l2.7-9.1l6.2,33l-5.8-0.4
					c-0.5,0-1,0.4-1,0.9s0.4,1,0.9,1l7.1,0.5h0.1h0.1c0.1,0,0.2-0.1,0.3-0.1h0.1l11.8-7.8c0.2-0.1,0.3-0.3,0.4-0.6
					c0.2,0,0.5,0,0.7-0.1l11.8-7.8c0.2-0.1,0.3-0.3,0.4-0.6c0.2,0,0.5,0,0.7-0.1l11.8-7.8c0.2-0.1,0.3-0.3,0.4-0.6
					c0.2,0,0.5,0,0.7-0.1l11.8-7.8c0.3-0.2,0.5-0.6,0.4-1L941.1,26C940.9,25.6,940.8,25.4,940.5,25.2z M888.5,46.7l10.5-4l6.3,33.2
					l-10,6.7L888.5,46.7z M901.9,41.6l10.5-4l5.6,29.8l-10,6.7L901.9,41.6z M915.4,36.5l10.5-4l5,26.4l-10,6.7L915.4,36.5z
					 M928.8,31.4l10.5-4l4.3,23l-10,6.7L928.8,31.4z"/>
				<path class="st7" d="M857.3,98.8l-4.7,10.5l-8.3-44l7.3,5.8c0.4,0.3,1,0.3,1.3-0.2c0.3-0.4,0.3-1-0.2-1.3l-9.3-7.4h-0.1
					c0,0,0,0-0.1,0h-0.1c-0.1,0-0.1-0.1-0.2-0.1c-0.1,0-0.1,0-0.2,0c-0.1,0-0.2,0-0.2,0h-0.1l-25,9.5c-0.4,0.2-0.7,0.6-0.6,1.1
					l10.5,55.8c0.1,0.3,0.3,0.6,0.6,0.7c0.3,0.1,0.6,0.1,0.9-0.1l23.8-15.9l0,0c0.1-0.1,0.2-0.2,0.3-0.4l6-13.3c0.2-0.5,0-1-0.5-1.3
					C858.1,98.1,857.5,98.3,857.3,98.8z M819,73.1l23.2-8.8l9,47.7l-22.1,14.7L819,73.1z"/>
			</g>
		</g>
		<g>
			<g>
				<polygon class="st8" points="851.6,69.7 857.3,99.9 905.5,110.2 897.6,68.2 				"/>
				<path class="st3" d="M871.5,98.1c3.9-3.4,7.9-6.7,12-9.8c5.2-3.8,10.5-7.5,15.7-11.3l-1.7-8.8l-45.9,1.5l5.7,30.2l9.7,2.1
					C868.6,100.7,870.1,99.4,871.5,98.1z"/>
				<polygon class="st7" points="931.7,93.2 905.5,110.2 897.9,69.6 924.9,55.4 				"/>
				<polygon class="st9" points="851.7,70.2 898.3,70.3 924.9,55.4 883,57.1 				"/>
			</g>
		</g>
		<g>
			<g>
				<path class="st6" d="M941.2,84.8c-1.6,16.7-10.9,28.9-20.9,27.3S903.5,95.7,905.1,79c1.6-16.7,10.9-28.9,20.9-27.3
					S942.8,68.1,941.2,84.8z"/>
				
					<ellipse transform="matrix(5.543439e-02 -0.9985 0.9985 5.543439e-02 791.404 1002.1241)" class="st7" cx="925.4" cy="82.8" rx="26.2" ry="15.7"/>
				<path class="st2" d="M939.1,84.5c-1,11-7.2,19.1-13.8,18c-6.6-1.1-11.1-10.9-10-21.9c1-11,7.2-19.1,13.8-18
					C935.6,63.7,940.1,73.5,939.1,84.5z"/>
				<path class="st10" d="M937.8,87.6c-0.8,8.5-5.5,14.7-10.6,13.8c-5.1-0.8-8.5-8.4-7.7-16.8c0.8-8.5,5.5-14.7,10.6-13.8
					C935.1,71.6,938.6,79.1,937.8,87.6z"/>
			</g>
			<g>
				<path class="st4" d="M934.6,76.6l-12.1,2.9c-1.6,0.6-2.6,2.2-2.5,4l0,0c0.1,1.6,1.3,3,2.8,3.4l11.5,2.3L934.6,76.6z"/>
				<path class="st5" d="M938.7,83.6c-0.3,3.5-2.3,6-4.4,5.7c-2.1-0.3-3.6-3.4-3.3-6.9s2.3-6,4.4-5.7S939,80.1,938.7,83.6z"/>
			</g>
			<path class="st7" d="M931.2,75.8"/>
			<path class="st6" d="M948.2,84.7c0.1-0.2,0.1-0.3,0.1-0.5c0-0.1-0.1-0.2-0.1-0.3c0,0,0,0,0-0.1s0-0.1-0.1-0.2l-24.8-31.5
				c-0.4-0.5-1-0.5-1.5-0.2c-0.5,0.4-0.5,1-0.2,1.5l23.6,30.1c-3.3,0.4-10.6,1.3-18,2.2c-5,0.6-10,1.2-13.8,1.7
				c-1.9,0.2-3.5,0.4-4.6,0.6c-0.6,0.1-1,0.1-1.4,0.2c-0.3,0-0.5,0.1-0.6,0.1c-0.6,0.1-0.9,0.7-0.8,1.2c0.1,0.6,0.6,0.9,1.2,0.8l0,0
				c0.3,0,3-0.4,6.8-0.8c5.7-0.7,14.1-1.7,20.9-2.5c4.1-0.5,7.7-0.9,9.9-1.2l-18.2,23.8c-0.3,0.5-0.3,1.1,0.2,1.5s1.1,0.3,1.5-0.2
				l19.6-25.7C948.1,84.9,948.2,84.8,948.2,84.7L948.2,84.7L948.2,84.7z"/>
		</g>
	</g>
</g>
<g>
	<g>
		<g>
			<g>
				<path class="st11" d="M792.3,477.4c-5.8-10.2-13.8-18.1-22.7-23.7c-9-5.6-19-8.9-29-10.1c-0.3,0-0.4,0-0.7,0
					c-3.7,0-7.5,0.7-11.2,1.9c-5.6,1.9-11.1,4.9-15.6,9.2c-2.2,2.2-4.1,4.7-5.6,7.5c-1.3,2.7-2.2,5.8-2.2,9.1
					c-0.8-0.9-1.4-1.9-1.8-2.9c-0.8-1.8-1.2-3.7-1.2-5.7c0-3,0.9-6.3,2.7-9.5c1.8-3.2,4.5-6.2,7.9-8.7c10.7-6.6,22.3-9.4,34.1-9.4
					c4.5,0,9,0.4,13.4,1.2c3.3,0.6,6.5-1.7,7-5c0.6-3.3-1.7-6.5-5-7l0,0c-5.1-0.9-10.3-1.3-15.5-1.3c-13.8,0-27.9,3.3-40.7,11.4
					l-0.3,0.2c-4.9,3.5-8.8,7.9-11.6,12.7c-2.7,4.8-4.3,10.1-4.3,15.5c0,3.7,0.7,7.3,2.3,10.8c1.5,3.3,3.8,6.3,6.7,8.8l0,0
					c0.3,0.3,0.7,0.6,1,0.9c-0.2,0-0.3,0-0.5,0c-2.3,0-4.1-0.4-5.9-1.3c-1.7-0.9-3.5-2.4-5.4-5.2c-3.7-6.1-5.2-11.9-5.2-17.5
					c0-3.9,0.7-7.8,2.1-11.6c2.1-5.7,5.7-11.3,10.2-16.4c4.6-5.1,10.1-9.6,16-13.3c2.8-1.8,3.7-5.5,1.9-8.4
					c-1.8-2.8-5.5-3.7-8.4-1.9c-9,5.7-17.4,13.1-23.7,21.8c-3.1,4.4-5.7,9.1-7.5,14c-1.8,5-2.9,10.3-2.9,15.8c0,7.9,2.2,16.1,7.1,24
					l0.1,0.2c2.8,4.3,6.2,7.4,10,9.4c3.8,2,7.8,2.7,11.5,2.7c0.7,0,1.4,0,2-0.1c-0.7,0.5-1.4,0.9-2.3,1.2c-1.9,0.6-3.9,0.9-6,0.9
					c-3.9,0-8-1.1-11.8-3.1c-3.8-2-7.3-4.8-9.9-8.1l-0.1-0.2c-3.4-3.9-5.7-8.4-7.2-13.4s-2.1-10.4-2.1-16c0-5.9,0.7-11.9,1.8-17.8
					c0.6-3.3-1.6-6.5-4.9-7.1s-6.5,1.6-7.1,4.9c-1.2,6.4-2,13.2-2,20c0,6.5,0.7,13.1,2.6,19.5c1.9,6.3,4.9,12.4,9.4,17.7l0,0l0,0
					l0.1,0.1l0,0c3.7,4.6,8.4,8.4,13.7,11.2c5.3,2.8,11.3,4.4,17.4,4.4c3.3,0,6.7-0.5,9.9-1.6l0.2-0.1c2.5-0.9,4.6-2.2,6.4-3.7
					c-0.5,1.2-1.3,2.4-2.6,3.8c-3.3,3-6.7,5.1-10.2,6.4s-7.1,2-10.7,2c-7.9,0-16.2-3-23.5-8.1c-7.3-5.1-13.6-12.2-17.4-19.9
					c-1.5-3-5.2-4.2-8.2-2.7s-4.2,5.2-2.7,8.2c4.8,9.7,12.3,18.2,21.3,24.5c9,6.2,19.5,10.3,30.5,10.3c5.1,0,10.2-0.9,15.1-2.8
					c5-1.9,9.7-4.9,14.1-8.9l0.2-0.2c2.5-2.5,4.4-5.4,5.6-8.3c0.7-1.9,1.2-3.8,1.4-5.6c0.4,0.6,0.7,1.1,0.9,1.7
					c0.7,1.5,1.1,3.1,1.1,5c0,1.4-0.2,3-0.8,4.9c-3.3,7.6-9.2,13.7-16.5,18c-7.4,4.3-16.3,6.6-24.7,6.6c-5.5,0-10.7-1-15.3-2.9
					c-3.1-1.3-6.7,0.2-8,3.3c-1.3,3.1,0.2,6.7,3.3,8c6.3,2.6,13.1,3.8,20,3.8c10.6,0,21.4-2.8,30.8-8.3c9.4-5.4,17.4-13.5,21.8-24.1
					c0.1-0.2,0.1-0.3,0.2-0.6c0.9-3,1.4-6,1.4-8.8c0-4.9-1.5-9.3-3.7-12.9c-1.5-2.4-3.3-4.5-5.3-6.4c2.3,0.1,4.2,0.7,6,1.8
					c2.8,1.7,5.4,4.9,7.2,8.8c1.8,3.8,2.8,8.2,2.7,11.7c0,4.4-0.8,8.3-2.1,12.1c-2,5.6-5.5,10.8-10.1,15.9
					c-4.6,5-10.3,9.8-16.4,14.5c-2.7,2-3.2,5.9-1.2,8.5c2,2.7,5.9,3.2,8.5,1.2c8.6-6.6,16.9-13.6,23.1-22.1
					c3.1-4.2,5.7-8.8,7.5-13.8c1.8-5,2.9-10.4,2.8-16.2c0-3.7-0.6-7.6-1.8-11.3c-1.7-5.7-4.7-11.2-9-15.6c-2.2-2.2-4.8-4.1-7.7-5.4
					c-3-1.3-6.3-2.1-9.8-2.1c-0.1,0-0.3,0-0.4,0c0.7-0.6,1.4-1,2.3-1.3c1-0.4,2.3-0.7,4.1-0.7c5.6,0.4,10.1,1.9,14,4.2
					c5.9,3.5,10.3,9,13.4,15.7c3,6.7,4.5,14.6,4.5,22.4c0,5-0.6,9.9-1.8,14.4c-0.9,3.2,1.1,6.6,4.3,7.4c3.2,0.9,6.6-1.1,7.4-4.3
					c1.5-5.6,2.2-11.5,2.2-17.5c0-6.2-0.8-12.5-2.4-18.5c-2.5-9-6.9-17.6-13.8-24.2c-3.4-3.3-7.4-6.1-12-8.1s-9.7-3.3-15.3-3.6h-0.4
					c-3.2,0-6.1,0.5-8.8,1.6c-2.3,0.9-4.3,2.2-6,3.7c-0.5,0.5-1,1-1.5,1.4c0.2-1.4,0.8-2.9,1.7-4.3c1.8-2.8,5.3-5.6,9.2-7.5
					c3.8-1.9,8-2.9,11.1-2.9c8.1,1,16.3,3.7,23.5,8.2c7.4,4.6,13.8,11,18.6,19.4c1.7,2.9,5.4,3.9,8.3,2.3
					C793.1,484,794.1,480.3,792.3,477.4z"/>
				<g class="st12">
					<g>
						<path class="st13" d="M729.2,432.2c-0.3,0-0.7,0-1,0.1c-4.5,1.1-9.1,2.5-13.5,4.4c-4.2,1.9-8.3,4.2-11.9,7.3
							c-3.6,3-6.6,6.7-8.8,11.2l0,0l0,0l-0.1,0.1l0,0c-1.9,3.7-3,7.9-3.3,12.1c-0.3,4.2,0.4,8.6,2.1,12.5c0.9,2.1,2.2,4.2,3.9,6
							l0.1,0.1c1.3,1.3,2.8,2.3,4.3,3.1l0,0c-0.9,0-1.9-0.2-3.2-0.6c-2.9-1.3-5.2-2.9-7.1-4.8c-1.9-1.9-3.3-4-4.4-6.4
							c-2.3-5.1-2.7-11.4-1.5-17.6c1.2-6.2,4-12.3,7.9-17c1.5-1.8,1.3-4.6-0.6-6.1c-0.8-0.7-1.8-1-2.8-1c-1.2,0-2.5,0.5-3.3,1.6
							c-4.9,5.9-8.3,13.2-9.8,20.8c-1.5,7.6-1.1,15.6,2.1,22.7c1.4,3.3,3.5,6.3,6.1,9c2.7,2.7,5.9,4.9,9.8,6.6l0.2,0.1
							c2.2,0.8,4.3,1.3,6.4,1.3c0.2,0,0.4,0,0.6,0c1.4-0.1,2.8-0.3,4.1-0.7c-0.3,0.4-0.5,0.8-0.8,1.1c-0.8,0.9-1.7,1.6-2.9,2.1
							c-0.9,0.4-2,0.7-3.4,0.9c-0.1,0-0.2,0-0.3,0c-5.8,0-11.3-2.1-16.1-5.6c-4.9-3.6-9-8.7-11.4-14.1c-1.6-3.6-2.4-7.2-2.5-10.8
							c-0.1-2.4-2-4.2-4.3-4.2h-0.1c-2.4,0.1-4.3,2-4.2,4.4c0.1,4.8,1.3,9.6,3.3,14.1c3,6.9,8,13.1,14.2,17.6
							c6,4.4,13.3,7.2,21.2,7.2c0.2,0,0.5,0,0.7,0c0.2,0,0.3,0,0.4,0c2.2-0.3,4.3-0.8,6.1-1.6c3.2-1.4,5.6-3.6,7.3-6.1
							c1.1-1.7,2-3.5,2.7-5.3c0.6,1.5,0.8,2.9,0.6,4.4c-0.3,2.3-1.6,4.9-3.6,7.2c-2,2.3-4.5,4.1-6.8,5.1c-2.8,1.2-5.6,1.9-8.4,2.1
							c-0.6,0-1.2,0.1-1.8,0.1c-3.7,0-7.5-0.7-11.4-2.1c-4.6-1.5-9.3-3.8-14.1-6.5c-0.7-0.4-1.4-0.5-2.1-0.5c-1.5,0-3,0.8-3.8,2.2
							c-1.2,2.1-0.4,4.7,1.7,5.9c6.7,3.7,13.7,7,21,8.6c2.9,0.6,5.8,1,8.8,1c0.8,0,1.6,0,2.4-0.1c3.8-0.3,7.6-1.1,11.3-2.8
							c2.4-1.1,4.7-2.6,6.9-4.4c3.2-2.7,5.9-6.2,7.5-10.3c0.8-2.1,1.3-4.3,1.3-6.6c0-2.3-0.4-4.7-1.4-7l-0.1-0.3
							c0.6,0.3,1.1,0.6,1.5,1.1c0.6,0.6,1.1,1.3,1.6,2.4c1.3,3.7,1.7,7.1,1.3,10.3c-0.6,4.8-2.9,9.3-6.4,13.2s-8.2,7.1-13.2,9.3
							c-3.2,1.4-6.6,2.4-9.8,3c-2.4,0.4-4,2.6-3.6,4.9c0.3,2.1,2.2,3.6,4.3,3.6c0.2,0,0.5,0,0.7-0.1c4-0.6,8.1-1.9,12-3.6
							c4-1.8,7.9-4.1,11.3-6.9c5.1-4.2,9.4-9.5,11.7-15.9c1.2-3.2,1.8-6.6,1.8-10.1s-0.7-7.2-2-10.9l-0.1-0.2
							c-0.9-2.1-2.1-3.8-3.5-5.2c-1.2-1.2-2.7-2.2-4.1-2.9c-0.5-0.2-0.9-0.4-1.4-0.5c0.6-0.2,1.2-0.2,1.8-0.2c0.5,0,0.9,0,1.5,0.1
							c2.4,0.4,5.1,1.8,7.5,3.8c2.3,1.9,4.2,4.4,5.1,6.4c1.7,5.5,2.3,11.6,1.4,17.6c-0.9,6.1-3.2,12.1-7.3,17.7
							c-1.4,1.9-1,4.6,0.9,6c0.8,0.6,1.7,0.8,2.6,0.8c1.3,0,2.6-0.6,3.5-1.8c4.9-6.7,7.8-14.1,8.9-21.5c1.1-7.4,0.4-14.9-1.8-21.7
							c-0.1-0.2-0.1-0.3-0.2-0.4c-1.1-2.4-2.6-4.6-4.5-6.7c-2.8-3.1-6.4-5.8-10.4-7.5c-2-0.8-4.2-1.4-6.5-1.4c-0.2,0-0.4,0-0.6,0
							c-2,0-4,0.4-5.9,1.2c0.4-0.8,0.8-1.4,1.3-2c0.9-1,2-1.8,3.4-2.4c1.5-0.7,3.4-1.1,5.3-1.1c0.5,0,1.1,0,1.6,0.1
							c2.6,0.2,5.3,1.1,7.9,2.6c7.4,5,12.5,11.7,15.9,19.4c1.3,2.9,2.3,5.9,3.1,9c0.5,2,2.3,3.3,4.2,3.3c0.3,0,0.7,0,1.1-0.1
							c2.3-0.6,3.7-2.9,3.1-5.2c-0.9-3.6-2.1-7-3.6-10.4c-4-9-10.2-17.1-19-23.1l-0.2-0.1c-3.7-2.2-7.7-3.5-11.6-3.9
							c-0.8-0.1-1.6-0.1-2.4-0.1c-3.1,0-6.1,0.6-8.8,1.8c-2.4,1-4.5,2.6-6.3,4.6c-1.7,1.9-3,4.2-3.8,6.9l0,0
							c-0.1,0.3-0.2,0.6-0.3,0.9l-0.2-0.3c-0.7-1.5-0.9-2.8-0.9-4.2c0.1-1.4,0.5-3,1.8-5c2.9-4.2,6.2-6.8,9.9-8.4
							c2.5-1.1,5.3-1.7,8.1-1.9c0.6,0,1.3-0.1,1.9-0.1c3.8,0,7.7,0.7,11.6,2c4.6,1.5,9.2,3.8,13.3,6.6c0.7,0.5,1.6,0.7,2.4,0.7
							c1.4,0,2.7-0.7,3.6-1.9c1.3-2,0.8-4.7-1.2-6c-6.3-4.2-13.5-7.5-20.9-9.1c-2.9-0.6-5.9-0.9-8.8-0.9c-0.8,0-1.6,0-2.5,0.1
							c-3.8,0.2-7.5,1.1-11,2.7c-5.1,2.3-9.8,6.1-13.5,11.5l-0.1,0.1c-2,3.1-3,6.2-3.2,9.2c-0.2,3,0.5,5.8,1.6,8.2
							c0.2,0.4,0.4,0.9,0.6,1.3c-0.5-0.3-1-0.7-1.5-1.1c-0.9-1.1-1.7-2.3-2.3-3.6c-1.1-2.5-1.6-5.5-1.4-8.5c0.2-3,1-6.1,2.4-8.8
							l0.1-0.1c1.6-3.3,3.9-6.1,6.7-8.5c2.8-2.4,6.2-4.4,9.8-6c3.8-1.7,7.9-3,12-3.9c2.3-0.5,3.8-2.9,3.2-5.2
							C732.8,433.5,731.1,432.2,729.2,432.2"/>
					</g>
				</g>
				<g>
					<g>
						<path class="st13" d="M702.8,480.1c-1.1-1.3-1.6-3-2.7-4.2c-0.4-0.4-2.5-2.4-2.9-2.4c-3-0.5-4,1.4-4.2,4
							c-0.2,3.5,1.2,5.9,3.5,8.5l0.1,0.1c1.3,1.3,2.8,2.3,4.2,3.1c-0.9-0.5-2.3-0.2-3.3-0.7c-0.8-0.4-1.2-1.1-2.2-1.3
							c-2.2-0.5-4.2,1-4.4,3.2c-0.7,5.7,5.5,7.5,10,7.5c0.2,0,0.4,0,0.6,0c1.4-0.1,2.8-0.3,4.1-0.7c-0.3,0.4-0.5,0.8-0.8,1.1
							c-1.7,1.9-4.5,4.2-2.2,7.1c2.9,3.7,8.4-0.6,10.1-3.2c1.1-1.7,2-3.5,2.7-5.3c-0.2,0.6,0.6,4.3,0.8,5.1c0.3,1.2,0.9,2.2,2.2,2.6
							c2.2,0.6,4.9-1.6,5.8-3.5c1.1-2.2,0-5.7-1-7.8l-0.1-0.3c0.6,0.3,1.1,0.6,1.5,1.1c2.2,2.2,6.2,4,7.4-0.4
							c0.5-1.6-0.2-4.6-1.4-5.8c-1.2-1.2-2.7-2.2-4.1-2.9c-0.4-0.2-0.8-0.3-1.3-0.5c2.4-0.7,8.7,0.4,9.2-3.3c0.5-3.5-4-5.4-6.8-5.6
							c-0.2,0-0.4,0-0.6,0c-2,0-4,0.4-5.9,1.2c0.4-0.8,0.8-1.4,1.3-2c1-1.1,2.1-1.4,2.3-3c0.1-1.1-0.6-2.9-1.6-3.5
							c-5.4-3.5-9.7,3.4-10.9,7.6c-0.1,0.3-0.2,0.6-0.3,0.9l-0.2-0.3c-1.1-2.5,0.3-6.2-1.6-8s-4.6-0.8-6.1,1
							c-2.5,3.1-1.7,7.2-0.2,10.5c0.2,0.4,0.4,0.9,0.6,1.3C703.8,480.9,703.3,480.6,702.8,480.1z"/>
					</g>
				</g>
			</g>
			<g>
				<g>
					<g>
						<path class="st13" d="M706.8,430.9c0,1.3-1.1,2.4-2.4,2.4s-2.4-1.1-2.4-2.4s1.1-2.4,2.4-2.4S706.8,429.6,706.8,430.9z"/>
						<path class="st13" d="M728.2,418.2c0,1-0.8,1.8-1.8,1.8s-1.8-0.8-1.8-1.8s0.8-1.8,1.8-1.8
							C727.3,416.4,728.2,417.2,728.2,418.2z"/>
						<circle class="st13" cx="702.1" cy="409.9" r="3"/>
					</g>
					<g>
						<path class="st13" d="M720.4,546.3c0-1.3,1.1-2.4,2.4-2.4s2.4,1.1,2.4,2.4c0,1.3-1.1,2.4-2.4,2.4
							C721.6,548.7,720.4,547.6,720.4,546.3z"/>
						<path class="st13" d="M699.1,559c0-1,0.8-1.8,1.8-1.8s1.8,0.8,1.8,1.8s-0.8,1.8-1.8,1.8S699.1,560,699.1,559z"/>
						<path class="st13" d="M722.2,567.3c0-1.6,1.3-3,3-3c1.6,0,3,1.3,3,3c0,1.6-1.3,3-3,3S722.2,568.9,722.2,567.3z"/>
					</g>
				</g>
				<g>
					<g>
						<circle class="st13" cx="771.3" cy="479.3" r="2.4"/>
						<path class="st13" d="M784.1,503.2c-1,0-1.8-0.8-1.8-1.8s0.8-1.8,1.8-1.8s1.8,0.8,1.8,1.8
							C785.8,502.4,785.1,503.2,784.1,503.2z"/>
						<circle class="st13" cx="792.2" cy="477" r="3"/>
					</g>
					<g>
						<path class="st13" d="M655.9,495.5c1.3,0,2.4,1.1,2.4,2.4s-1.1,2.4-2.4,2.4c-1.3,0-2.4-1.1-2.4-2.4
							C653.4,496.6,654.6,495.5,655.9,495.5z"/>
						<path class="st13" d="M643.2,474c1,0,1.8,0.8,1.8,1.8s-0.8,1.8-1.8,1.8s-1.8-0.8-1.8-1.8S642.2,474,643.2,474z"/>
						<path class="st13" d="M634.9,497.2c1.6,0,3,1.3,3,3c0,1.6-1.3,3-3,3c-1.6,0-3-1.3-3-3S633.2,497.2,634.9,497.2z"/>
					</g>
				</g>
			</g>
			<g>
				<g>
					<g>
						<circle class="st13" cx="743.2" cy="447.6" r="2.1"/>
						<path class="st13" d="M765.6,454.4c-0.6,0.6-1.6,0.6-2.2,0c-0.6-0.6-0.6-1.6,0-2.2s1.6-0.6,2.2,0
							C766.2,452.9,766.2,453.8,765.6,454.4z"/>
						<path class="st13" d="M756.4,435.2c-1,1-2.6,1-3.6,0s-1-2.6,0-3.6s2.6-1,3.6,0S757.4,434.2,756.4,435.2z"/>
					</g>
					<g>
						<path class="st13" d="M682.6,528.1c0.8-0.8,2.1-0.8,3,0s0.8,2.1,0,3c-0.8,0.9-2.1,0.8-3,0
							C681.8,530.2,681.8,528.9,682.6,528.1z"/>
						<path class="st13" d="M661.7,522.8c0.6-0.6,1.6-0.6,2.2,0s0.6,1.6,0,2.2c-0.6,0.6-1.6,0.6-2.2,0
							C661.1,524.3,661.1,523.4,661.7,522.8z"/>
						<path class="st13" d="M670.8,542c1-1,2.6-1,3.6,0s1,2.6,0,3.6s-2.6,1-3.6,0S669.8,543,670.8,542z"/>
					</g>
				</g>
				<g>
					<g>
						<path class="st13" d="M753.1,519.7c-0.8-0.8-0.8-2.1,0-3c0.8-0.8,2.1-0.8,3,0c0.8,0.8,0.8,2.1,0,3
							C755.2,520.5,753.9,520.5,753.1,519.7z"/>
						<path class="st13" d="M747.8,540.6c-0.6-0.6-0.6-1.6,0-2.2c0.6-0.6,1.6-0.6,2.2,0s0.6,1.6,0,2.2S748.3,541.2,747.8,540.6z"/>
						<path class="st13" d="M766.9,531.4c-1-1-1-2.6,0-3.6s2.6-1,3.6,0s1,2.6,0,3.6C769.7,532.5,767.9,532.5,766.9,531.4z"/>
					</g>
					<g>
						<path class="st13" d="M674.2,457.5c0.8,0.8,0.8,2.1,0,3c-0.8,0.9-2.1,0.8-3,0s-0.8-2.1,0-3
							C671.9,456.6,673.3,456.7,674.2,457.5z"/>
						<path class="st13" d="M679.4,436.6c0.6,0.6,0.6,1.6,0,2.2s-1.6,0.6-2.2,0s-0.6-1.6,0-2.2S678.8,436,679.4,436.6z"/>
						<path class="st13" d="M660.2,445.7c1,1,1,2.6,0,3.6s-2.6,1-3.6,0s-1-2.6,0-3.6C657.6,444.7,659.2,444.7,660.2,445.7z"/>
					</g>
				</g>
			</g>
		</g>
	</g>
</g>
<g>
	<g>
		<g>
			<g>
				<g>
					<path class="st14" d="M111.7,186.8c3.2-0.1,6.4-1.7,8.9-3.9c7-6.4,9-16.1,8.1-25.2c-0.3-3.5-1.1-6.9-2.2-10.2
						c-1-2.7-2.7-5.4-2.2-8.4c0.9-4.3,6.4-8.3,4.8-13.1c-2.7-7.9-13.5-4.8-19.4-5.9c-5.7-1.2-7-4.6-9.8-9.2c-2.7-4.4-6-6-11.2-6.6
						c-13.1-1.4-8.3,18.8-10.6,26.1c-1.1,3.6-5,4.6-8.1,5.5c-4,1.2-7.2,3-9.5,6.8c-5.1,8.4-1.7,27.2,10.6,27.1c2.8,0,5.6-1,8.3-1.8
						c3.9-1.2,7.7-1.9,11.3,0.2c4.4,2.7,5.9,9.3,9.5,13.1C103.2,184.7,107.3,187.1,111.7,186.8z"/>
					<path class="st4" d="M119.2,184l-40.8-56.2c-0.1,1.1-0.2,1.9-0.5,2.8c-1.1,3.6-5,4.6-8.1,5.5c-4,1.2-7.2,3-9.5,6.8
						c-5.1,8.4-1.7,27.2,10.6,27.1c2.8,0,5.6-1,8.3-1.8c3.9-1.2,7.7-1.9,11.3,0.2c4.4,2.7,5.9,9.3,9.5,13.1c3,3.1,7.1,5.5,11.6,5.3
						C114.4,186.7,117,185.7,119.2,184z"/>
				</g>
				<path class="st15" d="M105.9,169.5L105.9,169.5c0.5-3.6,3.9-6,7.5-5.4l0,0c3.6,0.5,6,3.9,5.4,7.5l0,0c-0.5,3.6-3.9,6-7.5,5.4
					l0,0C107.7,176.4,105.2,173,105.9,169.5z"/>
				<path class="st15" d="M84.8,119.3L84.8,119.3c0.4-2.6,2.8-4.4,5.5-4l0,0c2.6,0.4,4.4,2.8,4,5.5l0,0c-0.4,2.6-2.8,4.4-5.5,4l0,0
					C86.1,124.4,84.4,121.9,84.8,119.3z"/>
				<path class="st15" d="M112.2,128.5L112.2,128.5c0.3-1.9,2.2-3.2,4.1-2.9l0,0c1.9,0.3,3.2,2.2,2.9,4.1l0,0
					c-0.3,1.9-2.2,3.2-4.1,2.9l0,0C113.3,132.3,112,130.5,112.2,128.5z"/>
				<path class="st15" d="M68,154.4L68,154.4c0.5-3.5,3.8-5.8,7.3-5.3l0,0c3.5,0.5,5.8,3.8,5.3,7.3l0,0c-0.5,3.5-3.8,5.8-7.3,5.3
					l0,0C69.8,161.2,67.4,157.9,68,154.4z"/>
				<path class="st15" d="M85.1,142.3L85.1,142.3c0.3-2.3,2.5-3.8,4.8-3.5l0,0c2.3,0.3,3.8,2.5,3.5,4.8l0,0
					c-0.3,2.3-2.5,3.8-4.8,3.5l0,0C86.3,146.8,84.8,144.6,85.1,142.3z"/>
				<path class="st15" d="M104.9,153.1L104.9,153.1c0.3-1.9,2.2-3.2,4-2.9l0,0c1.9,0.3,3.2,2.2,2.9,4l0,0c-0.3,1.9-2.2,3.2-4,2.9
					l0,0C105.9,156.8,104.6,155.1,104.9,153.1z"/>
			</g>
			<g>
				<g>
					<path class="st14" d="M156.2,119.7c2.3,1.3,4.3,2.9,6,5c1.6,1.9,3.1,4,5.1,5.5c6,4.6,9.9-0.8,12.9-5.8c1.5-2.5,3-5.1,5.3-6.8
						c3.9-3.1,8.3-1.4,12.7-2.3c3.9-0.8,7.5-3.5,9.3-6.9c2.3-4.2,1.8-9.8-1.5-13.4c-2.8-3-7-3.9-10.4-6.2c-3.7-2.4-6.6-6-8.7-9.7
						c-4.4-7.7-4.3-19.5-11.8-24.7c-4.3-3-11.6-4.5-15.8-0.8c-4.4,3.9-4.6,10.2-7.8,14.9c-2.3,3.3-5.4,4.4-9.1,5.3
						c-11,2.6-22.8,9.4-20.7,22.6C124.7,113.7,143.7,112.4,156.2,119.7z"/>
					<path class="st4" d="M162.3,124.6c0,0.1,0.1,0.1,0.1,0.2c-4.4-14.1-8.5-28.4-11.9-42.8c-0.8-3.5-1.5-6.9-2.3-10.4
						c-1.6,1-3.6,1.5-5.6,2.1c-11,2.6-22.8,9.4-20.7,22.6c2.8,17.4,21.8,16.2,34.3,23.3C158.5,121,160.5,122.6,162.3,124.6z"/>
				</g>
				<path class="st15" d="M128.7,92.2L128.7,92.2c0.5-1.2,1.9-1.7,3.1-1.2l0,0c1.2,0.5,1.7,1.9,1.2,3.1l0,0
					c-0.5,1.2-1.9,1.7-3.1,1.2l0,0C128.7,94.8,128.1,93.4,128.7,92.2z"/>
				<path class="st15" d="M146.9,77.9L146.9,77.9c0.9-1.9,3.1-2.8,5.2-1.9l0,0c1.9,0.9,2.8,3.1,1.9,5.2l0,0
					c-0.9,1.9-3.1,2.8-5.2,1.9l0,0C146.9,82.2,146.1,79.9,146.9,77.9z"/>
				<path class="st15" d="M164.7,60.6L164.7,60.6c1.2-2.7,4.4-4,7.1-2.7l0,0c2.7,1.2,4,4.4,2.7,7.1l0,0c-1.2,2.7-4.4,4-7.1,2.7l0,0
					C164.7,66.5,163.6,63.3,164.7,60.6z"/>
				<path class="st15" d="M153.6,104.2L153.6,104.2c0.8-1.6,2.6-2.4,4.2-1.6l0,0c1.6,0.8,2.4,2.6,1.6,4.2l0,0
					c-0.8,1.6-2.6,2.4-4.2,1.6l0,0C153.6,107.7,152.9,105.8,153.6,104.2z"/>
				<path class="st15" d="M169.1,119.8L169.1,119.8c0.8-1.6,2.6-2.4,4.2-1.6l0,0c1.6,0.8,2.4,2.6,1.6,4.2l0,0
					c-0.8,1.6-2.6,2.4-4.2,1.6l0,0C169.1,123.3,168.3,121.4,169.1,119.8z"/>
				<path class="st15" d="M188.6,100.8L188.6,100.8c1-2.3,3.7-3.3,6-2.3l0,0c2.3,1,3.3,3.7,2.3,6l0,0c-1,2.3-3.7,3.3-6,2.3l0,0
					C188.6,105.7,187.6,103,188.6,100.8z"/>
				<path class="st15" d="M164.6,87.9L164.6,87.9c1.8-4.2,6.8-6.2,11.1-4.2l0,0c4.2,1.8,6.2,6.8,4.2,11.1l0,0
					c-1.8,4.2-6.8,6.2-11.1,4.2l0,0C164.6,97.1,162.8,92.1,164.6,87.9z"/>
				<path class="st15" d="M138.2,98.4L138.2,98.4c1.2-2.6,4.1-3.7,6.7-2.6l0,0c2.6,1.2,3.7,4.1,2.6,6.7l0,0
					c-1.2,2.6-4.1,3.7-6.7,2.6l0,0C138.2,104,137,101,138.2,98.4z"/>
			</g>
			<g>
				<g>
					<path class="st14" d="M61.5,265.8c0.5,0.2,1.1,0.3,1.6,0.4c8.7,1.8,12.4-8.1,19.3-11c5.9-2.5,9.7,0.3,14.9,2.7
						c2.6,1.2,5.2,1.5,7.8,0.2c3.9-1.8,5.1-5.2,5.5-9.3c0.4-4.5-1.5-9.3-0.3-13.8c1.1-4.1,4.5-7.6,5.7-11.9c1.2-4,1.3-8.5-0.3-12.4
						c-4.2-10-16.4-7.8-24.3-13c-3.5-2.4-5.6-5.2-10.2-5.4c-3.3-0.2-6.3,1.1-8.5,3.6c-1.8,2.1-1.9,5-4,7.1
						c-3.2,3.5-7.2,3.6-11.7,3.9c-6.8,0.5-12.5,4-12.9,11.2c-0.1,3.6,1.1,6.8,2.2,10c1.5,4.4,4.9,6.4,7.2,10.3
						c1.4,2.4,1.9,5.2,1.9,7.9c0,3.6-1,7-0.8,10.6C55.1,261.1,57.9,264.4,61.5,265.8z"/>
					<path class="st4" d="M63.1,266.2c8.7,1.8,12.4-8.1,19.3-11c0.1,0,0.1-0.1,0.2-0.1l-18.8-49c-2.1,0.6-4.3,0.8-6.8,0.9
						c-6.8,0.5-12.5,4-12.9,11.2c-0.1,3.6,1.1,6.8,2.2,10c1.5,4.4,4.9,6.4,7.2,10.3c1.4,2.4,1.9,5.2,1.9,7.9c0,3.6-1,7-0.8,10.6
						c0.2,3.9,2.9,7.2,6.6,8.5C62,265.9,62.6,266.1,63.1,266.2z"/>
				</g>
				<path class="st15" d="M74.9,243.4L74.9,243.4c0.9-1.9,3.1-2.8,5.1-1.9l0,0c1.9,0.9,2.8,3.1,1.9,5.1l0,0
					c-0.9,1.9-3.1,2.8-5.1,1.9l0,0C74.9,247.6,74,245.4,74.9,243.4z"/>
				<path class="st15" d="M50.3,218.5L50.3,218.5c1.3-2.9,4.8-4.2,7.6-2.9l0,0c2.9,1.3,4.2,4.8,2.9,7.6l0,0
					c-1.3,2.9-4.8,4.2-7.6,2.9l0,0C50.3,224.8,49,221.4,50.3,218.5z"/>
				<path class="st15" d="M78.7,203.7L78.7,203.7c0.9-2.1,3.2-2.9,5.3-2.1l0,0c2.1,0.9,2.9,3.2,2.1,5.3l0,0
					c-0.9,2.1-3.2,2.9-5.3,2.1l0,0C78.7,208,77.7,205.6,78.7,203.7z"/>
				<path class="st15" d="M100.3,217.7L100.3,217.7c1.4-3.1,5.1-4.5,8.2-3.1l0,0c3.1,1.4,4.5,5.1,3.1,8.2l0,0
					c-1.4,3.1-5.1,4.5-8.2,3.1l0,0C100.3,224.5,98.9,220.9,100.3,217.7z"/>
				<path class="st15" d="M94.6,247.2L94.6,247.2c0.8-1.7,2.7-2.5,4.4-1.7l0,0c1.7,0.8,2.5,2.7,1.7,4.4l0,0
					c-0.8,1.7-2.7,2.5-4.4,1.7l0,0C94.6,250.9,93.9,248.8,94.6,247.2z"/>
				<path class="st15" d="M69,227.7L69,227.7c1.2-2.7,4.3-3.9,7-2.7l0,0c2.7,1.2,3.9,4.3,2.7,7l0,0c-1.2,2.7-4.3,3.9-7,2.7l0,0
					C69,233.6,67.9,230.4,69,227.7z"/>
				<path class="st15" d="M62,255.3L62,255.3c0.4-1.1,1.7-1.5,2.8-1.1l0,0c1.1,0.4,1.5,1.7,1.1,2.8l0,0c-0.4,1.1-1.7,1.5-2.8,1.1
					l0,0C62,257.6,61.6,256.3,62,255.3z"/>
			</g>
		</g>
	</g>
</g>
<g>
	<g>
		<g>
			<path class="st16" d="M1134.2,226.8c1.5-0.4,3.1-0.5,4.5,0.4c9.7,5.6-7.4,17-12,20.4c-20.8,15.3-44.8,17.1-69.5,19.9
				c-2,0.2-9.2,0.7-7.5,4.3c0.4,0.8,1.1,1.4,2,1.7c1.9,0.8,4.1,0.7,6.2,0.8c2.4,0.2,5.7,1.4,6.2,4c0.6,2.8-1.7,4.3-4,5.2
				c-10.5,4.4-23.5,3.8-34.3,0.6c-10.5-3.1-20.2-9.3-26.5-18.2s-8.9-20.7-5.7-31.1c2.9-9.3,10.4-15.8,19.6-18.5
				c10-2.9,19.5,0,29.5,0.4c10.1,0.4,20.2-0.2,30.1-1.9c1.7-0.3,3.5-0.6,5.2-1c3.4-0.7,7.6-1.4,10,1.2c2.8,3.1,0.6,8.4-2.9,10.6
				c-3.5,2.2-7.9,2.6-11.8,4.1c-2.9,1.1-5.8,3.2-6.5,6.3c-0.9,3.7,2,7.5,5.5,9c3.5,1.4,7.5,1.1,11.3,0.6c10.2-1.5,20.2-4.3,29.8-8.2
				c4.8-2,9.6-4.4,14.1-7C1129.5,229.2,1131.8,227.5,1134.2,226.8z"/>
			<path class="st16" d="M1067.3,261c-7.8,0.5-15.7,0.1-23.4,1.4c-3.3,0.6-7.9,1.7-8,5.4c-0.2,4.7,5.6,5.4,8.7,7.3
				c4.9,3,4.5,8.3-1,10.6c-5,2.1-10.6,0.3-17.4-1.5c-5.3-1.4-10.4-3.9-14-6.1c-9.9-6.3-18-16.4-19.6-28.2
				c-1.1-7.9,2.5-16.1,7.9-21.7c6.9-7.1,16.6-8.5,26.1-7.6c6.2,0.6,12.3,1.1,18.5,1.8c6,0.6,12.3-0.6,18.4-1c2.8-0.2,8.1,0.7,7,4.6
				c-1.2,4.2-9,4.7-12.5,5.4c-4.8,0.9-11.9,3.2-12.1,9.2c-0.1,6.6,7.2,8.9,13.1,10.1c1.2,0.2,2.3,0.4,3.2,0.6
				c4.2,0.8,8.6,1.1,12.9,1.1c2.7,0,7.6-0.9,9.5,1.7c3.8,5.1-11.2,6.5-13.5,6.8C1069.8,260.8,1068.6,260.9,1067.3,261z"/>
			<g>
				<g>
					
						<ellipse transform="matrix(0.9013 -0.4332 0.4332 0.9013 -6.4443 465.527)" class="st17" cx="1018.4" cy="246.9" rx="19.8" ry="19.8"/>
					<path class="st18" d="M998.7,245.6c-0.3,4.7,1,9.5,4.1,13.5c6.7,8.6,19.2,10.2,27.8,3.5c4-3.1,6.4-7.4,7.3-12L998.7,245.6z"/>
					<path class="st19" d="M1034.1,234.8c-0.2-0.3-0.5-0.6-0.7-0.8l-21.2,31.8c6.1,2,13,1.1,18.4-3.1
						C1039.2,255.8,1040.8,243.4,1034.1,234.8z"/>
				</g>
			</g>
		</g>
		<g>
			<g class="st20">
				<g>
					<path class="st13" d="M1105.5,125.4c-4.3-2.9-9.3-5.6-15-8c-9.9-4.1-20.5-6-31.2-5.4c-2,0.1-4.4,0.8-4.7,2.7
						c-0.1,1.2,0.7,2.3,1.8,2.8c1.1,0.5,2.3,0.6,3.5,0.8c19.4,2,37.8,12.6,49.3,28.3c1.8,2.5,3.5,6,1.8,8.6c-1,1.5-3,2.2-4.8,2.1
						c-1.8-0.1-3.5-1-5-1.9c-3.8-2.4-6.8-5.8-10.4-8.7c-2.7-2.2-14.8-8.8-15.9-1.6c-0.4,2.7,1.9,3.4,3.7,4.5
						c6.7,4.1,11.1,11.2,13.2,18.6c1.7,6.2,1.1,12.7,1.7,19c0.6,6.1,4.1,14.6,8.2,19.2c6.9,7.9,18.8,11.5,28.6,7.2
						c13.6-6,18.9-24.7,15.6-38.2c-0.6-2.2-1.2-8.8-4.6-8.5c-1.5,0.1-1.7,1.4-1.9,2.7c-0.4,3.3,1.1,6.6,1,9.8
						c-0.1,2.5-2.3,5.2-4.5,2.3c-1-1.3-1.1-3.1-1.1-4.7C1133.7,156.5,1122.6,136.9,1105.5,125.4"/>
				</g>
			</g>
			<g class="st20">
				<g>
					<path class="st13" d="M1130.3,213.7c6.2-2.7,10.6-8.1,13.2-14.2c1.3-3.1,2.1-6.3,2.6-9.6c0.2-1.2,1.7-7.1-0.1-7.5
						c-0.7-0.1-1.3,0.4-1.6,1c-0.3,0.6-0.3,1.4-0.3,2.1c-0.3,3.7-3.6,6.7-7,4c-2.4-1.9-3.6-5.6-4-8.6c-1-6.5-1.2-12.9-3.4-19.1
						c-2-5.8-4.6-11.6-8.5-16.3c-1.1-1.3-3.6-4.4-5.6-4.4c-5.2,0-1.9,6.5-0.8,8.7c2.5,4.9,4.1,10.3,3.5,15.8c-0.5,4.8-4,9-9.2,8.7
						c-5.1-0.3-6.6-4-8.7-7.8c-1.2-2.2-4.9-7.5-7.9-5.4c-3.4,2.4-0.2,8,0.2,11.1c0.7,5,0.4,10,0.9,15c0.6,6.1,4.1,14.6,8.2,19.2
						C1108.7,214.4,1120.5,218,1130.3,213.7z"/>
				</g>
			</g>
			<g>
				<g>
					<g>
						
							<ellipse transform="matrix(0.9996 -2.915675e-02 2.915675e-02 0.9996 -5.1604 32.747)" class="st17" cx="1120.3" cy="193.3" rx="16.1" ry="16.1"/>
						<path class="st18" d="M1104.7,197.4c1,3.7,3.2,7,6.6,9.3c7.4,4.9,17.4,2.9,22.3-4.4c2.3-3.4,3.1-7.4,2.5-11.1L1104.7,197.4z"
							/>
					</g>
				</g>
				<path class="st19" d="M1132.9,183.4c-0.2-0.2-0.4-0.4-0.6-0.7l-17.2,25.8c4.9,1.6,10.6,0.9,15-2.5
					C1137.1,200.5,1138.4,190.4,1132.9,183.4z"/>
			</g>
		</g>
	</g>
</g>
<g>
	<g>
		<g>
			<g>
				<g>
					<g>
						<polyline class="st2" points="1009.8,515.3 1002.8,495.3 1001.8,495.7 1008.8,515.7 						"/>
						<path class="st2" d="M860.6,552.1l39.3,8l28.6-9.6l21.5-10.4l-18-34.4l22.5-15.8l47.9,7.6l53-25.7l-0.2-0.4l-0.5,0.1
							c0,0,1.5,14.6,3,29.3c0.8,7.3,1.5,14.6,2.1,20.1c0.3,2.7,0.5,5,0.7,6.6c0.1,0.8,0.2,1.4,0.2,1.9c0,0.2,0,0.4,0.1,0.5v0.1v0.1
							v0.1v0.1l0.1,0.1c0.1,0,0.2,0.1,0.3,0.1c0.2,0,0.4-0.1,0.4-0.2l0.1-0.2V530c0-0.3-0.1-0.4-0.2-0.4c-0.1-0.1-0.3-0.2-0.4-0.3
							c-0.6-0.3-1.8-0.7-3.5-1.1c-12-3.4-48-11.5-48-11.6h-0.1l-63.4,22.8l0.3,0.9l63.1-22.8l-0.2-0.5l-0.1,0.5c0,0,3.2,0.7,8.1,1.8
							c7.3,1.7,18.2,4.2,27.3,6.4c4.6,1.1,8.6,2.2,11.6,3c1.5,0.4,2.7,0.8,3.5,1c0.4,0.1,0.7,0.3,0.9,0.3l0.2,0.1l0.1-0.1l-0.1,0.1
							l0,0l0.1-0.1l-0.1,0.1l0.3-0.3h-0.4c0,0.2,0.1,0.2,0.1,0.3l0.3-0.3h-0.4h0.4h-0.4l0,0h0.4h-0.4l0.5,0.1l-0.5-0.1v0.1l0.5,0.1
							l-0.5-0.1l0.5,0.1l-0.4-0.3l-0.1,0.1l0.5,0.1l-0.4-0.3l0.4,0.3v-0.5c-0.2,0-0.4,0.1-0.4,0.2l0.4,0.3v-0.5v0.5l0.3-0.4
							c-0.1,0-0.2-0.1-0.3-0.1v0.5l0.3-0.4l-0.3,0.4l0.4-0.2l-0.1-0.2l-0.3,0.4l0.4-0.2l-0.4,0.2l0.4-0.1v-0.1l-0.4,0.2l0.4-0.1
							c0,0,0-0.3-0.1-0.8c-0.4-3.6-1.9-18.1-3.3-31.5c-0.7-6.7-1.4-13.3-1.9-18.1c-0.5-4.8-0.8-8-0.8-8l-0.1-0.7l-53.3,25.8l-48-7.7
							l-23.5,16.6l17.9,34.3l-20.5,10l-28.2,9.4l-39-7.9L860.6,552.1L860.6,552.1z"/>
						<polygon class="st2" points="864.4,532.4 894.9,547.7 899.3,556.8 900.2,556.4 895.7,546.9 864.9,531.5 						"/>
						<polyline class="st2" points="954.7,486.8 952.1,431.5 951.2,431.6 953.7,486.8 						"/>
						<polygon class="st2" points="985.2,444 980.2,434.4 951.6,430.2 934.9,431.1 927.8,441 928.6,441.6 935.4,432 951.4,431.2 
							979.6,435.3 984.3,444.5 						"/>
					</g>
					<g>
						<g>
							<path class="st6" d="M1009.3,513.8c1.8,0,3.2,1.4,3.2,3.2s-1.4,3.2-3.2,3.2c-1.8,0-3.2-1.4-3.2-3.2
								C1006.2,515.3,1007.7,513.8,1009.3,513.8z"/>
							<path class="st21" d="M1012.6,517.1C1012.6,517.1,1012.6,517,1012.6,517.1c0-1.8-1.4-3.3-3.2-3.3h-0.1
								C1010.3,514.9,1011.4,516,1012.6,517.1z"/>
							<path class="st4" d="M1006.6,515.5c-0.2,0.4-0.4,1-0.4,1.5c0,1.8,1.4,3.2,3.2,3.2c0.5,0,1.1-0.1,1.5-0.4
								C1009.4,518.4,1008.1,516.9,1006.6,515.5z"/>
						</g>
						<g>
							<path class="st6" d="M1053.8,467.4c3,0,5.4,2.4,5.4,5.4s-2.4,5.4-5.4,5.4s-5.4-2.4-5.4-5.4
								C1048.4,469.9,1050.9,467.4,1053.8,467.4z"/>
							<path class="st21" d="M1059.2,473v-0.1c0-3-2.4-5.4-5.4-5.4h-0.1C1055.5,469.3,1057.4,471.1,1059.2,473z"/>
							<path class="st4" d="M1049.2,470.3c-0.4,0.8-0.6,1.6-0.6,2.6c0,3,2.4,5.4,5.4,5.4c0.9,0,1.8-0.2,2.6-0.6
								C1053.9,475.1,1051.5,472.7,1049.2,470.3z"/>
						</g>
						<g>
							<path class="st6" d="M1061.2,524.3c2.5,0,4.4,2,4.4,4.4c0,2.5-2,4.4-4.4,4.4c-2.5,0-4.4-2-4.4-4.4S1058.8,524.3,1061.2,524.3
								z"/>
							<path class="st21" d="M1065.7,528.9L1065.7,528.9c0-2.6-2-4.5-4.4-4.5h-0.1C1062.5,525.8,1064.2,527.3,1065.7,528.9z"/>
							<path class="st4" d="M1057.2,526.6c-0.3,0.6-0.5,1.3-0.5,2.1c0,2.5,2,4.4,4.4,4.4c0.8,0,1.5-0.2,2.1-0.5
								C1061.2,530.6,1059.2,528.6,1057.2,526.6z"/>
						</g>
						<g>
							<path class="st6" d="M955.2,484.9c1.9,0,3.5,1.6,3.5,3.5s-1.6,3.5-3.5,3.5s-3.5-1.6-3.5-3.5S953.2,484.9,955.2,484.9z"/>
							<path class="st21" d="M958.7,488.5L958.7,488.5c0-2-1.6-3.6-3.5-3.6h-0.1C956.2,486.1,957.4,487.3,958.7,488.5z"/>
							<path class="st4" d="M952.1,486.8c-0.3,0.5-0.4,1.1-0.4,1.7c0,1.9,1.6,3.5,3.5,3.5c0.6,0,1.2-0.2,1.7-0.4
								C955.2,490,953.7,488.4,952.1,486.8z"/>
						</g>
						<g>
							<circle class="st6" cx="946.2" cy="539.8" r="2.9"/>
							<path class="st21" d="M949.2,539.9L949.2,539.9c0-1.7-1.3-3-2.9-3c0,0,0,0-0.1,0C947.2,537.9,948.2,538.9,949.2,539.9z"/>
							<path class="st4" d="M943.7,538.5c-0.2,0.4-0.3,0.9-0.3,1.4c0,1.6,1.3,2.9,2.9,2.9c0.5,0,1-0.1,1.4-0.3
								C946.3,541.1,945.1,539.8,943.7,538.5z"/>
						</g>
						<g>
							<circle class="st6" cx="928.2" cy="550" r="2.9"/>
							<path class="st21" d="M931.1,550.1L931.1,550.1c0-1.7-1.3-3-2.9-3c0,0,0,0-0.1,0C929.1,548.1,930.1,549.1,931.1,550.1z"/>
							<path class="st4" d="M925.6,548.7c-0.2,0.4-0.3,0.9-0.3,1.4c0,1.6,1.3,2.9,2.9,2.9c0.5,0,1-0.1,1.4-0.3
								C928.2,551.3,926.9,550,925.6,548.7z"/>
						</g>
						<g>
							<circle class="st6" cx="899.8" cy="559.5" r="2.9"/>
							<path class="st21" d="M902.7,559.6L902.7,559.6c0-1.7-1.3-3-2.9-3c0,0,0,0-0.1,0C900.7,557.6,901.7,558.6,902.7,559.6z"/>
							<path class="st4" d="M897.2,558.2c-0.2,0.4-0.3,0.9-0.3,1.4c0,1.6,1.3,2.9,2.9,2.9c0.5,0,1-0.1,1.4-0.3
								C899.8,560.8,898.6,559.5,897.2,558.2z"/>
						</g>
						<g>
							<path class="st6" d="M896.1,545.8c1.6,0,2.9,1.3,2.9,2.9c0,1.6-1.3,2.9-2.9,2.9s-2.9-1.3-2.9-2.9S894.4,545.8,896.1,545.8z"
								/>
							<path class="st21" d="M898.9,548.7L898.9,548.7c0-1.7-1.3-3-2.9-3c0,0,0,0-0.1,0C896.9,546.8,897.9,547.7,898.9,548.7z"/>
							<path class="st4" d="M893.6,547.3c-0.2,0.4-0.3,0.9-0.3,1.4c0,1.6,1.3,2.9,2.9,2.9c0.5,0,1-0.1,1.4-0.3
								C896.2,549.9,894.8,548.6,893.6,547.3z"/>
						</g>
						<g>
							<path class="st6" d="M865.8,529.8c2.2,0,4,1.8,4,4s-1.8,4-4,4c-2.2,0-4-1.8-4-4S863.6,529.8,865.8,529.8z"/>
							<path class="st21" d="M869.8,534L869.8,534c0-2.3-1.8-4.1-4-4.1h-0.1C867.1,531.2,868.3,532.6,869.8,534z"/>
							<path class="st4" d="M862.2,532c-0.3,0.6-0.5,1.2-0.5,1.9c0,2.2,1.8,4,4,4c0.7,0,1.3-0.2,1.9-0.5
								C865.8,535.6,864.1,533.8,862.2,532z"/>
						</g>
						<g>
							<path class="st6" d="M861.8,548.7c2.4,0,4.3,1.9,4.3,4.3c0,2.4-1.9,4.3-4.3,4.3s-4.3-1.9-4.3-4.3
								C857.4,550.6,859.3,548.7,861.8,548.7z"/>
							<path class="st21" d="M866.1,553.1L866.1,553.1c0-2.5-1.9-4.4-4.3-4.4h-0.1C863.1,550.1,864.6,551.6,866.1,553.1z"/>
							<path class="st4" d="M857.9,550.9c-0.3,0.6-0.5,1.3-0.5,2c0,2.4,1.9,4.3,4.3,4.3c0.7,0,1.4-0.2,2-0.5
								C861.8,554.8,859.8,552.9,857.9,550.9z"/>
						</g>
						<g>
							<path class="st6" d="M951.6,427.3c1.9,0,3.4,1.5,3.4,3.4s-1.5,3.4-3.4,3.4s-3.4-1.5-3.4-3.4
								C948.1,428.8,949.7,427.3,951.6,427.3z"/>
							<path class="st21" d="M954.9,430.8C954.9,430.7,954.9,430.7,954.9,430.8c0-2-1.5-3.5-3.4-3.5h-0.1
								C952.6,428.4,953.8,429.6,954.9,430.8z"/>
							<path class="st4" d="M948.6,429c-0.3,0.5-0.4,1-0.4,1.6c0,1.9,1.5,3.4,3.4,3.4c0.6,0,1.1-0.1,1.6-0.4
								C951.6,432.1,950.1,430.6,948.6,429z"/>
						</g>
						<g>
							<path class="st6" d="M935.2,428.6c1.6,0,2.9,1.3,2.9,2.9s-1.3,2.9-2.9,2.9c-1.6,0-2.9-1.3-2.9-2.9S933.6,428.6,935.2,428.6z"
								/>
							<path class="st21" d="M938.2,431.6L938.2,431.6c0-1.7-1.3-3-2.9-3c0,0,0,0-0.1,0C936.2,429.6,937.2,430.6,938.2,431.6z"/>
							<path class="st4" d="M932.7,430.2c-0.2,0.4-0.3,0.9-0.3,1.4c0,1.6,1.3,2.9,2.9,2.9c0.5,0,1-0.1,1.4-0.3
								C935.2,432.8,933.9,431.5,932.7,430.2z"/>
						</g>
						<g>
							<path class="st6" d="M928.2,438.4c1.6,0,2.9,1.3,2.9,2.9s-1.3,2.9-2.9,2.9s-2.9-1.3-2.9-2.9S926.6,438.4,928.2,438.4z"/>
							<path class="st21" d="M931.1,441.4C931.1,441.4,931.1,441.3,931.1,441.4c0-1.7-1.3-3-2.9-3c0,0,0,0-0.1,0
								C929.1,439.4,930.1,440.4,931.1,441.4z"/>
							<path class="st4" d="M925.6,439.9c-0.2,0.4-0.3,0.9-0.3,1.4c0,1.6,1.3,2.9,2.9,2.9c0.5,0,1-0.1,1.4-0.3
								C928.2,442.6,926.8,441.2,925.6,439.9z"/>
						</g>
						<g>
							<path class="st6" d="M961.6,429.9c1.3,0,2.4,1.1,2.4,2.4s-1.1,2.4-2.4,2.4s-2.4-1.1-2.4-2.4S960.2,429.9,961.6,429.9z"/>
							<path class="st21" d="M963.9,432.4L963.9,432.4c0-1.4-1.1-2.5-2.4-2.5c0,0,0,0-0.1,0C962.3,430.7,963.2,431.6,963.9,432.4z"
								/>
							<path class="st4" d="M959.4,431.2c-0.2,0.3-0.3,0.7-0.3,1.1c0,1.3,1.1,2.4,2.4,2.4c0.4,0,0.8-0.1,1.1-0.3
								C961.7,433.4,960.6,432.3,959.4,431.2z"/>
						</g>
						<g>
							<path class="st6" d="M979.8,432.3c1.3,0,2.4,1.1,2.4,2.4s-1.1,2.4-2.4,2.4c-1.3,0-2.4-1.1-2.4-2.4S978.6,432.3,979.8,432.3z"
								/>
							<path class="st21" d="M982.2,434.8L982.2,434.8c0-1.4-1.1-2.5-2.4-2.5c0,0,0,0-0.1,0C980.7,433.2,981.4,434,982.2,434.8z"/>
							<path class="st4" d="M977.8,433.6c-0.2,0.3-0.3,0.7-0.3,1.1c0,1.3,1.1,2.4,2.4,2.4c0.4,0,0.8-0.1,1.1-0.3
								C979.9,435.8,978.8,434.7,977.8,433.6z"/>
						</g>
						<g>
							<path class="st6" d="M985.4,442.1c1.3,0,2.4,1.1,2.4,2.4s-1.1,2.4-2.4,2.4c-1.3,0-2.4-1.1-2.4-2.4S984.1,442.1,985.4,442.1z"
								/>
							<path class="st21" d="M987.8,444.6C987.8,444.5,987.8,444.5,987.8,444.6c0-1.4-1.1-2.5-2.4-2.5c0,0,0,0-0.1,0
								C986.2,442.9,986.9,443.7,987.8,444.6z"/>
							<path class="st4" d="M983.2,443.4c-0.2,0.3-0.3,0.7-0.3,1.1c0,1.3,1.1,2.4,2.4,2.4c0.4,0,0.8-0.1,1.1-0.3
								C985.4,445.5,984.3,444.4,983.2,443.4z"/>
						</g>
						<g>
							<circle class="st6" cx="931.2" cy="505.5" r="3.1"/>
							<path class="st21" d="M934.2,505.6C934.2,505.6,934.2,505.5,934.2,505.6c0-1.8-1.4-3.1-3.1-3.1h-0.1
								C932.2,503.5,933.2,504.5,934.2,505.6z"/>
							<path class="st4" d="M928.6,504.1c-0.2,0.4-0.4,0.9-0.4,1.5c0,1.7,1.4,3.1,3.1,3.1c0.5,0,1-0.1,1.5-0.4
								C931.2,506.8,929.9,505.4,928.6,504.1z"/>
						</g>
						<g>
							<path class="st6" d="M1005.4,503.8c1.8,0,3.2,1.4,3.2,3.2c0,1.8-1.4,3.2-3.2,3.2c-1.8,0-3.2-1.4-3.2-3.2
								C1002.2,505.3,1003.7,503.8,1005.4,503.8z"/>
							<path class="st21" d="M1008.7,507.1C1008.7,507.1,1008.7,507,1008.7,507.1c0-1.8-1.4-3.3-3.2-3.3h-0.1
								C1006.4,504.9,1007.6,506,1008.7,507.1z"/>
							<path class="st4" d="M1002.7,505.5c-0.2,0.4-0.4,1-0.4,1.5c0,1.8,1.4,3.2,3.2,3.2c0.5,0,1.1-0.1,1.5-0.4
								C1005.6,508.4,1004.1,506.9,1002.7,505.5z"/>
						</g>
						<g>
							<path class="st6" d="M1002.2,493.8c1.8,0,3.2,1.4,3.2,3.2c0,1.8-1.4,3.2-3.2,3.2c-1.8,0-3.2-1.4-3.2-3.2
								C998.9,495.3,1000.4,493.8,1002.2,493.8z"/>
							<path class="st21" d="M1005.3,497.1C1005.3,497.1,1005.3,497,1005.3,497.1c0-1.8-1.4-3.3-3.2-3.3h-0.1
								C1003.2,494.9,1004.2,496,1005.3,497.1z"/>
							<path class="st4" d="M999.3,495.5c-0.2,0.4-0.4,1-0.4,1.5c0,1.8,1.4,3.2,3.2,3.2c0.5,0,1.1-0.1,1.5-0.4
								C1002.2,498.4,1000.8,496.9,999.3,495.5z"/>
						</g>
					</g>
				</g>
			</g>
		</g>
	</g>
	<g>
		<g>
			<g>
				<g>
					<polygon class="st2" points="1105.9,533.3 1086.2,492.7 1101.2,453.7 1108.4,421.4 1089.4,356.3 1128,357.2 1140.7,402.8 
						1109.2,419.1 1109.8,420.1 1142,403.4 1128.9,356.1 1087.8,355.1 1107.2,421.5 1099.9,453.4 1084.8,492.7 1104.9,533.8 					
						"/>
				</g>
				<g>
					<path class="st6" d="M1098.8,450.1c3.6,0,6.6,2.9,6.6,6.6c0,3.6-2.9,6.6-6.6,6.6c-3.6,0-6.6-2.9-6.6-6.6
						S1095.2,450.1,1098.8,450.1z"/>
					<path class="st21" d="M1105.4,456.8c0-0.1,0-0.1,0-0.2c0-3.6-2.9-6.6-6.6-6.6c-0.1,0-0.1,0-0.2,0
						C1100.9,452.3,1103.2,454.6,1105.4,456.8z"/>
					<path class="st4" d="M1093,453.5c-0.5,0.9-0.8,2-0.8,3.1c0,3.6,2.9,6.6,6.6,6.6c1.1,0,2.2-0.3,3.1-0.8
						C1099,459.5,1096,456.5,1093,453.5z"/>
				</g>
				<g>
					<circle class="st6" cx="1085.4" cy="492.7" r="4.9"/>
					<path class="st21" d="M1090.3,492.8v-0.1c0-2.7-2.2-4.9-4.9-4.9h-0.1C1087,489.5,1088.7,491.2,1090.3,492.8z"/>
					<path class="st4" d="M1081.2,490.4c-0.4,0.7-0.6,1.5-0.6,2.3c0,2.7,2.2,4.9,4.9,4.9c0.8,0,1.6-0.2,2.3-0.6
						C1085.5,494.8,1083.3,492.6,1081.2,490.4z"/>
				</g>
				<g>
					<circle class="st6" cx="1105.4" cy="535.9" r="4.9"/>
					<path class="st21" d="M1110.3,536L1110.3,536c0-2.8-2.2-5-4.9-5h-0.1C1107,532.7,1108.7,534.4,1110.3,536z"/>
					<path class="st4" d="M1101.2,533.6c-0.4,0.7-0.6,1.5-0.6,2.3c0,2.7,2.2,4.9,4.9,4.9c0.8,0,1.6-0.2,2.3-0.6
						C1105.5,538,1103.3,535.8,1101.2,533.6z"/>
				</g>
				<g>
					<circle class="st6" cx="1107.8" cy="423.2" r="3.6"/>
					<path class="st21" d="M1111.3,423.3C1111.3,423.3,1111.3,423.2,1111.3,423.3c0-2.1-1.6-3.7-3.6-3.7h-0.1
						C1108.9,420.8,1110.2,422.1,1111.3,423.3z"/>
					<path class="st4" d="M1104.7,421.5c-0.3,0.5-0.4,1.1-0.4,1.7c0,2,1.6,3.6,3.6,3.6c0.6,0,1.2-0.2,1.7-0.4
						C1107.8,424.8,1106.2,423.1,1104.7,421.5z"/>
				</g>
				<g>
					<path class="st6" d="M1139.2,398.7c2.5,0,4.4,2,4.4,4.4c0,2.5-2,4.4-4.4,4.4c-2.5,0-4.4-2-4.4-4.4
						C1134.8,400.7,1136.8,398.7,1139.2,398.7z"/>
					<path class="st21" d="M1143.7,403.2v-0.1c0-2.5-2-4.4-4.4-4.4h-0.1C1140.7,400.2,1142.2,401.7,1143.7,403.2z"/>
					<path class="st4" d="M1135.3,401c-0.3,0.6-0.5,1.3-0.5,2.1c0,2.5,2,4.4,4.4,4.4c0.8,0,1.5-0.2,2.1-0.5
						C1139.3,405,1137.3,403,1135.3,401z"/>
				</g>
				<g>
					<path class="st6" d="M1128.4,351.6c2.8,0,5,2.2,5,5s-2.2,5-5,5s-5-2.2-5-5C1123.4,353.9,1125.8,351.6,1128.4,351.6z"/>
					<path class="st21" d="M1133.4,356.8v-0.1c0-2.8-2.2-5-5-5h-0.1C1130,353.3,1131.8,355.1,1133.4,356.8z"/>
					<path class="st4" d="M1124,354.3c-0.4,0.7-0.6,1.5-0.6,2.4c0,2.8,2.2,5,5,5c0.9,0,1.7-0.2,2.4-0.6
						C1128.5,358.8,1126.3,356.5,1124,354.3z"/>
				</g>
				<g>
					<path class="st6" d="M1088.7,349.5c3.4,0,6.2,2.8,6.2,6.2c0,3.4-2.8,6.2-6.2,6.2c-3.4,0-6.2-2.8-6.2-6.2
						C1082.4,352.3,1085.2,349.5,1088.7,349.5z"/>
					<path class="st21" d="M1094.8,355.9c0-0.1,0-0.1,0-0.2c0-3.4-2.8-6.2-6.2-6.2c-0.1,0-0.1,0-0.2,0
						C1090.7,351.6,1092.8,353.7,1094.8,355.9z"/>
					<path class="st4" d="M1083.2,352.7c-0.5,0.9-0.7,1.9-0.7,2.9c0,3.4,2.8,6.2,6.2,6.2c1.1,0,2.1-0.3,2.9-0.7
						C1088.8,358.4,1085.9,355.6,1083.2,352.7z"/>
				</g>
			</g>
		</g>
	</g>
</g>
<g>
	<g class="st22">
		<path class="st23" d="M405.5,497.8c1,1,1,2.6,0,3.6c-1,1-2.6,1-3.6,0c-1-1-1-2.6,0-3.6C402.9,496.8,404.5,496.8,405.5,497.8z"/>
	</g>
</g>
<g>
	<g>
		<path class="st24" d="M460.8,554.3h17.5l-0.3-0.5l-0.2-21.2l-45.5-45.2c-1.4-9.4-5.6-35.5-5.6-35.5c-1.4-10.2-11.6-24.9-11.6-24.9
			c-7.4-11.6-8.4-10.8-8.4-10.8v157.2h24.2l-1.8-12.3v-6.8H460.8z"/>
		<path class="st25" d="M352.7,554.3h-17.5l0.3-0.5l0.2-21.2l45.5-45.2c1.4-9.4,5.6-35.5,5.6-35.5c1.4-10.2,11.6-24.9,11.6-24.9
			c7.4-11.6,8.4-10.8,8.4-10.8v157.2h-24.2l1.8-12.3v-6.8H352.7z"/>
		<linearGradient id="SVGID_1_" gradientUnits="userSpaceOnUse" x1="364.2801" y1="462.636" x2="370.7448" y2="611.3201">
			<stop  offset="0" style="stop-color:#FFFFFF"/>
			<stop  offset="1" style="stop-color:#FFFFFF;stop-opacity:0"/>
		</linearGradient>
		<polygon class="st26" points="380.3,604.3 359.5,604.3 360.8,554.3 360.8,554.2 379.2,554.2 379.2,554.3 		"/>
		
			<linearGradient id="SVGID_00000073703025452822358990000008889524395402706348_" gradientUnits="userSpaceOnUse" x1="437.7672" y1="459.8251" x2="444.2318" y2="608.5092">
			<stop  offset="0" style="stop-color:#FFFFFF"/>
			<stop  offset="1" style="stop-color:#FFFFFF;stop-opacity:0"/>
		</linearGradient>
		<polygon style="fill:url(#SVGID_00000073703025452822358990000008889524395402706348_);" points="453.9,604.3 433.2,604.3 
			434.4,554.3 434.4,554.2 452.8,554.2 452.8,554.3 		"/>
		<path class="st28" d="M415.1,427c-7.4-11.6-8.4-10.8-8.4-10.8h0V429h0C409.8,429,412.6,428.3,415.1,427
			C415.2,427,415.1,427,415.1,427z"/>
		<path class="st29" d="M398.3,427c7.4-11.6,8.4-10.8,8.4-10.8h0V429h0C403.7,429,400.8,428.3,398.3,427
			C398.3,427,398.3,427,398.3,427z"/>
		<path class="st30" d="M363.2,542.5c0,1.9,1.6,3.5,3.5,3.5h13.7c1.9,0,3.5-1.6,3.5-3.5l0,0c0-1.9-1.6-3.5-3.5-3.5h-13.7
			C364.8,539,363.2,540.5,363.2,542.5L363.2,542.5z"/>
		<path class="st30" d="M450.2,542.5c0,1.9-1.6,3.5-3.5,3.5H433c-1.9,0-3.5-1.6-3.5-3.5l0,0c0-1.9,1.6-3.5,3.5-3.5h13.7
			C448.7,539,450.2,540.5,450.2,542.5L450.2,542.5z"/>
		<rect x="402.5" y="475.4" class="st24" width="4.2" height="97.9"/>
		<rect x="406.7" y="475.4" class="st31" width="4.2" height="97.9"/>
		<g>
			<polygon class="st32" points="383.9,529.2 361.2,529.2 390.1,487.1 391.3,487.9 363.8,527.8 383.9,527.8 			"/>
		</g>
		<g>
			<polygon class="st31" points="452.2,529.2 429.5,529.2 429.5,527.8 449.7,527.8 422.2,487.9 423.3,487.1 			"/>
		</g>
		<path class="st29" d="M406.7,456H397c-2.5,0-4.5,2-4.5,4.5c0,2.5,2,4.5,4.5,4.5h9.7V456z"/>
		<path class="st33" d="M406.7,456h9.7c2.5,0,4.5,2,4.5,4.5c0,2.5-2,4.5-4.5,4.5h-9.7V456z"/>
	</g>
</g>
<g>
	<g>
		
			<rect x="376.6" y="123" transform="matrix(0.7214 -0.6925 0.6925 0.7214 19.6479 300.0422)" class="st33" width="12.3" height="5.2"/>
		<line class="st34" x1="328.5" y1="110.4" x2="370.8" y2="69.8"/>
		<line class="st34" x1="343.7" y1="126.3" x2="386" y2="85.7"/>
		<g>
			<path class="st24" d="M346,132.6c1.1-1.1,1.1-2.8,0.1-3.9l-20-20.8c-1.1-1.1-2.8-1.1-3.9-0.1l-30,28.8c-1.1,1.1-1.1,2.8-0.1,3.9
				l20,20.8c1.1,1.1,2.8,1.1,3.9,0.1L346,132.6z"/>
			<g>
				<g>
					
						<rect x="295.1" y="133.7" transform="matrix(0.7214 -0.6926 0.6926 0.7214 -12.091 246.0488)" class="st35" width="9.2" height="8.8"/>
					
						<rect x="302.7" y="141.6" transform="matrix(0.7214 -0.6925 0.6925 0.7214 -15.4732 253.4947)" class="st36" width="9.2" height="8.8"/>
					
						<rect x="310.3" y="149.5" transform="matrix(0.7214 -0.6926 0.6926 0.7214 -18.832 261.0118)" class="st37" width="9.2" height="8.8"/>
				</g>
				<g>
					
						<rect x="303" y="126.1" transform="matrix(0.7214 -0.6925 0.6925 0.7214 -4.6366 249.3929)" class="st37" width="9.2" height="8.8"/>
					
						<rect x="310.6" y="134" transform="matrix(0.7215 -0.6924 0.6924 0.7215 -8.0236 256.828)" class="st36" width="9.2" height="8.8"/>
					
						<rect x="318.2" y="141.9" transform="matrix(0.7214 -0.6925 0.6925 0.7214 -11.3751 264.3618)" class="st35" width="9.2" height="8.8"/>
				</g>
				<g>
					
						<rect x="310.8" y="118.6" transform="matrix(0.7214 -0.6926 0.6926 0.7214 2.6786 252.6981)" class="st36" width="9.2" height="8.8"/>
					
						<rect x="318.4" y="126.6" transform="matrix(0.7213 -0.6926 0.6926 0.7213 -0.685 260.1961)" class="st37" width="9.2" height="8.8"/>
					
						<rect x="326" y="134.5" transform="matrix(0.7214 -0.6926 0.6926 0.7214 -4.0623 267.6608)" class="st36" width="9.2" height="8.8"/>
				</g>
				<g>
					
						<rect x="318.7" y="111" transform="matrix(0.7214 -0.6925 0.6925 0.7214 10.1343 256.0478)" class="st35" width="9.2" height="8.8"/>
					
						<rect x="326.3" y="119" transform="matrix(0.7214 -0.6925 0.6925 0.7214 6.7591 263.5176)" class="st36" width="9.2" height="8.8"/>
					
						<rect x="333.9" y="126.9" transform="matrix(0.7214 -0.6925 0.6925 0.7214 3.3962 271.0167)" class="st36" width="9.2" height="8.8"/>
				</g>
			</g>
		</g>
		<g>
			<path class="st24" d="M391.3,89.2c-1.1,1.1-2.8,1-3.9-0.1l-20-20.8c-1.1-1.1-1-2.8,0.1-3.9l30-28.8c1.1-1.1,2.8-1,3.9,0.1
				l20,20.8c1.1,1.1,1,2.8-0.1,3.9L391.3,89.2z"/>
			<g>
				<g>
					
						<rect x="393.9" y="38.8" transform="matrix(0.7214 -0.6926 0.6926 0.7214 81.1358 288.0479)" class="st35" width="9.2" height="8.8"/>
					
						<rect x="401.5" y="46.7" transform="matrix(0.7214 -0.6925 0.6925 0.7214 77.7524 295.512)" class="st36" width="9.2" height="8.8"/>
					
						<rect x="409.1" y="54.7" transform="matrix(0.7214 -0.6925 0.6925 0.7214 74.3827 302.994)" class="st37" width="9.2" height="8.8"/>
				</g>
				<g>
					
						<rect x="386" y="46.4" transform="matrix(0.7214 -0.6925 0.6925 0.7214 73.6585 284.6644)" class="st37" width="9.2" height="8.8"/>
					
						<rect x="393.6" y="54.3" transform="matrix(0.7214 -0.6926 0.6926 0.7214 70.3044 292.1679)" class="st36" width="9.2" height="8.8"/>
					
						<rect x="401.2" y="62.3" transform="matrix(0.7213 -0.6926 0.6926 0.7213 66.9463 299.6681)" class="st35" width="9.2" height="8.8"/>
				</g>
				<g>
					
						<rect x="378.3" y="53.8" transform="matrix(0.7214 -0.6925 0.6925 0.7214 66.3523 281.3765)" class="st36" width="9.2" height="8.8"/>
					
						<rect x="385.9" y="61.8" transform="matrix(0.7214 -0.6925 0.6925 0.7214 62.9744 288.8461)" class="st37" width="9.2" height="8.8"/>
					
						<rect x="393.5" y="69.7" transform="matrix(0.7214 -0.6925 0.6925 0.7214 59.6159 296.3454)" class="st36" width="9.2" height="8.8"/>
				</g>
				<g>
					
						<rect x="370.4" y="61.4" transform="matrix(0.7214 -0.6925 0.6925 0.7214 58.8963 278.0218)" class="st35" width="9.2" height="8.8"/>
					
						<rect x="378" y="69.4" transform="matrix(0.7213 -0.6926 0.6926 0.7213 55.5437 285.5301)" class="st36" width="9.2" height="8.8"/>
					
						<rect x="385.6" y="77.3" transform="matrix(0.7214 -0.6926 0.6926 0.7214 52.1623 292.9948)" class="st36" width="9.2" height="8.8"/>
				</g>
			</g>
		</g>
		<path class="st24" d="M364.7,136.6c1.1,1.1,2.8,1.1,3.9,0.1l25.8-24.8c1.1-1.1,1.1-2.8,0.1-3.9l-45.7-47.6
			c-1.1-1.1-2.8-1.1-3.9-0.1l-25.8,24.8c-1.1,1.1-1.1,2.8-0.1,3.9L364.7,136.6z"/>
		<path class="st24" d="M373.6,163.6c-3.6-12.8-0.2-27.2,10-37c10.3-9.9,24.8-12.7,37.4-8.5L373.6,163.6z"/>
		<g>
			
				<rect x="397.2" y="135" transform="matrix(0.7214 -0.6925 0.6925 0.7214 12.6089 315.6226)" class="st24" width="2.8" height="14.4"/>
		</g>
		<path class="st24" d="M407.1,151c-1.3,1.3-3.4,1.2-4.6-0.1c-1.3-1.3-1.2-3.4,0.1-4.6c1.3-1.3,3.4-1.2,4.6,0.1
			C408.4,147.6,408.4,149.7,407.1,151z"/>
		<path class="st33" d="M320.4,83.7c-5.8-6.4-5.5-16.2,0.8-22.2c6.2-6,16.1-5.9,22.2,0.1L320.4,83.7z"/>
		
			<rect x="376.6" y="123" transform="matrix(0.7214 -0.6925 0.6925 0.7214 19.6479 300.0422)" class="st33" width="12.3" height="5.2"/>
		<line class="st34" x1="328.5" y1="110.4" x2="370.8" y2="69.8"/>
		<line class="st34" x1="343.7" y1="126.3" x2="386" y2="85.7"/>
		<g>
			<path class="st24" d="M346,132.6c1.1-1.1,1.1-2.8,0.1-3.9l-20-20.8c-1.1-1.1-2.8-1.1-3.9-0.1l-30,28.8c-1.1,1.1-1.1,2.8-0.1,3.9
				l20,20.8c1.1,1.1,2.8,1.1,3.9,0.1L346,132.6z"/>
			<g>
				<g>
					
						<rect x="295.1" y="133.7" transform="matrix(0.7214 -0.6926 0.6926 0.7214 -12.091 246.0488)" class="st35" width="9.2" height="8.8"/>
					
						<rect x="302.7" y="141.6" transform="matrix(0.7214 -0.6925 0.6925 0.7214 -15.4732 253.4947)" class="st36" width="9.2" height="8.8"/>
					
						<rect x="310.3" y="149.5" transform="matrix(0.7214 -0.6926 0.6926 0.7214 -18.832 261.0118)" class="st37" width="9.2" height="8.8"/>
				</g>
				<g>
					
						<rect x="303" y="126.1" transform="matrix(0.7214 -0.6925 0.6925 0.7214 -4.6366 249.3929)" class="st37" width="9.2" height="8.8"/>
					
						<rect x="310.6" y="134" transform="matrix(0.7215 -0.6924 0.6924 0.7215 -8.0236 256.828)" class="st36" width="9.2" height="8.8"/>
					
						<rect x="318.2" y="141.9" transform="matrix(0.7214 -0.6925 0.6925 0.7214 -11.3751 264.3618)" class="st35" width="9.2" height="8.8"/>
				</g>
				<g>
					
						<rect x="310.8" y="118.6" transform="matrix(0.7214 -0.6926 0.6926 0.7214 2.6786 252.6981)" class="st36" width="9.2" height="8.8"/>
					
						<rect x="318.4" y="126.6" transform="matrix(0.7213 -0.6926 0.6926 0.7213 -0.685 260.1961)" class="st37" width="9.2" height="8.8"/>
					
						<rect x="326" y="134.5" transform="matrix(0.7214 -0.6926 0.6926 0.7214 -4.0623 267.6608)" class="st36" width="9.2" height="8.8"/>
				</g>
				<g>
					
						<rect x="318.7" y="111" transform="matrix(0.7214 -0.6925 0.6925 0.7214 10.1343 256.0478)" class="st35" width="9.2" height="8.8"/>
					
						<rect x="326.3" y="119" transform="matrix(0.7214 -0.6925 0.6925 0.7214 6.7591 263.5176)" class="st36" width="9.2" height="8.8"/>
					
						<rect x="333.9" y="126.9" transform="matrix(0.7214 -0.6925 0.6925 0.7214 3.3962 271.0167)" class="st36" width="9.2" height="8.8"/>
				</g>
			</g>
		</g>
		<g>
			<path class="st24" d="M391.3,89.2c-1.1,1.1-2.8,1-3.9-0.1l-20-20.8c-1.1-1.1-1-2.8,0.1-3.9l30-28.8c1.1-1.1,2.8-1,3.9,0.1
				l20,20.8c1.1,1.1,1,2.8-0.1,3.9L391.3,89.2z"/>
			<g>
				<g>
					
						<rect x="393.9" y="38.8" transform="matrix(0.7214 -0.6926 0.6926 0.7214 81.1358 288.0479)" class="st35" width="9.2" height="8.8"/>
					
						<rect x="401.5" y="46.7" transform="matrix(0.7214 -0.6925 0.6925 0.7214 77.7524 295.512)" class="st36" width="9.2" height="8.8"/>
					
						<rect x="409.1" y="54.7" transform="matrix(0.7214 -0.6925 0.6925 0.7214 74.3827 302.994)" class="st37" width="9.2" height="8.8"/>
				</g>
				<g>
					
						<rect x="386" y="46.4" transform="matrix(0.7214 -0.6925 0.6925 0.7214 73.6585 284.6644)" class="st37" width="9.2" height="8.8"/>
					
						<rect x="393.6" y="54.3" transform="matrix(0.7214 -0.6926 0.6926 0.7214 70.3044 292.1679)" class="st36" width="9.2" height="8.8"/>
					
						<rect x="401.2" y="62.3" transform="matrix(0.7213 -0.6926 0.6926 0.7213 66.9463 299.6681)" class="st35" width="9.2" height="8.8"/>
				</g>
				<g>
					
						<rect x="378.3" y="53.8" transform="matrix(0.7214 -0.6925 0.6925 0.7214 66.3523 281.3765)" class="st36" width="9.2" height="8.8"/>
					
						<rect x="385.9" y="61.8" transform="matrix(0.7214 -0.6925 0.6925 0.7214 62.9744 288.8461)" class="st37" width="9.2" height="8.8"/>
					
						<rect x="393.5" y="69.7" transform="matrix(0.7214 -0.6925 0.6925 0.7214 59.6159 296.3454)" class="st36" width="9.2" height="8.8"/>
				</g>
				<g>
					
						<rect x="370.4" y="61.4" transform="matrix(0.7214 -0.6925 0.6925 0.7214 58.8963 278.0218)" class="st35" width="9.2" height="8.8"/>
					
						<rect x="378" y="69.4" transform="matrix(0.7213 -0.6926 0.6926 0.7213 55.5437 285.5301)" class="st36" width="9.2" height="8.8"/>
					
						<rect x="385.6" y="77.3" transform="matrix(0.7214 -0.6926 0.6926 0.7214 52.1623 292.9948)" class="st36" width="9.2" height="8.8"/>
				</g>
			</g>
		</g>
		<path class="st24" d="M364.7,136.6c1.1,1.1,2.8,1.1,3.9,0.1l25.8-24.8c1.1-1.1,1.1-2.8,0.1-3.9l-45.7-47.6
			c-1.1-1.1-2.8-1.1-3.9-0.1l-25.8,24.8c-1.1,1.1-1.1,2.8-0.1,3.9L364.7,136.6z"/>
		<path class="st24" d="M373.6,163.6c-3.6-12.8-0.2-27.2,10-37c10.3-9.9,24.8-12.7,37.4-8.5L373.6,163.6z"/>
		<g>
			
				<rect x="397.2" y="135" transform="matrix(0.7214 -0.6925 0.6925 0.7214 12.6089 315.6226)" class="st24" width="2.8" height="14.4"/>
		</g>
		<path class="st24" d="M407.1,151c-1.3,1.3-3.4,1.2-4.6-0.1c-1.3-1.3-1.2-3.4,0.1-4.6c1.3-1.3,3.4-1.2,4.6,0.1
			C408.4,147.6,408.4,149.7,407.1,151z"/>
		<path class="st33" d="M320.4,83.7c-5.8-6.4-5.5-16.2,0.8-22.2c6.2-6,16.1-5.9,22.2,0.1L320.4,83.7z"/>
		<g class="st20">
			<path class="st24" d="M407.1,151c1.3-1.3,1.3-3.3,0.1-4.6c-0.9-0.9-2.2-1.2-3.4-0.8l-5.4-5.7l22.7-21.8
				c-10.8-3.5-22.9-2-32.6,4.6l-2.5-2.6l8.5-8.2c1.1-1.1,1.1-2.8,0.1-3.9l-15.2-15.8l5.7-5.5l2.4,2.5c1.1,1.1,2.8,1.1,3.9,0.1
				l30-28.8c1.1-1.1,1.1-2.8,0.1-3.9l-20-20.8c-1.1-1.1-2.8-1.1-3.9-0.1l-30,28.8c-1.1,1.1-1.1,2.8-0.1,3.9l2.4,2.5
				c-2,1.8-3.9,3.6-5.8,5.4l-15.2-15.8c-1.1-1.1-2.8-1.1-3.9-0.1L332,72.8l48.9,50.9l0.6,0.6l2.1,2.2l0.9,0.9l9.1,9.5l3.7,3.8
				l5.2,5.4l1,1.1L407.1,151z M379.2,92.1L364,76.3l5.7-5.5L385,86.7C383,88.5,381.1,90.3,379.2,92.1z"/>
			<path class="st24" d="M343.4,61.6l-11.5,11l-10.7-11.2C327.4,55.5,337.3,55.6,343.4,61.6z"/>
		</g>
	</g>
	<g>
		
			<rect x="376.6" y="123" transform="matrix(0.7214 -0.6925 0.6925 0.7214 19.6479 300.0422)" class="st33" width="12.3" height="5.2"/>
		<line class="st34" x1="328.5" y1="110.4" x2="370.8" y2="69.8"/>
		<line class="st34" x1="343.7" y1="126.3" x2="386" y2="85.7"/>
		<g>
			<path class="st24" d="M346,132.6c1.1-1.1,1.1-2.8,0.1-3.9l-20-20.8c-1.1-1.1-2.8-1.1-3.9-0.1l-30,28.8c-1.1,1.1-1.1,2.8-0.1,3.9
				l20,20.8c1.1,1.1,2.8,1.1,3.9,0.1L346,132.6z"/>
			<g>
				<g>
					
						<rect x="295.1" y="133.7" transform="matrix(0.7214 -0.6926 0.6926 0.7214 -12.091 246.0488)" class="st35" width="9.2" height="8.8"/>
					
						<rect x="302.7" y="141.6" transform="matrix(0.7214 -0.6925 0.6925 0.7214 -15.4732 253.4947)" class="st36" width="9.2" height="8.8"/>
					
						<rect x="310.3" y="149.5" transform="matrix(0.7214 -0.6926 0.6926 0.7214 -18.832 261.0118)" class="st37" width="9.2" height="8.8"/>
				</g>
				<g>
					
						<rect x="303" y="126.1" transform="matrix(0.7214 -0.6925 0.6925 0.7214 -4.6366 249.3929)" class="st37" width="9.2" height="8.8"/>
					
						<rect x="310.6" y="134" transform="matrix(0.7215 -0.6924 0.6924 0.7215 -8.0236 256.828)" class="st36" width="9.2" height="8.8"/>
					
						<rect x="318.2" y="141.9" transform="matrix(0.7214 -0.6925 0.6925 0.7214 -11.3751 264.3618)" class="st35" width="9.2" height="8.8"/>
				</g>
				<g>
					
						<rect x="310.8" y="118.6" transform="matrix(0.7214 -0.6926 0.6926 0.7214 2.6786 252.6981)" class="st36" width="9.2" height="8.8"/>
					
						<rect x="318.4" y="126.6" transform="matrix(0.7213 -0.6926 0.6926 0.7213 -0.685 260.1961)" class="st37" width="9.2" height="8.8"/>
					
						<rect x="326" y="134.5" transform="matrix(0.7214 -0.6926 0.6926 0.7214 -4.0623 267.6608)" class="st36" width="9.2" height="8.8"/>
				</g>
				<g>
					
						<rect x="318.7" y="111" transform="matrix(0.7214 -0.6925 0.6925 0.7214 10.1343 256.0478)" class="st35" width="9.2" height="8.8"/>
					
						<rect x="326.3" y="119" transform="matrix(0.7214 -0.6925 0.6925 0.7214 6.7591 263.5176)" class="st36" width="9.2" height="8.8"/>
					
						<rect x="333.9" y="126.9" transform="matrix(0.7214 -0.6925 0.6925 0.7214 3.3962 271.0167)" class="st36" width="9.2" height="8.8"/>
				</g>
			</g>
		</g>
		<g>
			<path class="st24" d="M391.3,89.2c-1.1,1.1-2.8,1-3.9-0.1l-20-20.8c-1.1-1.1-1-2.8,0.1-3.9l30-28.8c1.1-1.1,2.8-1,3.9,0.1
				l20,20.8c1.1,1.1,1,2.8-0.1,3.9L391.3,89.2z"/>
			<g>
				<g>
					
						<rect x="393.9" y="38.8" transform="matrix(0.7214 -0.6926 0.6926 0.7214 81.1358 288.0479)" class="st35" width="9.2" height="8.8"/>
					
						<rect x="401.5" y="46.7" transform="matrix(0.7214 -0.6925 0.6925 0.7214 77.7524 295.512)" class="st36" width="9.2" height="8.8"/>
					
						<rect x="409.1" y="54.7" transform="matrix(0.7214 -0.6925 0.6925 0.7214 74.3827 302.994)" class="st37" width="9.2" height="8.8"/>
				</g>
				<g>
					
						<rect x="386" y="46.4" transform="matrix(0.7214 -0.6925 0.6925 0.7214 73.6585 284.6644)" class="st37" width="9.2" height="8.8"/>
					
						<rect x="393.6" y="54.3" transform="matrix(0.7214 -0.6926 0.6926 0.7214 70.3044 292.1679)" class="st36" width="9.2" height="8.8"/>
					
						<rect x="401.2" y="62.3" transform="matrix(0.7213 -0.6926 0.6926 0.7213 66.9463 299.6681)" class="st35" width="9.2" height="8.8"/>
				</g>
				<g>
					
						<rect x="378.3" y="53.8" transform="matrix(0.7214 -0.6925 0.6925 0.7214 66.3523 281.3765)" class="st36" width="9.2" height="8.8"/>
					
						<rect x="385.9" y="61.8" transform="matrix(0.7214 -0.6925 0.6925 0.7214 62.9744 288.8461)" class="st37" width="9.2" height="8.8"/>
					
						<rect x="393.5" y="69.7" transform="matrix(0.7214 -0.6925 0.6925 0.7214 59.6159 296.3454)" class="st36" width="9.2" height="8.8"/>
				</g>
				<g>
					
						<rect x="370.4" y="61.4" transform="matrix(0.7214 -0.6925 0.6925 0.7214 58.8963 278.0218)" class="st35" width="9.2" height="8.8"/>
					
						<rect x="378" y="69.4" transform="matrix(0.7213 -0.6926 0.6926 0.7213 55.5437 285.5301)" class="st36" width="9.2" height="8.8"/>
					
						<rect x="385.6" y="77.3" transform="matrix(0.7214 -0.6926 0.6926 0.7214 52.1623 292.9948)" class="st36" width="9.2" height="8.8"/>
				</g>
			</g>
		</g>
		<path class="st24" d="M364.7,136.6c1.1,1.1,2.8,1.1,3.9,0.1l25.8-24.8c1.1-1.1,1.1-2.8,0.1-3.9l-45.7-47.6
			c-1.1-1.1-2.8-1.1-3.9-0.1l-25.8,24.8c-1.1,1.1-1.1,2.8-0.1,3.9L364.7,136.6z"/>
		<path class="st24" d="M373.6,163.6c-3.6-12.8-0.2-27.2,10-37c10.3-9.9,24.8-12.7,37.4-8.5L373.6,163.6z"/>
		<g>
			
				<rect x="397.2" y="135" transform="matrix(0.7214 -0.6925 0.6925 0.7214 12.6089 315.6226)" class="st24" width="2.8" height="14.4"/>
		</g>
		<path class="st24" d="M407.1,151c-1.3,1.3-3.4,1.2-4.6-0.1c-1.3-1.3-1.2-3.4,0.1-4.6c1.3-1.3,3.4-1.2,4.6,0.1
			C408.4,147.6,408.4,149.7,407.1,151z"/>
		<path class="st33" d="M320.4,83.7c-5.8-6.4-5.5-16.2,0.8-22.2c6.2-6,16.1-5.9,22.2,0.1L320.4,83.7z"/>
		
			<rect x="376.6" y="123" transform="matrix(0.7214 -0.6925 0.6925 0.7214 19.6479 300.0422)" class="st33" width="12.3" height="5.2"/>
		<line class="st34" x1="328.5" y1="110.4" x2="370.8" y2="69.8"/>
		<line class="st34" x1="343.7" y1="126.3" x2="386" y2="85.7"/>
		<g>
			<path class="st24" d="M346,132.6c1.1-1.1,1.1-2.8,0.1-3.9l-20-20.8c-1.1-1.1-2.8-1.1-3.9-0.1l-30,28.8c-1.1,1.1-1.1,2.8-0.1,3.9
				l20,20.8c1.1,1.1,2.8,1.1,3.9,0.1L346,132.6z"/>
			<g>
				<g>
					
						<rect x="295.1" y="133.7" transform="matrix(0.7214 -0.6926 0.6926 0.7214 -12.091 246.0488)" class="st38" width="9.2" height="8.8"/>
					
						<rect x="302.7" y="141.6" transform="matrix(0.7214 -0.6925 0.6925 0.7214 -15.4732 253.4947)" class="st39" width="9.2" height="8.8"/>
					
						<rect x="310.3" y="149.5" transform="matrix(0.7214 -0.6926 0.6926 0.7214 -18.832 261.0118)" class="st38" width="9.2" height="8.8"/>
				</g>
				<g>
					
						<rect x="303" y="126.1" transform="matrix(0.7214 -0.6925 0.6925 0.7214 -4.6366 249.3929)" class="st39" width="9.2" height="8.8"/>
					
						<rect x="310.6" y="134" transform="matrix(0.7215 -0.6924 0.6924 0.7215 -8.0236 256.828)" class="st40" width="9.2" height="8.8"/>
					
						<rect x="318.2" y="141.9" transform="matrix(0.7214 -0.6925 0.6925 0.7214 -11.3751 264.3618)" class="st39" width="9.2" height="8.8"/>
				</g>
				<g>
					
						<rect x="310.8" y="118.6" transform="matrix(0.7214 -0.6926 0.6926 0.7214 2.6786 252.6981)" class="st40" width="9.2" height="8.8"/>
					
						<rect x="318.4" y="126.6" transform="matrix(0.7213 -0.6926 0.6926 0.7213 -0.685 260.1961)" class="st38" width="9.2" height="8.8"/>
					
						<rect x="326" y="134.5" transform="matrix(0.7214 -0.6926 0.6926 0.7214 -4.0623 267.6608)" class="st39" width="9.2" height="8.8"/>
				</g>
				<g>
					
						<rect x="318.7" y="111" transform="matrix(0.7214 -0.6925 0.6925 0.7214 10.1343 256.0478)" class="st39" width="9.2" height="8.8"/>
					
						<rect x="326.3" y="119" transform="matrix(0.7214 -0.6925 0.6925 0.7214 6.7591 263.5176)" class="st39" width="9.2" height="8.8"/>
					
						<rect x="333.9" y="126.9" transform="matrix(0.7214 -0.6925 0.6925 0.7214 3.3962 271.0167)" class="st40" width="9.2" height="8.8"/>
				</g>
			</g>
		</g>
		<g>
			<path class="st24" d="M391.3,89.2c-1.1,1.1-2.8,1-3.9-0.1l-20-20.8c-1.1-1.1-1-2.8,0.1-3.9l30-28.8c1.1-1.1,2.8-1,3.9,0.1
				l20,20.8c1.1,1.1,1,2.8-0.1,3.9L391.3,89.2z"/>
			<g>
				<g>
					
						<rect x="393.9" y="38.8" transform="matrix(0.7214 -0.6926 0.6926 0.7214 81.1358 288.0479)" class="st39" width="9.2" height="8.8"/>
					
						<rect x="401.5" y="46.7" transform="matrix(0.7214 -0.6925 0.6925 0.7214 77.7524 295.512)" class="st38" width="9.2" height="8.8"/>
					
						<rect x="409.1" y="54.7" transform="matrix(0.7214 -0.6925 0.6925 0.7214 74.3827 302.994)" class="st40" width="9.2" height="8.8"/>
				</g>
				<g>
					
						<rect x="386" y="46.4" transform="matrix(0.7214 -0.6925 0.6925 0.7214 73.6585 284.6644)" class="st40" width="9.2" height="8.8"/>
					
						<rect x="393.6" y="54.3" transform="matrix(0.7214 -0.6926 0.6926 0.7214 70.3044 292.1679)" class="st36" width="9.2" height="8.8"/>
					
						<rect x="401.2" y="62.3" transform="matrix(0.7213 -0.6926 0.6926 0.7213 66.9463 299.6681)" class="st35" width="9.2" height="8.8"/>
				</g>
				<g>
					
						<rect x="378.3" y="53.8" transform="matrix(0.7214 -0.6925 0.6925 0.7214 66.3523 281.3765)" class="st38" width="9.2" height="8.8"/>
					
						<rect x="385.9" y="61.8" transform="matrix(0.7214 -0.6925 0.6925 0.7214 62.9744 288.8461)" class="st39" width="9.2" height="8.8"/>
					
						<rect x="393.5" y="69.7" transform="matrix(0.7214 -0.6925 0.6925 0.7214 59.6159 296.3454)" class="st38" width="9.2" height="8.8"/>
				</g>
				<g>
					
						<rect x="370.4" y="61.4" transform="matrix(0.7214 -0.6925 0.6925 0.7214 58.8963 278.0218)" class="st39" width="9.2" height="8.8"/>
					
						<rect x="378" y="69.4" transform="matrix(0.7213 -0.6926 0.6926 0.7213 55.5437 285.5301)" class="st40" width="9.2" height="8.8"/>
					
						<rect x="385.6" y="77.3" transform="matrix(0.7214 -0.6926 0.6926 0.7214 52.1623 292.9948)" class="st36" width="9.2" height="8.8"/>
				</g>
			</g>
		</g>
		<path class="st25" d="M364.7,136.6c1.1,1.1,2.8,1.1,3.9,0.1l25.8-24.8c1.1-1.1,1.1-2.8,0.1-3.9l-45.7-47.6
			c-1.1-1.1-2.8-1.1-3.9-0.1l-25.8,24.8c-1.1,1.1-1.1,2.8-0.1,3.9L364.7,136.6z"/>
		<path class="st24" d="M373.6,163.6c-3.6-12.8-0.2-27.2,10-37c10.3-9.9,24.8-12.7,37.4-8.5L373.6,163.6z"/>
		<g>
			
				<rect x="397.2" y="135" transform="matrix(0.7214 -0.6925 0.6925 0.7214 12.6089 315.6226)" class="st24" width="2.8" height="14.4"/>
		</g>
		<path class="st24" d="M407.1,151c-1.3,1.3-3.4,1.2-4.6-0.1c-1.3-1.3-1.2-3.4,0.1-4.6c1.3-1.3,3.4-1.2,4.6,0.1
			C408.4,147.6,408.4,149.7,407.1,151z"/>
		<path class="st33" d="M320.4,83.7c-5.8-6.4-5.5-16.2,0.8-22.2c6.2-6,16.1-5.9,22.2,0.1L320.4,83.7z"/>
		<g class="st20">
			<path class="st24" d="M407.1,151c1.3-1.3,1.3-3.3,0.1-4.6c-0.9-0.9-2.2-1.2-3.4-0.8l-5.4-5.7l22.7-21.8
				c-10.8-3.5-22.9-2-32.6,4.6l-2.5-2.6l8.5-8.2c1.1-1.1,1.1-2.8,0.1-3.9l-15.2-15.8l5.7-5.5l2.4,2.5c1.1,1.1,2.8,1.1,3.9,0.1
				l30-28.8c1.1-1.1,1.1-2.8,0.1-3.9l-20-20.8c-1.1-1.1-2.8-1.1-3.9-0.1l-30,28.8c-1.1,1.1-1.1,2.8-0.1,3.9l2.4,2.5
				c-2,1.8-3.9,3.6-5.8,5.4l-15.2-15.8c-1.1-1.1-2.8-1.1-3.9-0.1L332,72.8l48.9,50.9l0.6,0.6l2.1,2.2l0.9,0.9l9.1,9.5l3.7,3.8
				l5.2,5.4l1,1.1L407.1,151z M379.2,92.1L364,76.3l5.7-5.5L385,86.7C383,88.5,381.1,90.3,379.2,92.1z"/>
			<path class="st24" d="M343.4,61.6l-11.5,11l-10.7-11.2C327.4,55.5,337.3,55.6,343.4,61.6z"/>
		</g>
	</g>
	<path class="st41" d="M319.5,63.4c-4.5,6-4.3,14.5,0.9,20.3l7.8-7.5C325.1,72.2,322.2,67.9,319.5,63.4z"/>
</g>
<g>
	<path class="st42" d="M674.5,119.8c11.2-39.9-43.7-69.1-43.7-69.1c8.2,9.5,14.2,17.7,18.6,24.7c-5.7-4.1-12.2-7.8-19.3-11
		c-6.8-3.6-45.4-22.9-85.2-19c0,0,15.4,2,30.2,7.6c-25.3,0.7-45.1,10.4-49.7,26.7c-0.1,0.4-0.2,0.8-0.3,1.1
		c-9.9,39.4,43.9,68,43.9,68c-6.9-8.1-12.3-15.2-16.5-21.4c4.2,2.8,8.8,5.4,13.7,7.8c5.5,2.9,44.9,23.2,85.6,19.2
		c0,0-13.3-1.7-27-6.4c25-0.8,44.6-10.5,49.1-26.7C674.2,120.8,674.5,119.8,674.5,119.8z"/>
	
		<ellipse transform="matrix(0.2699 -0.9629 0.9629 0.2699 341.1538 650.8495)" class="st43" cx="599.8" cy="100.4" rx="36.2" ry="63"/>
	
		<ellipse transform="matrix(0.2699 -0.9629 0.9629 0.2699 341.1536 650.8493)" class="st44" cx="599.8" cy="100.4" rx="27.8" ry="48.4"/>
	<path class="st45" d="M630.6,109.1c-2.7,9.8-18.8,13.8-35.8,9.1c-17-4.8-28.6-16.6-25.8-26.3s18.8-13.8,35.8-9.1
		C621.8,87.5,633.3,99.3,630.6,109.1z"/>
	<path class="st46" d="M616,105c-1.4,5.2-9.9,7.3-18.9,4.8s-15.1-8.7-13.6-13.9c1.4-5.2,9.9-7.3,18.9-4.8
		C611.4,93.6,617.5,99.8,616,105z"/>
</g>
</svg>
