<?xml version="1.0" encoding="utf-8"?>
<!-- Generator: Adobe Illustrator 27.8.0, SVG Export Plug-In . SVG Version: 6.00 Build 0)  -->
<svg version="1.1" id="Layer_3" xmlns="http://www.w3.org/2000/svg" xmlns:xlink="http://www.w3.org/1999/xlink" x="0px" y="0px"
	 viewBox="0 0 600 400" style="enable-background:new 0 0 600 400;" xml:space="preserve">
<style type="text/css">
	.st0{opacity:0.1;fill:#FFD845;enable-background:new    ;}
	.st1{opacity:0.25;fill:#FFD845;enable-background:new    ;}
	.st2{fill:#FFD845;}
	.st3{fill:#FFE135;}
	.st4{fill:#FFBD15;}
	.st5{fill:#F09300;}
	.st6{opacity:0.24;fill:#FFFFFF;enable-background:new    ;}
	.st7{opacity:0.15;fill:#FFFFFF;enable-background:new    ;}
	.st8{filter:url(#Adobe_OpacityMaskFilter);}
	.st9{clip-path:url(#SVGID_00000096040225672425201680000014525117538895876284_);}
	
		.st10{clip-path:url(#SVGID_00000068675898741969858330000013949689037619816359_);fill:url(#SVGID_00000111871090827117310150000002436804164093836454_);}
	.st11{mask:url(#SVGID_1_);fill:url(#SVGID_00000008112445824197909640000016171815164859250834_);}
	.st12{opacity:0.49;fill:url(#SVGID_00000116929522997091394360000008120116396139726217_);enable-background:new    ;}
</style>
<g>
	<path class="st0" d="M419.6,101.1c10,12.1,1.2,35.1,6.7,48.9c5.7,14.3,27.7,25.2,28.6,40.3c0.9,15.2-19.6,28.7-23.4,43.5
		c-3.8,14.6,7.8,36.4-0.5,49.4c-8,12.6-32.4,11.4-44.5,21.4s-15.6,34.2-29.4,39.7c-14.3,5.7-33.5-9.7-48.6-8.8
		c-15.2,0.9-32.3,18.6-47.1,14.8c-14.6-3.8-21.1-27.4-34.2-35.6c-12.6-8-36.8-3.7-46.8-15.8c-10-12.1-1.2-35.1-6.7-48.9
		c-5.7-14.3-27.7-25.2-28.6-40.3c-0.9-15.2,19.6-28.7,23.4-43.5c3.8-14.6-7.8-36.4,0.5-49.4c8-12.6,32.4-11.4,44.5-21.4
		s15.6-34.2,29.4-39.7c14.3-5.7,33.5,9.7,48.6,8.8c15.2-0.9,32.3-18.6,47.1-14.8c14.6,3.8,21.1,27.4,34.2,35.6
		C385.4,93.3,409.6,89,419.6,101.1z"/>
	<path class="st1" d="M388.7,91.1c18.5,15,16.7,44.9,24.6,65.7c8.1,21.4,29,42.8,25.3,65.5c-3.5,21.9-29.6,35.7-44.7,54.2
		c-15,18.5-23.2,46.8-44,54.7c-21.4,8.1-46.6-7.9-69.2-11.6c-21.9-3.5-50.9,4.2-69.3-10.8c-18.5-15-16.7-44.9-24.6-65.7
		c-8.1-21.4-29-42.8-25.3-65.5c3.5-21.9,29.6-35.7,44.7-54.2c15-18.5,23.2-46.8,44-54.7c21.4-8.1,46.6,7.9,69.2,11.6
		C341.3,83.8,370.2,76.1,388.7,91.1z"/>
	<circle class="st2" cx="300" cy="199.9" r="124.9"/>
	<path class="st3" d="M398.5,120.9c44,53.2,36.5,131.9-16.7,175.9s-131.9,36.5-175.9-16.7s-36.5-131.9,16.7-175.9
		S354.6,67.7,398.5,120.9z"/>
	<path class="st4" d="M359.2,249.3c-8.9,4.6-19.6,1-29.5,0.1c-10-0.8-22.9,4.5-22.1,14.5c4,5.2,7.9,10.3,11.9,15.5
		c-12.5,1.5-27.2,5.8-39.7,7.3c2.5,6.3,11.8,7.2,18.6,7.4c6.8,0.3,13.5-2.2,19.8-5c38.2-17.1,70.8-50.7,78.9-91.6
		c8.1-40.9-13.4-87.4-52.5-100.9c14.6,6.5,22.9,24.5,18.4,39.9c-1.3,4.5-3.5,8.8-3.4,13.5c0.2,8.5,7.9,14.4,14,20.2
		s11.5,15.3,6.6,22.3c-12.1,2.3-16.2-22.3-28.1-19.3c-5.2,1.3-7.5,8-6.1,13.2s5.4,9.1,9.1,13c6.6,7,12.7,15.1,14.6,24.5
		C371.4,233.6,367.9,244.9,359.2,249.3z"/>
	<path class="st4" d="M334.9,148.5c6-2.4,6.6-10.6,5.2-16.9c-1.2-5.5-3.2-10.7-6-15.6c-1.7-3-4.1-6.1-7.5-6.3
		c-3.4-0.2-6.2,2.8-7.2,6.1c-0.9,3.3-0.5,6.7-0.2,10.1c0.4,5.4,0.3,11,2.6,15.9C324.1,146.6,329.9,150.5,334.9,148.5z"/>
	<path class="st4" d="M318.7,213.9c-2.3,7.5-1.4,16.7,4.5,21.9s17.1,3.7,19.6-3.7c1.3-3.8,0.1-7.9-1-11.8c-1.2-4-2.5-8.1-5.2-11.3
		s-7.2-5.2-11.2-3.8C321.9,206.5,319.9,210.3,318.7,213.9z"/>
	<path class="st4" d="M280.3,257.2c-3,1.8-5.3,5-5.3,8.5c-0.1,3.5,2.6,7,6,7.3c4,0.3,7.4-3.8,7-7.8
		C287.7,261.3,284.2,258.1,280.3,257.2z"/>
	<path class="st4" d="M268.9,105.2c-1.3,2.1-2,4.4-2.1,6.8c-0.2,6,4.3,10.9,10.2,12.2c9.2,2,16.6-7.1,15.3-15.4
		c-0.1-0.5-0.2-0.9-0.3-1.4C289.1,96.7,274.5,95.7,268.9,105.2z"/>
	<path class="st4" d="M242.4,265.2c-2.3-1.8-5.5-2.5-8.3-1.7c-3.5,0.9-6.3,4.1-6.8,7.6c-1,6.5,6.6,12.7,12.8,10.3
		C246.2,279,247.6,269.3,242.4,265.2z"/>
	<path class="st4" d="M294.5,223.1c-5,0.6-8.8,5.8-8,10.8c0.8,4.9,6.2,8.6,11.1,7.5c4.6-1,8-6,7.2-10.6
		C304,226.1,299.2,222.6,294.5,223.1z"/>
	<path class="st4" d="M321.8,169.9c0.2-1.5,0.3-3.2-0.5-4.5c-0.9-1.7-2.9-2.6-4.8-2.5s-3.7,1-5.1,2.2c-2.7,2.2-4.5,5.6-4.2,9
		c0.4,3.4,3.5,6.6,6.9,6.3c2.4-0.2,4.4-1.8,5.7-3.8S321.5,172.2,321.8,169.9z"/>
	<path class="st4" d="M258.3,241.2c7.9-6.9,9.5-19.9,3.5-28.5c-1.4-2-3.3-3.9-5.7-4.3c-3.2-0.6-6.3,1.3-9,3.2
		c-3.2,2.2-6.4,4.4-9.1,7.2c-4.6,4.6-7.7,11.4-5.8,17.6c1.6,5,6.4,8.7,11.6,9.5C249,246.6,254.4,244.6,258.3,241.2z"/>
	<path class="st4" d="M252.5,90.1c-2.5,0-4.9,2.2-5,4.7s2,4.9,4.5,5.1c2.2-0.5,3.9-2.5,4-4.7C256.1,92.9,254.6,90.8,252.5,90.1z"/>
	<path class="st4" d="M308.6,102.5c4.1-0.6,6.9-5.5,5.5-9.3c-1.5-3.9-6.8-5.6-10.3-3.4c-2.6,1.7-3.8,5.4-2.7,8.3
		C302.1,101,305.4,102.9,308.6,102.5z"/>
	<path class="st4" d="M226.8,100.9c43.7-32.6,105.8-25.4,141,17.1c36.3,43.9,30.1,108.9-13.7,145.2
		c-43.9,36.3-108.9,30.1-145.2-13.8c-35.2-42.5-30.5-104.9,9.7-141.7c-49.5,44.5-55.5,120.6-12.6,172.5
		c44,53.2,122.7,60.7,175.9,16.7s60.6-122.8,16.6-176C355.7,69,279.8,60.6,226.8,100.9z"/>
	<path class="st5" d="M370.8,265.5c-40.2,43-102.7,52.5-152.7,27.4c50.3,45.9,128.4,42.9,175.2-7.1c47.1-50.4,44.6-129.3-5.6-176.4
		c-0.6-0.5-1.1-1-1.7-1.5C416.7,156.5,412,221.5,370.8,265.5z"/>
	<path class="st6" d="M254,315.7c41.4,17.3,90.8,11.6,127.8-19c53.2-44,60.7-122.7,16.7-175.9C368,83.9,320.7,69,276.8,78.1
		c26.2-4.6,54.1-0.9,79.3,12.6c60.2,32.1,82.8,107,50.6,167.3C377.1,313.7,311.2,337.4,254,315.7z"/>
	<path class="st7" d="M300.5,75.6c-27.5,0.4-55,9.7-77.9,28.6c-28.1,23.2-43.4,56.1-45.2,89.8c0,0.4,0,0.9-0.1,1.3
		c-0.1,1.3-0.1,2.5-0.1,3.8c0,1,0,2.1,0,3.1c0,0.6,0,1.3,0,1.9c0.5,15.8,4.1,31.9,11,47.2c0.2,0.3,0.3,0.7,0.5,1
		c44.3,11.9,89.8-2.8,123.4-38.7c34.6-37,47.1-86.7,30.4-131c-12.4-4.3-25.4-6.7-38.6-6.9c-0.5,0-1,0-1.5,0
		C301.9,75.6,301.2,75.6,300.5,75.6z"/>
	<g>
		<g>
			<defs>
				<filter id="Adobe_OpacityMaskFilter" filterUnits="userSpaceOnUse" x="185.4" y="89.7" width="148.8" height="148.3">
					<feColorMatrix  type="matrix" values="1 0 0 0 0  0 1 0 0 0  0 0 1 0 0  0 0 0 1 0"/>
				</filter>
			</defs>
			<mask maskUnits="userSpaceOnUse" x="185.4" y="89.7" width="148.8" height="148.3" id="SVGID_1_">
				<g class="st8">
					<g>
						<defs>
							<polygon id="SVGID_00000124143887947840295000000018306298502454006912_" points="14.5,16.6 15.5,16.6 14.5,17.6 							"/>
						</defs>
						<defs>
							<polygon id="SVGID_00000145017823705280560410000000443355999098162576_" points="12.5,14.6 11.5,14.6 12.5,13.6 							"/>
						</defs>
						<clipPath id="SVGID_00000150082619226270216840000007512952545978100661_">
							<use xlink:href="#SVGID_00000124143887947840295000000018306298502454006912_"  style="overflow:visible;"/>
						</clipPath>
						
							<clipPath id="SVGID_00000016073177853829154760000015392746102507342470_" style="clip-path:url(#SVGID_00000150082619226270216840000007512952545978100661_);">
							<use xlink:href="#SVGID_00000145017823705280560410000000443355999098162576_"  style="overflow:visible;"/>
						</clipPath>
						
							<radialGradient id="SVGID_00000062901326161526286930000007084302720113240468_" cx="-61.841" cy="671.7776" r="135.6481" gradientTransform="matrix(2.820000e-02 -0.8908 -0.9116 0.1632 841.5682 -31.7566)" gradientUnits="userSpaceOnUse">
							<stop  offset="0" style="stop-color:#FFFFFF"/>
							<stop  offset="0.662" style="stop-color:#000000"/>
						</radialGradient>
						
							<path style="clip-path:url(#SVGID_00000016073177853829154760000015392746102507342470_);fill:url(#SVGID_00000062901326161526286930000007084302720113240468_);" d="
							M214.5,116.3c31.5-30.5,82-36.4,108.4-9.1s2.4,52-27.8,89.7c-24.8,31-67.4,56.9-93.8,29.6
							C174.9,199.2,182.9,146.8,214.5,116.3z"/>
					</g>
				</g>
			</mask>
			
				<radialGradient id="SVGID_00000111179733133885238720000008246907998782987162_" cx="-61.841" cy="671.7776" r="135.6481" gradientTransform="matrix(2.820000e-02 -0.8908 -0.9116 0.1632 841.5682 -31.7566)" gradientUnits="userSpaceOnUse">
				<stop  offset="0" style="stop-color:#FFFFFF"/>
				<stop  offset="0.662" style="stop-color:#000000"/>
			</radialGradient>
			<path style="mask:url(#SVGID_1_);fill:url(#SVGID_00000111179733133885238720000008246907998782987162_);" d="M214.5,116.3
				c31.5-30.5,82-36.4,108.4-9.1s2.4,52-27.8,89.7c-24.8,31-67.4,56.9-93.8,29.6C174.9,199.2,182.9,146.8,214.5,116.3z"/>
		</g>
	</g>
	
		<radialGradient id="SVGID_00000178903081889209590160000002907650743238938046_" cx="-61.841" cy="671.7776" r="135.6481" gradientTransform="matrix(2.820000e-02 -0.8908 -0.9116 0.1632 841.5682 -31.7566)" gradientUnits="userSpaceOnUse">
		<stop  offset="0" style="stop-color:#FFFEFF"/>
		<stop  offset="0.662" style="stop-color:#F3F9F7"/>
	</radialGradient>
	<path style="opacity:0.49;fill:url(#SVGID_00000178903081889209590160000002907650743238938046_);enable-background:new    ;" d="
		M214.5,116.3c31.5-30.5,82-36.4,108.4-9.1s2.4,52-27.8,89.7c-24.8,31-67.4,56.9-93.8,29.6C174.9,199.2,182.9,146.8,214.5,116.3z"/>
</g>
</svg>
