<?xml version="1.0" encoding="utf-8"?>
<!-- Generator: Adobe Illustrator 27.8.0, SVG Export Plug-In . SVG Version: 6.00 Build 0)  -->
<svg version="1.1" id="Layer_3" xmlns="http://www.w3.org/2000/svg" xmlns:xlink="http://www.w3.org/1999/xlink" x="0px" y="0px"
	 viewBox="0 0 600 400" style="enable-background:new 0 0 600 400;" xml:space="preserve">
<style type="text/css">
	.st0{fill:#E2BF6D;}
	.st1{fill:#E8914F;}
	.st2{fill:#CF5636;}
	.st3{fill:#D9A66A;}
	.st4{opacity:0.75;fill:#EF633F;enable-background:new    ;}
	.st5{fill:#FFDF9C;}
	.st6{fill:#BEB988;}
	.st7{opacity:0.34;fill:#EF633F;enable-background:new    ;}
	.st8{fill:#CFA195;}
	.st9{opacity:0.15;fill:#FFFFFF;enable-background:new    ;}
	.st10{filter:url(#Adobe_OpacityMaskFilter);}
	.st11{clip-path:url(#SVGID_00000183957186781367486540000002520459698897782167_);}
	
		.st12{clip-path:url(#SVGID_00000183964617671555465200000006781820152819509394_);fill:url(#SVGID_00000034803985544131182430000017201848244548297141_);}
	.st13{mask:url(#SVGID_1_);fill:url(#SVGID_00000091706772920477452010000016866047527441285007_);}
	.st14{opacity:0.57;fill:url(#SVGID_00000018950122948988618970000010920160441912186527_);enable-background:new    ;}
	.st15{opacity:0.24;fill:#FFFFFF;enable-background:new    ;}
</style>
<g>
	<ellipse class="st0" cx="300" cy="200" rx="123" ry="123"/>
	<path class="st1" d="M300,322.9c52.2,0,96.7-32.5,114.6-78.4c-34.6,14.8-77.7,31.6-115.2,32.7c-15.7,0.5-31.5-1.5-47,0.4
		c-12.3,1.5-24.9,6.1-33.6,14.6C240.4,311.3,268.8,322.9,300,322.9z"/>
	<path class="st2" d="M274.7,251.4c-13.6-4-28.4-4.1-42.1-0.3c-8.6,2.4-14.6,8.7-22.5,4.7c-6.9-3.5-14.7-5.4-22.4-5.7
		c5.1,11.4,11.9,21.9,20,31.1c2-0.6,4-1.3,6-2.1c12.2-4.8,23.4-12.1,35.8-16.5c15.6-5.7,32.5-6.8,49.1-7.8
		C293.7,247.8,281.6,246.6,274.7,251.4z"/>
	<path class="st1" d="M422.6,191.1c-8.9,14.6-24.9,24.3-41.4,29.8c-18.2,6.1-37.5,8-56.2,12.6c-8,2-16.4,4.8-20.2,12.7
		c-2.4,4.9-1.5,10.9,2.9,14.1c3.5,2.6,7.6,2.3,11.6,0.6c4.2-1.7,3.6-7.8-0.8-8.7h-0.1c-1.5-5.4,2.9-11.2,8.3-12.8s11.2-0.2,16.5,1.9
		c5.2,2.1,10.3,4.8,15.9,5.7c7.6,1.2,15.4-1,22.8-3.2c13.8-4.1,28.2-8.5,38.4-18.7c0.1-0.1,0.1-0.2,0.2-0.2c1.7-8.1,2.5-16.4,2.5-25
		C422.9,197,422.8,194,422.6,191.1z"/>
	<path class="st2" d="M419.8,172.6c-2.4-10.7-6.3-20.9-11.3-30.3c-30.6,34.3-76.7,54.5-122.7,53.4c-19.4-0.5-38.9-4.5-58-1.2
		c-15.5,2.6-29.9,9.9-43.4,17.9c-2.2,1.3-4.3,2.6-6.3,4.2c0.9,7,2.4,13.7,4.5,20.3c43.4,0.2,87.2,0,129.6-9.3
		C352.1,218.8,391.2,201.3,419.8,172.6z"/>
	<path class="st1" d="M406.2,152.2c1.7-1.5,3.4-3,5-4.6c-3.1-6.6-6.8-12.9-11.1-18.8c-6.1,13.7-12.9,26.2-26.5,33
		c-31.4,15.6-68,15.4-103.1,15.4c-30.8,0-70.3-6.2-93,11.8c-0.3,3.7-0.5,7.4-0.5,11.1c0,7.8,0.8,15.4,2.1,22.8
		c0.9-0.3,1.8-0.6,2.9-0.8c5.6-1.1,11.3-0.7,17-0.6c5.7,0,11.6-0.4,16.6-3.2c5-2.7,8.8-8.3,8-13.9c9.5-6.1,17.5-5.1,28.7-3.4
		c11.2,1.6,22,5.5,33.1,7.8c19.3,4.1,39.6,3.6,58.8-1.3c2.6-0.7,5.4-1.6,7.1-3.7c1.6-2.2,1.2-6-1.3-6.9c0-4.3,6.9-8.7,11.1-9.5
		s8.7-0.3,12.8-1.8c7-2.8,10.1-10.6,14.6-16.7C393.2,162.1,400,157.4,406.2,152.2z"/>
	<path class="st3" d="M370.2,99c-22.3,16.5-52.6,19.2-80.7,17.8c-25.9-1.4-52.2-5.5-77.8-2.5c-13.2,13.6-23.2,30.1-29.1,48.6
		c24.1-15.9,54-23,82.6-19.4c17.3,2.2,34.1,8.1,51.6,8.6c19.7,0.6,39.4-5.8,55.1-17.7c6.7-5.1,12.9-11.7,14.6-19.9
		c0.1-0.6,0.2-1.2,0.2-1.7C381.7,107.8,376.1,103.2,370.2,99z"/>
	<path class="st1" d="M364.7,95.4c-12.8,7.6-27.8,11.9-42.7,13.6c-23.8,2.7-47.8-0.2-71.7-1.2c-10.7-0.4-21.6-0.4-32.3,0.6
		c-3,2.7-5.9,5.6-8.6,8.5c14.8-2.7,30.8-1.8,45.8-0.6c25.8,2.2,52.1,7.2,77.3,1.2c13.9-3.3,27.6-9.2,40-16.9
		C369.9,98.8,367.3,97,364.7,95.4z"/>
	<path class="st4" d="M346.9,132.8c0.5,2.8-5.2,6.3-12.8,7.7c-7.6,1.4-14.2,0.3-14.8-2.5s5.2-6.3,12.8-7.7
		C339.8,128.9,346.4,130,346.9,132.8z"/>
	<path class="st5" d="M405.3,164.2c1.1,1.1,0.4,3.6-1.5,5.7c-2,2.1-4.5,2.9-5.6,1.9c-1.1-1.1-0.4-3.6,1.5-5.7
		C401.7,163.9,404.2,163.1,405.3,164.2z"/>
	<ellipse class="st5" cx="236.8" cy="223.3" rx="8.4" ry="4"/>
	<path class="st5" d="M328.2,137.8c1.8-0.1,3.7-0.2,5.5-0.3c2-0.1,4-0.3,5.7-1.2c0.9-0.5,1.7-1.5,1.3-2.4c-0.3-0.9-1.5-1.1-2.5-1.1
		c-3.9,0-7.7,1-11.2,2.7c-0.5,0.3-1.1,0.6-1.1,1.2C326,137.6,327.2,137.9,328.2,137.8z"/>
	<path class="st6" d="M237.5,221.9c-2.1,0-4.3,0.9-5.7,2.5c1.8,1.3,4.3,1.7,6.4,1c0.9-0.3,1.8-0.9,1.8-1.8
		C240.1,222.5,238.7,222,237.5,221.9z"/>
	<path class="st2" d="M365.3,249.5c0.1-9.5,7.9-16.9,15.1-23.1c5.1-4.4,10.2-8.7,15.3-13.1c7.5-6.4,22.1-14.8,21.7-24.6
		c1.1,18.2-2.1,35.1-7.8,52.4c-5.7,17.3-20.5,35.5-34.9,46.8c-17,13.3-38.6,19-59.6,23.9c-11.1,2.6-22.5,5.1-33.9,4.6
		s-23.1-4.4-30.9-12.7c-3.8-4-6.2-11.1-2.1-14.7c2.3-2,5.8-2,8.7-1s5.4,2.8,8.1,4.1c6.7,3.3,14.7,3.7,21.6,1
		c3.1,5.6,10.5,8.3,16.5,6.1c6-2.2,9.8-9.1,8.5-15.4c-0.5-2.6-1.8-4.9-2.4-7.5c-0.6-2.5-0.2-5.6,1.9-7.2c3.5-2.6,8.1,0.6,12,2.6
		c7.7,4,16.9,3.1,25.5,2.1c6.7-0.8,14.6-2.5,17.1-8.7C367.7,260.3,365.3,254.8,365.3,249.5z"/>
	<path class="st1" d="M360.8,217.6c-0.5,1.3,0.6,2.7,1.9,3.1c1.3,0.4,2.7,0.1,4.1-0.3c6.1-1.5,12.2-3.1,18.3-4.6
		c2.7-0.7,5.6-1.5,7.4-3.5c3.3-3.6,2.2-9.3,3.2-14.1c-1.4-0.8-3.3,0-4.4,1.2s-1.8,2.7-2.7,4c-2.6,3.7-7.1,5.4-11.3,7
		c-4.7,1.8-9.4,3.5-14.1,5.3C362.3,216.1,361.2,216.6,360.8,217.6z"/>
	<path class="st1" d="M235.4,245.7c0.8,0.5,1.9,0.4,2.8,0.3c6-0.6,11.9-1.2,17.9-1.8c-0.2-1-0.4-1.9-0.6-2.9
		c-4.9-2.4-10.5-3.2-15.9-2.3c-1.7,0.3-3.5,0.8-4.7,2.2C233.8,242.5,233.9,244.9,235.4,245.7z"/>
	<path class="st1" d="M296,261.3c-0.9-0.4-2-0.4-3.1-0.3c-9.4,0.5-18.8,1.4-28.1,2.8c-1.1,0.2-2.3,0.3-3.2,1s-1.5,1.9-1.1,2.9
		c0.4,0.8,1.3,1.3,2.1,1.6c5.3,2.4,10.8,4.7,16.6,5.4c5.8,0.7,12.1-0.6,16.3-4.6c1.2-1.2,2.3-2.7,2.5-4.4S297.6,262,296,261.3z"/>
	<path class="st1" d="M346,159.6c0.6,0.7,1.6,1,2.5,1.1c7.9,1.3,15.9-1.5,23.4-4.4c4-1.5,8.1-3.2,11.3-6c3.2-2.9,5.4-7.3,4.4-11.5
		c-0.6-2.5-2.6-4.9-5.2-4.7c-1.9,0.2-3.4,1.8-4.7,3.1c-7.9,7.9-19.1,11.2-28.9,16.6c-1.1,0.6-2.2,1.2-2.9,2.2
		C345.4,157.2,345.2,158.6,346,159.6z"/>
	<path class="st7" d="M207.2,119.4c35.6-40.3,96.9-46,139.3-12.2c43.8,34.9,50.9,98.7,16,142.6s-98.8,51.2-142.6,16.3
		c-42.4-33.8-50.5-94.8-19.1-138.4c-38.7,53-29.2,127.4,22.5,168.6c53.1,42.3,130.5,33.4,172.8-19.7
		c42.4-53.2,33.7-130.5-19.3-172.8C325,62.5,250.2,69.9,207.2,119.4z"/>
	<path class="st8" d="M389.6,284.1c46.6-49.4,43.7-127.9-5.9-174.1c-0.5-0.5-0.8,0-1.3-0.5c29.4,47,25.5,111.3-15,154.6
		C328,306.2,267,315.5,217.7,291.3c18.9,17,43,28.2,69.6,31c0.6,0.1,1.2,0.1,1.8,0.1c1.3,0.1,2.6,0.2,4,0.3c1.6,0.1,3.1,0.1,4.7,0.1
		c0.4,0,0.7,0,1,0C331.9,323.1,365,310.1,389.6,284.1z"/>
	<path class="st9" d="M177,200c0,18.3,4,35.6,11.2,51.2c43.7,11.3,88.5-3.2,121.6-38.4c34.3-36.5,46.7-85.4,30.2-129.1
		c-12.5-4.3-26-6.7-40-6.7C232,77,177,132,177,200z"/>
	<g>
		<g>
			<defs>
				<filter id="Adobe_OpacityMaskFilter" filterUnits="userSpaceOnUse" x="187.3" y="91.4" width="146.3" height="144.9">
					<feColorMatrix  type="matrix" values="1 0 0 0 0  0 1 0 0 0  0 0 1 0 0  0 0 0 1 0"/>
				</filter>
			</defs>
			<mask maskUnits="userSpaceOnUse" x="187.3" y="91.4" width="146.3" height="144.9" id="SVGID_1_">
				<g class="st10">
					<g>
						<defs>
							<polygon id="SVGID_00000183955285335365630070000015814782255693730226_" points="21.8,-0.8 22.8,-0.8 21.8,0.2 							"/>
						</defs>
						<defs>
							<polygon id="SVGID_00000170248646492955576760000010667619273666874255_" points="19.8,-2.8 18.8,-2.8 19.8,-3.8 							"/>
						</defs>
						<clipPath id="SVGID_00000056396522611148521210000005273272155830390207_">
							<use xlink:href="#SVGID_00000183955285335365630070000015814782255693730226_"  style="overflow:visible;"/>
						</clipPath>
						
							<clipPath id="SVGID_00000118387813576002273010000009186172448723287734_" style="clip-path:url(#SVGID_00000056396522611148521210000005273272155830390207_);">
							<use xlink:href="#SVGID_00000170248646492955576760000010667619273666874255_"  style="overflow:visible;"/>
						</clipPath>
						
							<radialGradient id="SVGID_00000156569296573086213040000006234918429676476315_" cx="-72.6303" cy="673.5613" r="135.7874" gradientTransform="matrix(2.770000e-02 -0.8693 -0.8954 0.1593 833.7144 -36.7057)" gradientUnits="userSpaceOnUse">
							<stop  offset="0.2253" style="stop-color:#F4F4F4"/>
							<stop  offset="0.668" style="stop-color:#515151"/>
							<stop  offset="1" style="stop-color:#000000"/>
						</radialGradient>
						
							<path style="clip-path:url(#SVGID_00000118387813576002273010000009186172448723287734_);fill:url(#SVGID_00000156569296573086213040000006234918429676476315_);" d="
							M215.8,117.4c31-29.8,80.6-35.6,106.6-8.9s2.4,50.8-27.3,87.6c-24.4,30.3-66.2,55.6-92.2,28.9
							C176.9,198.4,184.8,147.2,215.8,117.4z"/>
					</g>
				</g>
			</mask>
			
				<radialGradient id="SVGID_00000158026189249318632810000016185470354706937268_" cx="-72.6303" cy="673.5613" r="135.7874" gradientTransform="matrix(2.770000e-02 -0.8693 -0.8954 0.1593 833.7144 -36.7057)" gradientUnits="userSpaceOnUse">
				<stop  offset="0.2253" style="stop-color:#F4F4F4"/>
				<stop  offset="0.668" style="stop-color:#515151"/>
				<stop  offset="1" style="stop-color:#000000"/>
			</radialGradient>
			<path style="mask:url(#SVGID_1_);fill:url(#SVGID_00000158026189249318632810000016185470354706937268_);" d="M215.8,117.4
				c31-29.8,80.6-35.6,106.6-8.9s2.4,50.8-27.3,87.6c-24.4,30.3-66.2,55.6-92.2,28.9C176.9,198.4,184.8,147.2,215.8,117.4z"/>
		</g>
	</g>
	
		<radialGradient id="SVGID_00000021076932747094428780000017862530891254003343_" cx="-72.6303" cy="673.5613" r="135.7874" gradientTransform="matrix(2.770000e-02 -0.8693 -0.8954 0.1593 833.7144 -36.7057)" gradientUnits="userSpaceOnUse">
		<stop  offset="0.2253" style="stop-color:#FFFFFF"/>
		<stop  offset="0.668" style="stop-color:#F7EBC2"/>
		<stop  offset="1" style="stop-color:#F3F9F7"/>
	</radialGradient>
	<path style="opacity:0.57;fill:url(#SVGID_00000021076932747094428780000017862530891254003343_);enable-background:new    ;" d="
		M215.8,117.4c31-29.8,80.6-35.6,106.6-8.9s2.4,50.8-27.3,87.6c-24.4,30.3-66.2,55.6-92.2,28.9C176.9,198.4,184.8,147.2,215.8,117.4
		z"/>
	<path class="st15" d="M245.3,310.1c16.5,8.2,35,12.8,54.6,12.8c67.9,0,123-55.1,123-123s-55.1-123-123-123
		c-18.1,0-35.2,3.9-50.7,10.9c32.5-13.4,70.4-12.9,103.8,4.8c59.2,31.4,81.5,104.8,49.8,163.8C372.4,313.3,303.2,336.2,245.3,310.1z
		"/>
</g>
</svg>
