<?xml version="1.0" encoding="utf-8"?>
<!-- Generator: Adobe Illustrator 27.8.0, SVG Export Plug-In . SVG Version: 6.00 Build 0)  -->
<svg version="1.1" id="Layer_2_00000021815467548716904210000012012427495853743242_"
	 xmlns="http://www.w3.org/2000/svg" xmlns:xlink="http://www.w3.org/1999/xlink" x="0px" y="0px" viewBox="0 0 600 400"
	 style="enable-background:new 0 0 600 400;" xml:space="preserve">
<style type="text/css">
	.st0{fill:#EAA753;}
	.st1{fill:#C97832;}
	.st2{fill:#995D2E;}
	.st3{fill:#B36225;}
	.st4{opacity:0.54;fill:#BD6420;enable-background:new    ;}
	.st5{fill:#B89E8F;}
	.st6{opacity:0.15;fill:#FFFFFF;enable-background:new    ;}
	.st7{filter:url(#Adobe_OpacityMaskFilter);}
	.st8{clip-path:url(#SVGID_00000174585629033014643670000017033518706229017484_);}
	
		.st9{clip-path:url(#SVGID_00000085245137898394862140000017328125378105566083_);fill:url(#SVGID_00000183948648566885865400000000388957875466758573_);}
	.st10{mask:url(#SVGID_1_);fill:url(#SVGID_00000045599084718024659840000000327707394983569074_);}
	.st11{opacity:0.57;fill:url(#SVGID_00000046306053242982613760000016581766372862744973_);enable-background:new    ;}
	.st12{opacity:0.24;fill:#FFFFFF;enable-background:new    ;}
</style>
<g>
	<path class="st0" d="M423,200c0,67.9-55.1,123-123,123s-123-55.1-123-123c0-13.7,2.3-27.3,6.7-40.2c2.2-6.4,4.9-12.6,8.2-18.5
		c21.3-39.2,63.4-64.2,108.1-64.2C367.9,77,423,132.1,423,200z"/>
	<path class="st1" d="M362,306.1c-0.1-2.2-0.4-4.5-1-6.6c-2.3-8.3-8.5-15.5-16.4-18.9c-6.5-2.8-14.1-3.3-19.5-7.9
		c-4.7-3.9-6.8-10.2-8.1-16.1c-1.4-6-2.4-12.2-5.7-17.4c-3.3-5.2-9.7-9-15.5-7.1c-5.1,1.7-8,7.2-8.8,12.5c-0.7,5.3,0.3,10.7,0.5,16
		c0.4,9.2-1.6,18.5-4.8,27.2c-3.9,10.5-10.5,21-21.1,24.6c-2.2,0.7-4.6,1.2-6.8,2c14,5.5,29.1,8.6,45.1,8.6
		C322.6,322.9,343.8,316.9,362,306.1z"/>
	<path class="st1" d="M337.7,155.8c5.7,0.4,11.7-0.3,16.7-3.1s8.9-8,9.1-13.8c0.2-5.7-4-11.6-9.7-12.4c-7.9-1-8.8,4.1-15.7,8.2
		c-3.2,1.9-6.6,3.9-8.7,7c-2.1,3.1-2.8,7.6-0.4,10.5C331,154.8,334.5,155.4,337.7,155.8z"/>
	<path class="st1" d="M283,232c-0.3-2.2-1.6-4.1-3.3-5.3c-3.2-2.3-7.3-4.6-11.4-4.1c-2,0.2-3.7,0.1-6.3,0.1
		c-4.4,0.1-8.5,2.6-10.1,6.7c-0.4,1.1-0.6,2.3-0.4,3.7c0.5,3.7,2.6,6.9,4.9,9.8c2.2,2.9,4.7,5.8,5.8,9.3c1,3.1,1,6.5,2,9.6
		c1.1,3.1,4,6,7.2,5.4c3.7-3.1,3.9-8.6,3.7-13.4c-0.2-4.8-0.4-10.1,2.8-13.8C279.9,237.6,283.5,236.2,283,232z"/>
	<path class="st1" d="M258.3,199.1c-3.1,1.6-4.4,6.1-2.5,9.1c1.5,2.3,4.5,3.4,7.1,2.7c3.4-1,5.5-5.1,4.2-8.4
		C265.8,199.3,261.5,197.5,258.3,199.1z"/>
	<path class="st1" d="M242.7,91.3c-0.5,1.1-1,2.1-1.5,3.2c-1.9,4.2-3.8,8.6-4,13.2s1.6,9.6,5.5,12c4,2.4,9.2,1.8,13.4,4
		c6.7,3.6,7.5,12.6,11.2,19.2c5.8,10.5,19.7,14.8,31.4,11.9c11.7-2.9,21.1-11.6,27.8-21.7c4.4-6.7,8-14.4,14.5-19.1
		c9-6.6,22.7-6.9,30-14.5c-20.1-14.2-44.6-22.6-71.1-22.6C279.8,77,260.2,82.1,242.7,91.3z"/>
	<path class="st1" d="M412.6,164.1c1.3-1.6,2.4-3.3,3.3-5.2c-4.9-13.9-12.2-26.6-21.5-37.7c-5.8,1.6-11.5,3.5-16.6,6.5
		c-6,3.6-11.2,9.1-12.8,15.9c-1,4.1-0.6,8.5-2.5,12.3c-4,8.2-15.1,8.7-24.2,9.1c-5.6,0.2-12.8,2.5-12.7,8.1c0,3.8,3.8,6.5,7.3,8
		c9.8,4.3,21,4.6,31.6,2.7c10.6-1.8,20.7-5.7,30.7-9.6C401.6,171.9,408.2,169.3,412.6,164.1z"/>
	<path class="st1" d="M273.5,187.3c5.4,0.8,11.1,1.4,16-1s8.2-8.8,5.3-13.4c-2-3.3-6.1-4.5-9.9-5.4c-4-1-8.4-1.9-12,0.1
		c-3.2,1.8-4.8,5.5-6.1,8.9c-0.9,2.2-1.7,4.7-0.8,6.8C267.2,186.1,270.6,186.9,273.5,187.3z"/>
	<path class="st1" d="M320,166.9c1.2-0.8,2.7-1.1,3.5-2.2c1.2-1.7-0.2-4.2-2-5.3c-4.3-2.7-10.3-0.8-13.4,3.2
		c-3.1,3.9-3.7,9.4-3.1,14.3c0.3,2.4,1,4.9,2.5,6.8c1.6,1.9,4.3,3,6.6,2.2c2.9-1.9,3.1-6,2.9-9.5C316.9,172.9,317.1,168.8,320,166.9
		z"/>
	<path class="st1" d="M370.8,222.6c3.8-2.7,8.2-4.5,12-7.3c3.7-2.8,6.8-7.2,6.2-11.9c-0.7-5.6-6.6-9.2-12.2-9.7s-11.1,1.3-16.6,2.4
		c-9.2,1.9-18.9,2-28.1,0.1c-5-1-9.9-2.5-14.9-2.3c-5.1,0.1-10.4,2.3-12.7,6.8c-2.9,5.8,0.4,12.8,4.9,17.4c4.5,4.6,10.3,8,14.1,13.1
		c4.2,5.6,5.6,12.7,7.4,19.5c1.8,6.7,4.4,13.8,10,17.9c5.6,4.2,15,3.8,18.3-2.4c2.7-5,0.4-11.1-0.3-16.7
		C357.7,239.4,362.4,228.6,370.8,222.6z"/>
	<path class="st1" d="M249.3,312c1.6-2.8,2.7-6,3.5-9.2c2.4-8.9,3.1-18.2,2.3-27.4c-0.3-3.3-0.9-6.6-2.5-9.4c-1.7-2.8-4.7-5.1-7.9-5
		c-5.5,0.1-8.7,5.9-12.2,10.1c-5.9,7.1-15.3,10.9-24.5,10.4C219.4,294.4,233.4,304.9,249.3,312z"/>
	<path class="st1" d="M205.9,279.1L205.9,279.1L205.9,279.1z"/>
	<path class="st1" d="M287,219c2.7,1.4,6.3-0.2,7.9-2.8s1.5-5.9,0.8-8.9c-1-3.8-3.9-7.7-7.8-7.5c-3,0.2-5.4,2.9-6.1,5.9
		c-0.6,3,0.3,6,1.5,8.8C284.1,216.2,285.2,218.1,287,219z"/>
	<path class="st1" d="M423,200c0-7.3-0.7-14.4-1.9-21.3c-3.2,1.5-5.5,5.3-6.8,8.8c-3.8,9.9-5.3,20.5-8.8,30.4
		c-3.6,9.9-9.8,19.7-19.6,23.7c-5.2,2.1-11.5,2.7-15.1,7c-4.8,5.7-2.1,14.2,0.7,21.1c2.2,5.4,4.7,11.1,9.5,14.5
		c1.9,1.3,4,2.2,6.1,2.6C409.2,264.6,423,233.9,423,200z"/>
	<path class="st1" d="M256.1,141.1c-2.1-1-4.8-1.5-6.3,0.2c-0.7,0.8-0.9,1.9-1.1,3c-0.6,4-0.7,8.3,1,11.9c1.8,3.6,5.9,6.4,9.8,5.4
		c4.4-1.1,6.8-6.5,5.6-10.9C264,146.3,260.3,143,256.1,141.1z"/>
	<path class="st1" d="M206,279.1l9.6-1.3C212.3,276.8,208.9,277.4,206,279.1z"/>
	<path class="st1" d="M230.1,124.4c-3.1,1.4-4.2,6-2,8.7c1.8,2.2,5.3,2.7,7.6,1.2c2.3-1.6,3.1-5,1.7-7.5
		C236,124.2,232.6,123.2,230.1,124.4z"/>
	<path class="st1" d="M221.9,132.8h-7.3c-0.6,0-1.1-0.5-1.1-1.1c0-0.6,0.5-1.1,1.1-1.1h7.3c0.6,0,1.1,0.5,1.1,1.1
		C223.1,132.3,222.6,132.8,221.9,132.8z"/>
	<path class="st1" d="M227.4,123c-0.5,0-0.9-0.3-1.1-0.8c-0.8-2.3-2.3-4.3-4.3-5.6c-0.5-0.3-0.7-1-0.3-1.6c0.3-0.5,1-0.7,1.6-0.3
		c2.4,1.6,4.3,4,5.2,6.8c0.2,0.6-0.1,1.2-0.7,1.4C227.6,123,227.5,123,227.4,123z"/>
	<path class="st1" d="M247.6,130.3h-4.9c-0.6,0-1.1-0.5-1.1-1.1c0-0.6,0.5-1.1,1.1-1.1h4.9c0.6,0,1.1,0.5,1.1,1.1
		C248.7,129.8,248.2,130.3,247.6,130.3z"/>
	<path class="st1" d="M268.4,196.9c-0.3,0-0.5-0.1-0.7-0.3c-0.5-0.4-0.5-1.1-0.1-1.6l2.5-3c0.4-0.5,1.1-0.5,1.6-0.1s0.5,1.1,0.1,1.6
		l-2.5,3C269,196.8,268.7,196.9,268.4,196.9z"/>
	<path class="st1" d="M275.7,210.4c-0.1,0-0.3,0-0.4-0.1l-3.1-1.2c-0.6-0.2-0.9-0.9-0.6-1.5c0.2-0.6,0.9-0.9,1.5-0.6l3.1,1.2
		c0.6,0.2,0.9,0.9,0.6,1.5C276.6,210.1,276.2,210.4,275.7,210.4z"/>
	<path class="st1" d="M237.2,145.6c-0.6,0-1.1-0.5-1.1-1.1v-4.9c0-0.6,0.5-1.1,1.1-1.1s1.1,0.5,1.1,1.1v4.9
		C238.3,145.1,237.8,145.6,237.2,145.6z"/>
	<path class="st1" d="M233.1,118.2c0.2-1.6,0.4-3.3,0.6-4.9L233.1,118.2z"/>
	<path class="st1" d="M254.3,221.4c-0.1,0-0.2,0-0.3,0c-0.6-0.2-1-0.8-0.8-1.4l1.2-4.9c0.2-0.6,0.8-1,1.4-0.8c0.6,0.2,1,0.8,0.8,1.4
		l-1.2,4.9C255.3,221,254.9,221.4,254.3,221.4z"/>
	<path class="st1" d="M256.2,195.1c-0.4,0-0.8-0.2-1-0.6l-1.1-1.9c-0.3-0.5-0.1-1.2,0.4-1.5s1.2-0.1,1.5,0.4l1.1,1.9
		c0.3,0.5,0.1,1.2-0.4,1.5C256.6,195,256.4,195.1,256.2,195.1z"/>
	<path class="st1" d="M267,221.8c-0.5,0-1-0.3-1.1-0.8l-1.2-4.5c-0.2-0.6,0.2-1.2,0.8-1.4s1.2,0.2,1.4,0.8l1.2,4.5
		c0.2,0.6-0.2,1.2-0.8,1.4C267.2,221.8,267.1,221.8,267,221.8z"/>
	<path class="st2" d="M237.8,128c0-0.1,0-0.3,0-0.4c-0.1-0.3-0.2-0.6-0.4-0.9c-1.4-2.4-4.8-3.5-7.3-2.3c-1.1,0.5-2,1.5-2.5,2.6
		c0,0.2-0.1,0.4-0.1,0.5C232.1,122.1,237.4,126.7,237.8,128z"/>
	<path class="st3" d="M290.5,214.8c2.1-0.7,3.6-2.7,3.7-4.9s-1.3-4.3-3.3-5.1c-3.1-1.3-7.2,1.3-7.3,4.7
		C283.4,213,287.2,215.9,290.5,214.8z"/>
	<path class="st3" d="M352.5,131.3c-3.1-0.2-5.4,2.5-7.6,4.7c-2.7,2.8-5.8,5.2-9.2,7c-1.4,0.8-2.9,1.5-4,2.6c-1.1,1.2-1.6,3-0.7,4.4
		c0.9,1.5,3,1.7,4.8,1.7c4.9,0,9.9-0.3,14.3-2.5s7.9-6.6,7.7-11.5C357.7,134.8,355.6,131.5,352.5,131.3z"/>
	<path class="st3" d="M261.4,283.8c-0.7,4-1.3,8.1-1.9,12.1c-0.2,1.1-0.3,2.4,0.5,3.2c1,1.1,2.8,0.5,4.1-0.2
		c4.4-2.4,8-6.1,10.2-10.5c1.5-3.1,2.4-6.7,1.4-9.9c-1-3.3-4.5-5.9-7.8-5.1C263.6,274.4,262.1,279.4,261.4,283.8z"/>
	<path class="st3" d="M319.6,163.1c-4.2-0.7-8.7,2-9.9,6s0.9,8.8,4.7,10.6C314.2,173.9,316,167.9,319.6,163.1z"/>
	<path class="st3" d="M265.2,150.8c-1.2-4.4-4.9-7.7-9.1-9.6c-2.1-1-4.8-1.5-6.3,0.2c-0.7,0.8-0.9,1.9-1.1,3
		c-0.1,0.9-0.2,1.8-0.3,2.7c3.3-1,7-0.9,10.2,0.3c2.7,1.1,5.1,2.9,6.9,5.3C265.4,151.9,265.3,151.3,265.2,150.8z"/>
	<path class="st3" d="M260.6,237.8c1,2.1,3.4,3.2,4.8,5.1c2.1,2.7,2,6.5,2.3,9.9c0.3,3.5-0.4,4.1,2.9,5.3c-1-6.6,1.3-10,3.3-16.4
		c0.7-2.3,1.6-4.5,1.9-6.9c0.3-2.4-0.1-4.9-1.7-6.7c-1.8-2-4.8-2.6-7.3-1.8s-4.5,2.9-5.7,5.3C260.1,233.4,259.7,235.8,260.6,237.8z"
		/>
	<path class="st3" d="M294.8,172.9c-2-3.3-6.1-4.5-9.9-5.4c-4-1-8.4-1.9-12,0.1c-2.4,1.4-3.9,3.8-5,6.4c3.9-2.8,8.9-3.9,13.7-3.6
		c5,0.4,9.8,2.2,14.1,4.9C295.5,174.5,295.2,173.8,294.8,172.9z"/>
	<path class="st3" d="M385.3,222c-1.7,1.4-1.4,4.5,0.5,5.6c1.9,1,4.7-0.5,4.9-2.7c0.2-2.2-2.3-4.2-4.4-3.5L385.3,222z"/>
	<path class="st3" d="M375.2,238c0.4,1.9,2.1,3.4,4,3.7s3.9-0.6,4.9-2.2c1.7-2.7-0.2-6.9-3.4-7.4C377.6,231.6,374.4,234.9,375.2,238
		z"/>
	<path class="st3" d="M327.5,191.3c1.4-2.1,1.6-5,0.5-7.3c-2.5-1.8-6.7,0.1-6.9,3.2C320.9,190.3,324.8,192.8,327.5,191.3z"/>
	<path class="st3" d="M297.9,221.3c-0.4,2,1.2,4.2,3.2,4.5c2.9,0.4,5.3-3.6,3.5-6C303,217.4,298.5,218.4,297.9,221.3z"/>
	<path class="st1" d="M240.6,251.3c-0.5,0.9-0.9,2-0.4,2.9c0.4,0.7,1.4,1,2.2,1.2c4.2,1.1,8.5,2.1,12.7,3.2c2.1-2.2,2.4-5.9,0.7-8.5
		c-1.6-2.6-4.9-4-7.9-3.7C245,246.8,242.2,248.8,240.6,251.3z"/>
	<path class="st1" d="M315.5,234.1c1.3-0.4,2-2.2,1.3-3.4s-2.6-1.5-3.6-0.6s-0.9,2.8,0.2,3.7C314.1,234.1,314.8,234.3,315.5,234.1z"
		/>
	<path class="st1" d="M357.3,276.8c0,3.3,2.1,6.7,5.2,7.7c3.2,1,7.1-0.8,7.9-4c0.4-1.7,0-3.5-0.9-5c-1.8-3.1-5.8-4.7-9.2-3.6
		C356.9,272.9,357.3,273.1,357.3,276.8z"/>
	<path class="st1" d="M370.1,108.6c-1.2,0.1-2.4,0.8-3.2,1.7c-0.7,0.8-1.1,1.9-1.2,2.9c-0.3,2.5,1,5.1,3,6.6
		c2.2,1.8,5.6,2.3,7.8,0.5c1.6-1.3,2.2-3.6,1.7-5.6s-1.9-3.7-3.6-4.9C373.3,109.1,371.7,108.4,370.1,108.6z"/>
	<path class="st3" d="M360,118.1c0.6-1,0.1-2.2-0.7-3c-0.8-0.7-1.9-1.1-3-1.4c-1.5-0.4-3.4-0.5-4,0.9c-0.4,0.8,0,1.7,0.6,2.4
		c0.6,0.6,1.4,1,2.2,1.4c0.8,0.4,1.7,0.8,2.6,0.8C358.5,119.2,359.5,118.8,360,118.1z"/>
	<path class="st3" d="M366.3,129.5c0.8,0.6,1.9,0.7,2.7,0.2c0.8-0.5,1.3-1.5,1.1-2.5c-0.2-1.1-1.2-1.9-2.3-2c-1.1,0-2.1,0.8-2.4,1.8
		C365.3,127.9,365.6,128.9,366.3,129.5z"/>
	<path class="st3" d="M270.5,154.8c-2.2,1.1-2.6,4.6-0.7,6.1c1.3,1.1,3.5,1,4.7-0.2c1.2-1.2,1.5-3.3,0.5-4.7
		C274.1,154.5,272,153.9,270.5,154.8z"/>
	<path class="st1" d="M183.7,159.8c-4.5,12.9-6.7,26.6-6.7,40.2c0,25.3,7.7,48.9,20.8,68.5c5.5-1.5,10.8-4.2,15.8-7
		c7.4-4.1,14.9-8.2,21.2-13.8c6.3-5.7,11.3-13.1,12.4-21.5c1.4-10.7-3.1-23.4,4.2-31.3c3.2-3.5,8.2-5.1,10.7-9.5
		c0.9-1.6,1.3-3.5,0.8-5.3c-1.6-5.3-8.4-4.9-13-7.4c-3.9-2.2-5.9-6.5-7.4-10.6c-1.6-4.1-3-8.5-6.4-11.4c-3.3-2.9-9.2-3.4-11.7,0.3
		c0-0.2-0.1-0.5-0.1-0.7c-0.8-5.2-5.1-9-10.3-9.8c-3.1-0.4-6.1-1.9-8.3-4.2c-2.4-2.4-3.9-5.4-5.1-8.7c-3.2,4.3-6.1,8.9-8.6,13.6
		C188.7,147.2,185.9,153.4,183.7,159.8z"/>
	<path class="st3" d="M290.8,228.9c-0.3,0-0.7-0.1-0.9-0.4c-0.4-0.5-0.3-1.2,0.2-1.5l3.6-2.7c0.5-0.4,1.2-0.3,1.5,0.2
		c0.4,0.5,0.3,1.2-0.2,1.5l-3.6,2.7C291.3,228.8,291,228.9,290.8,228.9z"/>
	<path class="st3" d="M307.9,229.9c-0.4,0-0.8-0.2-1-0.6l-1.3-2.7c-0.3-0.5-0.1-1.2,0.5-1.5c0.5-0.3,1.2-0.1,1.5,0.5l1.3,2.7
		c0.3,0.5,0.1,1.2-0.5,1.5C308.3,229.8,308.1,229.9,307.9,229.9z"/>
	<path class="st3" d="M305.7,217.8c-0.1,0-0.1,0-0.2,0c-0.4-0.1-0.7-0.4-0.8-0.8c-0.3-1.2,0.6-1.9,1.2-2.3l0.8-1
		c0.3-0.3,0.7-0.5,1.1-0.4s0.7,0.4,0.8,0.8c0.3,1.2-0.6,1.9-1.2,2.3l-0.8,1C306.3,217.6,306,217.8,305.7,217.8z"/>
	<path class="st3" d="M369,244c-0.4,0-0.8-0.2-1-0.7c-0.2-0.6,0-1.2,0.6-1.4l3.5-1.5c0.6-0.2,1.2,0,1.4,0.6c0.2,0.6,0,1.2-0.6,1.4
		l-3.5,1.5C369.3,244,369.1,244,369,244z"/>
	<path class="st3" d="M373.3,233.5c-0.4,0-0.7-0.2-0.9-0.5l-0.8-1.2c-0.4-0.3-1-0.8-1.2-1.9c-0.1-0.5,0.2-1,0.7-1.2s1,0,1.3,0.4
		l0.8,1.2c0.4,0.3,0.9,0.7,1.1,1.6c0.1,0.2,0.1,0.3,0.1,0.5C374.4,233,373.9,233.5,373.3,233.5L373.3,233.5z"/>
	<path class="st3" d="M384.5,233c-0.2,0-0.3,0-0.5-0.1c-0.5-0.3-0.7-0.9-0.5-1.5c0.7-1.3,1.9-2.4,3.3-2.8c0.6-0.2,1.2,0.2,1.4,0.7
		c0.2,0.6-0.2,1.2-0.7,1.4c-0.9,0.3-1.6,0.9-2,1.7C385.3,232.8,384.9,233,384.5,233z"/>
	<path class="st3" d="M375.9,250.5h-0.1c-0.6-0.1-1-0.6-1-1.2l0.4-4c0.1-0.6,0.6-1,1.2-1c0.6,0.1,1,0.6,1,1.2l-0.4,4
		C377,250.1,376.5,250.5,375.9,250.5z"/>
	<path class="st1" d="M279.7,267.5c-1.7,0.8-1.6,3.7,0,4.7s3.9,0.3,5.1-1.2c1.2-1.5,1.3-3.6,0.9-5.5c-1.6-1.6-4.8-0.9-5.5,1.3
		L279.7,267.5z"/>
	<path class="st3" d="M342.2,210.8c5.2-5.2,12.9-6.8,20.2-7.1c2.9-0.1,6,0,8.4,1.5c2.5,1.5,4.1,4.8,2.7,7.4
		c-7.7,1.9-14.6,6.9-18.7,13.7s-5.4,15.2-3.6,22.9c0.5,1.9,1.1,3.8,0.8,5.7c-0.3,1.9-2.1,3.7-3.9,3.3c-1.5-0.3-2.4-1.8-3.1-3.2
		c-3.7-7-7.4-14.2-8.6-22C335,225,336.5,216.3,342.2,210.8z"/>
	<path class="st4" d="M202.8,124.9c33.3-42.2,94.1-51.5,138.4-20.2c45.7,32.3,56.4,95.6,24,141.4s-95.8,56.7-141.5,24.4
		c-44.3-31.3-55.7-91.7-26.9-137.1c-35.7,55.1-22,128.9,32,167c55.4,39.2,132.2,25.9,171.5-29.6s26.3-132.2-29.1-171.4
		C317.2,61.3,243,72.9,202.8,124.9z"/>
	<path class="st5" d="M367.6,264.5c-39.5,42-101,51.3-150.1,26.8c49.4,44.8,126.2,41.9,172.2-7c46.4-49.2,43.9-126.3-5.5-172.2
		c-0.5-0.5-1.1-1-1.7-1.5C412.7,158,408.1,221.4,367.6,264.5z"/>
	<g>
		<path class="st3" d="M224,296.8c3.6-6.2,2.4-14.6-1.8-20.5c-4.6-6.4-12-10.2-19.5-12.4c-3-0.9-6.1-1.5-9.2-2.1
			C201.5,275.2,211.8,287.1,224,296.8z"/>
		<path class="st3" d="M203.8,242c11.9-3.6,20.9-13.4,27.7-23.7c4.2-6.4,7.9-13.6,8.3-21.3c0.6-12.8-8.3-24.4-19.2-31.2
			c-5.7-3.6-12.1-6.2-17.4-10.5c-5.2-4.3-9.2-11.1-7.6-17.7c-1,0.7-2,1.4-2.9,2.2c-0.3,0.5-0.5,0.9-0.8,1.4
			c-3.2,5.9-6,12.1-8.2,18.5c-4.5,12.9-6.7,26.6-6.7,40.2c0,14.3,2.5,28,7,40.8C190.1,243.4,197.4,243.9,203.8,242z"/>
		<path class="st3" d="M402.5,146.8c-1.2,8.9-6,17.3-13.1,22.8c-4.3,3.3-9.4,5.7-13.1,9.7c-3.6,4.1-5.1,10.9-1.2,14.7
			c3,3,8.4,3.1,10.7,6.7c1.5,2.3,1.3,5.4,2.3,8c1.4,3.8,5.5,6.2,9.5,6.6c4,0.4,8.1-0.9,11.7-2.7c5.1-2.5,9.7-6,13.5-10.2
			c0-0.8,0.1-1.6,0.1-2.4c0-23.3-6.5-45.1-17.7-63.7C403.3,139,403,143.2,402.5,146.8z"/>
		<path class="st3" d="M272.2,313.4c-1.7,1.6-2.7,3.5-3.1,5.7c2.4,0.6,4.9,1.2,7.4,1.7L272.2,313.4z"/>
		<path class="st3" d="M387.6,286.2c-1.1-1.1-2.5-2-4-2.4c-4.4-1.2-9,1-12.5,3.8c-3.6,2.8-6.6,6.3-10.7,8.4
			c-8.6,4.5-19.1,1.3-28.4-1.5s-20.3-5-28.1,0.8c-5.4,4-7.7,10.8-10.6,16.9c-1.8,3.7-4.2,7.4-7.4,9.9c4.6,0.5,9.3,0.8,14,0.8
			C334.3,322.9,365.3,308.9,387.6,286.2z"/>
	</g>
	<path class="st6" d="M191.9,141.3c-3.2,5.9-6,12.1-8.2,18.5c-4.5,12.9-6.7,26.6-6.7,40.2c0,18.1,4,35.3,11,50.8
		c44,11.6,89-2.8,122.4-38.2c34.2-36.3,46.6-85.1,30.4-128.7C328,79.4,314.3,77,300,77C255.3,77,213.2,102.1,191.9,141.3z"/>
	<g>
		<g>
			<defs>
				<filter id="Adobe_OpacityMaskFilter" filterUnits="userSpaceOnUse" x="187.3" y="91.6" width="146.4" height="144.9">
					<feColorMatrix  type="matrix" values="1 0 0 0 0  0 1 0 0 0  0 0 1 0 0  0 0 0 1 0"/>
				</filter>
			</defs>
			<mask maskUnits="userSpaceOnUse" x="187.3" y="91.6" width="146.4" height="144.9" id="SVGID_1_">
				<g class="st7">
					<g>
						<defs>
							<polygon id="SVGID_00000013171895793183843950000011170007735886931078_" points="33.7,17.1 34.7,17.1 33.7,18.1 							"/>
						</defs>
						<defs>
							<polygon id="SVGID_00000064338515000003763640000011529436691614404018_" points="31.7,15.1 30.7,15.1 31.7,14.1 							"/>
						</defs>
						<clipPath id="SVGID_00000133527901815456380610000007035559231233981578_">
							<use xlink:href="#SVGID_00000013171895793183843950000011170007735886931078_"  style="overflow:visible;"/>
						</clipPath>
						
							<clipPath id="SVGID_00000058549778163917443490000002268409802940591763_" style="clip-path:url(#SVGID_00000133527901815456380610000007035559231233981578_);">
							<use xlink:href="#SVGID_00000064338515000003763640000011529436691614404018_"  style="overflow:visible;"/>
						</clipPath>
						
							<radialGradient id="SVGID_00000100383195040060615780000009349097100965308590_" cx="-66.5915" cy="670.3361" r="133.3755" gradientTransform="matrix(2.820000e-02 -0.8848 -0.9116 0.1621 841.5682 -33.8278)" gradientUnits="userSpaceOnUse">
							<stop  offset="0.2253" style="stop-color:#F4F4F4"/>
							<stop  offset="0.668" style="stop-color:#515151"/>
							<stop  offset="1" style="stop-color:#000000"/>
						</radialGradient>
						
							<path style="clip-path:url(#SVGID_00000058549778163917443490000002268409802940591763_);fill:url(#SVGID_00000100383195040060615780000009349097100965308590_);" d="
							M215.9,117.5c31-29.8,80.6-35.6,106.6-8.9s2.4,50.8-27.3,87.6c-24.4,30.3-66.2,55.6-92.2,28.9
							C176.9,198.4,184.8,147.2,215.9,117.5z"/>
					</g>
				</g>
			</mask>
			
				<radialGradient id="SVGID_00000140007031026970490120000011810793238186534020_" cx="-66.5915" cy="670.3361" r="133.3755" gradientTransform="matrix(2.820000e-02 -0.8848 -0.9116 0.1621 841.5682 -33.8278)" gradientUnits="userSpaceOnUse">
				<stop  offset="0.2253" style="stop-color:#F4F4F4"/>
				<stop  offset="0.668" style="stop-color:#515151"/>
				<stop  offset="1" style="stop-color:#000000"/>
			</radialGradient>
			<path style="mask:url(#SVGID_1_);fill:url(#SVGID_00000140007031026970490120000011810793238186534020_);" d="M215.9,117.5
				c31-29.8,80.6-35.6,106.6-8.9s2.4,50.8-27.3,87.6c-24.4,30.3-66.2,55.6-92.2,28.9C176.9,198.4,184.8,147.2,215.9,117.5z"/>
		</g>
	</g>
	
		<radialGradient id="SVGID_00000175280376554400935580000010120190895927609216_" cx="-66.5915" cy="670.3361" r="133.3755" gradientTransform="matrix(2.820000e-02 -0.8848 -0.9116 0.1621 841.5682 -33.8278)" gradientUnits="userSpaceOnUse">
		<stop  offset="0.2253" style="stop-color:#FDF5F6"/>
		<stop  offset="0.668" style="stop-color:#F7EBC2"/>
		<stop  offset="1" style="stop-color:#F3F9F7"/>
	</radialGradient>
	<path style="opacity:0.57;fill:url(#SVGID_00000175280376554400935580000010120190895927609216_);enable-background:new    ;" d="
		M215.9,117.5c31-29.8,80.6-35.6,106.6-8.9s2.4,50.8-27.3,87.6c-24.4,30.3-66.2,55.6-92.2,28.9C176.9,198.4,184.8,147.2,215.9,117.5
		z"/>
	<path class="st12" d="M373.9,101.8c-5.1-3.8-10.5-7.3-16.3-10.3c-11.9-6.3-24.3-10.4-36.8-12.6c0,0,0,0-0.1,0
		c-1.2-0.2-2.4-0.4-3.6-0.6c-1.1-0.2-2.2-0.3-3.3-0.4c-0.9-0.1-1.8-0.2-2.7-0.3c-1.4-0.1-2.8-0.2-4.2-0.3c-0.3,0-0.6,0-0.9-0.1
		c-2-0.1-3.9-0.1-5.9-0.1c-0.1,0-0.2,0-0.3,0c-16.9,0-33.3,3.6-48.5,10.2c31.9-12.5,68.9-11.6,101.5,5.7
		c59.1,31.3,81.4,104.4,49.8,163.2S297.5,337.3,238.4,306c-3.4-1.8-6.6-3.7-9.8-5.8c8.3,5.9,17.3,10.8,26.9,14.5
		c57.3,21.6,123.2-1.9,152.8-57.1c7.9-14.8,12.5-30.4,14-46.1c0.1-1.1,0.2-2.1,0.2-3.2c0.1-0.8,0.1-1.6,0.2-2.4
		c0.1-2,0.1-3.9,0.1-5.9C423,159.8,403.7,124.2,373.9,101.8z"/>
</g>
</svg>
