<?xml version="1.0" encoding="utf-8"?>
<!-- Generator: Adobe Illustrator 27.8.0, SVG Export Plug-In . SVG Version: 6.00 Build 0)  -->
<svg version="1.1" id="Layer_2_00000002371606707390925540000002678085774894271647_"
	 xmlns="http://www.w3.org/2000/svg" xmlns:xlink="http://www.w3.org/1999/xlink" x="0px" y="0px" viewBox="0 0 600 400"
	 style="enable-background:new 0 0 600 400;" xml:space="preserve">
<style type="text/css">
	.st0{fill:#EA490C;}
	.st1{fill:#D52B0C;}
	.st2{fill:#A6000A;}
	.st3{fill:#B4000C;}
	.st4{fill:#CC000C;}
	.st5{fill:#D40D00;}
	.st6{fill:#CB1C00;}
	.st7{fill:#E24100;}
	.st8{fill:#FF5900;}
	.st9{opacity:0.15;fill:#FFFFFF;enable-background:new    ;}
	.st10{filter:url(#Adobe_OpacityMaskFilter);}
	.st11{clip-path:url(#SVGID_00000011018230882405139670000005599322048482403213_);}
	
		.st12{clip-path:url(#SVGID_00000128467449897644445550000006718241309397654696_);fill:url(#SVGID_00000041282120078847624010000014748985140976284592_);}
	.st13{mask:url(#SVGID_1_);fill:url(#SVGID_00000021803550506906211030000011629751801012830609_);}
	.st14{opacity:0.49;fill:url(#SVGID_00000142149486908006249850000006952222839931762832_);enable-background:new    ;}
	.st15{opacity:0.24;fill:#FFFFFF;enable-background:new    ;}
</style>
<g>
	<ellipse class="st0" cx="300" cy="200" rx="123" ry="122.9"/>
	<path class="st1" d="M207.3,119.4c35.6-40.3,96.8-46.1,139.3-12.3c43.8,34.9,50.9,98.7,16,142.6S263.8,300.9,220,266
		c-42.4-33.8-50.5-94.8-19.1-138.4c-38.7,53-29.2,127.4,22.5,168.6c53.1,42.3,130.5,33.4,172.8-19.7
		c42.4-53.2,33.7-130.5-19.3-172.8C325,62.6,250.3,69.9,207.3,119.4z"/>
	<path class="st2" d="M367.5,264.1c-39.6,42.3-101.5,51.2-150.9,26.5c49.7,45.1,126.9,42.5,173.1-6.6
		c46.6-49.4,43.7-127.9-5.9-174.1c-0.5-0.5-0.8,0-1.3-0.5C412,156.4,408,220.8,367.5,264.1z"/>
	<path class="st3" d="M314.8,211.9c-4.3,0-8.6,0.7-12.6,2.1c-3.6,1.2-7.7,3-11.1,1.3c-0.8-0.4-1.5-0.9-2.1-1.5
		c0.7-1.4,1.3-2.8,1.7-4.2c1.4-4.5,0.2-10.5-4.3-12.1c-4.4-1.5-8.7,2.1-12.8,4.4c-7.2,4-16.6,3.8-23.6-0.4
		c-7.1-4.2-11.6-12.4-11.4-20.7c0.1-4.7,0.9-10.8-3.3-12.9c-3.8-1.8-8,1.7-10.3,5.3c-2.2,3.6-4.2,8-8.2,9.2
		c-3.8,1.1-7.9-1.2-10.1-4.5c-2.2-3.3-2.8-7.3-3.4-11.2c-0.7-4.4-1.4-9-0.2-13.3c1.1-4.3,3.9-7.9,6.5-11.5s5.2-7.4,5.7-11.8
		c0.6-4.4-1.5-9.5-5.8-10.8l0.4-2.7c-17.2,18.6-28.8,42.4-31.9,68.9c-0.4,5-0.7,10.1-0.7,15.2c0,38.7,18.1,73.1,46.2,95.6
		c0.4,0.3,0.8,0.7,1.2,1c0.8,0.6,1.5,1.2,2.3,1.8c1.4,1,2.7,2,4.1,2.9c0.1,0.1,0.3,0.2,0.4,0.3c4.3,2.9,8.8,5.5,13.5,7.9
		c1.1-0.6,2-1.1,3.1-1.8c3.3-2,6.6-5.3,5.9-9.1c-0.4-2.5-2.5-4.3-3.4-6.7c-1.2-3.3,0-6.9,0.5-10.3c0.5-3.5-0.2-7.7-3.4-9.1
		c-5.3-2.3-7.2,3.8-10.9,6c-5.8,3.4-14.5-3-17.9-7.4c-5.8-7.5-8-17.6-6.2-26.9c1.8-9.3,6.4-11.9,15.9-12.5
		c6.3-0.4,12.3,2.4,17.8,5.6c5.7,3.3,10.8,6.7,17.3,7.5l0.4,0.9c2.4,0.5,5,0.5,7.4,0.1c4.8,0.6,9.6,0.9,13.4-2.9
		c3.4-3.4,3.9-8.7,6.9-12.4c6-7.4,18.6-5.1,25.8-11.4c1.8-1.6,3.1-4.3,1.7-6.2C318.1,212.1,316.4,211.9,314.8,211.9z"/>
	<path class="st4" d="M388.8,174c2.8-1.9,7.5-1.9,9,1.2c1.3,2.5,0.4,6.6,3.1,7.7c1.4,0.6,3.1-0.3,4-1.5c0.9-1.3,1.1-2.8,1.3-4.4
		c0.7-4.6,1.4-9.3,2.1-13.9c2.2,0,3.3,2.6,3.9,4.8c0.6,2.1,1.8,4.7,4.1,4.6c0.5,0,0.9-0.2,1.3-0.5c-5.4-22.1-16.8-41.9-32.3-57.5
		c2.1,4.8,4,9.6,5.3,14.7c2.1,8.1,2.4,16.9-0.6,24.8c-3.3,8.9-10.7,16.2-14.3,24.6c-1.7,3.8,3.5,6.9,6.2,3.7
		c0.1-0.1,0.2-0.3,0.3-0.4C384.3,179.1,386,175.9,388.8,174z"/>
	<path class="st5" d="M298.2,78.2c-6.6,0-13,0.5-19.3,1.5c4.9,0.2,9.7,1.2,13.7,3.8c5.9,3.9,9.3,12.2,5.6,18.3
		c-1.4,2.4-3.8,4.1-5.6,6.2c-1.8,2.1-3.1,5.1-2,7.7c1.7,4.2,8.1,4.2,10.9,7.7c2.6,3.4,1.1,8.2-0.5,12.2s-3.1,8.9-0.3,12.2
		c2.3,2.7,6.8,2.7,9.9,1s5.3-4.8,7.4-7.7c0.6,4.1,1.2,8.4,3.9,11.5c2.6,3.2,7.9,4.5,10.9,1.7c2.4-2.3,2.8-6.8,6-7.8
		c1.3-0.5,2.8-0.1,4.2-0.1c5.4,0.1,9.8-4.2,13-8.5c6.6-8.9,11-19.4,12.8-30.3c0.4-2.2,0.6-4.4,0.7-6.6
		C349.3,86.6,324.7,78.2,298.2,78.2z"/>
	<path class="st4" d="M204.2,252.8c-1.4,0.6-3,0.3-4.4-0.2c-8.5-2.9-12.3-12.8-13.2-21.7s-0.2-18.3-4-26.4c-1.1-2.3-2.5-4.5-3.2-6.9
		c-1-3.6-0.3-7.5,0.4-11.1c1.4-7.1,2.7-14.1,4.1-21.2c0.4-2.2,1.2-4.8,3.4-5.4c3-0.9,5.2,2.9,5.6,6c0.9,6.7-0.7,13.7,1.5,20.1
		c3.2,9.2,15.1,14.2,23.9,10.1c-1.1,1.2-0.1,3.3,1.4,3.8s3.2,0,4.6-0.6c1.5-0.6,3-1.3,4.6-1.1c2.3,0.3,4,2.5,4.9,4.7
		s1.3,4.6,2.5,6.6c2.7,4.3,8.2,5.5,13,7.2s10,5.6,9.2,10.6c-0.4,2.7-2.7,5-5.4,5.9c-2.6,0.9-5.5,0.7-8.2,0.1
		c-6.3-1.5-11.9-5.1-18-7.1c-6.2-2-13.9-1.7-17.9,3.4c-2.7,3.5-3,8.4-2.3,12.8c0.3,1.9,0.7,3.8,0.5,5.7
		C207,250.1,206,252.1,204.2,252.8z"/>
	<path class="st6" d="M371.3,134.4c2.3,7.4-6,14.8-4.6,22.4c0.3,1.8,1.2,3.5,2.8,4.4c2.7,1.6,6.3,0.1,8.7-2
		c4.5-3.9,7.2-9.8,7.5-15.7c0.4-6-1.5-12-4.8-16.9c-1.5-2.3-3.4-4.5-6-5.3s-5.9,0.2-6.9,2.7c-0.7,1.7-0.1,3.7,0.8,5.4
		C369.6,131.1,370.7,132.6,371.3,134.4z"/>
	<path class="st7" d="M387.8,190.7c-1.1-2.9-4.4-5.1-7.3-4c-3,1.1-3.9,4.8-4.8,7.8c-1.5,4.8-4,9.2-7.4,13c-1.1,1.2-2.4,2.4-4,3
		s-3.6,0.3-4.6-1c-1.9-2.2-0.2-5.5,1.4-7.9c4.4-6.6,7.9-13.7,10.5-21.2c0.7-1.9,1.3-3.9,1.1-5.9c-0.2-2-1.4-4-3.3-4.6
		c-2.8-0.9-5.7,1.8-6.6,4.6s-0.5,5.9-1.1,8.8l-1.6-0.8c-9.2,24.2-31.7,42.8-57.2,47.2c-2.4,0.4-4.9,0.8-6.6,2.5
		c-2,2.1-1.9,5.4-2.3,8.3c-1,7-5.8,13.4-12.3,16.2c-6.5,2.8-14.4,2-20.2-2.1c-3-2.2-6.4-5.3-9.9-4.1c-2.7,1-3.9,4.5-3,7.3
		c0.9,2.8,3.2,4.9,5.7,6.3c4.9,2.9,10.9,4.1,16.6,3.4c3.9-0.5,8.4-1.8,11.5,0.6c2.1,1.5,2.9,4.2,4.6,6.1c3,3.4,8.1,3.8,12.6,3.6
		c3.9-0.2,8-0.9,11.3-3.1s5.5-6.4,4.3-10.2c-0.6-2.2-2.3-4-2.7-6.2c-0.5-2.7,0.8-5.5,2.8-7.4s4.6-3,7.1-4.2c1.8-0.8,3.8-1.6,5.7-0.9
		c3,1.2,3.1,5.4,2.4,8.5s-1.5,7,0.9,9.1c2.5,2.2,6.4,0.9,9.3-0.7c23.9-12.9,41.6-36.7,47.2-63.2
		C388.4,196.8,388.9,193.6,387.8,190.7z"/>
	<path class="st8" d="M282.9,261.2c-4.7,2.8-10.9,2.9-15.6,0.1c-3.6-2.1-6.5-5.8-10.7-6.3c-1.1-0.1-2.3,0-3.3,0.6
		c-0.9,0.6-1.6,1.8-1.4,2.9c0.3,1.6,2.2,2.4,3.7,2.9c5.6,1.7,11.4,2.9,17.3,3.1c5.7,0.1,11.3-0.7,17-1.6c1.1-0.6,1-2.5,0-3.3
		s-2.5-0.8-3.7-0.3C285.1,259.7,284,260.5,282.9,261.2z"/>
	<path class="st8" d="M354,154.7c-6.7,5.4-11.8,12.6-14.5,20.8c-0.6,1.8-1,4,0.3,5.4c1.1,1.2,3.1,1.2,4.7,0.8c4.9-1.2,9-4.7,11.6-9
		c2.7-4.3,4.1-9.2,5-14.2c0.3-1.8,0.5-3.9-0.9-5C358.4,152,355.8,153.3,354,154.7z"/>
	<path class="st4" d="M315.8,78.1c6.5,9.9,6.5,24-0.9,33.4c-1.8,2.3-4,4.4-5,7.2c-0.9,2.8,0.1,6.5,2.9,7.2c4.9,1.3,8-7.2,13-6.7
		c3.5,0.3,5,4.7,4.5,8.2s-2.1,6.8-1.6,10.3s4.7,6.6,7.3,4.4c2.1-1.7,1.4-5,2.1-7.6c1.5-5.6,8.5-7.1,13.3-10.4
		c6.4-4.5,8.8-12.7,10.8-20.3c0.7-2.8,1.4-5.7,1.7-8.6C349.7,86.3,333.3,80.4,315.8,78.1z"/>
	<path class="st8" d="M251.4,189.7c-2,3,0.7,7.3,4.2,8.3c3.5,0.9,7.1-0.5,10.4-2.1c3.2-1.6,6.6-3.4,10.2-3.3c1.8,0,3.9,0.5,5.4-0.5
		c1.4-0.9,1.7-2.9,1.3-4.5c-0.5-1.6-1.7-2.9-2.9-3.9c-5.7-4.9-13.6-7-21-5.6c-3.9,0.8-7.9,2.7-9.9,6.2S247.9,187.7,251.4,189.7z"/>
	<path class="st8" d="M393.2,177.8c-2.7,1.1-2.3,5-1.7,7.9c2.2,10.8,0.3,22.4-5.2,32c-1.5,2.6-3.3,5.1-4.4,7.9
		c-1.1,2.8-1.6,6-0.4,8.8c0.5-0.1,1.1-0.1,1.6-0.2c4.6-7.7,9.1-15.4,12.3-23.8c3.2-8.3,5.1-17.4,3.9-26.3c-0.2-1.7-0.6-3.5-1.6-4.8
		C396.7,178,394.8,177.2,393.2,177.8z"/>
	<path class="st1" d="M327,265c0.4,3.2,0.3,6.6-1.3,9.4c-1.5,2.8-4.7,4.9-7.9,4.4c-0.6-0.1-1.1-0.3-1.5-0.7c-0.8-1,0.1-2.4,0.8-3.5
		c3.3-4.8,3-11.7-0.6-16.2c1.4-2.4,5-2.4,7.2-0.7C325.8,259.5,326.6,262.3,327,265z"/>
	<path class="st1" d="M297.6,196.9c-2.3,1.8-4,4.3-4.7,7.2c-0.5,1.7-0.4,3.9,1,4.9c1.1,0.8,2.7,0.7,4.1,0.5
		c6.1-0.8,12.5-1.7,17.5-5.3s7.9-10.9,4.7-16.2c-3.2-5.3-11.2-6-16.6-2.9S302.5,193.1,297.6,196.9z"/>
	<path class="st9" d="M177,200c0,18.2,4,35.5,11.1,51c43.9,11.5,88.9-2.9,122.1-38.3c34.3-36.4,46.7-85.1,30.3-128.8
		c-12.7-4.5-26.4-6.9-40.6-6.9C232.1,77.1,177,132.1,177,200z"/>
	<g>
		<g>
			<defs>
				<filter id="Adobe_OpacityMaskFilter" filterUnits="userSpaceOnUse" x="187.3" y="91.4" width="146.3" height="144.9">
					<feColorMatrix  type="matrix" values="1 0 0 0 0  0 1 0 0 0  0 0 1 0 0  0 0 0 1 0"/>
				</filter>
			</defs>
			<mask maskUnits="userSpaceOnUse" x="187.3" y="91.4" width="146.3" height="144.9" id="SVGID_1_">
				<g class="st10">
					<g>
						<defs>
							<polygon id="SVGID_00000081649748586567635520000011492354470874770572_" points="1,1 2,1 1,2 							"/>
						</defs>
						<defs>
							<polygon id="SVGID_00000153686186459725932870000002294552043825603499_" points="-1,-1 -2,-1 -1,-2 							"/>
						</defs>
						<clipPath id="SVGID_00000086693590654711701840000001158887519620549550_">
							<use xlink:href="#SVGID_00000081649748586567635520000011492354470874770572_"  style="overflow:visible;"/>
						</clipPath>
						
							<clipPath id="SVGID_00000173126733795169846540000000513022353985599663_" style="clip-path:url(#SVGID_00000086693590654711701840000001158887519620549550_);">
							<use xlink:href="#SVGID_00000153686186459725932870000002294552043825603499_"  style="overflow:visible;"/>
						</clipPath>
						
							<radialGradient id="SVGID_00000041974430124075642130000011846706273848652168_" cx="-66.664" cy="670.3844" r="133.3746" gradientTransform="matrix(2.820000e-02 -0.885 -0.9116 0.1621 841.5682 -34.0019)" gradientUnits="userSpaceOnUse">
							<stop  offset="0" style="stop-color:#FFFFFF"/>
							<stop  offset="0.7749" style="stop-color:#000000"/>
						</radialGradient>
						
							<path style="clip-path:url(#SVGID_00000173126733795169846540000000513022353985599663_);fill:url(#SVGID_00000041974430124075642130000011846706273848652168_);" d="
							M215.9,117.4c31-29.8,80.6-35.6,106.6-8.9s2.4,50.8-27.3,87.6C270.8,226.4,229,251.7,203,225S184.8,147.2,215.9,117.4z"/>
					</g>
				</g>
			</mask>
			
				<radialGradient id="SVGID_00000119087738812581029600000013019698055861763514_" cx="-66.664" cy="670.3844" r="133.3746" gradientTransform="matrix(2.820000e-02 -0.885 -0.9116 0.1621 841.5682 -34.0019)" gradientUnits="userSpaceOnUse">
				<stop  offset="0" style="stop-color:#FFFFFF"/>
				<stop  offset="0.7749" style="stop-color:#000000"/>
			</radialGradient>
			<path style="mask:url(#SVGID_1_);fill:url(#SVGID_00000119087738812581029600000013019698055861763514_);" d="M215.9,117.4
				c31-29.8,80.6-35.6,106.6-8.9s2.4,50.8-27.3,87.6C270.8,226.4,229,251.7,203,225S184.8,147.2,215.9,117.4z"/>
		</g>
	</g>
	
		<radialGradient id="SVGID_00000013882379736032744930000000941281754318674355_" cx="-66.664" cy="670.3844" r="133.3746" gradientTransform="matrix(2.820000e-02 -0.885 -0.9116 0.1621 841.5682 -34.0019)" gradientUnits="userSpaceOnUse">
		<stop  offset="0" style="stop-color:#FFFFFF"/>
		<stop  offset="0.7749" style="stop-color:#F3F9F7"/>
	</radialGradient>
	<path style="opacity:0.49;fill:url(#SVGID_00000013882379736032744930000000941281754318674355_);enable-background:new    ;" d="
		M215.9,117.4c31-29.8,80.6-35.6,106.6-8.9s2.4,50.8-27.3,87.6C270.8,226.4,229,251.7,203,225S184.8,147.2,215.9,117.4z"/>
	<path class="st15" d="M423,200c0-67.9-55-122.9-123-122.9c-8.8,0-17.3,0.9-25.5,2.7c26.1-4.7,53.9-1,79.2,12.4
		c59.6,31.6,82.2,105.2,50.4,164.3S298.2,338,238.6,306.4c-0.8-0.4-1.6-0.9-2.4-1.3c16,9.7,34.3,15.9,53.9,17.5
		c0.7,0.1,1.5,0.1,2.2,0.2c0.9,0.1,1.7,0.1,2.6,0.1c1.5,0.1,3,0.1,4.5,0.1c0.3,0,0.5,0,0.8,0C368,322.9,423,267.8,423,200z"/>
	<path class="st3" d="M260,291.4c4.1,0.2,7.3,3.3,10.6,5.7c6.5,4.9,14.4,7.9,22.5,8.6c0,0.9,0,1.8,0,2.7c-13.1,3-27,2-39.6-2.7
		c-5.1-1.9-10.7-5.8-10.1-11.2C248.6,296.9,254.2,291.1,260,291.4z"/>
</g>
</svg>
